<svg xmlns="http://www.w3.org/2000/svg" width="15" height="16" fill="none"><path fill="#E29F94" d="M11.477 15.846a7.722 7.722 0 0 1-1.94-.467c-1.51-.565-2.847-1.424-4.084-2.445-1.717-1.417-3.158-3.07-4.252-5.015C.652 6.943.236 5.915.031 4.806c-.062-.338-.042-.637.165-.933.68-.974 1.42-1.892 2.292-2.701.11-.102.236-.188.359-.273.151-.107.31-.094.45.017.112.09.22.192.303.309.689.97 1.318 1.975 1.835 3.048.032.066.05.137.083.201.153.29.07.525-.16.729-.327.287-.645.585-.985.857-.218.175-.237.348-.147.601.86 2.395 2.483 4.03 4.869 4.909.403.149.413.141.704-.174.239-.258.462-.53.691-.796.048-.055.1-.105.148-.16.196-.212.413-.265.691-.147.764.322 1.466.754 2.166 1.19.364.227.724.464 1.07.716.535.39.563.603.117 1.092a14.46 14.46 0 0 1-2.88 2.412c-.114.073-.248.11-.325.143zm-3.45-13.95V.826c1.687.017 3.184.545 4.466 1.632C14.13 3.845 14.94 5.632 15 7.784h-1.079c-.038-1.611-.594-3.008-1.734-4.15-1.141-1.14-2.537-1.7-4.16-1.738z"/><path fill="#E29F94" d="M8.033 4.577V3.526c2.281-.085 4.344 1.964 4.261 4.263h-1.05c-.03-.873-.326-1.64-.95-2.261-.62-.621-1.38-.922-2.26-.951z"/></svg>