<svg xmlns="http://www.w3.org/2000/svg" width="491" height="330" fill="none"><g opacity=".5"><mask id="a" width="491" height="331" x="0" y="0" maskUnits="userSpaceOnUse" style="mask-type:luminance"><path fill="#fff" d="M0 0h491v330.001H0V0z"/></mask><g mask="url(#a)"><g fill="#FADBD7" opacity=".7"><path d="M3.404-20.513c.288.515.537.924.812 1.366.268.435.543.851.818 1.274a93.23 93.23 0 0 0 1.696 2.475 101.871 101.871 0 0 0 3.6 4.732 118.094 118.094 0 0 0 7.896 8.798 125.183 125.183 0 0 0 8.668 7.946 121.32 121.32 0 0 0 9.335 7.089c3.215 2.21 6.508 4.296 9.905 6.19 1.676.984 3.418 1.855 5.133 2.76.858.455 1.741.85 2.612 1.28.877.415 1.742.858 2.632 1.234a140.875 140.875 0 0 0 21.826 7.748c.033.007.072-.013.079-.046.007-.033-.013-.073-.046-.08a140.426 140.426 0 0 1-21.257-8.896c-.864-.422-1.689-.91-2.533-1.366-.838-.469-1.69-.911-2.508-1.406-1.643-.983-3.306-1.94-4.903-2.996-3.234-2.046-6.357-4.27-9.375-6.607a117.438 117.438 0 0 1-8.72-7.418 121.53 121.53 0 0 1-7.98-8.171 113.678 113.678 0 0 1-7.13-8.877 96.312 96.312 0 0 1-3.175-4.686 98.67 98.67 0 0 1-1.46-2.403c-.23-.402-.465-.805-.68-1.207a26.698 26.698 0 0 1-.616-1.169l-.02-.04a2.606 2.606 0 0 0-3.509-1.18 2.645 2.645 0 0 0-1.172 3.537.71.71 0 0 1 .072.119z"/><path d="M97.447 40.293s-17.748 3.194-31.83-12.362c0 0 17.637-1.28 31.83 12.362zM54.442 22.882s13.977 4.653 27.123-10.131c0 0-19.908-3.769-27.123 10.131z"/><path d="M71.169 52.991s-18.18-12.21-16.727-30.11c0 0 19.98 13.491 16.727 30.11zm-21.663-5.907s-12.354-16.632-6.2-30.624c0 0 12.917 16.468 6.2 30.624zM36.472 36.57S21.715 21.398 27.738 4.397c0 .006 11.87 11.866 8.734 32.175zm-.354-25.152s14.776 6.158 31.87-8.263c-.007 0-14.92-6.356-31.87 8.263zM23.025-.232S41.25 6.27 56.85-8.872c0-.006-18.31-2.091-33.826 8.64zM-33.12 142.5c.537-.231.97-.435 1.434-.66.458-.217.904-.448 1.349-.673.89-.462 1.76-.937 2.625-1.419 1.728-.977 3.41-2.013 5.073-3.075a116.925 116.925 0 0 0 9.552-6.924 124.163 124.163 0 0 0 8.805-7.794c2.815-2.726 5.5-5.577 8.033-8.554 2.54-2.97 4.97-6.039 7.215-9.227 1.152-1.571 2.212-3.214 3.3-4.831.542-.812 1.033-1.65 1.55-2.475.505-.832 1.042-1.643 1.513-2.501a143.337 143.337 0 0 0 10.088-21.002c.013-.033-.006-.072-.039-.085-.033-.014-.072 0-.085.032a142.993 142.993 0 0 1-11.155 20.296c-.511.818-1.087 1.59-1.63 2.382-.557.785-1.087 1.584-1.663 2.356-1.16 1.538-2.285 3.089-3.503 4.574a123.199 123.199 0 0 1-7.568 8.653 120.705 120.705 0 0 1-8.288 7.907 121.22 121.22 0 0 1-8.95 7.075 114.202 114.202 0 0 1-9.55 6.144 97.298 97.298 0 0 1-4.976 2.654 90.01 90.01 0 0 1-2.534 1.194c-.425.185-.844.376-1.27.548-.412.178-.864.356-1.218.482l-.039.013a2.64 2.64 0 0 0-1.558 3.379c.498 1.366 1.997 2.073 3.352 1.571.046 0 .098-.02.137-.04z"/><path d="M37.375 55.123s1.152 18.137-15.758 30.499c0 0 .713-17.814 15.758-30.499zM15.384 96.247S21.538 82.77 8.445 67.94c0 0-5.95 19.516 6.94 28.307z"/><path d="M46.94 82.87S32.864 99.712 15.385 96.246c0 0 15.535-18.506 31.555-13.378zm-8.25 21.041s-17.78 10.507-30.88 2.772c-.007.006 17.676-11.089 30.88-2.772zm-11.83 11.88s-16.608 13.081-32.693 5.134c0 0 13.028-10.56 32.694-5.134zm-24.837-2.469s7.725-14.111-4.57-32.855c.007 0-7.934 14.23 4.57 32.855zm29.951 19.358c.098-.158.223-.277.354-.383a2.39 2.39 0 0 1 .229-.218c.21-.178.53-.29.818-.27.04-.013.072-.027.111-.04.799-.297 1.571.324 1.493 1.168-.046.515.026 1.063-.314 1.499a1.313 1.313 0 0 1-.603.422 4.294 4.294 0 0 1-.248.238c-.446.402-1.074.237-1.447-.146-.334-.211-.537-.62-.517-1.036v-.013c-.105-.409-.112-.825.124-1.221zm-5.375-1.03.02-.039c.072-.581.641-1.037 1.224-.944.406.059.792.29 1.126.515.13.092.268.191.373.31.425.488.301 1.293-.288 1.597-.268.139-.478.086-.746.066.006.007.013.007.02.013-.014-.006-.04-.006-.053-.013h-.026a.058.058 0 0 1-.04-.013c-.085-.02-.183-.027-.255-.046-.02-.007-.033-.014-.052-.02-.027.006-.053.013-.079.013-.53.04-1.093-.297-1.204-.825a.893.893 0 0 1-.02-.614zM120.956 8.302c.262-.264.537-.64.917-.726.17-.04.353-.033.536-.033.177-.072.361-.132.557-.138a.928.928 0 0 1 .897.653c.222.733-.511 1.24-1.1 1.465-.439.172-.831.198-1.296.165-.609-.04-.943-.95-.511-1.386zm-3.339-4.012a1.383 1.383 0 0 1 .112-.726c.314-.64.955-.746 1.59-.687.347.033.766.357.852.706.098.39.347.799.386 1.202.046.415-.131.798-.452 1.062-.17.145-.38.231-.563.363-.367.264-.825.363-1.224.093-.386-.251-.478-.68-.406-1.103a.927.927 0 0 1-.216-.33.912.912 0 0 1-.039-.376l-.04-.204zM15.732 40.913c.196-.409.3-.89.635-1.22.438-.436 1.04-.423 1.617-.49.556-.065 1.1.344 1.198.898h.006c.216.113.373.363.439.594.268.95-.334 1.802-1.192 2.112-.667.238-1.335.132-1.983-.105-.655-.244-1.028-1.142-.72-1.789zm-5.107-3.69c.262-.72 1.028-1.175 1.755-.752.091.053.183.119.268.178.301-.08.609-.119.904-.086.55.06 1.1.522.91 1.155-.118.211-.243.416-.36.627-.007.495-.354.977-.884.938-.06.032-.112.072-.177.099-.249.125-.51.19-.766.283-.727.278-1.434-.06-1.774-.739-.249-.515-.06-1.201.124-1.703zm4.812-2.963c0-.396.203-.739.478-1.056.262-.303.831-.37 1.159-.145.602.41.995 1.09.87 1.835-.104.62-.51.983-1.014 1.129-.105.237-.4.442-.59.118-.085-.006-.17-.02-.248-.026-.04-.013-.072-.04-.112-.053-.098-.02-.19-.04-.281-.066.026-.013.046-.026.072-.033-.602-.39-.7-1.162-.334-1.703z"/></g><path fill="#FADBD7" d="M161.297 28.043s-4.249-5.603-9.859-14.79c-5.48-8.983-1.748-19.048 2.553-20.678 0-.007 17.741 14.52 7.306 35.468zm14.913-14.315s-4.792 5.821-.478 12.963c4.314 7.14 11.195 14.638 10.429 20.73 0 0 6.376-9.9 2.769-18.414-3.607-8.514-12.72-15.279-12.72-15.279zm16.884 5.828s-2.854 9.807 4.209 17.576c7.064 7.761 6.894 17.536 6.894 17.536s6.651-7.656 4.38-18.46c-2.285-10.805-8.904-16.085-15.483-16.652zm2.717-9.544s1.735 10.62 11.869 12.164c10.134 1.537 14.684 4.224 16.641 7.933 0 0-7.62-28.657-28.51-20.097zM175.339-7.135s3.739 8.131 13.192 6.646c9.453-1.491 15.457-1.802 19.732 1.776 0 0-15.385-26.242-32.924-8.422z"/><path fill="#E39F96" d="M137.133-29.919c4.308 6.587 9.29 12.732 14.665 18.494 5.381 5.762 11.26 11.088 17.695 15.708 3.274 2.264 6.586 4.31 9.866 6.441 3.293 2.106 6.54 4.257 9.683 6.541l1.171.865 1.133.904c.766.594 1.48 1.24 2.206 1.874.373.31.714.654 1.048.99.34.343.694.673 1.021 1.023.628.726 1.29 1.426 1.846 2.218 2.39 3.036 3.823 6.745 5.008 10.494-.399-1.927-.818-3.868-1.525-5.729l-.249-.706c-.091-.231-.196-.456-.294-.686-.203-.456-.4-.918-.616-1.367-.478-.878-.929-1.775-1.506-2.594-2.193-3.379-5.204-6.098-8.275-8.566-3.083-2.482-6.343-4.686-9.59-6.897-3.261-2.185-6.599-4.27-9.748-6.488-3.149-2.257-6.22-4.64-9.146-7.207-2.979-2.508-5.787-5.214-8.589-7.934a233.296 233.296 0 0 1-15.804-17.378z"/><path fill="#E39F96" d="M157.068 10.328c-.027-2.052-.171-4.098-.367-6.144-.21-2.046-.471-4.086-.864-6.105-.4-2.02-.845-4.04-1.519-6.006-.668-1.967-1.486-3.9-2.651-5.69a.634.634 0 0 0-.884-.184.645.645 0 0 0-.184.89c.007.007.014.02.02.027l.013.013c1.159 1.59 2.043 3.4 2.796 5.274.759 1.874 1.296 3.84 1.8 5.814.491 1.98.858 3.993 1.172 6.013.288 2.02.53 4.052.668 6.098zm27.005 2.449c.307-.37.818-.746 1.283-1.069l.759-.442c.262-.132.537-.244.805-.363.262-.132.557-.205.838-.297.288-.08.563-.205.858-.244.589-.1 1.172-.271 1.774-.284.602-.04 1.205-.119 1.813-.066.609.04 1.218 0 1.82.125.603.093 1.212.165 1.814.277l1.787.45c.602.125 1.179.362 1.761.56.583.211 1.172.39 1.748.627l1.696.76c.563.257 1.145.488 1.682.798 1.087.607 2.206 1.148 3.267 1.808l3.169 1.993-3.084-2.131c-1.034-.7-2.134-1.3-3.201-1.954-.53-.337-1.1-.594-1.657-.878l-1.682-.838c-.57-.264-1.159-.475-1.741-.713-.59-.224-1.159-.495-1.775-.647l-1.813-.534c-.615-.145-1.244-.244-1.866-.37-.622-.152-1.263-.145-1.892-.211-.635-.08-1.276-.033-1.918-.013-.642-.013-1.277.138-1.918.218-.321.033-.629.151-.949.224-.315.092-.635.152-.937.29-.301.126-.615.231-.916.37l-.877.462c-.57.37-1.107.7-1.63 1.267a.648.648 0 0 0 .026.911.636.636 0 0 0 .903-.026l.02-.02.033-.04zm-9.415-5.907c-.019 1.28.131 2.442.334 3.63.19 1.181.478 2.336.792 3.478.642 2.284 1.506 4.488 2.488 6.627l.766 1.59c.269.522.557 1.036.832 1.551.536 1.043 1.178 2.033 1.774 3.036.615.997 1.296 1.954 1.938 2.93l2.081 2.819-1.951-2.91c-.595-1.004-1.23-1.987-1.793-3.004-.55-1.03-1.139-2.033-1.624-3.095-.249-.528-.511-1.043-.753-1.578l-.681-1.603c-.87-2.152-1.623-4.356-2.147-6.607-.255-1.129-.478-2.257-.609-3.399-.144-1.129-.222-2.31-.163-3.373v-.046a.64.64 0 1 0-1.277-.073c-.007.007-.007.02-.007.027zm-8.196-5.366c.55.977 1.008 2.139 1.375 3.28.366 1.156.648 2.337.871 3.538.196 1.201.36 2.422.418 3.65.079 1.228.066 2.462.02 3.696.151-1.228.275-2.455.301-3.696a32.253 32.253 0 0 0-.104-3.729 28.848 28.848 0 0 0-.583-3.71c-.288-1.233-.622-2.421-1.179-3.649a.639.639 0 0 0-.851-.317.65.65 0 0 0-.288.904l.02.033z"/><path fill="#E39F96" d="M185.447 14.414c.596.6 1.166 1.42 1.644 2.218.484.818.89 1.69 1.25 2.58.334.905.635 1.829.851 2.773.229.943.373 1.913.491 2.884-.013-.977-.052-1.967-.177-2.944-.111-.983-.314-1.954-.556-2.917a19.28 19.28 0 0 0-1.002-2.825c-.425-.924-.877-1.795-1.564-2.666a.647.647 0 0 0-.904-.106.66.66 0 0 0-.105.91c.013.02.033.04.046.054l.026.04zm-13.774-9.721c.164-.178.478-.396.746-.574.295-.172.596-.344.917-.476.314-.151.655-.25.982-.37.347-.085.681-.197 1.034-.257 1.401-.277 2.874-.323 4.328-.171.733.033 1.453.198 2.18.303.72.152 1.44.324 2.154.509.707.224 1.42.429 2.121.666l2.088.792-2.029-.944c-.688-.29-1.388-.547-2.082-.825a58.038 58.038 0 0 0-2.147-.673c-.734-.158-1.46-.383-2.207-.468a15.253 15.253 0 0 0-4.556-.139c-.386.04-.766.132-1.146.198-.373.106-.759.191-1.132.337-.374.132-.74.297-1.1.475-.367.211-.688.383-1.067.726a.65.65 0 0 0-.046.91.637.637 0 0 0 .903.047l.04-.04.019-.026z"/><path fill="#fff" d="M169.474 17.655c-.04.026-.092.04-.138.053-.236.118-.491.118-.687-.1-.432-.475-.459-1.385-.164-2.052a3.28 3.28 0 0 1 .301-.653c.131-.218.406-.284.635-.212.072.02.131.047.19.08.085.006.177.026.275.059 1.178.416.327 2.383-.412 2.825zm19.784-11.266a1.103 1.103 0 0 1-.361-.04c-.412-.026-.831-.178-1.119-.442-.53-.244-.524-1.116-.131-1.492.314-.297.779-.37 1.192-.31.419.06.864.244 1.119.594.085.119.144.257.177.396.249.607-.197 1.247-.877 1.294zm.399 17.496a.364.364 0 0 1 .118-.02.508.508 0 0 1 .229-.033c.321.013.556.258.707.548.177.231.262.521.222.858-.006.08-.026.152-.045.218a1.8 1.8 0 0 1-.184.587c-.157.297-.569.456-.883.33a.534.534 0 0 1-.478-.191c-.485-.693-.694-1.96.314-2.297z"/><path fill="#FADBD7" d="M34.822 190.911s-5.29-4.751-14.07-11.167c-8.582-6.27-18.952-3.234-20.916 1.023 0-.006 13.198 19.173 34.986 10.144zm-15.483 14.098s6.2-4.435 13.028.502c6.828 4.937 13.813 12.52 19.974 12.21 0 0-10.41 5.735-18.665 1.412-8.249-4.329-14.337-14.124-14.337-14.124zm4.55 17.635s10.049-2.158 17.29 5.63c7.24 7.788 17.047 8.355 17.047 8.355s-8.183 6.191-18.835 3.05c-10.651-3.142-15.437-10.29-15.502-17.035zm-9.768 2.04s10.514 2.581 11.28 13.022 3.11 15.279 6.678 17.556c0 0-28.138-9.953-17.958-30.578zM-1.5 202.528s7.863 4.428 5.65 13.939c-2.212 9.511-2.991 15.609.27 20.236 0 0-25.12-17.675-5.92-34.175z"/><path fill="#E39F96" d="M-21.414 161.871a234.366 234.366 0 0 1 16.196 17.424c2.514 3.056 5.008 6.125 7.293 9.352 2.35 3.175 4.504 6.488 6.52 9.867 1.984 3.38 3.824 6.937 5.762 10.428 1.97 3.472 3.928 6.963 6.18 10.296 2.245 3.32 4.733 6.587 7.954 9.082.78.647 1.65 1.175 2.488 1.729.432.258.884.489 1.322.733.223.119.439.244.661.356l.688.304c1.807.864 3.725 1.439 5.623 1.993-3.666-1.492-7.266-3.234-10.127-5.9-.747-.621-1.401-1.353-2.082-2.046-.328-.357-.629-.746-.95-1.116a15.517 15.517 0 0 1-.91-1.148c-.582-.786-1.178-1.564-1.708-2.389l-.818-1.221-.78-1.261c-2.049-3.373-3.96-6.844-5.813-10.355-1.879-3.505-3.686-7.029-5.702-10.541-4.138-6.903-9.028-13.299-14.39-19.219-5.355-5.933-11.129-11.477-17.407-16.368z"/><path fill="#E39F96" d="M17.395 185.249a75.527 75.527 0 0 1-6.063-1.162c-2.003-.469-3.987-.997-5.931-1.65-1.938-.66-3.87-1.36-5.69-2.277-1.82-.904-3.567-1.947-5.066-3.247l-.013-.014a.643.643 0 0 0-.917.073.655.655 0 0 0 .072.924c.007.007.02.013.026.02 1.703 1.32 3.581 2.303 5.5 3.135 1.918.838 3.908 1.445 5.905 2.006 1.996.555 4.026.977 6.055 1.347 2.03.363 4.072.66 6.122.845zM5.1 190.826c-3.005 1.478-4.648 4.191-5.82 6.936-1.133 2.786-1.702 5.736-1.951 8.686-.092.733-.066 1.478-.105 2.218-.006.739-.079 1.478-.04 2.211l.086 2.211c.026.739.046 1.471.144 2.204l.229 2.198c.085.732.131 1.465.275 2.184l.714 4.35-.557-4.369c-.111-.726-.137-1.459-.19-2.192l-.15-2.191c-.072-.732-.06-1.465-.06-2.198l-.006-2.191c-.013-.732.085-1.458.118-2.184.066-.726.066-1.459.183-2.178.347-2.891 1.022-5.742 2.194-8.356.15-.323.288-.653.451-.97l.544-.918.268-.455c.098-.145.21-.284.314-.429.216-.277.413-.568.635-.838l.714-.766c.242-.251.517-.462.772-.693.269-.218.55-.409.825-.594l.432-.251c.131-.059.308-.151.406-.184l.053-.02a.661.661 0 0 0 .425-.825.653.653 0 0 0-.903-.396zm11.928 21.054c-.61.495-.982 1.009-1.395 1.564l-.53.858c-.157.297-.295.6-.439.904-.157.297-.248.62-.36.931-.098.316-.242.62-.3.943-.132.647-.335 1.281-.367 1.941-.066.653-.164 1.3-.131 1.953.02.654-.04 1.307.065 1.947.079.641.131 1.287.223 1.928l.399 1.887c.105.634.334 1.241.51 1.855.197.607.36 1.228.583 1.828l.714 1.776c.242.587.452 1.194.753 1.755.576 1.135 1.087 2.304 1.715 3.412l1.898 3.3-1.754-3.379c-.576-1.128-1.034-2.316-1.558-3.465-.275-.574-.458-1.181-.674-1.775l-.629-1.789c-.196-.6-.327-1.221-.497-1.828-.151-.614-.347-1.215-.426-1.835l-.308-1.855c-.065-.62-.091-1.247-.137-1.867-.072-.621.006-1.241.013-1.862-.007-.62.118-1.227.203-1.841.059-.614.275-1.195.419-1.789.065-.297.21-.567.314-.858.118-.277.21-.574.36-.831.144-.264.275-.535.426-.792l.497-.739c.36-.449.78-.938 1.166-1.221l.032-.027a.657.657 0 0 0 .144-.911.645.645 0 0 0-.903-.145c-.007.013-.02.02-.026.027zm-4.445-7.67c1.067.02 2.245.192 3.365.423 1.132.224 2.252.541 3.358.884 2.22.706 4.367 1.637 6.462 2.693l1.558.818c.51.284 1.014.594 1.518.885 1.028.574 1.99 1.254 2.98 1.887.981.654 1.91 1.373 2.873 2.06l2.77 2.211-2.665-2.337c-.93-.726-1.833-1.498-2.789-2.198-.962-.686-1.898-1.412-2.907-2.039-.497-.323-.988-.653-1.492-.964l-1.539-.897c-2.068-1.162-4.21-2.211-6.448-3.043-1.12-.402-2.259-.785-3.424-1.069-1.178-.297-2.324-.535-3.607-.614a.649.649 0 0 0-.688.614.65.65 0 0 0 .61.693h.025l.04-.007zm-5.46-8.969c1.185.66 2.35 1.089 3.568 1.479 1.21.376 2.435.66 3.672.877 1.238.192 2.482.344 3.732.39 1.244.066 2.488.033 3.732-.027-1.244-.046-2.475-.125-3.7-.303-1.223-.152-2.435-.409-3.626-.706a27.98 27.98 0 0 1-3.483-1.162c-1.113-.462-2.245-1.01-3.182-1.65l-.032-.026a.643.643 0 0 0-.904.178.656.656 0 0 0 .177.911c.013.019.033.026.046.039z"/><path fill="#E39F96" d="M18.357 215.339c.818.765 1.656 1.293 2.547 1.801.89.495 1.813.898 2.756 1.241.949.324 1.905.601 2.88.792.485.112.976.165 1.467.251.49.066.982.106 1.473.158-.485-.105-.963-.198-1.44-.316-.472-.139-.95-.238-1.415-.41a21.53 21.53 0 0 1-2.717-1.075 19.176 19.176 0 0 1-2.494-1.466c-.772-.547-1.545-1.188-2.101-1.841l-.027-.033a.649.649 0 0 0-.916-.073.661.661 0 0 0-.072.924.23.23 0 0 1 .059.047zM9.8 198.699c-.373.357-.57.674-.805 1.03-.21.356-.406.713-.563 1.082-.17.363-.288.753-.425 1.122-.099.383-.223.766-.288 1.155a15.912 15.912 0 0 0-.21 4.653c.033.773.196 1.525.301 2.284.15.752.328 1.498.51 2.237.223.733.426 1.466.669 2.185l.785 2.138-.635-2.184c-.19-.733-.334-1.479-.504-2.211a43.995 43.995 0 0 1-.34-2.238c-.046-.752-.157-1.498-.138-2.244-.04-1.491.118-2.983.504-4.389.085-.356.23-.686.334-1.036.144-.33.275-.666.445-.977.164-.316.354-.613.55-.897.197-.258.445-.568.635-.72l.02-.013a.655.655 0 0 0 .105-.917.643.643 0 0 0-.91-.106c-.013.02-.027.033-.04.046z"/><path fill="#fff" d="M23.79 198.449a.69.69 0 0 0 .066-.139c.137-.231.157-.488-.046-.706-.438-.475-1.355-.574-2.042-.323a3.2 3.2 0 0 0-.675.257c-.229.119-.314.396-.262.634.014.072.04.138.066.204 0 .093.013.185.04.284.313 1.221 2.35.502 2.854-.211zM9.63 218.533a1.104 1.104 0 0 1-.386-.211c-.334-.291-.484-.753-.51-1.188-.027-.429.084-.898.405-1.195.4-.376 1.277-.31 1.48.251.242.31.36.752.36 1.175.02.119.033.244.013.369-.105.687-.78 1.096-1.362.799zm18.861.944c-.02.039-.026.079-.033.118a.601.601 0 0 0-.052.231c-.013.324.216.588.491.759.216.198.504.311.838.297.079 0 .15-.013.223-.026.203-.007.399-.053.602-.139.314-.138.497-.541.4-.871.038-.171-.027-.396-.158-.501-.642-.555-1.898-.865-2.31.132zM40.34 57.578a16.731 16.731 0 0 1 2.626 2.904 13.593 13.593 0 0 1 2.448 6.878 16.569 16.569 0 0 1-.21 3.689c-.202 1.188-.412 2.363-.589 3.544-.713 4.726-1.329 9.491-1.263 14.236.052 2.363.268 4.733.923 6.957.327 1.109.779 2.165 1.388 3.108.622.931 1.407 1.73 2.337 2.304l.026.013a.635.635 0 0 1-.177 1.155c-2.703.673-5.453.614-8.11-.066a14.518 14.518 0 0 1-6.927-4.21c-1.866-2.007-3.15-4.469-4.033-7.003-.89-2.535-1.453-5.188-1.61-7.874-.184-2.68.02-5.366.47-7.993.46-2.627 1.18-5.187 1.991-7.709.818-2.514 1.768-4.976 2.429-7.51.32-1.268.556-2.568.504-3.868a5.693 5.693 0 0 0-.144-1.155c3.208.686 7.921 2.6 7.921 2.6zM80.085 77.98a9.721 9.721 0 0 1-1.139-2.237c-.49-1.373-.74-2.832-.812-4.29-.13-2.924.334-5.841 1.133-8.64.386-1.399.936-2.785 1.322-4.092.347-1.346.55-2.726.544-4.105a15.14 15.14 0 0 0-.576-4.092c-.374-1.313-.917-2.647-1.617-3.742l-.013-.02a.644.644 0 0 1-.086-.495.637.637 0 0 1 .766-.482 43.687 43.687 0 0 1 9.938 3.624c.799.382 1.558.844 2.324 1.293.747.482 1.5.95 2.213 1.479 1.453 1.016 2.795 2.197 4.059 3.438a31.49 31.49 0 0 1 6.128 8.646 32.074 32.074 0 0 1 1.872 4.957c.426 1.518.746 3.075.884 4.64a26.378 26.378 0 0 1 5.61-3.406 32.285 32.285 0 0 1 6.265-2.105c2.154-.489 4.341-.76 6.534-.898a48.734 48.734 0 0 1 6.586.06c2.193.171 4.36.442 6.547.937a.63.63 0 0 1 .484.627v.02c-.144 4.996-1.1 9.992-2.959 14.658-.995 2.303-2.16 4.54-3.633 6.574-1.48 2.026-3.169 3.894-5.081 5.51-2.049 1.737-4.301 3.189-6.677 4.396 2.71.858 5.257 2.218 7.62 3.828 2.501 1.749 4.805 3.835 6.697 6.277 1.892 2.422 3.549 5.082 4.662 7.973.674 1.399 1.021 2.917 1.492 4.389l.17.554.112.568.222 1.135.445 2.277a.616.616 0 0 1-.222.594l-.007.007c-1.374 1.042-2.808 1.762-4.314 2.422l-1.133.462c-.379.145-.772.264-1.152.396-.766.277-1.551.475-2.337.673-3.155.759-6.409 1.023-9.623.904l-2.41-.178c-.805-.053-1.59-.224-2.389-.343-1.598-.205-3.143-.66-4.701-1.03-.785-.171-1.525-.475-2.291-.726l-2.265-.779c-1.342-.547-2.665-1.141-3.981-1.729v.086c-.052 2.31-.392 4.633-1.112 6.851-1.415 4.442-4.131 8.382-7.438 11.576-3.332 3.195-7.162 5.808-11.436 7.623a.595.595 0 0 1-.688-.158l-.007-.007c-2.5-2.858-4.654-6.052-6.212-9.543-1.571-3.485-2.436-7.313-2.422-11.141 0-1.914.196-3.822.569-5.683-.563.456-1.126.924-1.715 1.347-.766.514-1.512 1.069-2.324 1.518-1.578.976-3.28 1.742-5.021 2.389a28.785 28.785 0 0 1-5.428 1.307c-1.852.237-3.731.27-5.597.151-3.732-.27-7.398-1.267-10.822-2.758-3.43-1.505-6.645-3.413-9.545-5.861a.596.596 0 0 1-.196-.304.633.633 0 0 1 .419-.785l.039-.013c2.586-.773 5.113-2.119 7.313-3.782 2.173-1.716 4.091-3.802 5.4-6.264l.996-1.887c.176-.317.327-.654.53-.957l.609-.911c.85-1.181 1.82-2.297 2.998-3.161 2.102-1.604 4.675-2.601 7.28-2.68a26.63 26.63 0 0 1-2.992-3.214c-1.597-2.033-2.913-4.277-3.96-6.633-1.054-2.356-1.847-4.825-2.423-7.333-.57-2.521-.93-5.055-.982-7.695a.615.615 0 0 1 .459-.614l.013-.007c1.335-.35 2.651-.62 3.993-.851a75.492 75.492 0 0 1 4.013-.608 73.754 73.754 0 0 1 8.099-.574c3.92-.046 7.895.218 11.75 1.07l.63-.423zM20.91 21.51c1.997.382 3.98.857 5.938 1.438 1.95.58 3.862 1.313 5.741 2.125a45.065 45.065 0 0 1 5.414 2.91l.013.007a.675.675 0 0 1 .282.383.65.65 0 0 1-.458.785c-4.02 1.043-8.066 1.485-12.144 1.604-4.073.08-8.158-.125-12.17-.825-4.007-.68-7.981-1.63-11.785-3.069-1.931-.64-3.764-1.524-5.617-2.343-.93-.376-1.846-.924-2.743-1.405-.255-.146-.51-.284-.76-.423 6.102-1.425 28.289-1.188 28.289-1.188zm81.002 8.176c-5.768-8.045 7.542-14.11 7.542-14.11s-.609 1.749-.701 4.33c.059-.04.111-.086.17-.126 1.388-1.57 3.123-2.864 5.12-3.683 1.283-.521 2.677-.772 4.078-.785l1.054.053c.347.046.688.125 1.035.184.353.066.681.132.982.205.314.066.628.145.943.205 2.52.481 5.126.547 7.646.072 1.257-.244 2.501-.614 3.64-1.208.956-.488 1.84-1.148 2.534-2.013a10.18 10.18 0 0 0-.629-.396c-1.545-.87-3.398-1.34-5.113-1.306h-.039a.605.605 0 0 1-.373-.126.611.611 0 0 1-.118-.845c1.06-1.412 2.363-2.514 3.875-3.366 1.519-.812 3.307-1.26 5.054-1.062 1.755.178 3.372.917 4.786 1.867 1.388.97 2.651 2.231 3.437 3.815.805 1.578.943 3.472.511 5.142a9.912 9.912 0 0 1-.832 2.165 15.519 15.519 0 0 1 2.815 2.87c.563-.257 1.139-.514 1.716-.765a1.117 1.117 0 0 1-.112-.258c-.216-.805.701-1.148 1.48-1.115.249-.026.504-.013.746.033a.293.293 0 0 1 .249.244c.02.033.046.06.052.1.236 1.082-1.374 1.847-2.16 1.273-.517.343-1.048.68-1.584 1.017.288.409.556.831.805 1.267a13.022 13.022 0 0 1 1.375 3.491c1.27-.158 2.54-.303 3.816-.442a.619.619 0 0 1 .157-.766.704.704 0 0 1 .223-.125c.013-.02.026-.046.046-.066.641-.686 2.16.033 2.403.818.098.317-.053.575-.334.72-.727.363-1.513-.04-2.187-.337-1.322.231-2.664.462-4.013.686.157.845.223 1.716.177 2.588a10.145 10.145 0 0 1-.491 2.534 48.738 48.738 0 0 1 5.669 2.422c.02-.481.393-.845.91-.858.563-.013 1.087.27 1.552.574.307.198.622.529.746.878.033.04.065.08.092.12.163.243.124.633-.138.791-.301.191-.681.25-1.067.231a2.472 2.472 0 0 1-.975-.191c-.328-.139-.642-.357-.812-.68-.007-.013-.007-.027-.013-.04a1.54 1.54 0 0 1-.249-.501 58.89 58.89 0 0 0-5.885-2.27 10.967 10.967 0 0 1-1.892 3.22c2.383 1.26 4.674 2.726 6.906 4.323a.67.67 0 0 1 .576-.284c1.205 0 2.462.772 2.999 1.861.17.344.006.733-.315.911-.052.033-.111.053-.163.073a.88.88 0 0 1-.36.178c-.655.145-1.342-.356-1.807-.765-.413-.364-1.015-.925-1.048-1.525 0-.026.007-.046.007-.073-2.357-1.478-4.642-3.069-7.11-4.35-1.309 1.492-2.88 2.68-4.582 3.585a13.868 13.868 0 0 1 1.374 3.26c1.388 4.752.367 10.184-2.756 14.117-1.532 1.967-3.725 3.558-6.291 4.013a7.953 7.953 0 0 1-3.836-.25c-1.185-.416-2.318-.852-3.411-1.466-2.161-1.194-4.17-2.818-5.545-4.936-.727-1.03-1.257-2.192-1.657-3.386-.386-1.208-.641-2.416-.648-3.756 0-.303.243-.56.55-.567h.026a49.575 49.575 0 0 0 6.901-.627c.458-.08.916-.165 1.374-.258-.595-.39-1.243-.666-1.911-.904-.956-.337-1.945-.568-2.94-.779-.995-.191-1.996-.376-3.011-.495a46.891 46.891 0 0 0-3.038-.323c-1.028-.106-2.01-.126-3.09-.231-1.06-.112-2.121-.29-3.136-.627a11.74 11.74 0 0 1-2.906-1.34c-.884-.587-1.729-1.287-2.285-2.191.091.086.183.152.281.23a6.622 6.622 0 0 1-.262-.303 4.665 4.665 0 0 1-.36.812c-1.774 2.977-.896 7.062-.896 7.062-6.645-4.356-7.961-11.253-4.845-16.612l-.504-.852zm-50.069-7.972a.176.176 0 0 1-.033-.04.647.647 0 0 1 .242-.884 176.66 176.66 0 0 1 12.819-6.693c2.18-1.023 4.38-2.006 6.619-2.91a79.751 79.751 0 0 1 6.808-2.462c4.622-1.452 9.408-2.257 14.193-2.686a100.92 100.92 0 0 1 7.202-.337 81.68 81.68 0 0 1 7.194.198l-1.132.91a24.95 24.95 0 0 1-1.715 1.314c-.963.726-1.997 1.353-3.005 2.02a68.119 68.119 0 0 1-6.377 3.419 82.01 82.01 0 0 1-6.723 2.68 105.908 105.908 0 0 1-6.927 2.098c-4.667 1.228-9.427 2.072-14.206 2.68-4.157.514-8.32.851-12.524.937l-2.435-.244zm1.624 160.334c1.237.943 2.173 2.31 3.194 3.478.59.673 1.316 1.452 1.716 2.323.02-.033.039-.079.065-.106.105-.132.32-.145.458-.072.19.105.328.237.432.402.118.132.21.297.275.456.131.31.216.739-.02 1.023-.215.27-.608.284-.87.066a1.079 1.079 0 0 1-.216-.264c-.236-.31-.347-.779-.282-1.069.007-.02.014-.033.02-.047-1.643-1.986-3.227-4.052-4.956-5.959-.137-.139.026-.35.184-.231z"/><path fill="#fff" d="M18.35 133.195a17.77 17.77 0 0 1 1.008 3.24c.289 1.485.393 3.003.302 4.508-.085 1.505-.439 2.983-.904 4.402-.458 1.426-1.113 2.772-1.872 4.039l-1.126 1.862c-.19.303-.327.633-.498.95-.17.317-.314.64-.451.97-.563 1.314-.95 2.713-1.074 4.145-.066.713-.059 1.439.026 2.158.085.713.223 1.439.51 2.106 0 0-.183-.126-.497-.37-.484-.356-.988-.706-1.519-1.089-.68-.521-1.257-1.115-1.892-1.67-.32-.27-.595-.587-.87-.904l-.838-.944c-.295-.303-.53-.653-.773-1.003l-.726-1.043a16.67 16.67 0 0 1-2.685-9.755c.007-.217 0-.435.027-.646l.091-.641c.072-.429.118-.858.216-1.28.256-.825.426-1.69.819-2.468.635-1.624 1.656-3.076 2.847-4.337l.943-.904c.327-.284.694-.521 1.041-.785.714-.548 1.381-.911 2.01-1.419.622-.489 1.211-1.017 1.63-1.611.223-.29.36-.6.439-.884.039-.145.045-.277.032-.396a.953.953 0 0 0-.032-.158c-.007-.033-.04-.086-.033-.08-.007-.006-.007-.013-.013-.019l-.026-.04a.59.59 0 0 1-.112-.244l4 4.31zm14.337 24.36c.374-1.94 1.258-5.531 2.54-4.996 1.742.726 2.292 5.009 2.292 5.009s3.077-2.752 4.052-.904c.269.508-.091 1.036-.766 1.538 1.591.04 3.182.218 4.74.581.432.105.87.198 1.296.323l1.264.436c.425.132.831.323 1.237.508.4.198.819.356 1.205.581 1.578.845 3.018 1.94 4.301 3.181 1.29 1.247 2.344 2.713 3.22 4.27.237.383.42.786.61 1.195.203.396.366.812.524 1.234.34.838.589 1.624.955 2.409 1.388 3.128 3.411 6.013 5.814 8.428l.026.027a.274.274 0 0 1-.007.389c-.903.891-1.97 1.465-3.116 1.841-1.146.377-2.357.489-3.542.41l-.883-.106c-.295-.04-.576-.125-.871-.185-.583-.105-1.133-.343-1.69-.528-.549-.218-1.066-.495-1.603-.739l-1.23-.733c.117 1.472.163 2.944.117 4.416.085-.02.17 0 .249.086 1.898 2.237 3.862 4.659 5.034 7.398a.655.655 0 0 1 .498.093.901.901 0 0 1 .15.132c.007 0 .013 0 .02.006.327.139.498.515.576.838.131.528.046 1.459-.707 1.38-.851-.086-1.244-1.281-1.008-2a.691.691 0 0 1 .203-.31c-1.44-2.528-3.313-4.627-5.048-6.983a32.643 32.643 0 0 1-.3 2.983c-.014.093-.027.172-.034.258-.026.145-.039.297-.059.442 1.14 1.208 1.912 2.732 2.737 4.164.917 1.591 1.97 3.248 2.534 5.023.608.079 1.328.561 1.564.95a.522.522 0 0 1 0 .482c-.013.145-.072.297-.222.357-.007.006-.02.006-.027.006.02.317-.144.621-.458.739-.38.146-.838.014-1.191-.151-.393-.192-.799-.509-.904-.964a.899.899 0 0 1 .354-.95.702.702 0 0 1 .635-.482c-.733-1.67-1.787-3.28-2.724-4.798-.89-1.446-1.721-3.003-2.972-4.158a29.623 29.623 0 0 1-2.285-.608c-.098-.026-.203-.039-.3-.066.654 1.254 1.119 2.64 1.754 3.921.51 1.016 1.021 2.039 1.532 3.056.386-.311.916-.132 1.244.217.32.337.543.845.523 1.32-.013.33-.17.647-.432.825a.828.828 0 0 1-.157.264c-.268.297-.668.238-.95-.013-.516-.468-.811-1.59-.484-2.27-1.623-2.172-3.044-4.904-3.568-7.438v-.007a35.417 35.417 0 0 1-1.623-.455c-.354-.106-.707-.225-1.06-.344.412.918.412 2.211.608 3.122.216 1.01.478 2 .786 2.977a.555.555 0 0 1 .458-.033c.059.026.124.066.183.105a.735.735 0 0 1 .36.284c.046.066.092.145.138.231.216.337.347.746.288 1.096a1.117 1.117 0 0 1-.092.429c-.163.336-.438.383-.694.29a.91.91 0 0 1-.864-.508c-.144-.29-.203-.7-.111-1.049 0-.152.026-.297.072-.443a14.401 14.401 0 0 1-1.159-3.22c-.242-.997-.766-2.423-.543-3.492-.38-.132-.753-.27-1.126-.416.34 1.188.465 2.429.458 3.67a17.001 17.001 0 0 1-.563 4.013c-.38 1.3-.845 2.58-1.486 3.782-.282.62-.674 1.174-1.008 1.768-.373.568-.78 1.109-1.166 1.664a.35.35 0 0 1-.19.125.315.315 0 0 1-.38-.244l-.006-.04c-.451-1.973-1.427-3.881-2.618-5.55a17.554 17.554 0 0 0-2.023-2.337c-.354-.356-.766-.726-1.14-1.109-.38-.382-.733-.785-1.086-1.188-2.776-3.26-4.956-7.048-6.252-11.173-.635-2.06-1.067-4.211-1.113-6.396-.06-2.178.229-4.382.916-6.468.262-.785.596-1.544.963-2.283-.727-.535 1.067-2.891 1.067-2.891s-1.807-1.815-2.2-4.145c-.34-2.013 4.177-1.228 5.408-.977l.536-1.122zM7.543 120.034a40.056 40.056 0 0 1 7.057-6.851c2.848-2.125 6.082-3.781 9.526-4.758 3.436-1.017 7.09-1.241 10.657-.858a29.22 29.22 0 0 1 5.264 1.102c1.722.541 3.378 1.175 5.002 2.092a.646.646 0 0 1-.288 1.208h-.04c-.74.033-1.59.178-2.383.363a21.94 21.94 0 0 0-2.376.719c-1.565.568-3.07 1.307-4.524 2.132-1.453.838-2.828 1.809-4.157 2.845l-1.957 1.63c-.675.581-1.428 1.063-2.187 1.505-3.11 1.736-6.71 2.224-10.14 1.98a29.437 29.437 0 0 1-5.088-.845 30.267 30.267 0 0 1-3.03-.937l-1.29-1.294m45.499 61.638.34.178c-.137-.086-.248-.165-.347-.231 0 .02 0 .033.007.053zm-8.255 8.467a11.878 11.878 0 0 0-.256-1.729c-.039-.013-.072-.033-.111-.046.157.607.281 1.201.367 1.775z"/><path fill="#96551E" d="M99.804 104.927c2.449.079 4.91-.119 7.339-.469a48.401 48.401 0 0 0 7.201-1.623c4.694-1.492 9.218-3.762 13.035-6.996 1.905-1.61 3.6-3.485 5.08-5.511 1.473-2.04 2.638-4.277 3.633-6.574 1.86-4.666 2.815-9.662 2.959-14.659v-.02a.623.623 0 0 0-.484-.626c-2.187-.495-4.347-.766-6.547-.938a48.743 48.743 0 0 0-6.586-.059c-2.193.132-4.386.41-6.533.898a32.24 32.24 0 0 0-6.265 2.105 26.346 26.346 0 0 0-10.266 8.17c-1.289 1.79-2.435 3.69-3.266 5.723-.478.99-.8 2.046-1.166 3.076-.34 1.042-.57 2.118-.864 3.168 1.23-4.191 3.044-8.244 5.768-11.597 2.704-3.359 6.213-6.025 10.173-7.662 3.941-1.663 8.203-2.508 12.478-2.72a47.519 47.519 0 0 1 6.429.113c2.128.185 4.288.475 6.331.957l-.485-.647c-.203 4.87-1.021 9.728-2.802 14.243-.943 2.23-2.042 4.395-3.443 6.369a34.188 34.188 0 0 1-4.825 5.386c-3.614 3.227-7.974 5.57-12.563 7.16a48.996 48.996 0 0 1-14.33 2.733z"/><path fill="#96551E" d="m100.871 104.913-.111-2.026c-.046-.673-.046-1.36-.171-2.026l-.307-2.013a7.601 7.601 0 0 0-.203-.997l-.249-.99c-.275-1.34-.805-2.6-1.257-3.887-.596-1.228-1.139-2.489-1.925-3.617a23.031 23.031 0 0 0-5.597-5.966c-2.22-1.618-4.688-2.852-7.26-3.77-5.153-1.854-10.658-2.362-16.06-2.302-2.71.04-5.413.237-8.097.574-1.343.165-2.685.37-4.014.607a50.666 50.666 0 0 0-3.993.851l-.013.007a.615.615 0 0 0-.458.614c.052 2.633.412 5.168.982 7.695.576 2.515 1.368 4.977 2.422 7.333s2.37 4.6 3.96 6.633a26.926 26.926 0 0 0 5.572 5.326c4.177 3.023 9.159 4.746 14.18 5.399 5.04.66 10.14.416 15.116-.409-5.008.548-10.082.653-15.025-.205-2.474-.356-4.89-1.069-7.214-1.947-2.324-.891-4.498-2.151-6.488-3.63-3.974-2.976-7.064-7.068-9.04-11.649-1.002-2.284-1.748-4.68-2.292-7.121-.53-2.436-.864-4.964-.897-7.406l-.478.62a75.234 75.234 0 0 1 15.797-2.085c2.658-.052 5.323.047 7.961.363 2.632.33 5.237.885 7.751 1.71 2.508.831 4.924 1.966 7.104 3.478a22.288 22.288 0 0 1 5.545 5.643c.805 1.07 1.374 2.277 2.01 3.458.484 1.248 1.06 2.469 1.374 3.776.799 2.567 1.107 5.266 1.375 7.959zm19.293-4.851a31.07 31.07 0 0 1 7.797 4.501c2.37 1.842 4.517 3.973 6.278 6.389.485.574.864 1.214 1.27 1.848.393.634.845 1.234 1.159 1.914l1.035 1.987c.32.673.569 1.379.857 2.072.616 1.366.949 2.831 1.395 4.257l.157.535.104.554.21 1.102.419 2.205.229-.601c-1.178.871-2.592 1.637-4 2.257l-1.074.449c-.36.145-.733.257-1.099.389-.734.278-1.487.469-2.239.667-3.018.799-6.161 1.089-9.297 1.082l-2.356-.099c-.786-.026-1.565-.178-2.344-.25-1.578-.126-3.11-.502-4.661-.799-.786-.119-1.539-.376-2.305-.574l-2.298-.634-4.504-1.577c1.454.647 2.907 1.307 4.386 1.914l2.266.779c.759.25 1.505.554 2.291.726 1.558.376 3.103.825 4.7 1.029.793.112 1.585.284 2.39.343l2.409.179c3.221.118 6.468-.152 9.624-.905.785-.198 1.577-.396 2.337-.673.386-.132.772-.251 1.152-.396l1.133-.462c1.499-.66 2.939-1.379 4.314-2.422l.006-.007a.59.59 0 0 0 .223-.594l-.445-2.277-.223-1.135-.111-.567-.17-.555c-.472-1.472-.819-2.99-1.493-4.389-1.113-2.891-2.769-5.55-4.661-7.973-1.892-2.435-4.196-4.527-6.697-6.276-2.527-1.736-5.257-3.175-8.164-4.013z"/><path fill="#96551E" d="M84.216 112.543c-1.276 1.373-2.402 2.891-3.397 4.488a34.714 34.714 0 0 0-2.6 5.029 29.13 29.13 0 0 0-2.232 11.128c-.013 3.828.851 7.656 2.422 11.141 1.565 3.491 3.719 6.686 6.213 9.544l.007.006a.596.596 0 0 0 .687.159c4.275-1.822 8.105-4.429 11.437-7.623 3.306-3.195 6.023-7.135 7.437-11.577.72-2.211 1.061-4.541 1.113-6.851.072-1.155-.059-2.31-.118-3.465-.183-1.135-.281-2.29-.582-3.405-1.041-4.482-2.94-8.699-5.342-12.554 2.134 4.007 3.856 8.257 4.674 12.692.262 1.096.321 2.225.471 3.333.027 1.122.118 2.244.02 3.36-.111 2.231-.504 4.448-1.25 6.547-1.428 4.217-4.033 7.973-7.26 11.029-3.228 3.049-7.045 5.544-11.058 7.339l.694.165c-2.455-2.759-4.57-5.828-6.102-9.181-.752-1.676-1.388-3.419-1.787-5.214-.432-1.788-.713-3.623-.753-5.465-.117-3.696.57-7.405 1.847-10.903 1.283-3.485 3.116-6.798 5.46-9.722z"/><path fill="#96551E" d="M62.226 104.834c-2.848-.112-5.715.938-8.013 2.687-1.178.864-2.147 1.98-2.998 3.161l-.61.911c-.202.303-.353.64-.53.957l-.995 1.887c-1.309 2.469-3.227 4.548-5.4 6.264-2.2 1.663-4.727 3.009-7.313 3.782l-.04.013a.628.628 0 0 0-.419.785c.04.126.105.225.197.304 2.9 2.455 6.121 4.356 9.545 5.861 3.424 1.491 7.084 2.488 10.822 2.758 1.865.119 3.744.086 5.597-.151a28.212 28.212 0 0 0 5.427-1.307c1.742-.647 3.444-1.413 5.022-2.389.811-.443 1.558-.997 2.324-1.518.752-.535 1.446-1.149 2.173-1.716-2.992 2.145-6.252 3.907-9.735 4.95-1.735.528-3.522.851-5.316 1.049-1.8.172-3.607.152-5.4-.026-3.595-.324-7.097-1.386-10.41-2.825a41.24 41.24 0 0 1-4.805-2.528c-1.539-.944-3.057-1.987-4.406-3.128l-.262 1.095c2.861-.858 5.408-2.29 7.712-4.098 2.265-1.842 4.216-4.112 5.512-6.746l.937-1.933c.157-.311.288-.641.464-.938l.544-.891c.76-1.161 1.643-2.257 2.716-3.154 2.102-1.809 4.825-2.97 7.66-3.116zm39.359-.112s2.874-2.119 2.402-3.366c-.478-1.248-3.339.488-3.339.488s.249-4.382-.7-3.94c-.95.442-2.016 2.977-2.016 2.977s-2.043-2.165-2.685-1.05c-.641 1.116-.157 4.185-.157 4.185s-3.227-.165-3.555.778c-.327.944 1.82 2.667 1.82 2.667s-3.207 1.742-2.723 2.739c.478.99 3.188.468 3.188.468s-1.316 1.98-.694 2.779c.622.799 3.306-1.947 3.306-1.947s.819 2.191 1.703 2.145c.877-.046.608-3.96.608-3.96s1.408 2.752 2.39 2.402c.982-.349-.635-4.573-.635-4.573s3.954.567 4.301-.713c.334-1.287-3.214-2.079-3.214-2.079zm-.243-24.222c.635-3.3-.733-7.055-1.82-10.13-1.414-4.007-3.718-7.479-6.147-10.917-.02-.033-.078-.007-.059.026 1.545 3.38 3.79 6.31 5.192 9.808 1.257 3.135 2.946 7.669 2.278 11.068-.072.37.484.515.556.145zm-5.257 7.405c.262-6.494-1.525-13.424-3.509-19.542-1.577-4.871-3.666-10.171-7.351-13.82-.02-.02-.053.006-.033.026 3.548 4.699 5.813 10.137 7.437 15.787 1.604 5.59 3.077 11.702 2.86 17.556-.019.39.583.376.596-.007zm-5.623-5.095c.465-5.603-2.481-11.682-4.799-16.6-.026-.052-.111-.025-.085.027 1.885 4.99 4.799 11.108 4.288 16.58-.04.389.563.382.596-.007z"/><path fill="#96551E" d="M99.43 103.243c-3.188-5.537-7.266-10.52-12.576-14.11-4.811-3.248-11.063-6.237-16.962-5.835-.033 0-.026.046 0 .046 6.298.146 13.46 3.901 18.403 7.742 4.419 3.432 7.502 7.874 10.658 12.435.196.283.661.039.478-.278zm-5.171 5.255c-12.092.204-22.992-3.802-31.516-12.626-.033-.04-.098.02-.065.06 7.096 9.404 20.091 14.368 31.62 12.843.177-.02.131-.277-.04-.277zm3.404-3.505C85.336 98.716 73.244 91.43 60.085 86.975c-.065-.02-.118.073-.052.106 6.56 2.95 12.923 6.31 19.417 9.411a224.199 224.199 0 0 1 9.571 4.838c2.724 1.459 5.487 3.346 8.42 4.316.38.126.563-.481.222-.653zm37.231 16.493c-5.349-3.788-12.131-5.643-18.082-8.296-5.388-2.403-11.208-5.102-17.06-6.013-.34-.053-.498.449-.144.541 12.117 3.089 23.744 8.95 35.234 13.847.045.02.091-.046.052-.079zm-11.784-13.741c-6.468-3.392-15.804-3.828-22.828-2.224-.164.04-.183.323.006.323 3.673.027 7.3-.528 10.992-.343 4.085.198 7.909 1.149 11.817 2.29.02.007.033-.033.013-.046zm1.048 17.939c-5.048-1.637-9.467-3.735-13.552-7.207-3.391-2.884-7.025-5.749-9.434-9.53-.118-.185-.438-.119-.393.132.38 1.828 1.63 3.042 2.953 4.303 2.219 2.112 4.524 4.211 6.9 6.138 3.882 3.141 8.478 5.709 13.48 6.323.085.006.137-.126.046-.159zm-21.565-23.919c4.085-3.597 7.581-8.21 11.345-12.17 4.334-4.554 9.421-8.112 14.108-12.25.02-.02-.006-.046-.026-.033-9.84 6.462-18.449 14.883-25.859 24.031-.243.303.137.68.432.422zm-1.886-3.254c2.704-10.85 9.86-18.104 19.208-23.588.092-.053-.006-.178-.091-.132-9.46 4.976-17.722 12.56-19.791 23.582-.085.442.563.574.674.138zm14.22-.673c3.803-1.987 7.803-4.092 10.291-7.729.033-.046-.026-.105-.072-.06-6.108 6.43-15.129 9.795-23.352 12.343-.203.066-.078.337.098.33 4.655-.191 9.002-2.772 13.035-4.884zm-23.28 43.666c8.465-7.472 10.01-20.909 6.376-31.205-.046-.132-.222-.066-.222.053.006 2.917 1.132 5.689 1.198 8.652.065 3.175-.177 6.369-.661 9.504-.681 4.429-3.739 9.597-6.802 12.877-.06.066.045.185.11.119zm-3.202-3.247c1.978-4.409 3.43-8.818 4.688-13.484 1.244-4.607 2.94-9.128 2.547-13.972-.014-.198-.334-.185-.34.013-.25 5.003-1.67 9.603-2.934 14.401-1.152 4.376-3.103 8.62-4.046 13.015-.006.047.066.073.085.027zm-4.615-.924c-.498-4.455-.393-9.102 1.002-13.398.85-2.627 2.245-4.713 3.836-6.93 1.316-1.842 3.142-2.911 4.576-4.567.092-.106-.046-.264-.164-.212-8.962 4.066-10.703 16.487-9.46 25.133.02.132.223.112.21-.026zm-14.429-15.854c5.873-1.788 9.565-4.171 14.03-8.362.262-.244-.118-.726-.406-.501-3.96 3.201-7.215 5.847-12.138 7.491-6.48 2.164-13.204 2.923-19.869 4.23-.111.02-.105.198.02.185 6.14-.574 12.432-1.234 18.363-3.043zm-15.921-1.267c3.967-6.019 9.067-9.009 15.987-10.567.314-.072.196-.508-.105-.475-6.547.726-13.349 4.713-16.059 10.936-.046.106.111.205.177.106zm16.897 6.072c3.116-.99 6.127-2.594 8.615-4.719.334-.284-.033-.871-.373-.587-2.645 2.211-5.722 3.92-9.021 4.917-3.012.911-6.128.706-9.205 1.214-.177.027-.138.297.04.277 3.41-.396 6.611-.039 9.944-1.102z"/><path fill="#96551E" d="M112.072 118.873c-1.44-2.845-3.738-5.016-6.055-7.148-2.108-1.947-4.413-3.868-7.188-4.732-.275-.086-.387.31-.131.422 5.001 2.237 10.409 6.765 13.296 11.517.033.046.105-.007.078-.059zm7.293-10.455c.04-.007.04-.073 0-.073-6.278.482-13.001-.858-19.122-2.059-.19-.04-.262.284-.072.337 5.879 1.617 13.126 2.871 19.194 1.795zm-8.55-10.435c2.547-1.88 5.395-3.636 7.11-6.369.059-.099-.065-.211-.144-.119-4.249 5.148-11.686 9.815-17.905 11.88-.138.047-.079.278.065.245 4.092-.944 7.516-3.155 10.874-5.637z"/><path fill="#96551E" d="M101.709 102.419c.923-3.221 2.265-6.264 4.282-8.95 2.009-2.673 4.667-4.792 6.978-7.194.053-.053-.032-.125-.085-.073-5.132 4.832-10.029 8.838-11.679 16.078-.085.33.406.475.504.139zm.013 27.839c.89-4.092.557-8.528-.491-12.56-.792-3.03-1.676-6.699-3.561-9.253-.125-.165-.413.019-.308.198 3.699 6.21 4.943 14.533 4.314 21.615 0 .026.04.026.046 0zm-5.538-19.721c-.066-.211-.439-.093-.367.119 2.016 6.329 1.106 15.556-1.787 21.496-.007.013.013.026.02.013 3.384-5.973 4.242-15.081 2.134-21.628z"/><path fill="#96551E" d="M113.408 86.506a.703.703 0 0 0 .17-.132c.275-.317.183-.746.026-1.096-.085-.204-.347-.343-.563-.237a1.618 1.618 0 0 0-.504.39c-.006.006-.013 0-.019.006a.373.373 0 0 0-.125.145c.046-.086.026-.08-.059.026a.698.698 0 0 0-.118.185.59.59 0 0 0-.006.396c-.02.192-.013.396.039.6.046.199.308.298.485.232.32-.112.53-.27.674-.515zm4.74 6.046a3.42 3.42 0 0 0 .942-1.459c.079-.257-.065-.614-.373-.62-.065 0-.131.02-.196.026a.464.464 0 0 0-.19.013.091.091 0 0 1-.039.013c-.02.007-.039.02-.059.027-.098.04-.19.08-.275.132-.02.013-.039.02-.059.033a1.29 1.29 0 0 0-.34.317c-.02.006-.027.006-.046.013a.689.689 0 0 0-.144.099.652.652 0 0 0-.17.27.57.57 0 0 0 .052.43 1.49 1.49 0 0 0 .013.415c.065.41.596.561.884.29zm1.643 16.421c.242-.047.439-.284.334-.542a.98.98 0 0 0-.197-.31.542.542 0 0 0-.281-.33c-.079-.039-.164-.059-.249-.086a.92.92 0 0 0-.425-.224c-.282-.053-.524.079-.72.277-.145.139-.236.37-.138.561.17.33.412.654.812.693a.809.809 0 0 0 .334-.046c.163.033.34.04.53.007zm-6.704 10.309c.197-.126.223-.436.085-.614-.491-.62-1.217-.733-1.951-.548-.235.06-.334.409-.183.594.19.238.406.423.642.535.039.039.065.086.118.125.412.297.896.165 1.289-.092zm-10.573 11.339c.157-.594-.013-1.261-.609-1.531-.589-.264-1.224.053-1.505.6-.112.218-.112.462.052.654.301.343.72.693 1.205.62.052.02.098.04.15.053a.572.572 0 0 0 .707-.396zm-7.299.831a.657.657 0 0 0-.026-.198c-.007-.046-.007-.092-.02-.145-.066-.238-.275-.449-.543-.396a1.42 1.42 0 0 0-.655.343c-.504.211-.91.601-1.035 1.181-.065.304.099.687.459.68.85 0 1.833-.561 1.82-1.465zM81.46 79.134c-2.874-2.495-5.905-4.765-8.995-6.957a154.328 154.328 0 0 0-9.532-6.197c-6.494-3.92-13.283-7.352-20.275-10.336a170.444 170.444 0 0 0-10.671-4.039c-3.62-1.181-7.273-2.283-10.979-3.181-7.41-1.841-14.998-3.003-22.651-3.531a2.283 2.283 0 0 0-2.422 2.132 2.29 2.29 0 0 0 2.114 2.442c.033 0 .059.007.092.007h.032c7.385.184 14.783.976 22.07 2.455 3.646.712 7.253 1.636 10.847 2.633a164.142 164.142 0 0 1 10.632 3.498c6.998 2.627 13.84 5.716 20.432 9.313a154.34 154.34 0 0 1 9.702 5.728c3.156 2.033 6.279 4.165 9.211 6.495l.007.007a.304.304 0 0 0 .386-.469z"/><path fill="#96551E" d="M31.182 52.542c2.239.819 4.36 1.94 6.31 3.287 1.939 1.367 3.693 3.017 4.97 4.99 1.283 1.967 2.055 4.244 2.153 6.573a15.96 15.96 0 0 1-.281 3.485c-.23 1.175-.465 2.363-.681 3.544-.858 4.74-1.506 9.544-1.48 14.415.033 2.429.236 4.89.917 7.286.347 1.195.825 2.37 1.512 3.446a8.986 8.986 0 0 0 2.717 2.712l.157-1.168a15.929 15.929 0 0 1-7.437-.059 13.228 13.228 0 0 1-6.37-3.809c-1.734-1.841-2.972-4.138-3.836-6.56a30.14 30.14 0 0 1-1.65-7.564c-.242-2.58-.105-5.194.275-7.775.393-2.58 1.035-5.128 1.788-7.642.726-2.528 1.577-5.03 2.147-7.623.275-1.294.465-2.634.36-3.967a5.649 5.649 0 0 0-1.571-3.57zm0 0a5.579 5.579 0 0 1 1.374 3.584c.053 1.3-.183 2.6-.504 3.868-.66 2.534-1.61 4.996-2.428 7.51-.812 2.515-1.532 5.076-1.99 7.71-.452 2.626-.655 5.313-.472 7.992.15 2.68.72 5.333 1.61 7.874.884 2.534 2.174 4.99 4.033 7.003a14.505 14.505 0 0 0 6.927 4.21c2.657.687 5.4.74 8.11.066a.634.634 0 0 0 .178-1.155l-.027-.013c-.93-.574-1.715-1.366-2.337-2.303-.608-.944-1.054-2.007-1.388-3.109-.654-2.217-.877-4.593-.923-6.956-.059-4.746.55-9.51 1.264-14.236.183-1.182.393-2.363.589-3.545.203-1.214.282-2.455.21-3.69a13.533 13.533 0 0 0-2.449-6.876c-1.414-2.007-3.273-3.617-5.29-4.924a26.044 26.044 0 0 0-6.487-3.01z"/><path fill="#96551E" d="M31.182 52.542c2.049 1.169 3.928 2.608 5.532 4.297 1.61 1.677 2.946 3.61 3.797 5.742a14.769 14.769 0 0 1 .988 6.706c-.078 1.135-.334 2.25-.556 3.438a123.74 123.74 0 0 0-.616 3.525c-.687 4.712-1.139 9.53-.484 14.328.327 2.383.988 4.779 2.252 6.864 1.27 2.073 3.273 3.703 5.571 4.297a9.978 9.978 0 0 1-2.952-1.861c-.851-.786-1.539-1.736-2.069-2.759-1.074-2.046-1.571-4.356-1.8-6.666-.216-2.317-.21-4.666-.04-7.003a81.27 81.27 0 0 1 .799-7.002c.177-1.162.367-2.33.583-3.485.105-.587.222-1.142.314-1.756l.137-.91.079-.918c.138-2.455-.249-4.963-1.283-7.194-.995-2.244-2.52-4.19-4.288-5.801-1.788-1.578-3.784-2.937-5.964-3.842z"/><path fill="#96551E" d="M31.83 53.387c1.807 1.4 3.267 3.214 4.164 5.274.955 2.032 1.355 4.283 1.296 6.507-.046.555-.04 1.116-.118 1.67l-.249 1.657-.648 3.392a85.947 85.947 0 0 0-.95 6.877c-.372 4.6-.327 9.399 1.258 13.867a16.519 16.519 0 0 0 1.519 3.188 13.654 13.654 0 0 0 2.193 2.752c.831.825 1.78 1.511 2.782 2.085.989.608 2.075 1.01 3.156 1.373-2.07-.95-4.027-2.184-5.48-3.9a13.404 13.404 0 0 1-1.912-2.74 16.511 16.511 0 0 1-1.296-3.081c-.661-2.139-1.002-4.376-1.1-6.634-.124-2.257-.032-4.527.17-6.79.19-2.265.505-4.529.865-6.786l.556-3.392.216-1.756c.06-.587.033-1.181.046-1.775.013-.594-.085-1.182-.124-1.769-.066-.587-.21-1.168-.321-1.742-.328-1.136-.707-2.258-1.29-3.28a13.45 13.45 0 0 0-2.049-2.825c-.799-.852-1.682-1.61-2.684-2.172z"/><path fill="#96551E" d="M31.83 53.387c1.329 1.947 1.97 4.264 2.167 6.56.203 2.31-.092 4.627-.655 6.865-.163.554-.288 1.115-.484 1.663l-.576 1.637a32.684 32.684 0 0 0-1.1 3.432c-.59 2.33-.91 4.719-1.015 7.115-.079 2.402.085 4.81.543 7.18.498 2.356 1.27 4.68 2.514 6.765.635 1.03 1.323 2.033 2.16 2.904.845.858 1.742 1.677 2.764 2.304 1.014.633 2.088 1.168 3.214 1.544 1.106.416 2.278.634 3.43.805-2.265-.587-4.458-1.465-6.278-2.877-1.853-1.367-3.326-3.175-4.406-5.181-.543-1.01-.969-2.073-1.348-3.155a26.535 26.535 0 0 1-.845-3.34c-.4-2.27-.55-4.587-.452-6.897.072-2.31.387-4.62.91-6.87a31 31 0 0 1 .97-3.327l.55-1.716c.176-.574.28-1.168.425-1.749.497-2.35.667-4.791.3-7.174a15.965 15.965 0 0 0-.962-3.452c-.445-1.109-1.034-2.158-1.826-3.036zm75.241 21.021c-.092-1.755-.459-3.491-.93-5.194a31.374 31.374 0 0 0-1.872-4.957 31.344 31.344 0 0 0-6.128-8.646c-1.264-1.247-2.606-2.422-4.059-3.438-.713-.528-1.466-.997-2.213-1.479-.766-.442-1.525-.91-2.324-1.293a44.008 44.008 0 0 0-9.938-3.624.634.634 0 0 0-.766.482.65.65 0 0 0 .086.495l.013.02c.7 1.096 1.243 2.429 1.617 3.749.373 1.333.576 2.712.576 4.092 0 1.386-.197 2.765-.544 4.105-.386 1.307-.93 2.693-1.322 4.092-.799 2.798-1.263 5.716-1.133 8.64.072 1.458.328 2.917.812 4.29.485 1.372 1.257 2.653 2.311 3.623-.969-1.063-1.617-2.37-2.016-3.723-.393-1.366-.55-2.785-.537-4.204.02-1.419.164-2.831.419-4.224.249-1.399.628-2.765 1.047-4.118.426-1.36.982-2.634 1.454-4.066a17.28 17.28 0 0 0 .674-4.409 15.608 15.608 0 0 0-.55-4.435c-.406-1.445-.936-2.812-1.774-4.145l-.674.99c3.338.825 6.605 1.954 9.67 3.498 3.07 1.532 5.924 3.492 8.418 5.855 2.507 2.35 4.616 5.134 6.265 8.184 1.663 3.049 2.881 6.369 3.418 9.84zm-54.318 116.2c.576-3.247.583-6.587.242-9.887-.38-3.293-1.21-6.574-2.69-9.583a22.851 22.851 0 0 0-6.167-7.867c-2.6-2.139-5.676-3.624-8.852-4.62l-.013-.007a.612.612 0 0 0-.667.211c-1.198 1.558-2.095 3.214-2.796 5.003-.694 1.775-1.159 3.656-1.31 5.577-.137 1.921.093 3.861.597 5.709l.451 1.366c.144.456.393.871.583 1.307.36.891.923 1.67 1.427 2.475 1.126 1.531 2.403 2.95 3.895 4.099.714.62 1.52 1.102 2.285 1.636.812.462 1.598.964 2.449 1.353 1.663.839 3.404 1.492 5.172 2.033 1.767.541 3.567.97 5.394 1.195zm0 0c-3.587-.805-7.084-2.026-10.259-3.822-.811-.415-1.558-.937-2.33-1.419-.72-.547-1.486-1.042-2.148-1.669-1.407-1.142-2.579-2.535-3.594-4.007-.451-.778-.955-1.518-1.283-2.356-.17-.416-.4-.805-.524-1.234l-.399-1.28a16.607 16.607 0 0 1-.471-5.3c.308-3.544 1.754-7.036 3.85-9.847l-.682.204c3.058.937 5.97 2.356 8.478 4.323a22.684 22.684 0 0 1 6.043 7.372c1.5 2.858 2.442 6.006 2.966 9.221.536 3.234.654 6.54.353 9.814z"/><path fill="#96551E" d="M44.504 188.133c.347 1.3.42 2.653.34 3.98a16.93 16.93 0 0 1-.7 3.92c-.419 1.261-.916 2.495-1.59 3.637-.295.594-.708 1.122-1.048 1.683-.38.541-.799 1.049-1.192 1.577l.583.152c-.445-2.172-1.401-4.119-2.612-5.907a18.675 18.675 0 0 0-2.056-2.495c-.38-.396-.746-.746-1.1-1.122a28.666 28.666 0 0 1-1.02-1.168 33.083 33.083 0 0 1-3.451-5.181c-.989-1.829-1.84-3.736-2.429-5.716-1.224-3.94-1.433-8.237-.111-12.118 1.322-3.88 4.098-7.101 7.365-9.589l-.268.118c3.345-.607 6.795-.699 10.081.04.406.099.825.178 1.231.29l1.198.403c.406.119.786.297 1.166.475.38.185.779.324 1.139.541 1.492.786 2.847 1.802 4.072 2.957 1.237 1.149 2.271 2.515 3.142 3.967.23.356.419.739.609 1.115.203.376.366.766.524 1.155.333.772.641 1.644 1.027 2.429a27.366 27.366 0 0 0 2.71 4.547c1.042 1.426 2.174 2.766 3.497 3.967l-.026-.422c-.747.792-1.762 1.419-2.822 1.801-1.067.396-2.226.555-3.372.522-1.152-.033-2.291-.317-3.397-.667-.55-.185-1.08-.435-1.624-.653l-1.551-.819 1.512.905c.53.244 1.054.521 1.604.739.556.185 1.106.422 1.689.528.288.059.576.145.87.185l.884.105c1.185.079 2.396-.033 3.542-.409s2.213-.957 3.116-1.841a.275.275 0 0 0 .007-.39l-.026-.026c-2.403-2.416-4.432-5.3-5.814-8.428-.367-.786-.615-1.571-.956-2.409a11.39 11.39 0 0 0-.523-1.235c-.19-.402-.38-.811-.61-1.194-.877-1.558-1.937-3.023-3.22-4.27-1.29-1.241-2.724-2.337-4.301-3.182-.387-.231-.806-.382-1.205-.58-.406-.192-.812-.383-1.237-.509l-1.264-.435c-.425-.126-.864-.211-1.296-.324-3.476-.811-7.09-.739-10.56-.132a.668.668 0 0 0-.268.119c-1.715 1.294-3.326 2.766-4.668 4.482a19.314 19.314 0 0 0-3.123 5.728c-.687 2.086-.975 4.29-.916 6.468.046 2.185.478 4.33 1.113 6.396 1.296 4.125 3.476 7.913 6.252 11.174.353.402.707.805 1.086 1.188.374.389.78.759 1.14 1.109.74.719 1.42 1.498 2.023 2.336 1.197 1.663 2.166 3.571 2.618 5.551l.007.039a.32.32 0 0 0 .38.244.344.344 0 0 0 .19-.125c.392-.554.798-1.102 1.165-1.663.333-.594.726-1.149 1.008-1.769.641-1.201 1.106-2.482 1.486-3.782.34-1.313.537-2.66.563-4.013-.026-1.366-.17-2.725-.583-3.999z"/><path fill="#96551E" d="M47.98 165.423c3.739 3.57 5.31 7.939 7.228 12.586.02.053.105.033.085-.027-1.558-5.563-3.6-10.593-8.242-14.308-1.86-1.492-4.956-3.122-7.902-3.927 7.98.462 15.43 6.738 17.342 14.612.013.046.072.026.066-.02-1.349-8.296-10.763-16.605-19.405-15.002-.87-.112-1.702-.132-2.448-.013-.177.027-.21.337-.007.343 4.347.099 10.259 2.865 13.283 5.756z"/><path fill="#96551E" d="M46.75 177.025c-.144-4.495-2.089-8.923-4.936-12.355-1.526-1.835-4.21-5.128-6.868-4.785-.203.026-.21.33-.006.363 6.5 1.122 11.024 11.042 11.672 16.777.013.092.144.092.138 0z"/><path fill="#96551E" d="M39.103 180.457c-4.006-4.738-4.975-13.081-4.497-19.338 5.355 4.812 7.627 13.623 9.617 20.262.032.099.177.053.15-.046-1.512-6.983-3.895-16.044-9.505-20.876a.346.346 0 0 0-.197-.079c.02-.178.033-.369.053-.541.032-.29-.433-.403-.511-.112-.89 3.498-.36 7.194.36 10.679.68 3.3 1.63 7.986 4.432 10.15.072.053.157-.033.098-.099z"/><path fill="#96551E" d="M38.907 187.77c.091.04.17-.092.078-.138-4.713-2.647-8.032-7.597-8.543-13.029-.445-4.712 1.604-8.732 3.227-12.969.072-.191-.19-.317-.288-.139-2.592 4.7-4.412 10.092-3.024 15.464 1.172 4.548 4.222 8.871 8.55 10.811z"/><path fill="#96551E" d="M32.478 185.737c-2.854-3.603-3.457-8.21-3.437-12.698.013-2.488.432-4.805 1.342-7.122.831-2.118 2.2-3.682 3.188-5.656.085-.171-.176-.343-.288-.178-2.952 4.316-4.943 7.973-4.785 13.444.124 4.422.805 8.95 3.915 12.27.045.052.104-.014.065-.06zm26.161 2.958c-.184-1.208-1.199-2.284-1.978-3.168-1.02-1.162-1.957-2.535-3.194-3.479-.157-.118-.321.086-.19.225 1.86 2.059 3.555 4.296 5.342 6.428.006.013.02 0 .02-.006zm.359 6.296c-1.04-3.314-3.338-6.158-5.551-8.765-.23-.271-.616.079-.413.363 2.056 2.825 4.328 5.247 5.86 8.441.032.06.124.02.104-.039zm-7.038-4.449c1.336 1.168 2.187 2.799 3.117 4.297.936 1.518 1.99 3.135 2.723 4.798a.693.693 0 0 0-.635.482.904.904 0 0 0-.353.95c.105.449.51.773.903.964.347.172.812.297 1.192.152a.723.723 0 0 0 .458-.739c.007 0 .02-.007.026-.007.15-.059.21-.205.223-.356.072-.152.078-.35 0-.482-.236-.39-.956-.871-1.565-.951-.563-1.775-1.617-3.432-2.533-5.022-.91-1.578-1.748-3.274-3.09-4.528-.308-.284-.773.172-.465.442zm1.559 7.907c-.714-1.525-1.5-3.023-2.245-4.528-.681-1.359-1.146-2.851-1.88-4.164-.11-.198-.464-.139-.412.118.622 3.003 2.508 6.303 4.498 8.6.02.02.052 0 .039-.026zm-5.296-1.729a32.106 32.106 0 0 1-1.316-4.521c-.242-1.115-.177-2.818-.95-3.683-.039-.039-.124-.026-.144.027-.445 1.089.184 2.719.452 3.828.38 1.577.943 3.062 1.853 4.402.033.039.124.006.105-.053z"/><path fill="#96551E" d="M58.71 189.618a.616.616 0 0 0 .871-.066c.236-.284.15-.713.02-1.023a1.82 1.82 0 0 0-.275-.455 1.22 1.22 0 0 0-.432-.403c-.138-.079-.354-.059-.459.073-.104.125-.163.29-.196.468-.006.027-.026.047-.033.073-.065.29.053.752.282 1.069.072.099.144.192.223.264zm.321 6.455c.747.073.838-.851.707-1.379-.078-.324-.255-.7-.576-.839-.006 0-.013 0-.02-.006-.052-.046-.098-.093-.15-.132-.386-.244-.818-.079-.956.356-.248.72.144 1.914.995 2zm-5.99 3.511c-.57-.514-.877-1.834-.367-2.475.387-.481 1.009-.297 1.375.093.321.336.544.845.524 1.32-.013.33-.17.647-.432.825a.828.828 0 0 1-.157.264c-.269.284-.668.224-.943-.027zm-4.713-2.006c.261.092.53.046.693-.291a1 1 0 0 0 .092-.429c.059-.356-.065-.759-.288-1.095a2.371 2.371 0 0 0-.137-.231.81.81 0 0 0-.36-.284 1.033 1.033 0 0 0-.184-.106c-.196-.079-.497-.019-.615.179a1.37 1.37 0 0 0-.184.706c-.085.35-.032.759.112 1.049a.92.92 0 0 0 .87.502zm-13.84-36.775c.76-.185 8.059-2.29 7.083-4.138-.975-1.848-4.052.904-4.052.904s-.55-4.277-2.291-5.01c-1.742-.726-2.744 6.185-2.744 6.185s-6.108-1.413-5.715.917c.393 2.33 2.2 4.145 2.2 4.145s-2.33 3.062-.602 2.996c1.721-.066 6.12-5.999 6.12-5.999z"/><path fill="#96551E" d="M-13.742 89.351c-.02.58.02 1.01.066 1.498.046.469.111.937.196 1.393.164.917.387 1.815.649 2.693a33.46 33.46 0 0 0 1.996 5.088c1.591 3.267 3.594 6.277 5.827 9.088 2.22 2.812 4.733 5.393 7.28 7.841l7.594 7.386c5.014 4.95 9.938 10.012 13.99 15.754 2.016 2.871 3.817 5.9 5.237 9.108a47.769 47.769 0 0 1 3.208 10.019c.04.198.23.33.432.29a.371.371 0 0 0 .288-.429 48.756 48.756 0 0 0-3.103-10.243c-1.4-3.294-3.188-6.402-5.191-9.352-4.026-5.901-8.93-11.088-13.88-16.137l-7.482-7.511c-2.507-2.488-4.89-5.023-7.018-7.795-2.121-2.759-4.013-5.702-5.473-8.83a30.996 30.996 0 0 1-1.807-4.819c-.23-.825-.419-1.65-.556-2.481a16.449 16.449 0 0 1-.158-1.241 10.525 10.525 0 0 1-.039-1.162v-.052a1.03 1.03 0 0 0-.969-1.083 1.027 1.027 0 0 0-1.073.977c-.014-.013-.014-.007-.014 0z"/><path fill="#96551E" d="M14.285 161.568c-.288-.673-.426-1.392-.51-2.105a10.338 10.338 0 0 1-.027-2.158c.124-1.432.51-2.832 1.074-4.145.137-.33.281-.66.451-.97.17-.317.308-.647.498-.951l1.126-1.861c.76-1.267 1.414-2.614 1.872-4.039.465-1.419.812-2.891.904-4.402a17.665 17.665 0 0 0-.301-4.508 18.447 18.447 0 0 0-1.473-4.264c-.655-1.359-1.493-2.6-2.383-3.801l-.989.825c-.033-.04.02.033.026.072.02.046.026.106.033.159.013.118.006.25-.033.396a2.593 2.593 0 0 1-.438.884c-.42.594-1.009 1.122-1.63 1.61-.629.509-1.297.872-2.01 1.419-.347.264-.714.495-1.041.786l-.943.904c-1.191 1.261-2.206 2.713-2.848 4.336-.393.779-.563 1.644-.818 2.469-.092.422-.144.858-.21 1.28l-.091.64c-.026.211-.013.436-.026.647a16.672 16.672 0 0 0 2.684 9.755l.726 1.043c.243.35.478.699.773 1.003l.838.944c.275.317.55.633.87.904.636.554 1.205 1.148 1.893 1.67.694.521 1.38.97 2.003 1.458zm0 0c-.688-.541-1.303-1.115-1.899-1.63-.602-.528-1.159-1.175-1.741-1.749-.301-.284-.55-.614-.805-.944l-.76-.976c-.268-.311-.478-.667-.687-1.023l-.648-1.05a16.374 16.374 0 0 1-2.207-9.339c.014-.198.007-.403.04-.601l.111-.594c.079-.396.124-.792.216-1.181.255-.759.426-1.551.799-2.257.609-1.485 1.584-2.772 2.664-3.921l.864-.818c.302-.257.636-.469.956-.706.603-.469 1.401-.911 2.069-1.439.68-.535 1.355-1.109 1.905-1.881.275-.376.51-.832.642-1.353a2.261 2.261 0 0 0-.053-1.294 1.54 1.54 0 0 0-.262-.475.634.634 0 0 0-.897-.112.652.652 0 0 0-.117.898l.026.039c.844 1.129 1.65 2.304 2.265 3.564.609 1.267 1.12 2.581 1.427 3.954a16.528 16.528 0 0 1-.36 8.355c-.393 1.366-.975 2.673-1.643 3.934l-1.048 1.927c-.32.667-.648 1.333-.877 2.039-.497 1.393-.805 2.865-.844 4.343-.04 1.485.21 2.99.864 4.29z"/><path fill="#96551E" d="M15.005 128.766a12.683 12.683 0 0 1 2.625 7.999c0 .706-.118 1.399-.21 2.092-.058.343-.163.686-.242 1.023l-.124.508-.177.495-.353.997c-.131.323-.295.64-.445.963a31.586 31.586 0 0 1-.976 1.947c-1.303 2.64-2.553 5.379-3.077 8.369-.262 1.485-.288 3.049.079 4.534a8.396 8.396 0 0 0 2.173 3.868c-.811-1.228-1.374-2.587-1.545-3.993-.196-1.406-.032-2.825.288-4.204.688-2.759 1.938-5.392 3.241-7.98.327-.646.655-1.287.962-1.993.15-.35.321-.686.459-1.036l.36-1.082.17-.542.118-.567c.072-.376.163-.746.216-1.122l.104-1.142c.04-.383-.006-.766-.006-1.148-.118-3.043-1.434-6.033-3.64-7.986z"/><path fill="#96551E" d="M15.228 129.373c1.165 2.567 1.296 5.445.608 8.039-.333 1.307-.91 2.541-1.597 3.696-.68 1.128-1.532 2.336-2.239 3.557-.694 1.254-1.335 2.548-1.8 3.934-.445 1.386-.733 2.864-.629 4.343.072 1.478.511 2.91 1.14 4.197.641 1.287 1.453 2.456 2.363 3.525-1.362-2.449-2.547-5.049-2.488-7.749.033-2.686 1.192-5.22 2.54-7.596.354-.594.688-1.195 1.067-1.769.367-.568.747-1.188 1.113-1.822.675-1.28 1.277-2.633 1.52-4.085.562-2.865.051-5.967-1.598-8.27z"/><path fill="#96551E" d="M15.214 129.664c.033 1.359-.255 2.686-.74 3.913-.464 1.235-1.165 2.357-1.983 3.373-.216.244-.425.495-.641.739l-.688.7c-.478.488-.988.977-1.427 1.518-.897 1.076-1.676 2.264-2.259 3.564a13.083 13.083 0 0 0-1.014 4.138c-.112 1.426.091 2.858.458 4.211.779 2.706 2.278 5.102 4.13 7.082-1.426-2.31-2.605-4.759-3.148-7.326a12.402 12.402 0 0 1 .753-7.577c.51-1.182 1.217-2.284 2.023-3.307.392-.528.838-.996 1.283-1.491l.7-.786c.216-.277.42-.561.629-.845.805-1.148 1.434-2.428 1.78-3.788.348-1.36.459-2.785.144-4.118zm-8.164-9.036c1.559.713 3.189 1.254 4.852 1.677 1.663.416 3.365.719 5.087.845 3.424.25 7.03-.245 10.14-1.98.766-.443 1.513-.924 2.187-1.505l1.957-1.63c1.33-1.037 2.71-2.007 4.158-2.845 1.46-.825 2.959-1.564 4.523-2.132a21.99 21.99 0 0 1 2.377-.719c.792-.192 1.643-.33 2.383-.363h.039a.646.646 0 0 0 .288-1.208c-1.623-.924-3.28-1.558-5.002-2.092a29.225 29.225 0 0 0-5.263-1.102c-3.562-.383-7.215-.159-10.658.858-3.45.976-6.678 2.633-9.525 4.758a39.835 39.835 0 0 0-7.542 7.438zm0 0c2.39-2.593 5.002-4.989 7.922-6.91 2.88-1.967 6.082-3.438 9.42-4.296 3.34-.865 6.836-1.056 10.246-.614 1.703.218 3.398.567 5.035 1.089 1.63.515 3.267 1.175 4.707 1.986l.327-1.214c-.962.046-1.8.205-2.664.416-.851.211-1.696.462-2.514.772a28.24 28.24 0 0 0-4.714 2.27c-1.492.898-2.9 1.928-4.249 3.017l-1.95 1.689c-.61.561-1.29 1.023-1.99 1.459-2.849 1.689-6.26 2.316-9.611 2.224-3.378-.066-6.75-.766-9.964-1.888z"/><path fill="#96551E" d="M44.714 111.323c-3.123-1.261-6.553-1.663-9.925-1.663-3.391.006-6.763.554-10.036 1.419-1.61.521-3.247.983-4.792 1.676l-1.172.488c-.393.159-.78.324-1.152.528a93.52 93.52 0 0 0-2.252 1.162c-.76.37-1.473.818-2.187 1.274l-2.134 1.353a95.427 95.427 0 0 0-4.007 3.069c1.48-.812 2.887-1.703 4.34-2.521l2.213-1.155c.734-.383 1.46-.799 2.226-1.109.76-.337 1.513-.673 2.266-1.023.373-.185.759-.337 1.145-.475l1.159-.436c1.525-.64 3.116-1.082 4.694-1.571 3.182-.864 6.435-1.452 9.722-1.663 3.286-.191 6.625-.092 9.892.647z"/><path fill="#96551E" d="M44.026 111.375c-3.123-.785-6.474-.666-9.63.179a19.175 19.175 0 0 0-4.556 1.848c-.373.178-.714.409-1.06.64l-1.022.68c-.655.442-1.29.917-1.964 1.333-2.632 1.736-5.427 3.24-8.426 4.112a20.932 20.932 0 0 1-4.622.798c-1.577.119-3.175.053-4.779.013 1.571.33 3.162.568 4.786.634a18.904 18.904 0 0 0 4.864-.455c1.604-.35 3.142-.931 4.635-1.604a37.917 37.917 0 0 0 4.249-2.403c.687-.435 1.329-.93 1.997-1.392l.968-.66c.321-.218.642-.442.982-.627 1.316-.832 2.763-1.426 4.236-1.947a24.066 24.066 0 0 1 9.342-1.149zm61.519-80.56s4.524-2.085 3.555-6.765c-.969-4.68.354-8.48.354-8.48s-14.102 6.421-6.992 14.816c-3.234 5.38-1.951 12.369 4.759 16.764 0 0-.87-4.085.897-7.062 1.774-2.963-.399-7.774-2.573-9.273z"/><path fill="#96551E" d="M107.824 21.166c1.918-1.842 4.144-3.32 6.566-4.112 1.218-.37 2.461-.561 3.705-.508l.93.072c.308.047.609.12.916.179.295.052.622.132.956.21.334.073.661.166.995.232 1.342.237 2.704.363 4.066.35 1.362-.047 2.73-.205 4.046-.568 1.316-.35 2.599-.884 3.738-1.65 1.119-.772 2.127-1.802 2.592-3.076-.726 1.129-1.774 1.94-2.92 2.522-1.139.594-2.383.963-3.639 1.207-2.521.482-5.127.41-7.647-.072-.314-.053-.628-.139-.943-.205a20.88 20.88 0 0 0-.982-.204c-.347-.06-.687-.139-1.034-.185l-1.054-.053c-1.401.013-2.796.264-4.079.785-2.546 1.05-4.694 2.871-6.212 5.076z"/><path fill="#96551E" d="M136.897 26.525c1.349-1.34 2.429-2.976 3.071-4.818.294-.924.51-1.907.471-2.904-.052-.99-.229-2.006-.681-2.904-.811-1.821-2.199-3.36-3.901-4.409-.845-.534-1.781-.904-2.737-1.174-.969-.264-1.918-.423-2.979-.416l.524.97c.936-1.168 2.154-2.23 3.489-2.95 1.349-.706 2.848-1.043 4.334-.904 1.486.138 2.914.759 4.203 1.617 1.277.87 2.422 1.96 3.123 3.3.707 1.333.89 2.897.57 4.402-.321 1.505-1.054 2.943-2.01 4.204-1.918 2.541-4.59 4.508-7.477 5.986zm0 0a21.233 21.233 0 0 0 4.347-2.25c1.369-.911 2.645-1.987 3.719-3.274 1.08-1.274 1.957-2.772 2.383-4.462.432-1.67.301-3.564-.511-5.141-.785-1.59-2.049-2.851-3.437-3.815-1.407-.95-3.031-1.683-4.785-1.868-1.748-.198-3.536.245-5.054 1.063-1.513.851-2.815 1.954-3.876 3.366a.598.598 0 0 0 .118.845.605.605 0 0 0 .373.125h.039a10.211 10.211 0 0 1 5.113 1.307 9.269 9.269 0 0 1 3.686 3.841c.864 1.59.962 3.511.504 5.307-.478 1.795-1.434 3.478-2.619 4.956zm-28.432 12.83c.557.905 1.395 1.604 2.285 2.192.897.58 1.885 1.023 2.907 1.34 1.021.336 2.082.514 3.136.627 1.086.105 2.062.125 3.09.23 1.014.08 2.029.179 3.037.324 1.015.119 2.017.303 3.012.495.995.211 1.983.442 2.939.779.956.33 1.886.752 2.652 1.471-.544-.917-1.473-1.55-2.397-2.059a16.615 16.615 0 0 0-2.946-1.181c-2.022-.627-4.104-.944-6.193-1.135-2.121-.165-4.124-.073-6.075-.535-.975-.211-1.944-.502-2.861-.917-.923-.41-1.82-.924-2.586-1.63z"/><path fill="#96551E" d="M136.59 32.841a18.121 18.121 0 0 1 1.748 3.05c.477 1.062.838 2.19.936 3.333.104 1.135-.112 2.296-.727 3.207-.308.456-.674.871-1.139 1.188-.229.165-.432.35-.681.489l-.733.422a17.023 17.023 0 0 1-3.201 1.214c-1.1.324-2.233.555-3.379.746-2.278.37-4.608.58-6.9.627h-.026a.563.563 0 0 0-.55.568c0 1.34.262 2.547.648 3.755.4 1.195.93 2.35 1.657 3.386 1.374 2.119 3.384 3.749 5.545 4.937 1.086.614 2.226 1.05 3.41 1.465a7.8 7.8 0 0 0 3.837.25c2.566-.455 4.759-2.052 6.291-4.012 3.123-3.927 4.144-9.359 2.756-14.117-.648-2.396-1.99-4.548-3.646-6.317-1.663-1.768-3.686-3.161-5.846-4.19zm0 0c2.068 1.208 3.987 2.68 5.512 4.502.373.461.759.91 1.067 1.418.157.251.34.482.484.74l.419.779c.295.508.498 1.069.734 1.603.176.561.399 1.102.517 1.683 1.146 4.548.013 9.597-2.907 13.16-1.44 1.783-3.424 3.13-5.591 3.512a6.542 6.542 0 0 1-3.247-.238c-1.067-.376-2.167-.818-3.168-1.379-2.017-1.102-3.863-2.58-5.12-4.501-.668-.937-1.146-1.987-1.538-3.063-.367-1.069-.622-2.25-.642-3.326l-.57.567c2.39-.085 4.727-.35 7.058-.798 2.324-.456 4.648-1.096 6.762-2.277l.773-.482c.255-.158.484-.376.727-.568.484-.37.91-.858 1.224-1.399.648-1.089.799-2.395.628-3.59-.17-1.208-.608-2.337-1.145-3.392a16.851 16.851 0 0 0-1.977-2.95zm.307-6.316c-2.461 1.096-5.014 1.868-7.581 2.521a66.941 66.941 0 0 1-7.816 1.42c-1.316.124-2.632.296-3.961.342-.661.04-1.323.1-1.984.12-.661.006-1.329.019-1.99.039l-.995.026-.995-.02-2.003-.02c-1.336-.026-2.671-.131-4.02-.131a65.87 65.87 0 0 0 3.967.778c1.336.139 2.678.37 4.033.396 2.704.192 5.414.046 8.111-.224 2.691-.356 5.362-.891 7.941-1.742 2.56-.858 5.087-1.934 7.293-3.505z"/><path fill="#96551E" d="M136.59 32.842c-.171-.707-.583-1.307-1.067-1.822a5.785 5.785 0 0 0-1.716-1.234c-.641-.29-1.329-.509-2.029-.555a4.907 4.907 0 0 0-2.069.238c.648.317 1.257.515 1.84.765.589.218 1.145.489 1.702.733.556.258 1.093.548 1.643.858.557.31 1.1.64 1.696 1.017zm9.564-14.408c1.388 1.683 2.58 3.491 3.457 5.412.864 1.92 1.394 3.98 1.257 6.019-.039 1.023-.282 2.02-.648 2.976-.157.489-.406.944-.629 1.413-.275.442-.51.91-.825 1.333-1.191 1.73-2.73 3.254-4.373 4.693 1.945-.99 3.745-2.337 5.179-4.073 1.46-1.709 2.435-3.933 2.586-6.263.124-2.33-.544-4.62-1.657-6.56-1.1-1.954-2.579-3.657-4.347-4.95z"/><path fill="#96551E" d="M158.652 42.055c-6.697-5.075-13.814-9.22-22.324-10.084-.406-.04-.485.594-.079.633 3.83.376 7.706 1.525 11.247 3.05 3.974 1.709 7.326 4.415 11.077 6.514.079.04.151-.06.079-.113zm1.041-5.9c-7.876-4.574-17.755-6.99-26.802-6.6-.393.02-.315.627.078.607 8.956-.343 18.678 2.105 26.665 6.112.065.033.124-.08.059-.12zm-7.496-15.682c.078-.053-.007-.165-.085-.132-5.375 2.264-9.964 4.963-15.752 6.224-.248.052-.17.468.086.442 5.479-.515 11.266-3.373 15.751-6.534zm5.1 5.789c-3.902.35-7.752.983-11.66 1.26-4.432.31-9.322-.099-13.624.957-.157.04-.117.258.027.27 8.327.747 17.113-.89 25.289-2.303.118-.026.079-.198-.032-.184z"/><path fill="#96551E" d="M153.454 19.813c-.007-.046-.033-.066-.053-.099a.291.291 0 0 0-.248-.244 2.563 2.563 0 0 0-.747-.033c-.779-.033-1.695.303-1.479 1.115.386 1.42 2.815.574 2.527-.739zm5.08 6.468c-.236-.785-1.761-1.505-2.403-.818-.019.02-.032.046-.045.066-.072.033-.151.066-.223.125-.314.251-.334.805.079.977.693.29 1.505.74 2.258.363.282-.132.432-.39.334-.713zm1.977 10.118c.262-.165.308-.555.138-.792a1.587 1.587 0 0 0-.092-.119c-.125-.35-.439-.68-.746-.878-.465-.297-.989-.587-1.552-.574-.609.013-1.028.508-.89 1.115.045.205.15.39.268.561.007.014.007.027.013.04.17.323.485.541.812.68.281.119.635.198.975.191.393.027.766-.033 1.074-.224zm-.897 6.653c.053-.02.111-.04.164-.073.321-.178.484-.568.314-.91-.53-1.09-1.794-1.862-2.998-1.862-.439 0-.727.284-.701.733.033.6.635 1.161 1.048 1.524.465.41 1.152.911 1.807.766a.912.912 0 0 0 .366-.178zM-29.46 25.957c5.453-1.102 10.953-2 16.484-2.68 5.539-.633 11.09-1.128 16.668-1.405 11.143-.561 22.33-.469 33.486.119 11.163.58 22.298 1.65 33.388 3.122 11.084 1.485 22.141 3.3 33.055 5.702h.006c.196.04.386-.08.432-.277a.368.368 0 0 0-.275-.436c-10.933-2.534-21.977-4.475-33.074-6.092-11.096-1.597-22.252-2.792-33.446-3.504-11.195-.713-22.43-.938-33.657-.495-5.61.21-11.22.646-16.812 1.227-5.59.62-11.162 1.465-16.694 2.521-.602.113-.995.7-.883 1.307a1.11 1.11 0 0 0 1.296.891h.026z"/><path fill="#96551E" d="M-9.25 21.694a98 98 0 0 1 12.039-.726 94.595 94.595 0 0 1 12 .686c3.967.515 7.902 1.28 11.705 2.475a53.642 53.642 0 0 1 5.578 2.112 43.032 43.032 0 0 1 5.224 2.845l.164-1.175c-1.879.515-3.876.858-5.84 1.135a69.465 69.465 0 0 1-5.977.482c-3.993.152-8.013-.026-11.98-.6-3.96-.581-7.915-1.386-11.725-2.667-1.945-.541-3.797-1.326-5.683-2.052-.969-.344-1.807-.799-2.723-1.208a61.287 61.287 0 0 1-2.783-1.307zm0 0c.87.449 1.734.924 2.625 1.426.897.481 1.82 1.03 2.743 1.405 1.852.819 3.686 1.703 5.617 2.343 3.803 1.44 7.77 2.396 11.784 3.07 4.013.699 8.098.91 12.17.824 4.079-.118 8.124-.56 12.144-1.603a.642.642 0 0 0 .458-.786.627.627 0 0 0-.281-.383l-.013-.006a46.026 46.026 0 0 0-5.414-2.91c-1.873-.813-3.784-1.545-5.742-2.126-3.908-1.155-7.921-1.907-11.954-2.303a84.559 84.559 0 0 0-12.124-.31c-4.027.21-8.06.58-12.014 1.359z"/><path fill="#96551E" d="M-9.25 21.694c3.92.581 7.836 1.136 11.75 1.637l11.752 1.544a638.9 638.9 0 0 1 11.725 1.624c1.95.284 3.895.6 5.846.924l2.92.508c.962.212 1.931.416 2.907.6-3.732-1.359-7.614-2.27-11.496-3.042-1.938-.416-3.902-.713-5.853-1.056a293.248 293.248 0 0 0-5.879-.858c-3.928-.508-7.862-.944-11.81-1.254-3.948-.33-7.902-.548-11.863-.627zM106.894 5.9a81.697 81.697 0 0 0-7.195-.198 97.188 97.188 0 0 0-7.201.337c-4.786.429-9.578 1.234-14.193 2.686a77.59 77.59 0 0 0-6.809 2.462 131.544 131.544 0 0 0-6.619 2.91A176.663 176.663 0 0 0 52.06 20.79a.652.652 0 0 0-.242.884c.118.211.34.33.563.33 4.857-.006 9.65-.383 14.442-.977 4.779-.607 9.538-1.452 14.206-2.68 2.33-.62 4.642-1.32 6.926-2.098a84.45 84.45 0 0 0 6.724-2.68 69.596 69.596 0 0 0 6.376-3.419c1.008-.66 2.036-1.293 3.005-2.02.976-.679 1.925-1.517 2.835-2.23zm0 0c-1.008.74-1.931 1.42-2.959 2.06-.989.68-2.036 1.267-3.064 1.88a69.44 69.44 0 0 1-6.462 3.129 87.423 87.423 0 0 1-6.723 2.488 99.988 99.988 0 0 1-6.907 1.907c-4.654 1.063-9.361 1.934-14.108 2.475-4.74.548-9.532.878-14.278.852l.32 1.214a177.757 177.757 0 0 1 12.669-6.745c4.307-2.08 8.72-3.947 13.224-5.491 4.504-1.545 9.21-2.449 13.957-3.003 4.74-.588 9.539-.812 14.331-.766z"/><path fill="#96551E" d="M52.386 21.35c4.537-1.379 9.054-2.765 13.565-4.197l13.539-4.21a551.066 551.066 0 0 1 13.59-4l3.418-.911 3.437-.838c1.145-.297 2.304-.495 3.456-.746.577-.139 1.159-.198 1.748-.277l1.755-.264c-4.746.066-9.447.99-14.062 2.046-4.622 1.076-9.185 2.362-13.722 3.735-4.524 1.413-9.028 2.891-13.48 4.502a237.129 237.129 0 0 0-13.244 5.16z"/><path fill="#FEC6AD" d="M145.415 87.654s4.235 1.485 3.98 2.277c-.255.792-2.776.647-4.34-.41 0 0 1.086 3.67-.308 3.65-1.395-.02-1.224-3.3-1.224-3.3s-3.856 2.601-4.57.984c-.714-1.617 2.435-2.838 2.435-2.838s-4.013-1.59-3.149-2.746c.865-1.155 4.635 1.01 4.635 1.01s-2.546-2.409-.798-2.983c1.748-.574 2.992 2.871 2.992 2.871s1.964-2.04 2.867-1.452c.903.587-2.52 2.937-2.52 2.937z"/><path fill="#fff" d="M17.237 66.092s2.455-3.993 1.408-4.488c-1.048-.495-2.377 3.55-2.377 3.55s-.936-3.867-2.134-3.55c-1.198.317 0 4.488 0 4.488s-3.188-1.076-3.332 0c-.137 1.076 3.332 2.06 3.332 2.06s-1.931 1.108-2.167 2.553c-.235 1.446 3.771-1.782 3.771-1.782s.74 2.885 1.506 3.056c.766.172 0-3.821 0-3.821s2.37 2.435 3.031 1.531c.668-.904-1.624-2.91-1.624-2.91s2.96-.66 2.691-1.611c-.268-.957-4.105.924-4.105.924z"/><path fill="#96551E" d="M66.58 140.672s-2.645-2.561-3.948-2.125c-1.303.435 2.547 3.088 2.547 3.088s-3.437.093-3.595 1.334c-.15 1.24 3.62.693 3.62.693s-1.315 2.659-.916 3.418c.4.759 2.75-3.069 2.75-3.069s.583 2.68 1.741 3.003c1.159.324-.203-3.253-.203-3.253s2.534 1.683 3.28.627c.74-1.056-2.435-2.211-2.435-2.211s2.841-1.38 2.677-1.954c-.163-.574-3.404.04-3.404.04s-.4-2.951-1.342-2.997c-.936-.053-.772 3.406-.772 3.406zm-10.586 3.445a1.254 1.254 0 0 1-.17-.119 1.143 1.143 0 0 1-.655-.349c-.491-.522-.426-1.235.04-1.703.025-.04.058-.079.09-.119a.686.686 0 0 1 .374-.205c.543-.25 1.237-.217 1.624.291.366.482.307 1.267.032 1.788-.268.509-.838.687-1.335.416z"/><path fill="#FEC6AD" d="M53.866 148.308c-.216-.264-.269-.567-.111-.878.261-.508.694-.759 1.171-.778.033-.02.066-.047.099-.06a.44.44 0 0 1 .222-.039.404.404 0 0 1 .216.039c-.013-.125.053-.145.197-.059.078.026.15.059.216.099.091.059.17.132.242.204.13.139.223.317.262.509.085.402-.072.825-.36 1.108-.609.614-1.61.522-2.154-.145z"/><path fill="#FADBD7" d="M58.167 146.487c-.17-.356.092-.686.426-.779a2.21 2.21 0 0 1 .72-.092c.51.02.68.838.183 1.023l-.059.02c-.026.039-.052.079-.085.118-.033.027-.196.179-.235.198a.627.627 0 0 1-.347.06c-.308-.053-.485-.297-.603-.548z"/><path fill="#fff" d="M8.877 75.484a.872.872 0 0 1 .321-.132c.138-.072.282-.132.439-.158.314-.053.537.06.72.31.262.356.4.819.301 1.215a.71.71 0 0 1-.02.165c-.268.877-1.23.963-1.787.395-.046-.032-.105-.052-.144-.092-.497-.455-.373-1.333.17-1.703zm2.959 4.033c.027-.29.36-.521.629-.383-.013-.007-.007 0 .006.007.02.013.04.02.06.033-.014-.014-.033-.02-.046-.027.006 0 .006 0 .013.007.032.007.059.026.091.04a.535.535 0 0 1 .256-.086c.17-.007.19.105.307.171.007-.02.007-.033.013-.052.072.04.125.092.17.164.158.238.118.548-.006.792-.196.39-.655.634-1.067.41-.373-.225-.465-.674-.426-1.076z"/><path fill="#96551E" d="M8.445 79.972c.033-.138.197-.29.34-.297.164-.013.341-.02.505.007.576-.12 1.139.64.609 1.095a1.911 1.911 0 0 1-.459.304c-.373.171-.766.053-.91-.356-.085-.238-.15-.45-.085-.753z"/><path fill="#fff" d="M64.308 56.232a.713.713 0 0 1 .255-.317 1.27 1.27 0 0 1 .563-.693c.144-.085.373-.092.51.014.217.158.413.356.564.58a.89.89 0 0 1 .255 1.142c-.006.033-.006.06-.013.093-.144.534-.648.91-1.205.772-.615-.159-1.178-.957-.93-1.59z"/><path fill="#96551E" d="M60.498 56.179a1.324 1.324 0 0 1-.118-.304.515.515 0 0 1 .15-.501c.079-.073.17-.132.262-.185a1.17 1.17 0 0 1 .236-.172c.393-.211.845-.105 1.126.231a.963.963 0 0 1 .19.396c.04.073.065.145.091.218.06.172-.026.37-.144.495-.02.02-.045.046-.072.066a.895.895 0 0 1-.7.449c-.426.033-.897-.27-1.021-.693z"/><path fill="#FEC6AD" d="M62.311 59.75c-.196-.125-.36-.337-.478-.528a.501.501 0 0 1 .013-.515c.243-.37.642-.713 1.107-.56.38.125.602.494.635.884.032.382-.19.765-.596.798a.532.532 0 0 1-.203-.02.633.633 0 0 1-.478-.059z"/><path fill="#fff" d="M12.007 7.933c.235-.442.87-.555 1.322-.403.57.185.818.805.7 1.373-.124.58-.608 1.05-1.21 1.063-.459.013-1.055-.198-1.343-.575-.438-.58 0-1.148.53-1.458z"/><path fill="#96551E" d="M9.493 4.613c.255-.1.563-.12.798.006.105.02.21.053.301.106.17.06.321.171.406.343a.75.75 0 0 1 .079.376c.059.39-.138.753-.485.858a.597.597 0 0 1-.085.053c-.478.25-1.034-.013-1.335-.416-.347-.449-.249-1.102.32-1.326z"/><path fill="#FEC6AD" d="M8.091 8.719a.659.659 0 0 1 .446-.528c.013-.04.026-.08.045-.12.08-.17.334-.25.505-.19.38.131.694.435.654.844a.34.34 0 0 1 .06.205c-.047.402-.328.548-.61.534a.873.873 0 0 1-.34.093c-.445.026-.812-.403-.76-.838z"/><path fill="#96551E" d="M150.521 73.412c.046-.02.092-.027.137-.04.426-.27.943-.39 1.421-.264.831.218 1.277 1.122 1.119 1.94-.294 1.492-2.068 2.588-3.397 1.637-1.283-.924-.576-2.791.72-3.273z"/><path fill="#FEC6AD" d="M146.2 70.085c.059-.218.177-.41.321-.574.34-.627 1.021-1.023 1.781-.647.982.488 1.335 1.986.556 2.798-.478.502-1.309.673-1.918.343-.674-.356-.936-1.207-.74-1.92z"/><path fill="#FADBD7" d="M144.74 74.93c.007-.12.026-.232.053-.344.124-.455.327-.977.864-1.043a.765.765 0 0 1 .576.165.634.634 0 0 1 .177.205c.032.02.072.046.104.08a.412.412 0 0 1 .105.177c.098.126.19.258.249.396.347.825-.321 1.44-1.08 1.584-.459.086-1.002-.02-1.146-.534-.059-.225-.013-.462.098-.687z"/><path fill="#fff" stroke="#96551E" stroke-linecap="round" stroke-linejoin="round" stroke-miterlimit="10" d="M169.866 42.174s7.464 7.128-.072 15.932c.007 0-8.196-7.874.072-15.932zM37.8 45.764s.491-7.696-8.294-7.834c0 .006-3.418 6.514 8.294 7.834zM16.936 170.92s-6.422-4.878-11.869 3.346c-.006.007 6.396 6.461 11.87-3.346zm60.079-10.897s7.424 3.485 2.625 12.897c0 0-8.249-3.987-2.625-12.897z"/></g></g></svg>