<svg xmlns="http://www.w3.org/2000/svg" width="495" height="330" fill="none"><g opacity=".5"><mask id="a" width="496" height="331" x="0" y="-1" maskUnits="userSpaceOnUse" style="mask-type:luminance"><path fill="#fff" d="M0 330h495.001V-.001H0V330z"/></mask><g mask="url(#a)"><g fill="#FADBD7" opacity=".7"><path d="M3.432 350.512c.29-.515.541-.924.818-1.366.271-.436.548-.852.825-1.274a91.198 91.198 0 0 1 1.71-2.475 101.578 101.578 0 0 1 3.63-4.732 118.472 118.472 0 0 1 7.96-8.798 125.77 125.77 0 0 1 8.738-7.947 122.294 122.294 0 0 1 9.412-7.088c3.24-2.211 6.56-4.297 9.985-6.191 1.69-.983 3.446-1.854 5.175-2.759.864-.455 1.755-.851 2.633-1.28.885-.416 1.756-.858 2.653-1.234a142.834 142.834 0 0 1 22.005-7.749c.033-.006.072.014.079.047.006.033-.013.072-.046.079a142.106 142.106 0 0 0-21.43 8.897c-.872.422-1.703.91-2.555 1.366-.845.468-1.703.911-2.528 1.406-1.656.983-3.333 1.94-4.943 2.996-3.26 2.046-6.409 4.27-9.451 6.607a117.93 117.93 0 0 0-8.791 7.418 121.817 121.817 0 0 0-8.046 8.171 113.712 113.712 0 0 0-7.187 8.877 96.176 96.176 0 0 0-3.201 4.686 99.165 99.165 0 0 0-1.472 2.402c-.231.403-.469.805-.686 1.208-.225.396-.45.825-.62 1.168l-.02.04a2.637 2.637 0 1 1-4.72-2.356.741.741 0 0 0 .073-.119z"/><path d="M98.241 289.706s-17.892-3.195-32.09 12.362c0 0 17.781 1.28 32.09-12.362zm-43.355 17.41s14.09-4.653 27.344 10.131c0 0-20.071 3.769-27.344-10.131z"/><path d="M71.749 277.007s-18.328 12.21-16.863 30.11c0 0 20.143-13.491 16.863-30.11zm-21.839 5.907s-12.455 16.632-6.25 30.624c0 0 13.021-16.467 6.25-30.624zm-13.141 10.514s-14.877 15.174-8.805 32.176c0-.007 11.966-11.867 8.805-32.176zm-.357 25.153s14.897-6.158 32.13 8.263c-.008 0-15.042 6.356-32.13-8.263zm-13.2 11.649s18.375-6.501 34.103 8.64c0 .006-18.46 2.092-34.103-8.64zM-33.39 187.498c.542.231.977.436 1.446.66.462.218.91.449 1.36.673.897.462 1.775.938 2.646 1.419 1.742.977 3.439 2.013 5.115 3.076a118.084 118.084 0 0 1 9.63 6.923 124.884 124.884 0 0 1 8.877 7.795 122.213 122.213 0 0 1 8.098 8.554c2.56 2.97 5.01 6.039 7.273 9.226 1.162 1.571 2.23 3.215 3.326 4.832.548.811 1.043 1.65 1.564 2.475.509.831 1.05 1.643 1.525 2.501a142.814 142.814 0 0 1 10.17 21.001c.014.033-.006.073-.039.086-.033.013-.072 0-.086-.033a142.621 142.621 0 0 0-11.246-20.295c-.515-.818-1.096-1.591-1.643-2.383-.561-.785-1.096-1.584-1.677-2.356-1.168-1.538-2.303-3.089-3.53-4.574a123.488 123.488 0 0 0-7.63-8.652 121.027 121.027 0 0 0-8.356-7.907 121.797 121.797 0 0 0-9.022-7.075 115.263 115.263 0 0 0-9.63-6.145 99.17 99.17 0 0 0-5.016-2.653 91.095 91.095 0 0 0-2.554-1.195c-.429-.184-.851-.376-1.28-.547a20.27 20.27 0 0 0-1.228-.482l-.04-.013a2.636 2.636 0 0 1 1.809-4.95c.046 0 .099.019.138.039z"/><path d="M37.68 274.876s1.16-18.137-15.887-30.499c0 0 .72 17.814 15.886 30.499zm-22.17-41.124s6.204 13.477-6.996 28.307c0 0-6-19.516 6.996-28.307zm31.812 13.377s-14.19-16.843-31.812-13.378c0 0 15.662 18.506 31.812 13.378zm-8.316-21.04s-17.926-10.508-31.132-2.772c-.007-.007 17.82 11.088 31.132 2.772zM27.08 214.208s-16.744-13.081-32.96-5.134c0 0 13.133 10.56 32.96 5.134zm-25.04 2.469s7.787 14.111-4.608 32.855c.007 0-7.999-14.229 4.607-32.855zm30.194-19.358c.1.158.225.277.357.383.072.079.152.152.23.218.212.178.535.29.826.27.04.013.072.027.112.04.805.297 1.584-.324 1.505-1.168-.046-.515.026-1.063-.317-1.499a1.325 1.325 0 0 0-.607-.422c-.08-.079-.165-.165-.25-.238-.45-.402-1.083-.237-1.46.146-.336.211-.54.62-.52 1.036v.013c-.106.409-.113.825.124 1.221zm-5.418 1.03.02.039c.072.581.646 1.037 1.234.944.409-.059.798-.29 1.135-.515.132-.092.27-.191.376-.31.43-.488.304-1.293-.29-1.597-.27-.139-.482-.086-.753-.066.007-.007.014-.007.02-.013-.013.006-.04.006-.053.013h-.026a.059.059 0 0 0-.04.013c-.085.02-.184.027-.257.046-.02.007-.033.014-.053.02-.026-.006-.053-.013-.079-.013-.535-.04-1.102.297-1.214.825a.887.887 0 0 0-.02.614zm95.126 123.348c.264.264.541.64.924.726.171.039.356.033.541.033.178.072.363.132.561.138a.935.935 0 0 0 .904-.653c.225-.733-.515-1.241-1.109-1.465-.442-.172-.838-.198-1.306-.165-.614.039-.951.95-.515 1.386zm-3.366 4.012c-.027.238.006.509.112.726.317.641.964.746 1.604.687.35-.033.772-.357.858-.706.099-.39.35-.799.389-1.202.046-.415-.132-.798-.455-1.062-.172-.145-.383-.231-.568-.363-.369-.264-.831-.363-1.234-.093-.389.251-.482.68-.409 1.103a.91.91 0 0 0-.218.33.912.912 0 0 0-.04.376c-.006.039-.033.165-.039.204zM15.86 289.086c.198.409.303.891.64 1.221.442.435 1.05.422 1.63.488a1.12 1.12 0 0 0 1.208-.897h.007c.217-.113.376-.363.442-.594.27-.951-.337-1.802-1.201-2.112-.674-.238-1.347-.132-2 .105-.66.244-1.036 1.142-.726 1.789zm-5.148 3.69c.264.719 1.036 1.175 1.769.752.092-.053.184-.119.27-.178.304.079.614.119.911.086.554-.06 1.109-.522.917-1.155-.118-.211-.244-.416-.363-.627-.006-.495-.356-.977-.89-.937-.06-.033-.113-.073-.179-.099-.25-.126-.515-.192-.772-.284-.733-.277-1.445.059-1.789.739-.25.515-.059 1.201.126 1.703zm4.851 2.963c0 .396.204.739.482 1.056.264.303.838.369 1.168.145.607-.409 1.003-1.089.878-1.835-.106-.62-.515-.983-1.023-1.128-.106-.238-.403-.443-.594-.119-.086.006-.172.02-.251.026-.04.013-.073.04-.112.053-.1.02-.192.04-.284.066.026.013.046.026.072.033-.607.389-.706 1.162-.336 1.703z"/></g><path fill="#FADBD7" d="M162.611 301.956s-4.283 5.604-9.939 14.791c-5.525 8.983-1.763 19.048 2.574 20.678 0 .006 17.886-14.52 7.365-35.469zm15.035 14.315s-4.831-5.821-.482-12.962c4.35-7.141 11.286-14.639 10.514-20.731 0 0 6.428 9.9 2.792 18.414-3.637 8.514-12.824 15.279-12.824 15.279zm17.021-5.827s-2.877-9.808 4.244-17.576c7.122-7.762 6.95-17.536 6.95-17.536s6.706 7.656 4.415 18.46c-2.303 10.804-8.976 16.084-15.609 16.652zm2.739 9.543s1.749-10.619 11.966-12.164c10.217-1.537 14.804-4.224 16.777-7.933 0 0-7.682 28.657-28.743 20.097zm-20.638 17.147s3.769-8.131 13.299-6.646c9.531 1.491 15.583 1.802 19.893-1.776 0 0-15.51 26.242-33.192 8.422z"/><path fill="#E39F96" d="M138.25 359.917c4.343-6.586 9.366-12.731 14.784-18.493 5.426-5.762 11.353-11.088 17.84-15.708 3.3-2.264 6.64-4.31 9.947-6.441 3.319-2.106 6.593-4.257 9.761-6.541l1.181-.865 1.142-.904c.772-.594 1.492-1.241 2.224-1.874.377-.31.72-.654 1.056-.99.344-.343.7-.673 1.03-1.023.634-.726 1.3-1.426 1.861-2.218 2.409-3.036 3.855-6.745 5.049-10.494-.402 1.927-.825 3.868-1.538 5.729l-.25.706c-.093.231-.198.456-.297.687-.205.455-.403.917-.621 1.366-.482.878-.937 1.775-1.518 2.594-2.211 3.379-5.247 6.098-8.342 8.566-3.109 2.482-6.396 4.686-9.669 6.897-3.287 2.185-6.653 4.271-9.828 6.488-3.174 2.257-6.27 4.64-9.22 7.207-3.003 2.508-5.834 5.214-8.659 7.934a234.111 234.111 0 0 0-15.933 17.377z"/><path fill="#E39F96" d="M158.347 319.671c-.026 2.052-.171 4.098-.369 6.144-.211 2.046-.475 4.086-.871 6.105-.403 2.02-.852 4.039-1.532 6.006-.673 1.967-1.498 3.901-2.673 5.69a.641.641 0 0 1-.891.184.641.641 0 0 1-.184-.891c.006-.006.013-.019.019-.026l.014-.013c1.168-1.591 2.059-3.399 2.818-5.274.765-1.874 1.307-3.841 1.815-5.814.495-1.98.864-3.993 1.181-6.013.291-2.02.535-4.052.673-6.098zm27.226-2.449c.31.369.825.746 1.293 1.069l.766.442c.264.132.541.244.812.363.264.132.561.205.844.297.291.079.568.205.865.244.594.099 1.181.271 1.789.284.607.04 1.214.119 1.828.066.614-.039 1.227 0 1.835-.125.607-.093 1.221-.165 1.828-.277l1.802-.449c.607-.126 1.188-.363 1.775-.561.587-.211 1.181-.39 1.762-.627l1.71-.759c.567-.258 1.155-.489 1.696-.799 1.095-.607 2.224-1.148 3.293-1.808l3.195-1.993-3.109 2.131c-1.043.7-2.152 1.301-3.227 1.954-.535.337-1.109.594-1.67.878l-1.696.838c-.575.264-1.169.475-1.756.713-.594.224-1.168.495-1.789.647l-1.828.534c-.62.145-1.254.244-1.881.37-.627.152-1.274.145-1.907.211-.64.079-1.287.033-1.934.013-.647.013-1.287-.138-1.934-.218-.323-.033-.633-.151-.957-.224-.317-.092-.64-.152-.944-.29-.303-.126-.62-.231-.924-.37l-.884-.462c-.574-.37-1.115-.7-1.643-1.267a.645.645 0 1 1 .957-.865l.033.04zm-9.491 5.908c-.02-1.281.132-2.442.336-3.63.192-1.182.482-2.337.799-3.479.647-2.283 1.518-4.488 2.508-6.626l.772-1.591c.271-.521.561-1.036.838-1.551.542-1.042 1.188-2.033 1.789-3.036.62-.996 1.307-1.953 1.954-2.93l2.098-2.818-1.966 2.91c-.601 1.003-1.241 1.987-1.809 3.003-.554 1.03-1.148 2.033-1.637 3.096-.25.528-.514 1.043-.759 1.577l-.686 1.604c-.878 2.152-1.637 4.356-2.165 6.607-.257 1.128-.482 2.257-.614 3.399-.145 1.128-.224 2.31-.165 3.372v.046a.644.644 0 1 1-1.287.073c-.006-.007-.006-.02-.006-.026zm-8.263 5.365c.554-.977 1.016-2.139 1.386-3.281.369-1.155.653-2.336.877-3.537.198-1.201.363-2.422.423-3.65.079-1.228.066-2.462.02-3.696.151 1.228.277 2.455.303 3.696a32.032 32.032 0 0 1-.105 3.729 28.493 28.493 0 0 1-.588 3.709c-.29 1.234-.627 2.422-1.188 3.65a.647.647 0 1 1-1.175-.541.11.11 0 0 1 .027-.046l.02-.033z"/><path fill="#E39F96" d="M186.959 315.585c.6-.601 1.174-1.419 1.656-2.218.489-.818.898-1.689 1.261-2.58.336-.905.64-1.829.858-2.772.231-.944.376-1.914.495-2.885-.013.977-.053 1.967-.178 2.944a22.236 22.236 0 0 1-.561 2.917 19.189 19.189 0 0 1-1.01 2.825c-.429.924-.885 1.795-1.578 2.666a.654.654 0 0 1-.91.106.655.655 0 0 1-.106-.911c.013-.02.033-.039.046-.053l.027-.039zm-13.887 9.722c.165.178.482.396.753.574.297.171.6.343.924.475.316.152.66.251.99.37.349.085.686.198 1.042.257 1.413.277 2.898.323 4.363.172.739-.033 1.465-.198 2.198-.304a49.14 49.14 0 0 0 2.171-.508c.713-.225 1.432-.429 2.139-.667l2.105-.792-2.046.944c-.693.29-1.399.548-2.099.825-.713.238-1.439.462-2.165.673-.739.159-1.471.383-2.224.469a15.48 15.48 0 0 1-4.593.138c-.39-.039-.773-.132-1.155-.198-.377-.105-.766-.191-1.142-.336a10.244 10.244 0 0 1-1.109-.475c-.37-.212-.693-.383-1.076-.726a.646.646 0 0 1 .865-.957l.039.039.02.027z"/><path fill="#fff" d="M170.855 312.344c-.04-.026-.093-.039-.139-.053-.238-.118-.495-.118-.693.099-.436.476-.462 1.386-.165 2.053.073.224.178.442.304.653.132.218.409.284.64.212a.843.843 0 0 0 .191-.08 1.13 1.13 0 0 0 .277-.059c1.188-.416.33-2.383-.415-2.825zm19.945 11.267a1.104 1.104 0 0 0-.363.039c-.416.027-.838.179-1.129.443-.534.244-.528 1.115-.132 1.491.317.297.786.37 1.201.31.423-.059.872-.244 1.129-.594.086-.118.145-.257.178-.396.251-.607-.198-1.247-.884-1.293zm.402-17.497c.04.014.08.02.119.02.066.027.145.04.231.033.324-.013.561-.257.713-.548.178-.231.264-.521.224-.858a1.003 1.003 0 0 0-.046-.217 1.786 1.786 0 0 0-.185-.588c-.158-.297-.574-.455-.891-.33-.171-.026-.389.06-.481.192-.489.693-.7 1.96.316 2.296z"/><path fill="#FADBD7" d="M35.105 139.088s-5.332 4.752-14.183 11.167c-8.652 6.27-19.107 3.234-21.087-1.023 0 .007 13.306-19.173 35.27-10.144zM19.497 124.99s6.25 4.435 13.133-.501c6.884-4.937 13.926-12.521 20.137-12.21 0 0-10.494-5.736-18.817-1.413-8.316 4.33-14.454 14.124-14.454 14.124zm4.587-17.635s10.13 2.158 17.43-5.63c7.3-7.788 17.187-8.355 17.187-8.355s-8.25-6.191-18.989-3.05c-10.738 3.142-15.562 10.29-15.629 17.035zm-9.848-2.04s10.6-2.58 11.372-13.021c.772-10.442 3.135-15.28 6.732-17.556 0 0-28.367 9.952-18.104 30.577zm-15.747 22.157s7.926-4.429 5.696-13.94c-2.231-9.51-3.017-15.609.27-20.235 0 0-25.324 17.675-5.966 34.175z"/><path fill="#E39F96" d="M-21.589 168.128A235.123 235.123 0 0 0-5.26 150.704c2.534-3.056 5.049-6.125 7.352-9.352 2.37-3.175 4.541-6.488 6.574-9.867 2-3.38 3.854-6.937 5.808-10.428 1.986-3.472 3.96-6.963 6.23-10.296 2.264-3.32 4.772-6.587 8.02-9.082.785-.647 1.663-1.175 2.507-1.73.436-.257.891-.488 1.334-.732.224-.119.442-.244.666-.356l.693-.304c1.822-.864 3.755-1.439 5.67-1.993-3.697 1.492-7.327 3.234-10.21 5.9-.753.621-1.413 1.353-2.1 2.046-.33.357-.633.746-.956 1.116-.317.369-.634.746-.918 1.148-.587.786-1.188 1.564-1.723 2.389l-.825 1.221-.785 1.261c-2.066 3.373-3.993 6.844-5.86 10.355-1.895 3.505-3.716 7.029-5.75 10.541-4.17 6.903-9.1 13.299-14.506 19.219-5.399 5.933-11.22 11.477-17.55 16.368z"/><path fill="#E39F96" d="M17.536 144.75c-2.052.297-4.092.7-6.111 1.162-2.02.469-4.02.997-5.98 1.65-1.954.66-3.9 1.36-5.735 2.277-1.835.904-3.597 1.947-5.109 3.247l-.013.014a.652.652 0 0 1-.924-.073.651.651 0 0 1 .073-.924c.006-.007.02-.013.026-.02 1.716-1.32 3.61-2.303 5.544-3.135 1.934-.838 3.94-1.445 5.953-2.006 2.013-.555 4.06-.977 6.105-1.347a72.27 72.27 0 0 1 6.171-.845zm-12.395-5.577c-3.03-1.478-4.686-4.191-5.867-6.936-1.142-2.786-1.716-5.736-1.967-8.686-.092-.733-.066-1.478-.105-2.218-.007-.739-.08-1.478-.04-2.211l.086-2.211c.026-.739.046-1.471.145-2.204l.23-2.198c.087-.732.133-1.465.278-2.184l.72-4.35-.561 4.369c-.113.726-.14 1.459-.192 2.192l-.152 2.191c-.072.732-.06 1.465-.06 2.198l-.006 2.191c-.013.732.086 1.458.12 2.184.065.726.065 1.459.184 2.178.35 2.891 1.03 5.743 2.21 8.356.153.324.291.654.456.97l.548.918.27.455c.1.145.212.284.318.429.217.277.415.568.64.838l.72.766c.243.251.52.462.778.693.27.218.554.409.832.594l.435.251c.132.059.31.152.41.185l.052.019a.66.66 0 0 1 .43.825.659.659 0 0 1-.912.396zm12.026-21.054c-.614-.495-.99-1.009-1.406-1.564l-.535-.858c-.158-.297-.297-.6-.442-.904-.158-.297-.25-.62-.363-.931-.1-.316-.244-.62-.304-.943-.132-.647-.336-1.281-.37-1.941-.065-.653-.164-1.3-.131-1.953.02-.654-.04-1.307.066-1.947.079-.641.132-1.287.224-1.928l.403-1.887c.105-.634.336-1.241.515-1.855.198-.607.363-1.227.587-1.828l.72-1.775c.244-.588.455-1.195.758-1.756.581-1.135 1.096-2.303 1.73-3.412l1.914-3.3-1.77 3.379c-.58 1.129-1.042 2.317-1.57 3.465-.277.574-.462 1.181-.68 1.775l-.633 1.789c-.198.601-.33 1.221-.502 1.828-.152.614-.35 1.215-.429 1.835l-.31 1.855c-.066.62-.093 1.247-.139 1.867-.072.621.007 1.241.013 1.862-.006.62.12 1.227.205 1.841.06.614.277 1.195.422 1.789.066.297.212.567.317.858.119.277.211.574.363.831.145.264.277.535.43.792l.5.739c.364.449.786.938 1.175 1.221l.034.027c.29.211.356.62.145.911a.654.654 0 0 1-.911.145c-.007-.013-.02-.02-.026-.027zm-4.482 7.67c1.076-.02 2.264-.192 3.393-.423 1.142-.224 2.27-.541 3.386-.884 2.237-.706 4.402-1.637 6.514-2.693l1.57-.818c.515-.284 1.024-.594 1.532-.885 1.036-.574 2.006-1.254 3.003-1.887.99-.654 1.927-1.373 2.897-2.06l2.792-2.211-2.686 2.337c-.938.726-1.848 1.498-2.812 2.198-.97.686-1.914 1.412-2.93 2.039-.502.323-.997.653-1.505.964l-1.551.897c-2.086 1.162-4.244 2.211-6.501 3.043-1.129.402-2.277.785-3.452 1.069-1.188.297-2.343.535-3.637.614a.652.652 0 0 1-.693-.614.652.652 0 0 1 .614-.693h.027l.04.007zm-5.505 8.969c1.195-.66 2.37-1.089 3.598-1.479a30.043 30.043 0 0 1 3.702-.877c1.248-.192 2.502-.344 3.762-.39 1.255-.066 2.508-.033 3.762.027-1.254.046-2.494.125-3.729.303-1.234.152-2.455.409-3.656.706a28.37 28.37 0 0 0-3.511 1.162c-1.122.462-2.264 1.01-3.208 1.65l-.033.026a.652.652 0 0 1-.91-.178.653.653 0 0 1 .178-.911c.013-.019.033-.026.046-.039z"/><path fill="#E39F96" d="M18.506 114.66c.825-.765 1.67-1.293 2.568-1.801a19.285 19.285 0 0 1 2.778-1.241 22.371 22.371 0 0 1 2.904-.792c.489-.112.984-.165 1.479-.251.495-.066.99-.106 1.485-.158-.488.105-.97.198-1.452.316-.475.139-.957.238-1.426.41a21.81 21.81 0 0 0-2.739 1.075c-.878.429-1.722.918-2.514 1.466-.78.547-1.558 1.188-2.119 1.841l-.026.033a.658.658 0 0 1-.924.073.657.657 0 0 1-.073-.924.233.233 0 0 0 .06-.047zM9.88 131.3c-.376-.357-.574-.674-.812-1.03a9.435 9.435 0 0 1-.567-1.082c-.172-.363-.29-.753-.43-1.122-.098-.383-.224-.766-.29-1.155a15.786 15.786 0 0 1-.21-4.653c.032-.773.197-1.525.303-2.284.152-.752.33-1.498.515-2.237.224-.733.429-1.466.673-2.185l.792-2.138-.64 2.184c-.192.733-.337 1.479-.508 2.211a43.234 43.234 0 0 0-.344 2.238c-.046.752-.158 1.498-.138 2.244-.04 1.491.118 2.983.508 4.389.086.356.23.686.336 1.036.146.33.278.666.45.977.164.316.356.613.554.897.198.258.449.568.64.72l.02.013a.65.65 0 0 1 .105.917.652.652 0 0 1-.917.106c-.013-.02-.027-.033-.04-.046z"/><path fill="#fff" d="M23.985 131.55c.026.04.046.086.066.139.138.231.158.488-.047.706-.442.475-1.366.574-2.059.323a3.256 3.256 0 0 1-.68-.257c-.23-.119-.317-.396-.264-.634.014-.072.04-.138.066-.204 0-.093.014-.185.04-.284.317-1.221 2.37-.502 2.878.211zM9.709 111.466a1.135 1.135 0 0 0-.39.212c-.336.29-.488.752-.514 1.188-.027.429.085.897.409 1.194.402.376 1.287.31 1.491-.251.245-.31.363-.752.363-1.174.02-.119.033-.245.014-.37-.106-.686-.786-1.096-1.373-.799zm19.014-.943a.402.402 0 0 1-.033-.119.597.597 0 0 1-.053-.231c-.013-.323.218-.587.495-.759.218-.198.509-.31.845-.297.08 0 .152.013.225.026.204.007.402.053.607.139a.757.757 0 0 1 .402.871c.04.172-.026.396-.158.502-.647.554-1.914.864-2.33-.132zM40.67 272.421a16.811 16.811 0 0 0 2.646-2.904 13.524 13.524 0 0 0 2.468-6.877 16.442 16.442 0 0 0-.211-3.69c-.205-1.188-.416-2.362-.594-3.544-.72-4.725-1.34-9.491-1.274-14.236.053-2.363.27-4.732.93-6.956.33-1.109.786-2.165 1.4-3.109.627-.931 1.42-1.729 2.356-2.303l.027-.014a.635.635 0 0 0-.178-1.155c-2.726-.673-5.498-.613-8.178.066-2.66.7-5.122 2.192-6.983 4.211-1.88 2.007-3.174 4.468-4.065 7.003-.898 2.534-1.466 5.187-1.624 7.874-.185 2.679.02 5.365.475 7.992.462 2.627 1.188 5.188 2.007 7.709.825 2.515 1.782 4.976 2.448 7.511.324 1.267.561 2.567.508 3.868a5.6 5.6 0 0 1-.145 1.155c3.234-.687 7.986-2.601 7.986-2.601zm40.068-20.401a9.706 9.706 0 0 0-1.148 2.238c-.496 1.373-.746 2.831-.819 4.29-.132 2.924.337 5.841 1.142 8.639.39 1.399.944 2.785 1.333 4.092.35 1.347.555 2.726.548 4.106 0 1.386-.205 2.765-.58 4.092-.377 1.313-.925 2.646-1.631 3.742l-.013.02a.642.642 0 0 0 .686.976c3.459-.805 6.838-2.006 10.019-3.623.805-.383 1.57-.845 2.343-1.294.752-.481 1.511-.95 2.23-1.478 1.466-1.016 2.819-2.198 4.093-3.439a31.456 31.456 0 0 0 6.177-8.646 31.833 31.833 0 0 0 1.888-4.956c.429-1.518.752-3.076.891-4.64a26.666 26.666 0 0 0 5.656 3.405 32.714 32.714 0 0 0 6.316 2.106c2.172.488 4.376.759 6.587.897a49.37 49.37 0 0 0 6.64-.059c2.211-.172 4.395-.442 6.6-.937a.631.631 0 0 0 .488-.627v-.02c-.145-4.996-1.109-9.992-2.983-14.659-1.003-2.303-2.178-4.54-3.663-6.573-1.492-2.026-3.194-3.894-5.122-5.511-2.065-1.736-4.336-3.188-6.732-4.396 2.733-.858 5.3-2.217 7.683-3.828 2.521-1.749 4.844-3.834 6.752-6.276 1.907-2.423 3.577-5.082 4.699-7.973.68-1.399 1.029-2.917 1.505-4.389l.171-.555.112-.567.225-1.135.449-2.277a.616.616 0 0 0-.225-.594l-.006-.007c-1.386-1.043-2.832-1.762-4.35-2.422l-1.142-.462c-.382-.145-.778-.264-1.161-.396-.772-.277-1.564-.475-2.356-.673-3.182-.759-6.462-1.023-9.702-.905l-2.429.179c-.812.052-1.604.224-2.409.343-1.611.204-3.168.66-4.739 1.029-.792.172-1.538.476-2.31.726l-2.284.779c-1.353.548-2.686 1.142-4.012 1.729v-.085c-.053-2.31-.396-4.634-1.122-6.851-1.426-4.442-4.165-8.382-7.498-11.577-3.36-3.194-7.22-5.808-11.53-7.623a.602.602 0 0 0-.693.159l-.007.006c-2.521 2.858-4.693 6.053-6.263 9.544-1.584 3.485-2.456 7.313-2.442 11.141 0 1.914.198 3.821.574 5.682-.568-.455-1.135-.924-1.73-1.346-.772-.515-1.524-1.069-2.342-1.518-1.59-.977-3.307-1.742-5.063-2.389a29.215 29.215 0 0 0-5.47-1.307c-1.869-.238-3.763-.271-5.644-.152-3.762.271-7.458 1.267-10.91 2.759-3.458 1.505-6.699 3.412-9.623 5.861a.633.633 0 0 0 .224 1.089l.04.013c2.607.772 5.155 2.119 7.373 3.782 2.19 1.716 4.125 3.801 5.445 6.263l1.003 1.888c.178.317.33.653.534.957l.614.911c.858 1.181 1.835 2.296 3.023 3.161 2.119 1.604 4.712 2.6 7.34 2.68a26.71 26.71 0 0 0-3.017 3.214c-1.61 2.033-2.937 4.277-3.993 6.633-1.063 2.356-1.861 4.824-2.442 7.332-.574 2.522-.937 5.056-.99 7.696a.616.616 0 0 0 .462.614l.013.006c1.347.35 2.673.621 4.026.852 1.347.237 2.693.442 4.046.607 2.706.337 5.432.535 8.164.574 3.954.046 7.96-.218 11.847-1.069l.634.422zM21.08 308.49a62.663 62.663 0 0 0 5.987-1.438c1.966-.581 3.894-1.314 5.788-2.126a45.522 45.522 0 0 0 5.458-2.91l.013-.007a.675.675 0 0 0 .284-.383.65.65 0 0 0-.462-.785c-4.052-1.043-8.131-1.485-12.243-1.604-4.105-.079-8.224.126-12.27.825-4.039.68-8.045 1.63-11.88 3.069-1.946.64-3.794 1.525-5.662 2.343-.937.376-1.861.924-2.766 1.406-.257.145-.514.284-.765.422 6.151 1.426 28.518 1.188 28.518 1.188zm81.662-8.177c-5.814 8.045 7.604 14.111 7.604 14.111s-.614-1.749-.707-4.33c.06.04.113.086.172.126 1.399 1.57 3.148 2.864 5.161 3.682 1.294.522 2.7.773 4.112.786l1.063-.053c.349-.046.693-.125 1.042-.185.357-.066.687-.132.99-.204.317-.066.634-.146.951-.205 2.541-.482 5.168-.548 7.709-.073 1.267.245 2.521.614 3.669 1.208.964.489 1.855 1.149 2.554 2.013a9.635 9.635 0 0 1-.633.396c-1.558.871-3.426 1.34-5.155 1.307h-.039a.608.608 0 0 0-.495.97c1.069 1.413 2.382 2.515 3.907 3.366 1.531.812 3.333 1.261 5.095 1.063 1.769-.178 3.399-.918 4.825-1.868 1.399-.97 2.673-2.231 3.465-3.815.811-1.577.95-3.471.514-5.141a9.834 9.834 0 0 0-.838-2.165 15.59 15.59 0 0 0 2.838-2.871c.568.257 1.149.515 1.729.766a1.163 1.163 0 0 0-.112.257c-.218.805.706 1.148 1.492 1.115.251.027.508.014.752-.033a.293.293 0 0 0 .251-.244c.02-.033.046-.059.053-.099.237-1.082-1.386-1.848-2.178-1.274a78.254 78.254 0 0 0-1.597-1.016c.29-.409.561-.832.811-1.267a12.948 12.948 0 0 0 1.387-3.492c1.28.159 2.56.304 3.847.443a.615.615 0 0 0 .159.765.69.69 0 0 0 .224.126c.013.019.027.046.046.066.647.686 2.178-.033 2.423-.819.099-.317-.053-.574-.337-.719-.733-.363-1.525.039-2.204.336a506.605 506.605 0 0 0-4.046-.686c.158-.845.224-1.716.178-2.587a10.024 10.024 0 0 0-.495-2.535 49.265 49.265 0 0 0 5.716-2.422c.019.482.396.845.917.858.568.013 1.096-.27 1.564-.574.31-.198.627-.528.753-.878.033-.039.066-.079.092-.119.165-.244.125-.633-.139-.792-.303-.191-.686-.25-1.075-.231a2.52 2.52 0 0 0-.984.192c-.33.138-.647.356-.818.68-.007.013-.007.026-.013.039a1.547 1.547 0 0 0-.251.502 59.693 59.693 0 0 1-5.934 2.27 10.917 10.917 0 0 0-1.907-3.221c2.402-1.26 4.712-2.725 6.963-4.323a.678.678 0 0 0 .581.284c1.214 0 2.481-.772 3.023-1.861.171-.343.006-.733-.317-.911-.053-.033-.112-.053-.165-.072a.884.884 0 0 0-.363-.179c-.66-.145-1.353.357-1.822.766-.416.363-1.023.924-1.056 1.525 0 .026.007.046.007.072-2.376 1.479-4.68 3.069-7.168 4.35-1.32-1.492-2.904-2.68-4.62-3.584a13.814 13.814 0 0 0 1.386-3.261c1.399-4.752.37-10.183-2.779-14.117-1.544-1.967-3.755-3.557-6.342-4.013a8.083 8.083 0 0 0-3.868.251c-1.194.416-2.336.851-3.438 1.465-2.178 1.195-4.205 2.818-5.591 4.937-.732 1.03-1.267 2.191-1.669 3.386-.39 1.208-.647 2.415-.654 3.755a.57.57 0 0 0 .555.568h.026c2.31.046 4.66.257 6.956.627.462.079.924.165 1.386.257-.6.39-1.254.667-1.927.904-.963.337-1.96.568-2.963.779-1.003.192-2.013.376-3.036.495-1.017.145-2.04.244-3.063.324-1.036.105-2.026.125-3.115.231-1.069.112-2.138.29-3.161.627-1.03.316-2.026.759-2.931 1.339-.891.588-1.742 1.287-2.303 2.192.092-.086.185-.152.284-.231a5.841 5.841 0 0 0-.264.303 4.708 4.708 0 0 0-.363-.812c-1.789-2.976-.904-7.062-.904-7.062-6.699 4.356-8.026 11.253-4.884 16.613l-.509.851zm-50.477 7.973a.173.173 0 0 0-.032.039.644.644 0 0 0 .244.885 178.776 178.776 0 0 0 12.923 6.692 133.066 133.066 0 0 0 6.672 2.911 81.08 81.08 0 0 0 6.864 2.462c4.66 1.452 9.484 2.257 14.309 2.686 2.416.204 4.838.303 7.26.336a82.708 82.708 0 0 0 7.253-.198l-1.141-.91a24.55 24.55 0 0 0-1.73-1.314c-.97-.726-2.013-1.353-3.029-2.019a68.665 68.665 0 0 0-6.428-3.419 83.082 83.082 0 0 0-6.779-2.68 107.69 107.69 0 0 0-6.982-2.099c-4.706-1.227-9.504-2.072-14.322-2.679-4.191-.515-8.39-.852-12.626-.937l-2.455.244zm1.637-160.334c1.248-.944 2.191-2.31 3.221-3.478.594-.674 1.327-1.452 1.73-2.324.02.033.039.08.065.106.106.132.324.145.462.073.192-.106.33-.238.436-.403a1.62 1.62 0 0 0 .277-.455c.132-.311.218-.74-.02-1.023-.218-.271-.614-.284-.877-.066a1.078 1.078 0 0 0-.218.264c-.238.31-.35.778-.284 1.069.006.02.013.033.02.046-1.657 1.987-3.254 4.052-4.996 5.96-.14.138.026.35.184.231z"/><path fill="#fff" d="M18.5 196.805a17.757 17.757 0 0 0 1.016-3.241c.29-1.485.396-3.003.304-4.507-.086-1.505-.442-2.984-.91-4.403-.463-1.425-1.123-2.772-1.889-4.039l-1.135-1.861c-.191-.304-.33-.634-.501-.95a10.838 10.838 0 0 1-.456-.971c-.567-1.313-.957-2.712-1.082-4.144-.066-.713-.06-1.439.026-2.159.086-.712.225-1.439.515-2.105 0 0-.185.125-.502.37-.488.356-.996.706-1.53 1.089-.687.521-1.268 1.115-1.908 1.669-.324.271-.6.588-.878.905l-.845.943c-.297.304-.534.654-.779 1.004l-.732 1.042a16.572 16.572 0 0 0-2.706 9.755c.006.218 0 .436.026.647l.093.64c.072.429.118.858.217 1.281.258.825.43 1.689.825 2.468.64 1.624 1.67 3.076 2.871 4.336l.95.904c.33.284.7.522 1.05.786.72.548 1.393.911 2.027 1.419.627.488 1.22 1.016 1.643 1.61.224.291.363.601.442.885a.951.951 0 0 1 0 .554c-.007.033-.04.086-.033.079-.006.007-.006.013-.013.02l-.027.04a.583.583 0 0 0-.112.244l4.033-4.31zm14.454-24.361c.376 1.941 1.267 5.531 2.56 4.997 1.756-.726 2.31-5.01 2.31-5.01s3.103 2.752 4.086.904c.27-.508-.092-1.036-.772-1.537a23.853 23.853 0 0 0 4.778-.581c.436-.106.878-.198 1.307-.324l1.274-.435c.429-.132.838-.324 1.247-.508.403-.198.825-.357 1.215-.581 1.59-.845 3.042-1.941 4.336-3.181 1.3-1.248 2.363-2.713 3.247-4.271.238-.383.423-.785.614-1.194.205-.396.37-.812.528-1.235.343-.838.594-1.623.964-2.409 1.399-3.128 3.438-6.012 5.86-8.428l.027-.026a.274.274 0 0 0-.007-.39c-.91-.891-1.986-1.465-3.142-1.841-1.155-.376-2.375-.488-3.57-.409l-.891.105c-.297.04-.58.126-.878.185-.587.106-1.142.343-1.703.528-.554.218-1.075.495-1.617.739l-1.24.733c.118-1.472.164-2.944.118-4.415.086.019.172 0 .251-.086 1.914-2.238 3.894-4.66 5.075-7.399a.668.668 0 0 0 .502-.092.94.94 0 0 0 .152-.132c.007 0 .013 0 .02-.007.33-.138.501-.515.58-.838.133-.528.047-1.459-.712-1.379-.858.085-1.254 1.28-1.017 1.999a.7.7 0 0 0 .205.311c-1.452 2.527-3.34 4.626-5.089 6.982a32.404 32.404 0 0 0-.303-2.983c-.013-.092-.027-.171-.033-.257-.027-.145-.04-.297-.06-.442 1.149-1.208 1.927-2.733 2.76-4.165.923-1.591 1.986-3.247 2.553-5.023.614-.079 1.34-.561 1.578-.95a.518.518 0 0 0 0-.482c-.013-.145-.073-.297-.225-.356-.006-.007-.02-.007-.026-.007a.722.722 0 0 0-.462-.739c-.383-.145-.845-.013-1.201.152-.396.191-.806.508-.911.963a.897.897 0 0 0 .356.951c.12.317.357.455.64.482-.739 1.669-1.801 3.28-2.745 4.798-.898 1.445-1.736 3.003-2.997 4.158a29.61 29.61 0 0 0-2.303.607c-.099.026-.204.04-.303.066.66-1.254 1.128-2.64 1.768-3.92.515-1.017 1.03-2.04 1.545-3.056.39.31.924.132 1.254-.218.323-.337.547-.845.528-1.32a1.046 1.046 0 0 0-.436-.825.826.826 0 0 0-.158-.264c-.27-.297-.673-.238-.957.013-.522.469-.819 1.591-.489 2.271-1.636 2.171-3.069 4.903-3.597 7.438v.006a35.89 35.89 0 0 0-2.706.799c.416-.917.416-2.211.614-3.122.218-1.01.482-2 .792-2.976a.572.572 0 0 0 .462.033c.06-.027.126-.066.185-.106a.73.73 0 0 0 .363-.284c.046-.066.092-.145.139-.231.217-.336.35-.746.29-1.095a1.102 1.102 0 0 0-.092-.429c-.165-.337-.443-.383-.7-.291a.921.921 0 0 0-.871.508c-.145.291-.205.7-.112 1.05 0 .152.026.297.072.442a14.317 14.317 0 0 0-1.168 3.221c-.244.996-.772 2.422-.548 3.491-.383.132-.759.271-1.135.416.343-1.188.468-2.429.462-3.67a16.858 16.858 0 0 0-.568-4.012c-.383-1.301-.851-2.581-1.498-3.782-.284-.621-.68-1.175-1.016-1.769-.377-.568-.786-1.109-1.175-1.663a.35.35 0 0 0-.191-.126.318.318 0 0 0-.383.245l-.007.039c-.455 1.974-1.439 3.881-2.64 5.551a17.581 17.581 0 0 1-2.04 2.336c-.356.357-.772.726-1.148 1.109-.383.383-.739.785-1.095 1.188-2.799 3.26-4.997 7.049-6.303 11.174-.64 2.059-1.076 4.211-1.122 6.395-.06 2.178.23 4.383.924 6.468.264.786.6 1.545.97 2.284-.733.534 1.076 2.891 1.076 2.891s-1.822 1.815-2.218 4.145c-.343 2.013 4.21 1.227 5.452.976l.54 1.122zm-25.35 37.521a40.164 40.164 0 0 0 7.114 6.851c2.871 2.125 6.131 3.782 9.603 4.759 3.465 1.016 7.148 1.241 10.745.858a29.76 29.76 0 0 0 5.306-1.102c1.736-.542 3.406-1.175 5.043-2.093a.659.659 0 0 0 .33-.534.648.648 0 0 0-.62-.673h-.04c-.746-.033-1.604-.179-2.403-.363a22.031 22.031 0 0 1-2.396-.72c-1.577-.567-3.095-1.307-4.56-2.132-1.465-.838-2.851-1.808-4.191-2.844l-1.974-1.63c-.68-.581-1.438-1.063-2.204-1.505-3.135-1.736-6.765-2.224-10.223-1.98a29.706 29.706 0 0 0-5.129.845 30.695 30.695 0 0 0-3.055.937l-1.3 1.293m45.87-61.637.343-.178c-.139.085-.251.165-.35.231 0-.02 0-.033.007-.053zm-8.323-8.468a11.734 11.734 0 0 1-.258 1.729c-.04.013-.072.033-.112.046.159-.607.284-1.201.37-1.775z"/><path fill="#96551E" d="M100.617 225.073c2.469-.08 4.95.118 7.399.468 2.448.363 4.884.891 7.26 1.624 4.732 1.491 9.293 3.762 13.141 6.996 1.92 1.61 3.63 3.485 5.121 5.511 1.485 2.039 2.66 4.277 3.663 6.573 1.875 4.667 2.838 9.663 2.983 14.659v.02a.624.624 0 0 1-.488.627c-2.204.495-4.382.766-6.6.937a49.545 49.545 0 0 1-6.64.06c-2.211-.132-4.422-.41-6.587-.898a32.78 32.78 0 0 1-6.316-2.105c-4.065-1.802-7.676-4.64-10.349-8.171-1.3-1.789-2.455-3.69-3.293-5.723-.482-.99-.805-2.046-1.175-3.075-.343-1.043-.574-2.119-.87-3.168 1.24 4.191 3.068 8.243 5.814 11.596 2.725 3.359 6.263 6.026 10.256 7.663 3.973 1.663 8.27 2.508 12.58 2.719a48.19 48.19 0 0 0 6.481-.112c2.145-.185 4.323-.475 6.382-.957l-.488.647c-.205-4.871-1.03-9.729-2.825-14.243-.95-2.231-2.059-4.396-3.472-6.369a34.243 34.243 0 0 0-4.864-5.386c-3.643-3.227-8.039-5.57-12.665-7.161a49.722 49.722 0 0 0-14.448-2.732z"/><path fill="#96551E" d="m101.693 225.086-.112 2.027c-.046.673-.046 1.359-.172 2.026l-.31 2.013c-.04.336-.119.666-.205.996l-.25.99c-.278 1.34-.812 2.601-1.268 3.888-.6 1.227-1.148 2.488-1.94 3.617a23.114 23.114 0 0 1-5.643 5.966c-2.238 1.617-4.726 2.851-7.32 3.769-5.194 1.854-10.744 2.362-16.19 2.303a75.203 75.203 0 0 1-8.163-.574 76.27 76.27 0 0 1-4.046-.607 51.53 51.53 0 0 1-4.026-.852l-.014-.006a.616.616 0 0 1-.462-.614c.053-2.634.416-5.168.99-7.696.581-2.514 1.38-4.976 2.443-7.332 1.062-2.357 2.389-4.601 3.992-6.633 1.598-2.04 3.512-3.828 5.617-5.327 4.21-3.022 9.233-4.745 14.296-5.398 5.082-.66 10.223-.416 15.24.409-5.05-.548-10.165-.654-15.148.204-2.495.357-4.93 1.07-7.273 1.947-2.343.891-4.534 2.152-6.54 3.63-4.007 2.977-7.122 7.069-9.115 11.649-1.01 2.284-1.763 4.68-2.31 7.122-.535 2.435-.872 4.963-.905 7.405l-.481-.62a76.457 76.457 0 0 0 15.925 2.085c2.68.053 5.366-.046 8.026-.363 2.653-.33 5.28-.884 7.815-1.709 2.527-.832 4.963-1.967 7.16-3.478a22.387 22.387 0 0 0 5.59-5.643c.813-1.07 1.387-2.277 2.027-3.459.488-1.247 1.07-2.468 1.386-3.775.805-2.567 1.115-5.267 1.386-7.96zm19.45 4.851a31.384 31.384 0 0 0 7.861-4.501c2.389-1.842 4.554-3.973 6.329-6.389.489-.574.871-1.214 1.281-1.848.396-.634.851-1.234 1.168-1.914l1.043-1.987c.323-.673.574-1.379.864-2.072.621-1.366.957-2.831 1.406-4.257l.158-.535.106-.554.211-1.102.423-2.205.231.601c-1.188-.871-2.614-1.637-4.033-2.257l-1.082-.449c-.363-.145-.74-.257-1.109-.389-.739-.278-1.498-.469-2.257-.667-3.043-.799-6.211-1.089-9.372-1.082l-2.376.099c-.792.026-1.578.178-2.363.25-1.591.126-3.135.502-4.699.799-.792.119-1.551.376-2.324.574l-2.316.634-4.541 1.577c1.465-.647 2.93-1.307 4.422-1.914l2.284-.779c.765-.25 1.518-.554 2.31-.726 1.57-.376 3.128-.825 4.738-1.029.799-.112 1.598-.284 2.409-.343l2.429-.179c3.247-.118 6.521.152 9.702.905.792.198 1.591.396 2.356.673.39.132.779.251 1.162.396l1.142.462c1.511.66 2.963 1.379 4.349 2.422l.007.007c.191.145.27.376.224.594l-.449 2.277-.224 1.135-.112.567-.172.555c-.475 1.472-.825 2.99-1.505 4.389-1.122 2.891-2.791 5.55-4.699 7.973-1.907 2.435-4.23 4.527-6.752 6.276-2.547 1.736-5.299 3.175-8.23 4.013z"/><path fill="#96551E" d="M84.903 217.456c-1.287-1.373-2.423-2.891-3.426-4.488a34.611 34.611 0 0 1-2.62-5.029 28.922 28.922 0 0 1-2.25-11.128c-.014-3.828.857-7.656 2.441-11.141 1.578-3.491 3.75-6.686 6.264-9.544l.006-.006a.605.605 0 0 1 .693-.159c4.31 1.822 8.171 4.429 11.53 7.623 3.334 3.195 6.073 7.135 7.498 11.577.726 2.211 1.069 4.541 1.122 6.851.073 1.155-.059 2.31-.119 3.465-.184 1.135-.283 2.29-.587 3.405-1.049 4.482-2.963 8.699-5.386 12.554 2.152-4.007 3.888-8.257 4.713-12.692.264-1.096.323-2.224.475-3.333.026-1.122.119-2.244.02-3.36-.112-2.23-.508-4.448-1.261-6.547-1.439-4.217-4.065-7.973-7.32-11.029-3.253-3.049-7.1-5.544-11.147-7.339l.7-.165c-2.475 2.759-4.607 5.828-6.151 9.181-.76 1.676-1.4 3.419-1.802 5.214-.436 1.788-.72 3.623-.76 5.465-.118 3.696.575 7.405 1.862 10.903 1.294 3.485 3.142 6.798 5.505 9.722z"/><path fill="#96551E" d="M62.733 225.165c-2.87.112-5.762-.938-8.078-2.687-1.188-.864-2.165-1.98-3.023-3.161l-.614-.911c-.205-.303-.356-.64-.535-.957l-1.003-1.887c-1.32-2.469-3.253-4.548-5.445-6.264-2.217-1.663-4.765-3.009-7.372-3.782l-.04-.013a.627.627 0 0 1-.422-.785.64.64 0 0 1 .198-.304c2.924-2.455 6.171-4.356 9.623-5.861 3.452-1.491 7.141-2.488 10.91-2.758 1.88-.119 3.775-.086 5.643.151 1.867.258 3.702.693 5.471 1.307 1.756.647 3.472 1.413 5.062 2.389.819.443 1.571.997 2.343 1.518.76.535 1.459 1.149 2.192 1.716-3.017-2.145-6.303-3.907-9.815-4.95-1.749-.528-3.55-.851-5.359-1.049a28.301 28.301 0 0 0-5.445.026c-3.623.324-7.154 1.386-10.494 2.825a41.694 41.694 0 0 0-4.844 2.528c-1.551.944-3.083 1.987-4.442 3.128l-.264-1.095c2.884.858 5.452 2.29 7.775 4.098 2.283 1.842 4.25 4.112 5.557 6.746l.944 1.933c.158.311.29.641.468.938l.548.891c.766 1.161 1.657 2.257 2.74 3.154 2.118 1.809 4.863 2.97 7.721 3.116zm39.679.112s2.898 2.119 2.423 3.366c-.482 1.248-3.366-.488-3.366-.488s.25 4.382-.707 3.94c-.957-.442-2.032-2.976-2.032-2.976s-2.06 2.164-2.706 1.049c-.647-1.115-.159-4.184-.159-4.184s-3.254.165-3.584-.779c-.33-.944 1.835-2.667 1.835-2.667s-3.234-1.742-2.745-2.739c.481-.99 3.214-.468 3.214-.468s-1.327-1.98-.7-2.779c.627-.799 3.333 1.947 3.333 1.947s.825-2.191 1.716-2.145c.885.046.614 3.96.614 3.96s1.419-2.752 2.409-2.402c.99.349-.64 4.574-.64 4.574s3.986-.568 4.336.712c.337 1.287-3.241 2.079-3.241 2.079zm-.244 24.222c.64 3.3-.739 7.055-1.835 10.131-1.425 4.006-3.748 7.478-6.197 10.916-.02.033-.08.007-.06-.026 1.558-3.379 3.822-6.31 5.234-9.808 1.268-3.135 2.97-7.669 2.297-11.068-.072-.369.489-.515.561-.145zm-5.3-7.405c.264 6.495-1.537 13.425-3.537 19.543-1.59 4.871-3.696 10.171-7.412 13.82-.02.02-.053-.006-.033-.026 3.577-4.699 5.86-10.138 7.498-15.787 1.617-5.59 3.102-11.702 2.884-17.556-.02-.39.587-.377.6.006zm-5.669 5.096c.469 5.603-2.501 11.682-4.838 16.599-.026.052-.112.026-.086-.027 1.901-4.989 4.838-11.108 4.323-16.579-.04-.389.568-.383.601.007z"/><path fill="#96551E" d="M100.241 226.756c-3.214 5.537-7.326 10.52-12.679 14.11-4.85 3.248-11.154 6.237-17.1 5.835-.033 0-.027-.046 0-.046 6.349-.146 13.57-3.901 18.552-7.742 4.455-3.432 7.564-7.874 10.745-12.435.198-.283.667-.039.482.278zm-5.214-5.255c-12.19-.204-23.18 3.802-31.773 12.626-.032.04-.099-.02-.066-.059 7.155-9.405 20.256-14.369 31.879-12.844.178.02.132.277-.04.277zm3.432 3.505c-12.428 6.277-24.618 13.563-37.884 18.018-.066.02-.119-.072-.053-.105 6.613-2.951 13.028-6.31 19.576-9.412a227.844 227.844 0 0 0 9.649-4.838c2.746-1.459 5.53-3.346 8.487-4.316.383-.126.568.481.225.653zm37.534-16.493c-5.392 3.789-12.23 5.643-18.229 8.297-5.432 2.402-11.299 5.101-17.2 6.012-.343.053-.501-.449-.145-.541 12.217-3.089 23.938-8.95 35.521-13.847.047-.02.093.046.053.079zm-11.88 13.741c-6.521 3.393-15.932 3.828-23.014 2.225-.165-.04-.185-.324.007-.324 3.702-.026 7.359.528 11.081.343 4.118-.198 7.973-1.148 11.913-2.29.02-.006.033.033.013.046zm1.056-17.939c-5.088 1.637-9.543 3.736-13.662 7.208-3.419 2.884-7.082 5.748-9.51 9.53-.119.185-.443.119-.396-.132.382-1.828 1.643-3.043 2.976-4.303 2.238-2.112 4.561-4.211 6.957-6.138 3.913-3.142 8.547-5.709 13.589-6.323.086-.007.139.125.046.158zm-21.74 23.919c4.118 3.597 7.642 8.211 11.437 12.171 4.37 4.554 9.498 8.111 14.224 12.249.019.02-.007.047-.027.033-9.92-6.461-18.599-14.883-26.07-24.03-.244-.304.139-.68.436-.423zm-1.901 3.254c2.726 10.85 9.94 18.104 19.364 23.588.093.053-.006.178-.092.132-9.537-4.976-17.866-12.56-19.952-23.582-.086-.442.568-.574.68-.138zm14.335.673c3.835 1.987 7.867 4.092 10.375 7.729.033.046-.026.105-.072.059-6.158-6.428-15.253-9.794-23.542-12.342-.205-.066-.08-.337.099-.33 4.692.191 9.075 2.772 13.14 4.884zm-23.469-43.665c8.533 7.471 10.091 20.909 6.428 31.205-.046.132-.224.066-.224-.053.006-2.917 1.141-5.689 1.207-8.653.066-3.174-.178-6.369-.666-9.504-.687-4.428-3.769-9.596-6.858-12.876-.059-.066.046-.185.112-.119zm-3.228 3.247c1.993 4.409 3.459 8.817 4.726 13.484 1.254 4.606 2.963 9.127 2.567 13.972-.013.198-.337.185-.343-.013-.25-5.003-1.683-9.603-2.957-14.402-1.162-4.375-3.128-8.619-4.079-13.015-.006-.046.066-.072.086-.026zm-4.653.924c-.502 4.455-.396 9.101 1.01 13.398.858 2.627 2.264 4.712 3.868 6.93 1.326 1.841 3.167 2.91 4.613 4.567.092.106-.046.264-.165.211-9.035-4.065-10.791-16.487-9.537-25.133.02-.132.224-.112.211.027zM69.967 208.52c5.92 1.788 9.642 4.171 14.144 8.362.263.244-.12.726-.41.501-3.993-3.201-7.273-5.847-12.236-7.491-6.534-2.164-13.312-2.923-20.031-4.23-.112-.02-.106-.198.02-.185 6.19.574 12.533 1.234 18.513 3.043zm-16.051 1.267c4 6.019 9.14 9.009 16.117 10.567.317.072.198.508-.106.475-6.6-.726-13.457-4.713-16.19-10.936-.046-.106.112-.205.178-.106zm17.034-6.072c3.142.99 6.178 2.594 8.686 4.719.336.284-.033.871-.376.587-2.667-2.211-5.769-3.92-9.095-4.917-3.036-.911-6.178-.706-9.28-1.214-.178-.027-.139-.297.04-.277 3.438.396 6.666.039 10.025 1.102z"/><path fill="#96551E" d="M112.986 211.127c-1.452 2.845-3.769 5.016-6.105 7.148-2.126 1.947-4.449 3.867-7.247 4.732-.277.086-.39-.31-.132-.422 5.042-2.238 10.494-6.765 13.404-11.517.033-.047.106.006.08.059zm7.352 10.455c.04.006.04.072 0 .072-6.329-.482-13.108.858-19.279 2.059-.191.04-.264-.283-.072-.336 5.927-1.617 13.233-2.871 19.351-1.795zm-8.62 10.434c2.568 1.881 5.439 3.636 7.168 6.369.059.099-.066.211-.145.119-4.284-5.148-11.781-9.815-18.051-11.88-.139-.047-.079-.278.066-.245 4.125.944 7.577 3.155 10.962 5.637z"/><path fill="#96551E" d="M102.538 227.581c.93 3.221 2.283 6.263 4.316 8.949 2.026 2.673 4.706 4.792 7.036 7.194.053.053-.033.126-.086.073-5.174-4.831-10.111-8.837-11.774-16.078-.086-.33.409-.475.508-.138zm.013-27.84c.898 4.092.561 8.528-.495 12.56-.799 3.03-1.69 6.699-3.59 9.253-.126.165-.416-.019-.31-.198 3.728-6.21 4.982-14.533 4.349-21.615 0-.026.039-.026.046 0zm-5.584 19.721c-.066.212-.442.093-.37-.118 2.034-6.33 1.116-15.557-1.801-21.497-.007-.013.013-.026.02-.013 3.412 5.973 4.276 15.081 2.151 21.628z"/><path fill="#96551E" d="M114.332 243.494a.695.695 0 0 1 .172.132c.277.316.184.745.026 1.095-.086.205-.35.343-.568.238a1.63 1.63 0 0 1-.508-.39c-.006-.006-.013 0-.02-.006a.387.387 0 0 1-.125-.145c.046.085.026.079-.059-.027a.658.658 0 0 1-.119-.185.583.583 0 0 1-.007-.396 1.687 1.687 0 0 1 .04-.6c.046-.198.31-.297.488-.231.324.112.535.27.68.515zm4.778-6.046c.436.402.766.891.951 1.458.079.258-.066.614-.376.621-.066 0-.132-.02-.198-.027a.463.463 0 0 1-.192-.013c-.013-.006-.026-.013-.039-.013-.02-.007-.04-.02-.06-.026a1.913 1.913 0 0 1-.277-.132c-.02-.014-.04-.02-.059-.033a1.334 1.334 0 0 1-.344-.317c-.019-.007-.026-.007-.046-.013a.744.744 0 0 1-.145-.099.66.66 0 0 1-.172-.271.57.57 0 0 1 .053-.429 1.495 1.495 0 0 1 .013-.416c.066-.409.601-.561.891-.29zm1.657-16.421c.244.046.442.284.337.541a.975.975 0 0 1-.198.31.544.544 0 0 1-.284.33c-.079.04-.165.06-.251.086a.92.92 0 0 1-.429.225c-.284.052-.528-.08-.726-.278-.145-.138-.238-.369-.139-.561.172-.33.416-.653.819-.693a.817.817 0 0 1 .336.047 1.45 1.45 0 0 1 .535-.007zm-6.758-10.309c.198.125.224.435.085.613-.495.621-1.227.733-1.966.548-.238-.059-.337-.409-.185-.594.191-.237.409-.422.647-.534.039-.04.066-.086.118-.126.416-.297.905-.165 1.301.093zm-10.659-11.339c.158.594-.014 1.26-.614 1.531-.594.264-1.234-.053-1.518-.601-.112-.218-.112-.462.053-.653.303-.343.726-.693 1.214-.621.053-.019.099-.039.152-.052a.578.578 0 0 1 .713.396zm-7.36-.831a.655.655 0 0 1-.026.198c-.006.046-.006.092-.02.145-.066.237-.277.449-.547.396a1.446 1.446 0 0 1-.66-.343c-.509-.212-.918-.601-1.043-1.182-.066-.303.099-.686.462-.68.858 0 1.848.561 1.835 1.466zm-13.866 52.317c-2.897 2.495-5.953 4.765-9.068 6.957a156.216 156.216 0 0 1-9.61 6.197c-6.547 3.92-13.392 7.352-20.44 10.336a173.097 173.097 0 0 1-10.758 4.039c-3.65 1.181-7.333 2.283-11.068 3.181-7.472 1.841-15.121 3.003-22.837 3.531a2.295 2.295 0 0 1-2.442-2.132 2.296 2.296 0 0 1 2.132-2.442c.033 0 .06-.006.093-.006h.033c7.444-.185 14.902-.977 22.248-2.456 3.676-.712 7.313-1.636 10.936-2.633a166.693 166.693 0 0 0 10.719-3.498c7.055-2.627 13.952-5.716 20.599-9.313a156.043 156.043 0 0 0 9.78-5.728c3.182-2.033 6.33-4.165 9.287-6.495l.007-.006a.307.307 0 0 1 .435.052.302.302 0 0 1-.046.416z"/><path fill="#96551E" d="M31.436 277.457a28.45 28.45 0 0 0 6.362-3.287c1.954-1.366 3.723-3.016 5.01-4.989 1.293-1.967 2.072-4.244 2.171-6.574a15.838 15.838 0 0 0-.284-3.485c-.23-1.175-.468-2.363-.686-3.544-.865-4.739-1.518-9.544-1.492-14.414.033-2.429.238-4.891.924-7.287.35-1.194.832-2.369 1.525-3.445a9.029 9.029 0 0 1 2.739-2.713l.158 1.169a16.172 16.172 0 0 0-7.497.059 13.36 13.36 0 0 0-6.422 3.808c-1.75 1.842-2.997 4.138-3.868 6.561a29.924 29.924 0 0 0-1.663 7.563c-.244 2.581-.106 5.194.277 7.775.396 2.581 1.043 5.128 1.802 7.643.733 2.528 1.59 5.029 2.165 7.623.277 1.293.468 2.633.363 3.966a5.628 5.628 0 0 1-1.584 3.571zm0 0a5.553 5.553 0 0 0 1.386-3.584c.053-1.3-.185-2.6-.508-3.867-.667-2.535-1.624-4.997-2.449-7.511-.818-2.515-1.544-5.076-2.006-7.709-.456-2.627-.66-5.313-.476-7.993.152-2.679.726-5.332 1.624-7.873.891-2.535 2.191-4.99 4.066-7.003a14.64 14.64 0 0 1 6.982-4.211c2.68-.686 5.445-.739 8.178-.066a.635.635 0 0 1 .178 1.155l-.026.013c-.938.575-1.73 1.367-2.357 2.304-.613.944-1.062 2.006-1.399 3.108-.66 2.218-.884 4.594-.93 6.957-.06 4.745.554 9.51 1.273 14.236.185 1.181.396 2.363.594 3.544a16.45 16.45 0 0 1 .212 3.69 13.464 13.464 0 0 1-2.469 6.877c-1.425 2.006-3.3 3.617-5.333 4.923a26.341 26.341 0 0 1-6.54 3.01z"/><path fill="#96551E" d="M31.436 277.457c2.066-1.168 3.96-2.607 5.577-4.297 1.623-1.676 2.97-3.61 3.828-5.742a14.658 14.658 0 0 0 .996-6.705c-.079-1.135-.336-2.251-.56-3.439a122.807 122.807 0 0 1-.62-3.524c-.694-4.713-1.15-9.531-.49-14.329.33-2.382.997-4.778 2.271-6.864 1.28-2.072 3.3-3.702 5.617-4.296a10.034 10.034 0 0 0-2.977 1.861c-.858.785-1.55 1.736-2.086 2.759-1.082 2.046-1.584 4.356-1.814 6.666-.218 2.316-.212 4.666-.04 7.002.158 2.343.442 4.68.805 7.003.178 1.161.37 2.33.588 3.485.105.587.224 1.141.316 1.755l.139.911.08.917c.138 2.456-.252 4.964-1.294 7.194-1.004 2.244-2.541 4.191-4.323 5.802-1.802 1.577-3.815 2.937-6.013 3.841z"/><path fill="#96551E" d="M32.09 276.612c1.821-1.399 3.293-3.214 4.197-5.273.964-2.033 1.366-4.284 1.307-6.508-.046-.554-.04-1.115-.119-1.67l-.25-1.656-.654-3.393a85.263 85.263 0 0 1-.957-6.877c-.376-4.6-.33-9.398 1.267-13.866a16.454 16.454 0 0 1 1.531-3.188 13.656 13.656 0 0 1 2.211-2.752c.838-.825 1.795-1.512 2.805-2.086.997-.607 2.092-1.01 3.181-1.373-2.085.951-4.059 2.185-5.524 3.901a13.385 13.385 0 0 0-1.927 2.739 16.426 16.426 0 0 0-1.307 3.082c-.666 2.138-1.01 4.376-1.109 6.633-.125 2.257-.033 4.528.172 6.791.191 2.264.508 4.528.871 6.785l.561 3.393.218 1.755c.06.588.033 1.182.046 1.776.013.594-.086 1.181-.125 1.768-.066.588-.211 1.169-.324 1.743-.33 1.135-.712 2.257-1.3 3.28a13.463 13.463 0 0 1-2.066 2.825c-.805.851-1.696 1.61-2.706 2.171z"/><path fill="#96551E" d="M32.09 276.612c1.34-1.947 1.986-4.263 2.184-6.56.204-2.31-.093-4.627-.66-6.864-.165-.555-.29-1.116-.488-1.663l-.581-1.637a32.587 32.587 0 0 1-1.11-3.432c-.593-2.33-.916-4.719-1.022-7.115a31.95 31.95 0 0 1 .548-7.181c.501-2.356 1.28-4.679 2.534-6.765.64-1.029 1.333-2.033 2.178-2.904.852-.858 1.756-1.676 2.785-2.303a15.381 15.381 0 0 1 3.24-1.545c1.116-.415 2.298-.633 3.46-.805-2.284.588-4.495 1.465-6.33 2.878-1.868 1.366-3.353 3.174-4.442 5.181-.548 1.01-.977 2.072-1.36 3.155a26.356 26.356 0 0 0-.85 3.339 31.75 31.75 0 0 0-.456 6.897c.072 2.31.39 4.62.917 6.871.264 1.128.587 2.231.977 3.326l.554 1.716c.178.574.284 1.168.43 1.749.5 2.35.672 4.792.303 7.174a15.862 15.862 0 0 1-.97 3.452c-.45 1.109-1.043 2.159-1.842 3.036zm75.853-21.021c-.092 1.756-.462 3.492-.937 5.195a31.145 31.145 0 0 1-1.888 4.956 31.31 31.31 0 0 1-6.177 8.646c-1.274 1.248-2.627 2.422-4.092 3.439-.72.528-1.479.996-2.231 1.478-.772.442-1.538.911-2.343 1.294a44.604 44.604 0 0 1-10.019 3.623.646.646 0 0 1-.686-.977l.013-.019c.706-1.096 1.254-2.429 1.63-3.749.376-1.333.58-2.713.58-4.092 0-1.386-.197-2.766-.547-4.105-.39-1.307-.937-2.693-1.333-4.092-.805-2.799-1.274-5.716-1.142-8.64.073-1.458.33-2.917.819-4.29.488-1.373 1.267-2.653 2.33-3.623-.978 1.062-1.63 2.369-2.034 3.722-.395 1.366-.554 2.785-.54 4.204.02 1.419.164 2.832.422 4.224.25 1.4.633 2.766 1.056 4.119.429 1.359.99 2.633 1.465 4.065a17.16 17.16 0 0 1 .68 4.409 15.485 15.485 0 0 1-.555 4.435c-.409 1.446-.944 2.812-1.788 4.145l-.68-.99c3.366-.825 6.66-1.953 9.748-3.498 3.096-1.531 5.973-3.491 8.488-5.854 2.528-2.35 4.653-5.135 6.316-8.184 1.676-3.049 2.904-6.369 3.445-9.841zm-54.76-116.2c.58 3.247.587 6.587.244 9.887-.383 3.293-1.22 6.574-2.712 9.583a22.88 22.88 0 0 1-6.218 7.867c-2.62 2.139-5.722 3.624-8.923 4.62l-.013.007a.62.62 0 0 1-.673-.211c-1.208-1.558-2.112-3.214-2.819-5.003-.7-1.775-1.168-3.656-1.32-5.577-.138-1.921.093-3.861.601-5.709l.455-1.366c.146-.456.397-.871.588-1.307.363-.891.93-1.67 1.439-2.475 1.135-1.531 2.422-2.95 3.927-4.099.72-.62 1.53-1.102 2.303-1.636.819-.462 1.61-.964 2.469-1.353 1.676-.839 3.431-1.492 5.214-2.033 1.782-.541 3.597-.97 5.438-1.195zm0 0c-3.617.805-7.141 2.026-10.342 3.822-.819.415-1.571.937-2.35 1.419-.726.547-1.498 1.042-2.165 1.669-1.419 1.142-2.6 2.535-3.623 4.007-.456.778-.964 1.518-1.294 2.356-.171.416-.402.805-.528 1.234l-.402 1.28a16.479 16.479 0 0 0-.476 5.3c.31 3.544 1.77 7.036 3.881 9.847l-.686-.204c3.082-.937 6.02-2.356 8.547-4.323a22.723 22.723 0 0 0 6.092-7.372c1.511-2.858 2.461-6.006 2.99-9.221.54-3.234.66-6.54.356-9.814z"/><path fill="#96551E" d="M44.867 141.866c.35-1.3.422-2.653.343-3.979a16.807 16.807 0 0 0-.706-3.921c-.422-1.26-.924-2.495-1.604-3.636-.297-.594-.713-1.122-1.056-1.684-.383-.541-.805-1.049-1.201-1.577l.587-.152c-.449 2.172-1.412 4.119-2.633 5.907a18.714 18.714 0 0 1-2.072 2.495c-.383.396-.753.746-1.11 1.122-.356.376-.692.772-1.029 1.168a33.072 33.072 0 0 0-3.478 5.181c-.997 1.829-1.855 3.736-2.449 5.716-1.234 3.94-1.445 8.237-.112 12.118 1.333 3.88 4.132 7.101 7.425 9.589l-.27-.118c3.372.607 6.85.699 10.163-.04.41-.099.832-.178 1.241-.29l1.208-.403c.41-.119.792-.297 1.175-.475.383-.185.785-.324 1.148-.541 1.505-.786 2.871-1.802 4.105-2.957 1.248-1.149 2.29-2.515 3.169-3.967.23-.356.422-.739.613-1.115.205-.376.37-.766.528-1.155.337-.772.647-1.644 1.037-2.429a27.317 27.317 0 0 1 2.732-4.547c1.05-1.426 2.191-2.766 3.524-3.967l-.026.422c-.752-.792-1.775-1.419-2.845-1.801-1.075-.396-2.244-.555-3.399-.522-1.161.033-2.31.317-3.425.667-.555.185-1.09.435-1.637.653l-1.564.819 1.524-.905c.535-.244 1.063-.521 1.617-.739.562-.185 1.116-.422 1.703-.528.29-.059.581-.145.878-.185l.891-.105c1.195-.079 2.416.033 3.57.409 1.156.376 2.231.957 3.142 1.841a.274.274 0 0 1 .007.39l-.026.026c-2.423 2.416-4.469 5.3-5.861 8.428-.37.786-.62 1.571-.964 2.409-.158.423-.323.839-.528 1.235-.191.402-.383.811-.614 1.194-.884 1.558-1.953 3.023-3.247 4.27-1.3 1.241-2.745 2.337-4.336 3.182-.39.231-.812.382-1.215.58-.409.192-.818.383-1.247.509l-1.274.435c-.429.126-.87.211-1.306.324-3.505.811-7.148.739-10.646.132a.676.676 0 0 1-.271-.119c-1.73-1.294-3.353-2.766-4.706-4.482-1.353-1.709-2.442-3.649-3.148-5.728-.693-2.086-.983-4.29-.924-6.468.046-2.185.482-4.33 1.122-6.396 1.307-4.125 3.505-7.913 6.303-11.174.356-.402.713-.805 1.096-1.188.376-.389.785-.759 1.148-1.108a17.652 17.652 0 0 0 2.04-2.337c1.207-1.663 2.184-3.57 2.64-5.55l.006-.04a.322.322 0 0 1 .383-.244c.08.019.145.066.191.125.396.554.805 1.102 1.175 1.663.337.594.733 1.149 1.017 1.769.646 1.201 1.115 2.482 1.498 3.782a17.21 17.21 0 0 1 .567 4.013c-.026 1.366-.171 2.726-.587 3.999z"/><path fill="#96551E" d="M48.371 164.576c3.77-3.57 5.353-7.939 7.287-12.586.02-.053.106-.033.086.027-1.571 5.563-3.63 10.593-8.31 14.308-1.874 1.492-4.996 3.122-7.966 3.927 8.045-.462 15.556-6.738 17.483-14.612.014-.046.073-.026.067.02-1.36 8.296-10.85 16.605-19.563 15.002-.878.112-1.716.132-2.468.013-.178-.027-.212-.337-.007-.343 4.383-.099 10.342-2.865 13.392-5.756z"/><path fill="#96551E" d="M47.13 152.974c-.145 4.495-2.105 8.923-4.976 12.355-1.538 1.835-4.244 5.129-6.923 4.785-.205-.026-.211-.33-.007-.363 6.554-1.122 11.115-11.042 11.768-16.777.013-.092.145-.092.139 0z"/><path fill="#96551E" d="M39.422 149.542c-4.04 4.738-5.016 13.081-4.534 19.338 5.398-4.812 7.689-13.623 9.695-20.262.033-.099.178-.053.152.046-1.525 6.983-3.927 16.044-9.583 20.876a.35.35 0 0 1-.198.079c.02.178.033.369.053.541.032.29-.436.403-.515.112-.898-3.498-.363-7.194.363-10.679.686-3.3 1.643-7.986 4.468-10.15.072-.053.158.033.099.099z"/><path fill="#96551E" d="M39.224 142.229c.092-.04.171.092.079.138-4.752 2.647-8.098 7.597-8.613 13.029-.449 4.712 1.617 8.732 3.254 12.969.072.191-.192.317-.29.139-2.614-4.7-4.449-10.092-3.05-15.464 1.182-4.548 4.257-8.871 8.62-10.811z"/><path fill="#96551E" d="M32.743 144.262c-2.878 3.603-3.485 8.21-3.465 12.698.013 2.488.435 4.805 1.353 7.122.838 2.118 2.217 3.682 3.214 5.656.086.171-.178.343-.29.178-2.977-4.316-4.983-7.973-4.825-13.444.125-4.422.812-8.95 3.947-12.27.046-.052.105.014.066.06zm26.373-2.958c-.184 1.208-1.208 2.284-1.993 3.168-1.03 1.162-1.973 2.535-3.22 3.479-.16.118-.324-.086-.192-.225 1.874-2.059 3.584-4.296 5.386-6.428.006-.013.02 0 .02.006zm.364-6.296c-1.05 3.314-3.367 6.158-5.598 8.765-.23.271-.62-.079-.415-.363 2.072-2.825 4.362-5.247 5.907-8.441.033-.06.125-.02.105.039zm-7.096 4.449c1.347-1.168 2.205-2.799 3.142-4.297.944-1.518 2.006-3.135 2.745-4.798a.698.698 0 0 1-.64-.482.9.9 0 0 1-.356-.95c.105-.449.515-.772.91-.964.35-.171.82-.297 1.202-.152a.723.723 0 0 1 .462.74c.007 0 .02.006.026.006.152.06.212.205.225.357.072.151.079.349 0 .481-.238.39-.964.872-1.578.951-.567 1.775-1.63 3.432-2.554 5.022-.917 1.578-1.762 3.274-3.115 4.528-.31.284-.779-.172-.469-.442zm1.571-7.907c-.72 1.525-1.511 3.023-2.264 4.528-.686 1.359-1.155 2.851-1.894 4.164-.112.198-.468.139-.416-.118.627-3.003 2.528-6.303 4.535-8.6.02-.02.052 0 .04.026zm-5.339 1.729a31.91 31.91 0 0 0-1.327 4.521c-.244 1.115-.178 2.818-.957 3.683-.04.039-.125.026-.145-.027-.449-1.089.185-2.719.455-3.828.383-1.577.95-3.062 1.868-4.402.033-.039.125-.006.106.053z"/><path fill="#96551E" d="M59.189 140.381a.625.625 0 0 1 .878.066c.237.284.151.713.02 1.023a1.816 1.816 0 0 1-.278.455 1.225 1.225 0 0 1-.435.403c-.139.079-.357.059-.462-.073a1 1 0 0 1-.198-.468c-.007-.027-.027-.047-.033-.073-.066-.29.053-.752.284-1.069a1.78 1.78 0 0 1 .224-.264zm.323-6.455c.753-.073.845.851.713 1.379-.08.324-.257.7-.58.839-.007 0-.014 0-.02.006-.053.046-.1.093-.152.132-.39.244-.825.079-.964-.356-.25-.72.145-1.914 1.003-2zm-6.039-3.511c-.574.514-.884 1.834-.37 2.475.39.481 1.017.297 1.387-.093.323-.336.547-.845.528-1.32a1.046 1.046 0 0 0-.436-.825.826.826 0 0 0-.158-.264c-.27-.284-.673-.224-.95.027zm-4.752 2.006c.264-.092.535-.046.7.291.06.125.092.27.092.429.06.356-.066.759-.29 1.095a2.347 2.347 0 0 1-.139.231.816.816 0 0 1-.363.284c-.06.04-.119.079-.185.106-.198.079-.501.019-.62-.179a1.362 1.362 0 0 1-.185-.706 1.615 1.615 0 0 1 .112-1.049.93.93 0 0 1 .878-.502zm-13.952 36.775c.765.185 8.124 2.291 7.141 4.139-.983 1.848-4.085-.905-4.085-.905s-.555 4.277-2.31 5.01c-1.756.726-2.766-6.184-2.766-6.184s-6.158 1.412-5.762-.918c.396-2.33 2.218-4.145 2.218-4.145s-2.35-3.062-.607-2.996c1.736.066 6.17 5.999 6.17 5.999z"/><path fill="#96551E" d="M-13.853 240.648c-.02-.581.02-1.01.066-1.498.046-.469.112-.937.198-1.393.165-.917.389-1.815.653-2.693a33.302 33.302 0 0 1 2.013-5.088c1.604-3.267 3.623-6.277 5.874-9.088 2.237-2.812 4.772-5.393 7.34-7.841l7.655-7.386c5.056-4.95 10.019-10.012 14.104-15.754 2.033-2.871 3.848-5.9 5.28-9.108 1.453-3.201 2.522-6.567 3.235-10.019a.37.37 0 0 1 .726.139 48.466 48.466 0 0 1-3.129 10.243c-1.412 3.294-3.214 6.402-5.234 9.352-4.059 5.901-9.002 11.088-13.992 16.137l-7.544 7.511c-2.527 2.488-4.93 5.023-7.075 7.795-2.138 2.759-4.046 5.702-5.517 8.831a30.806 30.806 0 0 0-1.822 4.818 23.6 23.6 0 0 0-.561 2.481 15.89 15.89 0 0 0-.158 1.241 10.44 10.44 0 0 0-.04 1.162v.052a1.033 1.033 0 0 1-.977 1.083 1.033 1.033 0 0 1-1.082-.977c-.013.013-.013.007-.013 0z"/><path fill="#96551E" d="M14.401 168.431c-.29.673-.429 1.392-.515 2.105-.085.72-.092 1.439-.026 2.158.126 1.433.515 2.832 1.083 4.145.138.33.283.66.455.97.171.317.31.647.502.951l1.135 1.861c.765 1.267 1.425 2.614 1.887 4.039.469 1.419.819 2.891.911 4.402a17.527 17.527 0 0 1-.303 4.508 18.348 18.348 0 0 1-1.486 4.264c-.66 1.359-1.504 2.6-2.402 3.801l-.996-.825c-.034.04.02-.033.026-.072.02-.046.026-.106.033-.159.013-.118.006-.25-.033-.396a2.586 2.586 0 0 0-.442-.884c-.423-.594-1.017-1.122-1.644-1.61-.633-.509-1.307-.872-2.026-1.419-.35-.264-.72-.495-1.05-.786l-.95-.904c-1.201-1.261-2.224-2.713-2.87-4.336-.397-.779-.568-1.644-.826-2.469-.092-.422-.145-.858-.211-1.28l-.092-.64c-.027-.211-.014-.436-.027-.647a16.572 16.572 0 0 1 2.706-9.755l.733-1.043c.244-.349.482-.699.779-1.003l.844-.944c.278-.316.555-.633.878-.904.64-.554 1.215-1.148 1.908-1.67.7-.521 1.392-.97 2.02-1.458zm0 0c-.693.541-1.313 1.115-1.914 1.63-.607.528-1.168 1.175-1.755 1.749-.304.284-.555.614-.812.944l-.766.977c-.27.31-.482.666-.693 1.023l-.653 1.049c-1.67 2.825-2.449 6.131-2.224 9.339.013.198.006.403.04.601l.111.594c.08.396.126.792.218 1.181.258.759.43 1.551.805 2.257.614 1.485 1.598 2.772 2.687 3.921l.87.818c.305.257.641.469.965.706.607.469 1.412.911 2.085 1.439.687.535 1.366 1.109 1.92 1.881.278.376.515.832.647 1.353a2.243 2.243 0 0 1-.052 1.294c-.06.158-.106.27-.264.475a.642.642 0 0 1-.905.112.648.648 0 0 1-.118-.898l.026-.039c.851-1.129 1.663-2.304 2.284-3.564.614-1.267 1.128-2.581 1.438-3.954a16.399 16.399 0 0 0-.363-8.355c-.396-1.366-.983-2.673-1.656-3.934l-1.056-1.927c-.323-.667-.654-1.333-.885-2.039-.501-1.393-.811-2.865-.85-4.343-.04-1.485.21-2.99.87-4.29z"/><path fill="#96551E" d="M15.127 201.233a12.615 12.615 0 0 0 2.647-7.999c0-.706-.119-1.399-.211-2.092-.06-.343-.165-.686-.244-1.023l-.126-.508-.178-.495-.357-.997c-.132-.323-.297-.64-.448-.963a31.503 31.503 0 0 0-.984-1.947c-1.313-2.64-2.574-5.379-3.102-8.369-.264-1.485-.29-3.049.08-4.534a8.377 8.377 0 0 1 2.19-3.868c-.818 1.228-1.385 2.587-1.557 3.993-.198 1.406-.033 2.825.29 4.204.693 2.759 1.954 5.392 3.268 7.98.33.646.66 1.287.97 1.993.152.35.323.686.462 1.036l.363 1.082.171.542.12.567c.072.376.164.746.217 1.122l.105 1.142c.04.383-.006.766-.006 1.148-.119 3.043-1.445 6.033-3.67 7.986z"/><path fill="#96551E" d="M15.352 200.626c1.175-2.567 1.307-5.445.614-8.039-.337-1.307-.918-2.541-1.61-3.696-.687-1.128-1.545-2.336-2.258-3.557-.7-1.254-1.346-2.548-1.815-3.934-.449-1.386-.74-2.864-.634-4.343.073-1.478.515-2.91 1.149-4.197.647-1.287 1.465-2.455 2.382-3.525-1.372 2.449-2.567 5.049-2.508 7.749.033 2.686 1.202 5.22 2.561 7.596.357.594.693 1.195 1.076 1.769.37.568.752 1.188 1.122 1.822.68 1.28 1.287 2.633 1.531 4.085.568 2.865.053 5.967-1.61 8.27z"/><path fill="#96551E" d="M15.339 200.335c.033-1.359-.258-2.686-.746-3.913-.469-1.235-1.175-2.357-2-3.373-.218-.244-.43-.495-.647-.739l-.693-.7c-.482-.488-.996-.977-1.439-1.518-.904-1.076-1.69-2.264-2.277-3.564a12.996 12.996 0 0 1-1.023-4.138c-.112-1.426.093-2.858.462-4.211.786-2.706 2.297-5.102 4.165-7.082-1.439 2.31-2.627 4.759-3.175 7.326a12.31 12.31 0 0 0 .76 7.577c.514 1.182 1.227 2.284 2.039 3.307.396.528.845.996 1.293 1.491l.707.786c.217.277.422.561.633.845.812 1.148 1.446 2.428 1.795 3.788.35 1.36.462 2.785.146 4.118zm-8.231 9.036c1.571-.713 3.214-1.254 4.89-1.677 1.677-.416 3.393-.719 5.129-.845 3.452-.25 7.088.245 10.223 1.98.773.443 1.525.924 2.205 1.505l1.973 1.63c1.34 1.037 2.733 2.007 4.191 2.845 1.472.825 2.983 1.564 4.56 2.132.786.29 1.591.521 2.397.719.798.192 1.656.33 2.402.363h.04a.647.647 0 0 1 .29 1.208c-1.637.924-3.306 1.558-5.042 2.092-1.73.535-3.511.891-5.307 1.102-3.59.383-7.273.159-10.744-.858-3.479-.976-6.733-2.633-9.604-4.758a40.005 40.005 0 0 1-7.603-7.438zm0 0c2.41 2.593 5.043 4.989 7.986 6.91 2.904 1.967 6.132 3.438 9.498 4.296 3.366.865 6.89 1.056 10.329.614a28.932 28.932 0 0 0 5.075-1.089c1.643-.515 3.293-1.175 4.745-1.986l.33 1.214c-.97-.046-1.814-.205-2.686-.416a22.448 22.448 0 0 1-2.534-.772 28.57 28.57 0 0 1-4.752-2.27c-1.505-.898-2.924-1.928-4.283-3.017l-1.967-1.689c-.614-.561-1.3-1.023-2.007-1.459-2.87-1.689-6.31-2.316-9.689-2.224-3.405.066-6.804.766-10.045 1.888z"/><path fill="#96551E" d="M45.078 218.677c-3.148 1.26-6.607 1.663-10.006 1.663-3.418-.007-6.817-.555-10.117-1.419-1.624-.522-3.274-.984-4.832-1.677l-1.181-.488a10.655 10.655 0 0 1-1.162-.528 91.043 91.043 0 0 1-2.27-1.162c-.766-.369-1.485-.818-2.204-1.273l-2.152-1.353a97.81 97.81 0 0 1-4.04-3.069c1.492.811 2.911 1.702 4.377 2.521l2.23 1.155c.74.383 1.472.798 2.244 1.109.766.336 1.525.673 2.284 1.023.376.184.766.336 1.155.475l1.168.435c1.538.641 3.142 1.083 4.732 1.571 3.208.865 6.488 1.452 9.801 1.663 3.314.192 6.68.093 9.973-.646z"/><path fill="#96551E" d="M44.385 218.624c-3.148.785-6.527.667-9.709-.178a19.506 19.506 0 0 1-4.593-1.848c-.376-.178-.72-.409-1.07-.64l-1.029-.68c-.66-.442-1.3-.918-1.98-1.333-2.653-1.736-5.471-3.241-8.494-4.112a21.265 21.265 0 0 0-4.66-.799c-1.59-.119-3.2-.053-4.818-.013 1.584-.33 3.188-.568 4.825-.634a19.21 19.21 0 0 1 4.904.456c1.617.35 3.168.93 4.672 1.604a38.138 38.138 0 0 1 4.284 2.402c.693.436 1.34.931 2.013 1.393l.977.66c.323.217.646.442.99.627 1.326.831 2.785 1.425 4.27 1.947a24.466 24.466 0 0 0 9.418 1.148zm62.02 80.56s4.561 2.086 3.584 6.765c-.977 4.68.357 8.481.357 8.481s-14.217-6.422-7.049-14.817c-3.261-5.379-1.967-12.368 4.798-16.764 0 0-.878 4.086.904 7.062 1.789 2.964-.402 7.775-2.594 9.273z"/><path fill="#96551E" d="M108.702 308.833c1.934 1.842 4.178 3.32 6.62 4.112 1.228.37 2.482.561 3.736.508l.937-.072c.31-.047.614-.119.924-.179.297-.052.627-.132.963-.211.337-.072.667-.165 1.004-.231a22.53 22.53 0 0 1 4.098-.35c1.373.047 2.752.205 4.079.568 1.327.35 2.62.884 3.769 1.65 1.128.772 2.145 1.802 2.613 3.076-.732-1.129-1.788-1.941-2.943-2.522-1.149-.594-2.403-.963-3.67-1.207-2.541-.482-5.168-.41-7.709.072-.317.053-.633.139-.95.205-.31.072-.634.138-.99.204-.35.06-.693.139-1.043.185l-1.063.053c-1.412-.013-2.818-.264-4.111-.785-2.568-1.05-4.733-2.871-6.264-5.076z"/><path fill="#96551E" d="M138.013 303.474c1.359 1.34 2.448 2.976 3.095 4.818.297.924.515 1.907.476 2.904-.053.99-.232 2.006-.687 2.904-.818 1.821-2.217 3.359-3.933 4.409-.852.534-1.796.904-2.759 1.174-.977.264-1.934.423-3.003.416l.528-.97c.943 1.168 2.171 2.231 3.517 2.95 1.36.706 2.871 1.043 4.37.904 1.498-.138 2.937-.759 4.237-1.617 1.287-.871 2.442-1.96 3.148-3.3.713-1.333.898-2.897.574-4.402-.323-1.505-1.062-2.943-2.026-4.204-1.934-2.541-4.627-4.508-7.537-5.986zm0 0a21.508 21.508 0 0 1 4.382 2.25c1.38.911 2.667 1.987 3.749 3.274 1.089 1.274 1.974 2.772 2.403 4.462.435 1.669.303 3.564-.515 5.141-.792 1.591-2.066 2.851-3.465 3.815-1.419.95-3.056 1.683-4.825 1.868-1.762.198-3.564-.245-5.095-1.063-1.525-.851-2.838-1.954-3.907-3.366a.596.596 0 0 1 .118-.845.616.616 0 0 1 .377-.125h.039a10.364 10.364 0 0 0 5.155-1.307 9.306 9.306 0 0 0 3.716-3.841c.871-1.591.97-3.511.508-5.307-.482-1.795-1.446-3.478-2.64-4.956zm-28.664-12.83c.561-.905 1.406-1.604 2.303-2.192a11.905 11.905 0 0 1 2.931-1.339c1.03-.337 2.099-.515 3.161-.627 1.096-.106 2.079-.126 3.116-.231a48.352 48.352 0 0 0 3.062-.324c1.023-.119 2.033-.303 3.036-.495 1.003-.211 2-.442 2.963-.779.964-.33 1.901-.752 2.673-1.471-.547.917-1.485 1.551-2.415 2.059a16.86 16.86 0 0 1-2.97 1.181c-2.04.627-4.138.944-6.244 1.135-2.138.165-4.158.073-6.125.535-.983.211-1.96.502-2.884.917-.93.41-1.835.924-2.607 1.631z"/><path fill="#96551E" d="M137.703 297.158a18.08 18.08 0 0 0 1.762-3.049c.482-1.063.845-2.192.944-3.334.105-1.135-.113-2.296-.733-3.207-.31-.456-.68-.871-1.148-1.188-.231-.165-.436-.35-.687-.489l-.739-.422a17.21 17.21 0 0 0-3.227-1.214c-1.109-.324-2.251-.555-3.406-.746a50.267 50.267 0 0 0-6.956-.627h-.027a.565.565 0 0 1-.554-.568c0-1.34.264-2.547.653-3.755.403-1.195.937-2.35 1.67-3.386 1.386-2.119 3.412-3.749 5.59-4.937 1.096-.614 2.244-1.049 3.439-1.465a7.922 7.922 0 0 1 3.867-.251c2.588.456 4.799 2.053 6.343 4.013 3.148 3.927 4.178 9.359 2.779 14.117-.654 2.396-2.007 4.548-3.676 6.317-1.677 1.769-3.716 3.161-5.894 4.191zm0 0c2.085-1.208 4.019-2.68 5.557-4.501.376-.462.766-.911 1.076-1.419.158-.251.343-.482.488-.74l.423-.779c.297-.508.501-1.069.739-1.603.178-.561.402-1.103.521-1.683 1.155-4.548.013-9.597-2.93-13.161-1.452-1.782-3.452-3.128-5.637-3.511a6.642 6.642 0 0 0-3.273.238c-1.076.376-2.185.818-3.195 1.379-2.033 1.102-3.894 2.581-5.161 4.501-.673.937-1.155 1.987-1.551 3.063-.37 1.069-.627 2.25-.647 3.326l-.574-.568c2.409.086 4.765.35 7.115.799 2.343.455 4.686 1.096 6.818 2.277l.778.482c.258.158.489.376.733.567.489.37.918.858 1.234 1.4.654 1.089.805 2.396.634 3.59-.172 1.208-.614 2.337-1.155 3.393a16.778 16.778 0 0 1-1.993 2.95zm.31 6.316c-2.482-1.095-5.056-1.868-7.643-2.521a67.797 67.797 0 0 0-7.88-1.419c-1.327-.125-2.654-.297-3.993-.343-.667-.04-1.334-.099-2-.119-.667-.007-1.34-.02-2.007-.04l-1.003-.026-1.003.02-2.02.02c-1.346.026-2.692.132-4.052.132a66.163 66.163 0 0 1 4-.779c1.346-.139 2.699-.37 4.065-.396 2.726-.192 5.458-.046 8.178.224 2.712.357 5.405.891 8.005 1.743 2.581.858 5.129 1.933 7.353 3.504z"/><path fill="#96551E" d="M137.703 297.158c-.172.706-.588 1.306-1.076 1.821a5.845 5.845 0 0 1-1.729 1.234c-.647.291-1.34.509-2.046.555a4.984 4.984 0 0 1-2.086-.238c.653-.317 1.267-.515 1.855-.765.594-.218 1.155-.489 1.716-.733a23.07 23.07 0 0 0 1.656-.858c.561-.31 1.109-.64 1.71-1.016zm9.642 14.407c1.399-1.683 2.601-3.491 3.485-5.412.871-1.92 1.406-3.979 1.267-6.019-.039-1.023-.284-2.019-.653-2.976-.159-.489-.409-.944-.634-1.413-.277-.442-.515-.911-.831-1.333-1.202-1.729-2.753-3.254-4.409-4.693 1.96.99 3.775 2.337 5.22 4.073 1.472 1.709 2.456 3.933 2.607 6.263.126 2.33-.547 4.62-1.669 6.56-1.109 1.954-2.601 3.657-4.383 4.95z"/><path fill="#96551E" d="M159.945 287.944c-6.752 5.076-13.926 9.22-22.506 10.085-.41.04-.489-.594-.08-.634 3.861-.376 7.769-1.524 11.339-3.049 4.006-1.709 7.386-4.415 11.167-6.514.08-.04.152.059.08.112zm1.049 5.901c-7.94 4.573-17.899 6.989-27.02 6.6-.396-.02-.317-.627.079-.608 9.029.344 18.83-2.105 26.882-6.111.066-.033.125.079.059.119zm-7.557 15.681c.079.053-.007.165-.086.132-5.418-2.264-10.045-4.963-15.879-6.224-.251-.053-.172-.468.085-.442 5.525.515 11.359 3.373 15.88 6.534zm5.141-5.788c-3.933-.35-7.814-.983-11.754-1.261-4.468-.31-9.399.099-13.735-.957-.158-.039-.119-.257.027-.27 8.395-.746 17.252.891 25.495 2.303.119.027.08.198-.033.185z"/><path fill="#96551E" d="M154.704 310.186c-.006.046-.033.066-.053.099a.292.292 0 0 1-.25.244 2.59 2.59 0 0 1-.753.033c-.785.033-1.709-.303-1.491-1.115.389-1.419 2.838-.574 2.547.739zm5.122-6.468c-.238.785-1.776 1.505-2.422.818-.02-.02-.033-.046-.047-.066-.072-.033-.151-.066-.224-.125-.317-.251-.337-.805.079-.977.7-.29 1.518-.739 2.277-.363.284.132.436.389.337.713zm1.993-10.117c.264.165.31.554.139.792-.027.039-.06.079-.093.118-.125.35-.442.68-.752.878-.469.297-.997.588-1.564.574-.614-.013-1.037-.508-.898-1.115a1.63 1.63 0 0 1 .271-.561c.006-.013.006-.026.013-.04.171-.323.488-.541.818-.679a2.52 2.52 0 0 1 .984-.192c.396-.026.772.033 1.082.225zm-.904-6.654c.053.02.112.04.165.073.323.178.488.568.317.911-.535 1.089-1.809 1.861-3.023 1.861-.442 0-.733-.284-.706-.733.033-.6.64-1.161 1.056-1.524.468-.409 1.161-.911 1.821-.766a.925.925 0 0 1 .37.178zM-29.7 304.042c5.498 1.102 11.042 2 16.619 2.679 5.583.634 11.18 1.129 16.803 1.406 11.234.561 22.513.469 33.76-.119 11.252-.58 22.48-1.65 33.66-3.121 11.173-1.485 22.32-3.3 33.323-5.703h.007a.368.368 0 0 1 .435.277.368.368 0 0 1-.277.436c-11.022 2.534-22.156 4.475-33.343 6.092-11.187 1.597-22.434 2.792-33.72 3.504-11.286.713-22.611.938-33.93.495-5.657-.211-11.313-.646-16.95-1.227a219.98 219.98 0 0 1-16.83-2.521 1.12 1.12 0 0 1 .417-2.198h.026z"/><path fill="#96551E" d="M-9.326 308.305c4.033.488 8.085.733 12.138.726a96.358 96.358 0 0 0 12.097-.686c4-.515 7.967-1.281 11.801-2.475a54.427 54.427 0 0 0 5.623-2.112 43.442 43.442 0 0 0 5.267-2.845l.165 1.175c-1.894-.515-3.907-.858-5.887-1.135a70.43 70.43 0 0 0-6.026-.482c-4.026-.152-8.078.026-12.078.6-3.993.581-7.98 1.386-11.82 2.667-1.96.541-3.828 1.326-5.73 2.052-.976.344-1.82.799-2.745 1.208a62.03 62.03 0 0 0-2.805 1.307zm0 0a80.85 80.85 0 0 0 2.647-1.426c.904-.481 1.835-1.029 2.765-1.405 1.868-.819 3.716-1.703 5.663-2.343 3.835-1.439 7.834-2.396 11.88-3.069 4.046-.7 8.164-.911 12.27-.825 4.111.118 8.19.561 12.242 1.603a.643.643 0 0 1 .179 1.169l-.014.006a46.55 46.55 0 0 1-5.458 2.911c-1.887.812-3.815 1.544-5.788 2.125-3.94 1.155-7.986 1.907-12.052 2.303a85.91 85.91 0 0 1-12.223.311c-4.059-.212-8.124-.581-12.11-1.36z"/><path fill="#96551E" d="M-9.326 308.305c3.954-.581 7.9-1.135 11.847-1.637l11.847-1.544a640.278 640.278 0 0 0 11.82-1.624c1.968-.283 3.928-.6 5.895-.924l2.943-.508c.97-.211 1.947-.416 2.93-.6-3.761 1.359-7.675 2.27-11.589 3.042-1.954.416-3.934.713-5.9 1.056-1.974.304-3.947.594-5.927.858-3.96.508-7.927.944-11.907 1.254-3.98.33-7.966.548-11.959.627zm117.091 15.794a82.708 82.708 0 0 1-7.253.198 98.885 98.885 0 0 1-7.26-.336c-4.825-.429-9.656-1.234-14.31-2.686a79.029 79.029 0 0 1-6.863-2.462 133.026 133.026 0 0 1-6.673-2.911 178.776 178.776 0 0 1-12.923-6.692.65.65 0 0 1 .324-1.215c4.897.007 9.728.383 14.56.977 4.817.607 9.615 1.452 14.321 2.68 2.35.62 4.68 1.32 6.983 2.099a85.306 85.306 0 0 1 6.778 2.679 70.629 70.629 0 0 1 6.429 3.419c1.016.66 2.052 1.294 3.029 2.02.984.679 1.941 1.518 2.858 2.23zm0 0c-1.016-.739-1.947-1.419-2.983-2.059-.997-.68-2.053-1.267-3.089-1.881a70.082 70.082 0 0 0-6.514-3.128 88.094 88.094 0 0 0-6.778-2.488c-2.297-.72-4.62-1.353-6.963-1.908-4.693-1.062-9.439-1.934-14.224-2.475-4.778-.548-9.61-.878-14.394-.851l.323-1.215a179.575 179.575 0 0 0 12.771 6.746c4.343 2.079 8.791 3.946 13.332 5.491 4.541 1.544 9.287 2.448 14.072 3.003 4.778.587 9.616.812 14.447.765z"/><path fill="#96551E" d="M52.813 308.649c4.574 1.379 9.128 2.765 13.675 4.197l13.65 4.211a558.373 558.373 0 0 0 13.701 4l3.445.911 3.465.838c1.155.297 2.323.495 3.485.746.581.138 1.168.198 1.762.277l1.769.264c-4.785-.066-9.524-.99-14.177-2.046-4.66-1.076-9.26-2.363-13.833-3.736-4.561-1.412-9.102-2.891-13.59-4.501a241.076 241.076 0 0 1-13.352-5.161z"/><path fill="#FEC6AD" d="M146.599 242.346s4.271-1.485 4.013-2.277c-.257-.792-2.798-.647-4.376.409 0 0 1.096-3.67-.31-3.65-1.406.02-1.234 3.3-1.234 3.3s-3.887-2.6-4.607-.983c-.719 1.617 2.455 2.838 2.455 2.838s-4.045 1.59-3.174 2.745 4.673-1.01 4.673-1.01-2.568 2.409-.806 2.984c1.763.574 3.017-2.871 3.017-2.871s1.98 2.039 2.89 1.452c.911-.588-2.541-2.937-2.541-2.937z"/><path fill="#fff" d="M17.378 263.908s2.475 3.993 1.419 4.488c-1.056.495-2.396-3.551-2.396-3.551s-.944 3.867-2.152 3.551c-1.207-.317 0-4.488 0-4.488s-3.214 1.075-3.359 0c-.139-1.076 3.36-2.06 3.36-2.06s-1.948-1.109-2.185-2.554c-.238-1.445 3.801 1.782 3.801 1.782s.746-2.884 1.518-3.056c.773-.171 0 3.822 0 3.822s2.39-2.436 3.056-1.531c.673.904-1.637 2.91-1.637 2.91s2.984.66 2.713 1.611c-.27.957-4.138-.924-4.138-.924z"/><path fill="#96551E" d="M67.122 189.327s-2.666 2.561-3.98 2.125c-1.313-.435 2.568-3.088 2.568-3.088s-3.465-.093-3.624-1.334c-.151-1.24 3.65-.693 3.65-.693s-1.327-2.659-.924-3.418c.403-.759 2.772 3.069 2.772 3.069s.587-2.68 1.756-3.003c1.168-.324-.205 3.253-.205 3.253s2.554-1.683 3.307-.627c.746 1.056-2.455 2.211-2.455 2.211s2.864 1.38 2.699 1.954c-.165.574-3.432-.04-3.432-.04s-.403 2.951-1.353 2.997c-.944.053-.779-3.406-.779-3.406zm-10.672-3.445c-.06.033-.112.073-.172.119-.244.04-.481.159-.66.35-.495.521-.429 1.234.04 1.703.026.039.06.079.092.119a.692.692 0 0 0 .377.204c.547.251 1.247.218 1.636-.29.37-.482.31-1.267.033-1.789-.27-.508-.844-.686-1.346-.416z"/><path fill="#FEC6AD" d="M54.305 181.691c-.218.264-.27.568-.112.878.264.508.7.759 1.181.779.033.02.066.046.1.059a.447.447 0 0 0 .224.04.41.41 0 0 0 .217-.04c-.013.126.053.146.198.06.08-.027.152-.06.218-.099.093-.06.172-.132.244-.205.132-.138.225-.317.264-.508.086-.403-.072-.825-.363-1.109-.613-.614-1.623-.521-2.171.145z"/><path fill="#FADBD7" d="M58.641 183.512c-.171.357.093.687.43.779.243.066.468.106.725.093.515-.02.687-.839.185-1.023l-.06-.02a1.34 1.34 0 0 0-.085-.119c-.033-.026-.198-.178-.238-.198a.636.636 0 0 0-.35-.059c-.31.053-.488.297-.607.547z"/><path fill="#fff" d="M8.95 254.516a.897.897 0 0 0 .323.132c.139.072.284.132.442.158.317.053.541-.059.726-.31.264-.357.403-.819.304-1.215a.711.711 0 0 0-.02-.165c-.27-.877-1.24-.963-1.802-.396-.046.033-.105.053-.145.093-.502.455-.376 1.333.172 1.703zm2.983-4.033c.026.291.363.522.633.383-.013.007-.006 0 .007-.007.02-.013.04-.019.06-.033-.014.014-.034.02-.047.027.007 0 .007 0 .013-.007.033-.006.06-.026.093-.039a.54.54 0 0 0 .257.085c.172.007.192-.105.31-.171.007.02.007.033.014.053a.464.464 0 0 0 .171-.165c.159-.238.119-.548-.006-.792-.198-.39-.66-.634-1.076-.41-.376.225-.469.674-.43 1.076z"/><path fill="#96551E" d="M8.514 250.027c.033.139.198.291.343.297.165.014.343.02.508-.006.581.119 1.149-.64.614-1.096a1.932 1.932 0 0 0-.462-.303c-.376-.172-.772-.053-.917.356-.086.238-.152.449-.086.752z"/><path fill="#fff" d="M64.832 273.767a.714.714 0 0 0 .257.317c.1.284.29.535.568.693.145.086.376.092.515-.013.217-.159.415-.357.567-.581.277-.211.442-.561.337-.944a.91.91 0 0 0-.08-.198c-.006-.033-.006-.059-.013-.092-.145-.535-.653-.911-1.214-.772-.62.158-1.188.957-.937 1.59z"/><path fill="#96551E" d="M60.99 273.82a1.314 1.314 0 0 0-.118.304.511.511 0 0 0 .152.501c.079.073.171.132.264.185.072.066.151.126.237.172a.906.906 0 0 0 1.135-.231.965.965 0 0 0 .192-.396 1.54 1.54 0 0 0 .092-.218c.06-.172-.026-.37-.145-.495a.723.723 0 0 0-.073-.066.903.903 0 0 0-.706-.449c-.429-.033-.904.271-1.03.693z"/><path fill="#FEC6AD" d="M62.819 270.25c-.198.125-.363.336-.482.528a.496.496 0 0 0 .013.514c.244.37.647.713 1.116.561.382-.125.607-.495.64-.884.033-.383-.192-.766-.6-.799a.55.55 0 0 0-.205.02.645.645 0 0 0-.482.06z"/><path fill="#fff" d="M12.104 322.067c.238.442.878.554 1.333.402.575-.185.825-.805.707-1.373-.126-.58-.614-1.049-1.221-1.062-.462-.013-1.063.198-1.353.574-.443.581 0 1.148.534 1.459z"/><path fill="#96551E" d="M9.57 325.387c.257.099.567.119.805-.007.106-.02.211-.053.304-.105a.702.702 0 0 0 .488-.72c.06-.389-.139-.752-.488-.858a.665.665 0 0 0-.086-.053c-.482-.25-1.043.014-1.347.416-.35.449-.25 1.102.324 1.327z"/><path fill="#FEC6AD" d="M8.157 321.281a.66.66 0 0 0 .45.528.872.872 0 0 0 .045.119c.08.171.337.25.509.191.382-.132.7-.436.66-.845a.333.333 0 0 0 .059-.204c-.046-.403-.33-.548-.614-.535a.871.871 0 0 0-.343-.092c-.449-.027-.818.402-.766.838z"/><path fill="#96551E" d="M151.747 256.588c.047.02.093.026.139.039.429.271.95.39 1.432.264.838-.217 1.287-1.122 1.129-1.94-.297-1.492-2.086-2.587-3.426-1.637-1.293.924-.58 2.792.726 3.274z"/><path fill="#FEC6AD" d="M147.391 259.915c.06.218.179.409.324.574.343.627 1.029 1.023 1.795.647.99-.489 1.346-1.987.561-2.799-.482-.501-1.32-.673-1.934-.343-.68.357-.944 1.208-.746 1.921z"/><path fill="#FADBD7" d="M145.92 255.07c.006.119.026.231.052.343.126.456.33.977.872 1.043a.772.772 0 0 0 .58-.165.618.618 0 0 0 .179-.204.563.563 0 0 0 .105-.08.41.41 0 0 0 .106-.178 1.82 1.82 0 0 0 .251-.396c.349-.825-.324-1.439-1.089-1.584-.462-.086-1.01.02-1.155.535-.06.224-.014.462.099.686z"/><path fill="#fff" stroke="#96551E" stroke-linecap="round" stroke-linejoin="round" stroke-miterlimit="10" d="M171.251 287.825s7.524-7.128-.073-15.932c.007 0-8.263 7.874.073 15.932zm-133.143-3.59s.495 7.696-8.362 7.834c0-.006-3.445-6.514 8.363-7.834zM17.074 159.079s-6.474 4.878-11.966-3.346c-.006-.007 6.449-6.461 11.966 3.346zm60.569 10.897s7.484-3.485 2.646-12.897c0 0-8.316 3.987-2.646 12.897z"/></g></g></svg>