<svg xmlns="http://www.w3.org/2000/svg" width="446" height="285" fill="none"><g opacity=".5"><mask id="a" width="446" height="285" x="0" y="0" maskUnits="userSpaceOnUse" style="mask-type:luminance"><path fill="#fff" d="M446 285H.5V.407H446V285z"/></mask><g mask="url(#a)"><g fill="#FADBD7" opacity=".7"><path d="M442.911 302.691a28.401 28.401 0 0 0-.736-1.179c-.244-.375-.493-.734-.743-1.098a80.705 80.705 0 0 0-1.538-2.135 89.477 89.477 0 0 0-3.267-4.081 104.121 104.121 0 0 0-7.164-7.587 111.57 111.57 0 0 0-7.865-6.853 109.604 109.604 0 0 0-8.47-6.113c-2.917-1.907-5.904-3.705-8.987-5.339-1.521-.848-3.101-1.599-4.657-2.379-.778-.393-1.58-.734-2.37-1.104-.796-.359-1.58-.74-2.388-1.065a132.303 132.303 0 0 0-19.804-6.682c-.03-.006-.065.011-.071.04-.006.028.012.062.041.068a131.13 131.13 0 0 1 19.287 7.673c.784.364 1.533.785 2.299 1.178.761.404 1.533.785 2.275 1.212 1.491.848 3 1.674 4.449 2.584a110.16 110.16 0 0 1 8.506 5.698 104.847 104.847 0 0 1 7.912 6.398 107.329 107.329 0 0 1 7.241 7.046 99.044 99.044 0 0 1 6.469 7.656 82.803 82.803 0 0 1 2.881 4.041c.451.689.897 1.377 1.324 2.072.208.347.422.694.618 1.041.202.342.404.712.559 1.008l.017.034c.588 1.121 2.008 1.582 3.184 1.019 1.17-.558 1.652-1.924 1.063-3.051a.657.657 0 0 1-.065-.102z"/><path d="M357.583 250.252s16.103-2.755 28.88 10.66c0 0-16.002 1.105-28.88-10.66zm39.02 15.014s-12.682-4.012-24.61 8.737c0 0 18.064 3.251 24.61-8.737z"/><path d="M381.426 239.3s16.496 10.53 15.177 25.967c0 0-18.129-11.635-15.177-25.967zm19.656 5.094s11.208 14.344 5.625 26.411c0 0-11.72-14.201-5.625-26.411zm11.826 9.068s13.389 13.085 7.924 27.747c0-.005-10.769-10.233-7.924-27.747zm.321 21.691s-13.407-5.31-28.916 7.127c.006 0 13.537 5.481 28.916-7.127zm11.88 10.047s-16.537-5.607-30.692 7.45c0 .006 16.614 1.805 30.692-7.45zm50.941-123.092c-.487.199-.879.375-1.301.569-.415.188-.819.387-1.223.58-.808.399-1.598.809-2.382 1.224a100.581 100.581 0 0 0-4.604 2.652 106.295 106.295 0 0 0-8.666 5.971 110.96 110.96 0 0 0-7.989 6.722 107.424 107.424 0 0 0-7.289 7.377c-2.304 2.561-4.508 5.208-6.546 7.957-1.045 1.355-2.007 2.772-2.993 4.167-.493.7-.939 1.423-1.408 2.134-.458.717-.945 1.417-1.372 2.157a121.096 121.096 0 0 0-9.154 18.112c-.012.028.006.062.036.074.029.011.065 0 .077-.029a121.652 121.652 0 0 1 10.122-17.502c.463-.706.986-1.372 1.479-2.055.505-.677.986-1.366 1.509-2.032 1.051-1.326 2.073-2.664 3.177-3.944a107.872 107.872 0 0 1 6.867-7.462 107.25 107.25 0 0 1 7.52-6.819 109.165 109.165 0 0 1 8.12-6.102 104.381 104.381 0 0 1 8.667-5.299 89.295 89.295 0 0 1 4.514-2.288c.76-.353 1.527-.7 2.299-1.03.386-.16.766-.325 1.152-.473.374-.153.784-.307 1.105-.415l.036-.012c1.229-.432 1.865-1.736 1.413-2.914-.451-1.178-1.811-1.787-3.041-1.355a.316.316 0 0 0-.125.035z"/><path d="M412.089 237.462s-1.046-15.641 14.297-26.302c0 0-.647 15.362-14.297 26.302zm19.952-35.466s-5.584 11.623 6.296 24.413c0 0 5.4-16.831-6.296-24.413z"/><path d="M403.41 213.534s12.771-14.526 28.631-11.538c0 0-14.096 15.96-28.631 11.538zm7.485-18.147s16.133-9.061 28.018-2.39c.006-.006-16.037 9.562-28.018 2.39zm10.733-10.245s15.07-11.281 29.665-4.428c0 0-11.821 9.107-29.665 4.428zm22.537 2.129s-7.01 12.17 4.146 28.334c-.006 0 7.199-12.271-4.146-28.334zm-27.176-16.694a1.345 1.345 0 0 1-.321.33 2.04 2.04 0 0 1-.208.188c-.19.153-.481.25-.742.233-.036.011-.065.023-.101.034-.725.256-1.426-.279-1.354-1.007.041-.444-.024-.917.285-1.292a1.19 1.19 0 0 1 .546-.365c.071-.068.149-.142.226-.204.404-.348.974-.205 1.313.125a.995.995 0 0 1 .469.893v.012c.095.353.101.711-.113 1.053zm4.877.887-.018.035c-.065.5-.582.893-1.111.813-.368-.051-.719-.25-1.021-.444a1.892 1.892 0 0 1-.339-.267.876.876 0 0 1 .261-1.377c.244-.12.434-.074.677-.057-.005-.006-.011-.006-.017-.012.012.006.035.006.047.012h.024c.018 0 .03.005.036.011.077.017.166.023.231.04l.048.017a.291.291 0 0 1 .071-.011c.481-.035.992.256 1.093.711a.737.737 0 0 1 .018.529zM336.253 277.84c-.238.227-.488.552-.832.626-.154.034-.321.028-.487.028a1.523 1.523 0 0 1-.505.12.84.84 0 0 1-.814-.564c-.202-.631.463-1.07.998-1.263.398-.148.754-.171 1.176-.143.553.035.856.82.464 1.196zm3.029 3.461c.024.205-.006.438-.101.626-.285.552-.867.643-1.443.592-.315-.029-.695-.307-.773-.609-.089-.336-.314-.689-.35-1.036-.042-.359.119-.689.41-.916.154-.126.344-.2.511-.314.332-.227.748-.313 1.11-.079.351.216.434.586.369.95.083.08.154.177.196.285a.766.766 0 0 1 .035.324c.006.035.03.143.036.177zm92.444-31.585c-.178.353-.273.768-.576 1.053-.398.376-.944.364-1.467.421-.505.057-.998-.296-1.087-.774h-.006c-.196-.097-.339-.313-.398-.512-.244-.82.303-1.554 1.081-1.821.606-.205 1.212-.114 1.8.091.594.21.932.984.653 1.542zm4.633 3.182c-.237.621-.932 1.013-1.592.649-.083-.045-.166-.102-.243-.154a2.346 2.346 0 0 1-.82.074c-.499-.051-.998-.449-.826-.996.107-.182.22-.358.327-.54.006-.427.321-.843.802-.809.054-.028.101-.062.16-.085.226-.108.464-.165.695-.245.66-.239 1.301.051 1.61.638.226.444.054 1.036-.113 1.468zm-4.366 2.556c0 .341-.184.637-.433.91-.238.262-.755.319-1.052.126-.546-.353-.902-.94-.79-1.583.095-.535.464-.848.921-.973.095-.205.362-.381.535-.103.077.006.154.018.225.023.036.012.066.034.101.046.089.017.173.034.256.057-.024.011-.042.022-.066.028a1.01 1.01 0 0 1 .303 1.469z"/></g><path fill="#FADBD7" d="M299.65 260.815s3.855 4.833 8.946 12.756c4.972 7.746 1.586 16.426-2.317 17.832 0 .006-16.097-12.522-6.629-30.588zm-13.531 12.346s4.348-5.02.434-11.179c-3.915-6.158-10.158-12.624-9.463-17.878 0 0-5.785 8.538-2.513 15.88 3.273 7.343 11.542 13.177 11.542 13.177zm-15.319-5.026s2.589-8.458-3.82-15.158c-6.409-6.693-6.255-15.123-6.255-15.123s-6.035 6.603-3.973 15.92c2.073 9.318 8.078 13.871 14.048 14.361zm-2.465 8.23s-1.575-9.158-10.77-10.49c-9.195-1.326-13.323-3.643-15.099-6.842 0 0 6.914 24.714 25.869 17.332zm18.574 14.788s-3.392-7.012-11.969-5.732c-8.577 1.287-14.024 1.554-17.903-1.531 0 0 13.959 22.631 29.872 7.263z"/><path fill="#E39F96" d="M321.575 310.801c-3.909-5.68-8.429-10.979-13.306-15.948-4.883-4.969-10.217-9.563-16.056-13.547-2.97-1.952-5.975-3.717-8.951-5.555-2.988-1.816-5.934-3.671-8.786-5.641l-1.063-.745-1.028-.78c-.695-.512-1.342-1.07-2.001-1.617-.339-.267-.648-.563-.951-.853-.309-.296-.629-.581-.926-.883-.571-.626-1.171-1.229-1.675-1.912-2.169-2.618-3.469-5.817-4.545-9.05.363 1.662.743 3.335 1.384 4.94l.226.609c.083.2.178.393.268.592.184.393.362.791.558 1.179.433.757.843 1.531 1.366 2.236 1.99 2.915 4.722 5.26 7.508 7.388 2.798 2.141 5.756 4.042 8.702 5.948 2.958 1.884 5.988 3.683 8.845 5.596 2.857 1.946 5.643 4.001 8.298 6.215 2.703 2.163 5.251 4.497 7.793 6.842a205.146 205.146 0 0 1 14.34 14.986z"/><path fill="#E39F96" d="M303.487 276.093c.024 1.77.155 3.534.333 5.299.19 1.764.428 3.523.784 5.265.362 1.741.766 3.483 1.378 5.179.606 1.696 1.349 3.364 2.406 4.907.178.256.535.33.802.159a.54.54 0 0 0 .166-.768c-.006-.006-.012-.018-.018-.023l-.012-.012c-1.051-1.371-1.853-2.931-2.536-4.547-.689-1.617-1.176-3.313-1.633-5.015-.446-1.707-.779-3.443-1.064-5.185a67.902 67.902 0 0 1-.606-5.259zm-24.502-2.112c-.279.318-.743.643-1.164.922l-.689.381c-.238.114-.487.211-.731.313-.238.114-.505.177-.76.256-.262.069-.511.177-.778.211-.535.085-1.064.233-1.61.245-.547.034-1.093.102-1.646.057-.552-.035-1.104 0-1.651-.109-.546-.079-1.099-.142-1.645-.239l-1.622-.387c-.546-.108-1.069-.313-1.598-.483-.528-.183-1.063-.336-1.586-.541l-1.538-.655c-.511-.222-1.04-.421-1.527-.688-.986-.524-2.002-.991-2.964-1.56l-2.875-1.719 2.798 1.838c.938.604 1.936 1.122 2.905 1.685.481.291.998.513 1.502.757l1.527.723c.517.228 1.051.41 1.58.615.535.193 1.051.427 1.61.558l1.645.461c.559.125 1.129.21 1.693.318.564.131 1.146.126 1.717.183.576.068 1.158.028 1.74.011.582.011 1.158-.12 1.741-.188.291-.028.57-.131.861-.193.285-.08.576-.131.849-.251.274-.108.559-.199.832-.319l.796-.398c.517-.319 1.004-.603 1.479-1.093a.54.54 0 0 0-.024-.785.599.599 0 0 0-.82.022l-.017.018-.03.034zm8.542 5.094c.017-1.104-.119-2.106-.303-3.13-.173-1.019-.434-2.015-.719-3-.582-1.969-1.366-3.87-2.257-5.714l-.695-1.372c-.244-.45-.505-.894-.755-1.338-.487-.899-1.069-1.753-1.609-2.618-.559-.86-1.176-1.685-1.759-2.527l-1.888-2.431 1.77 2.51c.54.866 1.116 1.714 1.627 2.59.499.888 1.034 1.753 1.473 2.67.226.455.464.899.683 1.36l.618 1.383c.79 1.856 1.473 3.757 1.948 5.698.232.973.434 1.946.553 2.931.131.973.202 1.992.148 2.909v.039a.565.565 0 0 0 .547.587.571.571 0 0 0 .612-.524c.006-.006.006-.017.006-.023zm7.437 4.627c-.499-.842-.915-1.844-1.248-2.829a24.422 24.422 0 0 1-.79-3.05c-.178-1.036-.327-2.089-.38-3.148-.071-1.059-.059-2.123-.018-3.188-.136 1.059-.249 2.118-.273 3.188-.042 1.07.006 2.146.095 3.216.107 1.07.273 2.14.529 3.199.261 1.064.564 2.089 1.069 3.147a.592.592 0 0 0 .772.273.547.547 0 0 0 .285-.739.084.084 0 0 0-.024-.04l-.017-.029z"/><path fill="#E39F96" d="M277.738 272.569c-.541-.518-1.058-1.224-1.491-1.913a16.11 16.11 0 0 1-1.135-2.225 18.764 18.764 0 0 1-.772-2.391c-.208-.814-.339-1.65-.446-2.487.012.842.048 1.696.161 2.538.101.849.285 1.685.505 2.516.237.826.534 1.645.909 2.436.386.797.795 1.549 1.419 2.3a.608.608 0 0 0 .82.091.55.55 0 0 0 .053-.831l-.023-.034zm12.497 8.384c-.148.153-.433.341-.677.495a6.97 6.97 0 0 1-.831.41c-.286.131-.594.216-.891.319-.315.073-.618.17-.939.221-1.271.24-2.608.279-3.926.148-.666-.028-1.319-.17-1.978-.261a45.201 45.201 0 0 1-1.955-.439c-.641-.193-1.289-.37-1.924-.575l-1.895-.683 1.841.814c.624.251 1.26.473 1.889.712.642.205 1.295.398 1.949.58.665.137 1.324.331 2.001.405 1.349.227 2.745.284 4.135.119.35-.034.695-.114 1.039-.171.339-.091.689-.165 1.028-.29a9.43 9.43 0 0 0 .998-.41c.332-.182.623-.33.968-.626a.54.54 0 0 0 .041-.785.598.598 0 0 0-.819-.04l-.036.034-.018.023z"/><path fill="#fff" d="M292.231 269.774c.036-.023.083-.034.125-.046.214-.102.445-.102.624.086.392.41.415 1.195.148 1.77-.065.193-.16.381-.273.563-.119.188-.368.245-.576.183a.744.744 0 0 1-.173-.069 1.022 1.022 0 0 1-.249-.051c-1.069-.359-.297-2.055.374-2.436zm-17.95 9.716a1.08 1.08 0 0 1 .326.034c.374.023.755.154 1.016.382.481.21.475.962.119 1.286-.285.256-.707.319-1.081.268-.38-.052-.784-.211-1.016-.513a.943.943 0 0 1-.16-.341c-.226-.524.178-1.076.796-1.116zm-.363-15.089a.332.332 0 0 1-.107.017.491.491 0 0 1-.208.029c-.291-.012-.505-.222-.641-.473a.954.954 0 0 1-.202-.74.934.934 0 0 1 .041-.187c.024-.171.078-.342.167-.507.142-.256.516-.393.802-.285.154-.022.35.052.433.165.44.598.63 1.691-.285 1.981z"/><path fill="#FADBD7" d="M414.405 120.358s4.8 4.098 12.765 9.631c7.787 5.407 17.196 2.789 18.978-.883 0 .006-11.975-16.535-31.743-8.748zm14.048-12.158s-5.625 3.825-11.82-.433c-6.196-4.257-12.534-10.797-18.123-10.53 0 0 9.444-4.946 16.935-1.218 7.484 3.734 13.008 12.181 13.008 12.181zm-4.128-15.209s-9.118 1.862-15.688-4.855c-6.569-6.716-15.467-7.206-15.467-7.206s7.425-5.339 17.089-2.63c9.664 2.71 14.006 8.874 14.066 14.691zm8.862-1.759s-9.539-2.225-10.234-11.23c-.695-9.004-2.822-13.176-6.059-15.14 0 0 25.53 8.583 16.293 26.37zm14.173 19.108s-7.134-3.819-5.126-12.021c2.007-8.202 2.714-13.462-.244-17.452 0 0 22.792 15.243 5.37 29.473z"/><path fill="#E39F96" d="M465.43 145.402a206.298 206.298 0 0 1-14.696-15.027c-2.281-2.635-4.544-5.282-6.617-8.065-2.133-2.738-4.087-5.595-5.916-8.509-1.8-2.915-3.469-5.982-5.228-8.993-1.788-2.994-3.564-6.005-5.607-8.88-2.037-2.863-4.295-5.68-7.217-7.832-.707-.558-1.497-1.013-2.257-1.491-.392-.222-.802-.421-1.2-.632-.202-.102-.398-.21-.6-.307l-.624-.262c-1.639-.746-3.38-1.24-5.102-1.719 3.326 1.286 6.593 2.79 9.189 5.089.677.535 1.271 1.166 1.889 1.764.297.307.57.643.861.962.285.319.57.643.826.99.528.678 1.069 1.35 1.55 2.06l.743 1.054.706 1.087c1.86 2.909 3.594 5.902 5.275 8.93 1.705 3.023 3.344 6.062 5.174 9.09 3.754 5.954 8.191 11.469 13.056 16.575 4.859 5.117 10.098 9.898 15.795 14.116z"/><path fill="#E39F96" d="M430.217 125.241c1.848.256 3.683.603 5.501 1.002 1.817.404 3.617.859 5.381 1.423 1.759.569 3.511 1.172 5.162 1.963 1.652.78 3.238 1.68 4.598 2.801l.012.011a.603.603 0 0 0 .831-.062.546.546 0 0 0-.065-.797c-.006-.006-.018-.012-.024-.017-1.544-1.139-3.249-1.987-4.989-2.704-1.741-.723-3.547-1.247-5.358-1.73-1.812-.478-3.653-.843-5.495-1.161a67.01 67.01 0 0 0-5.554-.729zm11.156-4.81c2.726-1.275 4.217-3.614 5.28-5.982 1.028-2.402 1.545-4.946 1.77-7.49.084-.632.06-1.275.096-1.913.005-.637.071-1.275.035-1.906l-.077-1.907c-.024-.638-.042-1.27-.131-1.901l-.208-1.896c-.077-.632-.118-1.263-.249-1.884l-.648-3.75.505 3.767c.101.626.125 1.258.173 1.89l.136 1.89c.066.632.054 1.263.054 1.895l.006 1.89c.011.632-.078 1.258-.107 1.884-.06.626-.06 1.258-.167 1.878-.314 2.493-.926 4.952-1.99 7.206-.136.279-.261.564-.409.837l-.493.791-.244.393c-.089.125-.19.244-.285.37-.196.239-.374.489-.576.722l-.648.661c-.219.216-.469.398-.701.597-.243.188-.499.353-.748.513l-.392.216c-.119.051-.279.131-.368.159l-.048.017a.565.565 0 0 0-.386.712c.095.296.428.461.742.37l.078-.029zm-10.823-18.156c.552-.427.891-.871 1.265-1.349l.481-.74c.143-.256.268-.518.398-.78.143-.256.226-.535.327-.803.089-.273.22-.534.273-.813.119-.558.303-1.105.333-1.674.059-.563.148-1.121.119-1.685-.018-.563.035-1.127-.06-1.679-.071-.552-.119-1.11-.202-1.662l-.362-1.628c-.095-.546-.303-1.07-.463-1.599-.179-.524-.327-1.059-.529-1.577l-.648-1.53c-.219-.507-.409-1.031-.683-1.515-.522-.979-.986-1.986-1.556-2.942l-1.722-2.846 1.591 2.914c.523.973.939 1.998 1.414 2.988.25.495.416 1.019.612 1.531l.57 1.543c.178.518.297 1.053.452 1.576.136.53.314 1.048.386 1.583l.279 1.6c.059.534.083 1.075.125 1.61.065.535-.006 1.07-.012 1.605.006.535-.107 1.059-.184 1.588-.054.53-.25 1.03-.381 1.543-.059.256-.19.489-.285.74-.107.239-.19.495-.326.717-.131.227-.25.46-.386.683l-.452.637c-.327.387-.707.808-1.057 1.053l-.03.023a.548.548 0 0 0-.131.785.605.605 0 0 0 .82.126c.006-.012.018-.018.024-.023zm4.033 6.614c-.968-.018-2.037-.166-3.053-.365-1.027-.193-2.043-.466-3.047-.762-2.014-.609-3.962-1.412-5.863-2.323l-1.414-.705c-.463-.245-.92-.513-1.378-.763-.932-.495-1.805-1.082-2.702-1.628-.891-.564-1.735-1.184-2.608-1.776l-2.513-1.907 2.418 2.015c.843.626 1.663 1.292 2.53 1.896.874.592 1.723 1.218 2.638 1.758.451.279.897.564 1.354.831l1.396.774c1.877 1.002 3.819 1.907 5.851 2.624 1.016.348 2.049.678 3.106.923 1.07.256 2.109.461 3.273.529.327.017.606-.216.624-.529a.571.571 0 0 0-.552-.598h-.024l-.036.006zm4.954 7.735c-1.075-.569-2.132-.939-3.237-1.275a28.256 28.256 0 0 0-3.333-.757c-1.122-.165-2.251-.296-3.385-.336-1.129-.057-2.258-.028-3.386.023 1.128.04 2.245.108 3.356.262 1.111.131 2.21.353 3.291.609 1.075.273 2.132.598 3.16 1.002 1.01.398 2.037.87 2.887 1.423l.029.022a.603.603 0 0 0 .82-.153.55.55 0 0 0-.16-.786c-.012-.017-.03-.023-.042-.034z"/><path fill="#E39F96" d="M429.344 99.292c-.742-.66-1.503-1.116-2.31-1.554a17.793 17.793 0 0 0-2.501-1.07 20.966 20.966 0 0 0-2.614-.683c-.439-.097-.885-.142-1.33-.216-.446-.057-.891-.092-1.337-.137.44.091.873.17 1.307.273.428.12.861.205 1.283.353.849.25 1.669.575 2.465.928.79.37 1.55.791 2.263 1.263.701.473 1.402 1.025 1.907 1.589l.024.028a.61.61 0 0 0 .831.063.55.55 0 0 0 .066-.797.21.21 0 0 1-.054-.04zm7.764 14.349c.338-.307.516-.58.73-.888.19-.307.368-.614.511-.933.154-.313.261-.649.386-.968.089-.33.202-.66.261-.996.28-1.337.327-2.692.191-4.012-.03-.666-.179-1.315-.274-1.97a41.035 41.035 0 0 0-.463-1.929c-.202-.632-.386-1.264-.606-1.884l-.713-1.845.576 1.884c.173.632.303 1.275.458 1.907.119.643.226 1.287.309 1.93.041.649.142 1.292.124 1.935.036 1.286-.106 2.573-.457 3.785-.077.307-.208.592-.303.894-.131.284-.249.575-.404.842a7.007 7.007 0 0 1-.499.774c-.178.222-.404.49-.576.621l-.018.011a.546.546 0 0 0-.095.791c.202.245.57.285.826.091.012-.017.024-.028.036-.04z"/><path fill="#fff" d="M424.414 113.858a.575.575 0 0 0-.06.119c-.124.199-.142.421.042.609.398.41 1.23.495 1.853.279.208-.051.416-.125.612-.222.208-.102.285-.341.238-.546a.878.878 0 0 0-.06-.177.888.888 0 0 0-.035-.244c-.285-1.053-2.133-.433-2.59.182zm12.848-17.321c.125.04.25.097.351.182.303.25.439.649.463 1.025.024.37-.077.774-.368 1.03-.363.324-1.159.267-1.343-.216-.22-.268-.327-.65-.327-1.014a.97.97 0 0 1-.011-.318c.095-.592.706-.945 1.235-.689zm-17.113-.814a.332.332 0 0 0 .03-.102.492.492 0 0 0 .047-.2c.012-.279-.196-.506-.445-.654a1.074 1.074 0 0 0-.76-.256c-.072 0-.137.011-.202.023a1.573 1.573 0 0 0-.547.119c-.285.12-.451.467-.362.751a.452.452 0 0 0 .142.433c.583.478 1.723.745 2.097-.114zm-10.751 139.622a14.717 14.717 0 0 1-2.382-2.505 11.366 11.366 0 0 1-2.222-5.931 13.61 13.61 0 0 1 .19-3.181c.184-1.025.374-2.038.535-3.057.647-4.075 1.206-8.185 1.146-12.277-.047-2.038-.243-4.081-.837-6-.297-.956-.707-1.866-1.26-2.68a6.85 6.85 0 0 0-2.12-1.987l-.024-.011a.552.552 0 0 1-.255-.336c-.077-.29.113-.586.416-.66 2.453-.581 4.948-.53 7.359.057a13.3 13.3 0 0 1 6.285 3.631c1.693 1.73 2.857 3.853 3.659 6.039.808 2.186 1.318 4.474 1.461 6.79.166 2.311-.018 4.628-.428 6.893-.415 2.266-1.069 4.474-1.805 6.648-.743 2.169-1.604 4.292-2.204 6.478-.291 1.093-.505 2.214-.458 3.335.006.336.054.672.131.996-2.911-.592-7.187-2.242-7.187-2.242zm-36.062-17.594a8.249 8.249 0 0 1 1.034 1.93c.445 1.184.671 2.441.736 3.699.119 2.522-.303 5.038-1.028 7.451-.35 1.207-.849 2.402-1.199 3.529-.315 1.161-.499 2.351-.493 3.54 0 1.196.184 2.385.522 3.529.339 1.133.832 2.283 1.467 3.227l.012.018a.53.53 0 0 1 .078.426.58.58 0 0 1-.695.416c-3.113-.694-6.154-1.73-9.017-3.125-.725-.33-1.414-.728-2.109-1.115-.677-.416-1.36-.82-2.008-1.275-1.318-.877-2.536-1.896-3.683-2.966a27.191 27.191 0 0 1-5.559-7.456 26.798 26.798 0 0 1-1.699-4.275c-.386-1.309-.677-2.652-.802-4.001a24.23 24.23 0 0 1-5.091 2.937 30.4 30.4 0 0 1-5.684 1.816c-1.955.421-3.938.654-5.928.774-1.99.108-3.992.096-5.976-.052-1.99-.148-3.956-.381-5.94-.808a.55.55 0 0 1-.44-.541v-.017c.131-4.308.998-8.617 2.685-12.641.903-1.987 1.96-3.916 3.297-5.669 1.342-1.748 2.875-3.359 4.609-4.753 1.86-1.497 3.903-2.749 6.059-3.791-2.459-.74-4.77-1.912-6.914-3.301-2.269-1.508-4.36-3.307-6.077-5.413-1.716-2.089-3.219-4.383-4.229-6.876-.612-1.207-.926-2.516-1.354-3.785l-.155-.478-.101-.49-.202-.979-.403-1.963a.517.517 0 0 1 .201-.512l.006-.006c1.248-.899 2.549-1.52 3.915-2.089l1.028-.399c.344-.125.7-.227 1.045-.341.695-.239 1.408-.41 2.121-.581 2.863-.654 5.815-.882 8.731-.779l2.186.153c.731.046 1.444.194 2.168.296 1.45.177 2.852.569 4.265.888.713.148 1.384.41 2.079.626l2.056.672c1.217.472 2.417.985 3.611 1.491v-.074c.048-1.992.356-3.995 1.01-5.908 1.283-3.831 3.748-7.229 6.748-9.983 3.023-2.755 6.498-5.009 10.377-6.575a.56.56 0 0 1 .624.137l.005.006c2.27 2.464 4.224 5.219 5.638 8.23 1.425 3.005 2.209 6.307 2.197 9.608 0 1.651-.178 3.296-.516 4.901.51-.393 1.021-.797 1.556-1.161.695-.444 1.372-.922 2.109-1.31 1.431-.842 2.975-1.502 4.556-2.06a27.306 27.306 0 0 1 4.924-1.127 28.058 28.058 0 0 1 5.078-.131c3.386.233 6.713 1.093 9.819 2.379 3.113 1.298 6.029 2.943 8.661 5.055a.514.514 0 0 1 .178.261.543.543 0 0 1-.38.678l-.036.011c-2.346.666-4.639 1.827-6.635 3.262-1.972 1.48-3.712 3.278-4.9 5.401l-.903 1.628c-.161.273-.297.564-.481.825l-.553.786c-.772 1.019-1.651 1.981-2.72 2.726-1.907 1.383-4.241 2.243-6.605 2.311.98.854 1.894 1.776 2.714 2.772a26.789 26.789 0 0 1 3.594 5.72c.956 2.032 1.675 4.161 2.198 6.324.516 2.174.843 4.36.891 6.637a.535.535 0 0 1-.416.529l-.012.006a45.134 45.134 0 0 1-3.623.734 72.54 72.54 0 0 1-3.642.524c-2.435.29-4.888.461-7.347.495-3.559.04-7.164-.188-10.663-.922l-.57.364zm53.692 48.699a58.357 58.357 0 0 1-5.388-1.241c-1.77-.5-3.505-1.132-5.209-1.832a41.82 41.82 0 0 1-4.913-2.51l-.012-.006a.589.589 0 0 1-.255-.33.56.56 0 0 1 .416-.678c3.647-.899 7.318-1.28 11.018-1.383 3.695-.068 7.402.108 11.043.712 3.635.586 7.241 1.406 10.692 2.646 1.752.553 3.415 1.315 5.096 2.021.844.325 1.675.797 2.489 1.212.232.126.464.245.689.365-5.536 1.229-25.666 1.024-25.666 1.024zm-73.496-7.052c5.233 6.938-6.843 12.169-6.843 12.169s.552-1.508.636-3.734c-.054.035-.101.074-.155.109a12.617 12.617 0 0 1-4.645 3.176c-1.164.449-2.429.666-3.7.677l-.957-.046c-.315-.039-.624-.108-.938-.159a19.328 19.328 0 0 1-.891-.176c-.285-.057-.571-.126-.856-.177-2.287-.415-4.651-.472-6.938-.062-1.14.21-2.269.529-3.302 1.041-.868.421-1.669.991-2.299 1.736.184.12.374.234.57.342a9.724 9.724 0 0 0 4.639 1.127h.036a.57.57 0 0 1 .339.108.51.51 0 0 1 .106.728c-.962 1.218-2.144 2.169-3.516 2.903-1.378.7-3 1.087-4.586.917-1.592-.154-3.059-.792-4.342-1.611-1.259-.837-2.406-1.924-3.118-3.29-.731-1.36-.856-2.994-.464-4.434a8.32 8.32 0 0 1 .755-1.867 13.674 13.674 0 0 1-2.554-2.476 93.39 93.39 0 0 1-1.557.66.97.97 0 0 1 .101.222c.196.695-.635.991-1.342.962a2.432 2.432 0 0 1-.677-.028.26.26 0 0 1-.226-.211c-.018-.028-.042-.051-.048-.085-.213-.934 1.248-1.594 1.961-1.099.469-.296.95-.586 1.437-.876a13.77 13.77 0 0 1-.731-1.093 10.907 10.907 0 0 1-1.247-3.011 230.48 230.48 0 0 1-3.463.381.515.515 0 0 1-.143.66.62.62 0 0 1-.201.109c-.012.017-.024.039-.042.057-.582.591-1.96-.029-2.18-.706-.089-.273.047-.495.303-.621.659-.313 1.372.034 1.984.291 1.2-.2 2.417-.399 3.641-.592a9.049 9.049 0 0 1-.16-2.232 8.331 8.331 0 0 1 .445-2.185 45.535 45.535 0 0 1-5.144-2.089c-.018.415-.356.728-.826.74-.51.011-.986-.234-1.407-.495-.279-.171-.565-.456-.677-.757-.03-.035-.06-.069-.084-.103-.148-.21-.112-.546.125-.683.273-.165.618-.216.968-.199.309-.006.63.063.885.165.297.12.583.307.737.586.006.012.006.023.012.034.101.131.178.274.226.433a54.987 54.987 0 0 0 5.34 1.958 9.36 9.36 0 0 1 1.716-2.778c-2.162-1.087-4.241-2.35-6.266-3.728a.62.62 0 0 1-.523.245c-1.093 0-2.234-.666-2.721-1.605-.154-.296-.006-.632.285-.786.048-.028.101-.045.149-.062a.814.814 0 0 1 .327-.154c.594-.125 1.217.307 1.639.66.374.313.921.797.951 1.315 0 .023-.006.04-.006.063 2.138 1.275 4.211 2.646 6.45 3.751 1.188-1.287 2.614-2.311 4.158-3.091a11.655 11.655 0 0 1-1.247-2.812c-1.259-4.098-.333-8.782 2.501-12.175 1.39-1.696 3.38-3.068 5.708-3.46a7.562 7.562 0 0 1 3.481.216c1.075.359 2.103.734 3.095 1.264 1.96 1.03 3.783 2.43 5.031 4.257.659.888 1.14 1.89 1.503 2.92.35 1.042.582 2.083.588 3.239 0 .262-.22.483-.499.489h-.024c-2.079.04-4.194.222-6.261.541-.416.068-.831.142-1.247.222.54.336 1.128.575 1.734.78.868.29 1.765.489 2.667.671.903.165 1.812.325 2.733.427.915.125 1.835.211 2.756.279.933.091 1.824.108 2.804.199.962.097 1.924.251 2.845.541.927.273 1.823.655 2.637 1.155.802.507 1.568 1.11 2.073 1.89-.083-.074-.166-.131-.255-.199.083.085.16.171.237.262a4.08 4.08 0 0 1 .327-.7c1.61-2.567.814-6.091.814-6.091 6.029 3.757 7.223 9.705 4.396 14.327l.457.734zm45.429 6.876a.153.153 0 0 1 .03.034.544.544 0 0 1-.22.763 163.68 163.68 0 0 1-11.631 5.771 121.896 121.896 0 0 1-6.005 2.51 74.699 74.699 0 0 1-6.177 2.123c-4.194 1.253-8.536 1.947-12.878 2.317a96.295 96.295 0 0 1-6.534.29c-2.18.029-4.36-.017-6.528-.17l1.027-.786a22.559 22.559 0 0 1 1.556-1.133c.874-.626 1.812-1.166 2.727-1.741a62.74 62.74 0 0 1 5.785-2.949 76.699 76.699 0 0 1 6.101-2.311c2.073-.671 4.17-1.275 6.284-1.81 4.236-1.058 8.554-1.787 12.89-2.311 3.772-.443 7.55-.734 11.363-.808l2.21.211zm-1.473-138.272c-1.123-.814-1.972-1.992-2.899-2.999-.534-.581-1.194-1.253-1.556-2.004-.018.028-.036.068-.059.091-.095.114-.291.125-.416.063a1.033 1.033 0 0 1-.392-.348 1.395 1.395 0 0 1-.25-.392c-.119-.268-.196-.638.018-.883.196-.233.552-.244.79-.056a.926.926 0 0 1 .196.227c.214.268.315.672.256.922a.259.259 0 0 1-.018.04c1.491 1.713 2.928 3.495 4.496 5.14a.13.13 0 0 1-.166.199z"/><path fill="#fff" d="M429.35 170.132a14.852 14.852 0 0 1-.915-2.794 14.77 14.77 0 0 1-.273-3.888c.077-1.298.398-2.573.82-3.796.416-1.23 1.01-2.391 1.699-3.484l1.021-1.605c.173-.262.297-.546.452-.819.154-.274.285-.553.41-.837.51-1.133.861-2.34.974-3.575a8.52 8.52 0 0 0-.024-1.861c-.077-.615-.202-1.241-.463-1.816 0 0 .166.109.451.319.44.307.897.609 1.378.939.618.45 1.141.962 1.717 1.44.291.234.54.507.79.78l.76.814c.268.262.481.564.701.865l.659.9c1.687 2.447 2.567 5.43 2.436 8.412-.006.188 0 .376-.024.558l-.083.552c-.065.37-.107.74-.196 1.104-.232.712-.386 1.457-.743 2.129-.576 1.4-1.502 2.652-2.583 3.74l-.856.779c-.297.245-.629.45-.944.678-.648.472-1.254.785-1.824 1.223-.564.422-1.099.877-1.479 1.389a2.192 2.192 0 0 0-.398.763.877.877 0 0 0-.03.341.777.777 0 0 0 .03.137c.006.028.036.074.03.068.006.006.006.012.012.017l.023.035a.477.477 0 0 1 .101.21l-3.629-3.717zm-13.009-21.008c-.338 1.673-1.14 4.769-2.304 4.308-1.58-.626-2.079-4.32-2.079-4.32s-2.792 2.374-3.677.78c-.244-.438.083-.893.695-1.326a22.326 22.326 0 0 1-4.301-.501c-.392-.091-.79-.171-1.176-.279l-1.146-.376c-.386-.113-.755-.278-1.123-.438-.362-.171-.742-.307-1.093-.501-1.431-.728-2.738-1.673-3.902-2.743-1.171-1.076-2.127-2.34-2.923-3.683-.214-.33-.38-.677-.552-1.03a9.767 9.767 0 0 1-.476-1.064c-.308-.723-.534-1.401-.867-2.078-1.259-2.698-3.095-5.185-5.274-7.268l-.024-.023a.229.229 0 0 1 .006-.336c.819-.768 1.788-1.264 2.827-1.588 1.04-.324 2.139-.421 3.214-.353l.802.091c.267.034.522.108.79.16.528.091 1.027.296 1.532.455.499.188.968.427 1.455.637l1.117.632a32.72 32.72 0 0 1-.107-3.808.227.227 0 0 1-.225-.074c-1.723-1.929-3.505-4.018-4.568-6.38a.625.625 0 0 1-.588-.194c-.006 0-.012 0-.018-.005-.297-.12-.452-.444-.523-.723-.119-.456-.042-1.258.642-1.19.772.074 1.128 1.104.914 1.725a.588.588 0 0 1-.184.267c1.307 2.18 3.006 3.99 4.58 6.022.047-.859.142-1.719.273-2.573.012-.079.024-.148.03-.221.024-.126.036-.257.053-.382-1.033-1.041-1.734-2.356-2.483-3.591-.831-1.372-1.788-2.801-2.298-4.332-.553-.068-1.206-.484-1.42-.82a.43.43 0 0 1 0-.415c.012-.125.065-.256.202-.307.006-.006.018-.006.024-.006a.622.622 0 0 1 .415-.638c.345-.125.761-.011 1.082.131.356.165.724.439.819.831.083.325-.053.632-.32.82-.107.273-.321.393-.577.415.666 1.44 1.622 2.829 2.471 4.138.808 1.247 1.563 2.59 2.697 3.586.66.137 1.366.319 2.073.524.089.023.184.034.273.057-.594-1.082-1.015-2.277-1.591-3.381-.464-.877-.927-1.759-1.39-2.635-.351.267-.832.113-1.129-.188-.291-.291-.493-.729-.475-1.139a.892.892 0 0 1 .392-.711.715.715 0 0 1 .142-.228c.244-.256.606-.205.862.012.469.404.736 1.371.439 1.958 1.473 1.872 2.762 4.229 3.238 6.414v.006a32.598 32.598 0 0 1 2.435.689c-.374-.791-.374-1.907-.552-2.693a27.15 27.15 0 0 0-.713-2.567.53.53 0 0 1-.416.029 1.181 1.181 0 0 1-.166-.091.657.657 0 0 1-.327-.245 2.033 2.033 0 0 1-.125-.199c-.196-.29-.315-.643-.261-.945a.91.91 0 0 1 .083-.37c.148-.29.398-.33.63-.25a.837.837 0 0 1 .784.438c.13.25.184.603.101.905 0 .131-.024.256-.066.381.47.877.808 1.805 1.052 2.778.219.859.695 2.089.493 3.011.344.114.683.233 1.021.358-.309-1.024-.421-2.094-.415-3.164.017-1.167.202-2.328.51-3.461.345-1.121.767-2.225 1.349-3.261.255-.535.612-1.013.915-1.526.338-.489.706-.956 1.057-1.434a.315.315 0 0 1 .172-.108.287.287 0 0 1 .345.21l.006.035c.409 1.701 1.295 3.346 2.376 4.786a15.335 15.335 0 0 0 1.835 2.015c.321.308.695.626 1.034.957.344.33.665.677.986 1.024 2.518 2.812 4.496 6.079 5.672 9.636.577 1.776.969 3.632 1.01 5.516a15.69 15.69 0 0 1-.831 5.578 15.03 15.03 0 0 1-.874 1.969c.66.461-.968 2.493-.968 2.493s1.64 1.565 1.996 3.575c.309 1.736-3.79 1.058-4.906.842l-.488.968zm22.816 32.358a35.53 35.53 0 0 1-6.403 5.908c-2.584 1.833-5.519 3.261-8.643 4.104-3.118.876-6.433 1.07-9.67.74a27.756 27.756 0 0 1-4.776-.951c-1.562-.466-3.065-1.013-4.538-1.804a.566.566 0 0 1-.297-.461.57.57 0 0 1 .558-.581h.036c.671-.028 1.443-.153 2.162-.313.725-.17 1.449-.37 2.156-.62 1.42-.49 2.786-1.127 4.105-1.839 1.318-.722 2.566-1.559 3.772-2.453l1.776-1.406c.611-.501 1.295-.916 1.984-1.297 2.821-1.497 6.088-1.919 9.201-1.708a27.81 27.81 0 0 1 4.615.729c.933.222 1.847.495 2.75.808l1.17 1.115m-41.283-53.156-.308-.153c.124.074.225.142.314.199 0-.017 0-.029-.006-.046zm7.491-7.302c.041.5.113 1.001.231 1.491.036.011.066.028.101.04a14.262 14.262 0 0 1-.332-1.531z"/><path fill="#96551E" d="M355.445 194.511c-2.222-.069-4.455.102-6.659.404a45.754 45.754 0 0 0-6.534 1.4c-4.259 1.286-8.364 3.244-11.827 6.033-1.728 1.389-3.267 3.006-4.609 4.753-1.337 1.759-2.394 3.688-3.297 5.669-1.687 4.024-2.554 8.333-2.685 12.642v.017a.544.544 0 0 0 .44.541c1.984.426 3.944.66 5.94.808a46.54 46.54 0 0 0 5.975.051c1.99-.114 3.98-.353 5.929-.774a30.326 30.326 0 0 0 5.684-1.816c3.659-1.554 6.908-4.001 9.314-7.046 1.17-1.543 2.21-3.182 2.964-4.935.434-.854.725-1.765 1.057-2.653.309-.899.517-1.827.785-2.732-1.117 3.615-2.763 7.109-5.234 10.001a23.297 23.297 0 0 1-9.23 6.608c-3.576 1.435-7.443 2.163-11.322 2.345a45.25 45.25 0 0 1-5.833-.097c-1.931-.159-3.891-.409-5.744-.825l.439.558c.185-4.201.927-8.39 2.543-12.283.855-1.924 1.853-3.791 3.124-5.493a29.987 29.987 0 0 1 4.378-4.644c3.279-2.784 7.235-4.804 11.399-6.176a46.501 46.501 0 0 1 13.003-2.356z"/><path fill="#96551E" d="m354.476 194.522.101 1.747c.042.581.042 1.173.155 1.747l.279 1.736c.036.291.107.575.184.86l.226.854c.249 1.155.73 2.242 1.14 3.352.541 1.059 1.034 2.146 1.747 3.119a20.317 20.317 0 0 0 5.078 5.146c2.014 1.394 4.253 2.459 6.588 3.25 4.675 1.599 9.67 2.038 14.571 1.986a70.367 70.367 0 0 0 7.347-.495 70.453 70.453 0 0 0 3.642-.524 47.539 47.539 0 0 0 3.623-.734l.012-.005a.536.536 0 0 0 .416-.53c-.048-2.271-.375-4.457-.891-6.637a33.012 33.012 0 0 0-2.198-6.323 27.19 27.19 0 0 0-3.594-5.72c-1.437-1.759-3.16-3.302-5.055-4.594-3.789-2.607-8.31-4.092-12.866-4.656-4.574-.569-9.201-.358-13.715.353 4.544-.472 9.147-.563 13.632.177 2.245.307 4.437.922 6.546 1.679 2.109.768 4.081 1.855 5.886 3.13 3.606 2.567 6.41 6.096 8.204 10.046.908 1.97 1.586 4.036 2.079 6.142.481 2.1.784 4.28.813 6.386l.434-.535a71.619 71.619 0 0 1-14.333 1.799c-2.412.045-4.829-.04-7.223-.313-2.388-.285-4.752-.763-7.033-1.475-2.275-.717-4.467-1.696-6.445-2.999a19.726 19.726 0 0 1-5.031-4.867c-.731-.922-1.248-1.963-1.824-2.982-.439-1.076-.962-2.129-1.247-3.256-.725-2.214-1.004-4.542-1.248-6.864zm-17.505 4.183a28.524 28.524 0 0 1-7.074-3.882c-2.151-1.588-4.099-3.426-5.697-5.509-.439-.496-.784-1.048-1.152-1.594-.356-.547-.766-1.065-1.051-1.651l-.939-1.713c-.291-.581-.517-1.19-.778-1.787-.559-1.179-.861-2.442-1.265-3.672l-.143-.461-.095-.478-.19-.95-.38-1.901-.208.518c1.069-.752 2.352-1.412 3.629-1.947l.974-.387c.327-.125.666-.222.998-.336.666-.239 1.349-.404 2.032-.575 2.738-.688 5.589-.939 8.435-.933l2.138.085c.713.023 1.42.154 2.127.216 1.431.109 2.821.433 4.229.689.713.103 1.396.325 2.091.495l2.085.547 4.086 1.36c-1.318-.558-2.637-1.127-3.979-1.651l-2.056-.671c-.689-.216-1.366-.478-2.079-.626-1.413-.325-2.815-.712-4.265-.888-.718-.097-1.437-.245-2.168-.296l-2.186-.154c-2.922-.102-5.868.131-8.731.78-.713.171-1.432.341-2.121.581-.35.113-.701.216-1.045.341l-1.028.398c-1.36.57-2.667 1.19-3.915 2.089l-.005.006a.495.495 0 0 0-.202.512l.403 1.964.202.979.101.49.155.478c.428 1.269.742 2.578 1.354 3.785 1.01 2.493 2.513 4.787 4.229 6.875 1.717 2.101 3.808 3.905 6.077 5.413 2.293 1.497 4.77 2.738 7.407 3.461z"/><path fill="#96551E" d="M369.588 187.942a25.544 25.544 0 0 0 3.083-3.871 29.52 29.52 0 0 0 2.358-4.337 24.05 24.05 0 0 0 2.025-9.596c.012-3.302-.772-6.603-2.197-9.608-1.42-3.011-3.374-5.766-5.638-8.231l-.005-.005a.561.561 0 0 0-.624-.137c-3.879 1.571-7.354 3.819-10.377 6.574-3 2.755-5.465 6.153-6.748 9.984-.654 1.907-.962 3.916-1.01 5.908-.065.996.053 1.992.107 2.988.166.979.255 1.975.529 2.937.944 3.865 2.667 7.502 4.847 10.826-1.937-3.455-3.499-7.12-4.242-10.945-.237-.945-.291-1.919-.427-2.875-.024-.967-.107-1.935-.018-2.897.101-1.924.457-3.836 1.135-5.646 1.294-3.637 3.659-6.876 6.587-9.511 2.928-2.63 6.391-4.782 10.033-6.33l-.63-.142c2.228 2.379 4.146 5.026 5.536 7.917.683 1.446 1.259 2.949 1.622 4.497.392 1.542.647 3.125.683 4.713.107 3.187-.517 6.386-1.675 9.403a29.659 29.659 0 0 1-4.954 8.384z"/><path fill="#96551E" d="M389.54 194.59c2.584.096 5.186-.809 7.271-2.317 1.069-.746 1.948-1.708 2.72-2.726l.553-.786c.184-.262.32-.552.481-.825l.903-1.628c1.188-2.129 2.928-3.922 4.9-5.402 1.996-1.434 4.289-2.595 6.635-3.261l.036-.011a.538.538 0 0 0 .202-.94c-2.632-2.117-5.554-3.756-8.661-5.054-3.106-1.286-6.427-2.146-9.819-2.379a27.967 27.967 0 0 0-5.078.131 26.641 26.641 0 0 0-4.925 1.127c-1.58.558-3.124 1.218-4.556 2.06-.736.382-1.413.86-2.108 1.309-.683.461-1.313.991-1.972 1.48 2.714-1.85 5.672-3.369 8.832-4.269 1.575-.455 3.196-.734 4.824-.905a26.556 26.556 0 0 1 4.9.023c3.261.279 6.439 1.195 9.445 2.436a38.127 38.127 0 0 1 4.36 2.18c1.396.814 2.774 1.713 3.997 2.698l.238-.945c-2.596.74-4.906 1.975-6.997 3.535-2.056 1.588-3.826 3.546-5.002 5.817l-.849 1.668c-.143.267-.262.552-.422.808l-.493.768c-.689 1.002-1.491 1.947-2.465 2.721-1.907 1.56-4.378 2.561-6.95 2.687zm-35.711.097s-2.608 1.827-2.18 2.902c.433 1.076 3.029-.421 3.029-.421s-.225 3.78.636 3.398c.861-.381 1.829-2.567 1.829-2.567s1.854 1.867 2.436.905c.582-.962.142-3.608.142-3.608s2.929.142 3.226-.672c.297-.814-1.652-2.3-1.652-2.3s2.911-1.502 2.471-2.362c-.433-.853-2.892-.404-2.892-.404s1.194-1.707.629-2.396c-.564-.689-2.999 1.679-2.999 1.679s-.743-1.89-1.545-1.85c-.796.04-.552 3.415-.552 3.415s-1.277-2.373-2.168-2.072c-.891.302.576 3.945.576 3.945s-3.588-.49-3.903.615c-.303 1.11 2.917 1.793 2.917 1.793zm.22 20.889c-.577 2.846.665 6.084 1.651 8.737 1.283 3.455 3.374 6.449 5.578 9.414.017.029.071.006.053-.023-1.402-2.914-3.439-5.441-4.71-8.458-1.141-2.703-2.673-6.614-2.068-9.545.066-.319-.439-.444-.504-.125zm4.769-6.387c-.237 5.601 1.384 11.578 3.184 16.854 1.432 4.201 3.327 8.771 6.671 11.919.018.017.047-.006.03-.023-3.22-4.053-5.275-8.743-6.748-13.615-1.456-4.821-2.792-10.092-2.596-15.14.018-.336-.529-.325-.541.005zm5.103 4.395c-.422 4.832 2.251 10.074 4.354 14.315.024.045.101.022.077-.023-1.71-4.303-4.354-9.58-3.89-14.298.035-.336-.511-.33-.541.006z"/><path fill="#96551E" d="M355.783 195.962c2.893 4.775 6.594 9.072 11.411 12.169 4.366 2.8 10.039 5.379 15.39 5.031.03 0 .024-.039 0-.039-5.714-.126-12.212-3.364-16.697-6.677-4.009-2.96-6.807-6.79-9.67-10.723-.178-.245-.6-.035-.434.239zm4.693-4.531c10.971-.177 20.861 3.278 28.595 10.888.03.034.089-.017.059-.051-6.439-8.111-18.23-12.391-28.69-11.076-.16.017-.119.239.036.239zm-3.089 3.022c11.185 5.413 22.156 11.697 34.095 15.539.06.017.107-.062.048-.091-5.952-2.544-11.726-5.441-17.618-8.116a207.934 207.934 0 0 1-8.684-4.173c-2.471-1.257-4.978-2.885-7.639-3.722-.345-.108-.511.416-.202.563zm-33.781-14.223c4.853 3.267 11.007 4.866 16.407 7.155 4.888 2.071 10.169 4.399 15.479 5.185.309.045.452-.387.131-.467-10.995-2.664-21.544-7.718-31.969-11.941-.042-.017-.083.04-.048.068zm10.692 11.85c5.869 2.926 14.339 3.301 20.713 1.918.149-.034.166-.279-.006-.279-3.332-.022-6.623.456-9.973.296-3.707-.17-7.176-.99-10.722-1.975-.018-.005-.03.029-.012.04zm-.95-15.47c4.579 1.411 8.589 3.221 12.296 6.215 3.076 2.487 6.373 4.958 8.559 8.219.107.159.398.103.356-.114-.344-1.576-1.479-2.624-2.678-3.711-2.014-1.821-4.105-3.631-6.261-5.293-3.523-2.71-7.693-4.924-12.231-5.453-.077-.006-.124.108-.041.137zm19.566 20.627c-3.706 3.102-6.878 7.08-10.294 10.496-3.932 3.927-8.548 6.995-12.801 10.564-.017.017.006.039.024.028 8.928-5.572 16.739-12.835 23.463-20.724.22-.262-.125-.586-.392-.364zm1.711 2.806c-2.453 9.357-8.946 15.612-17.428 20.342-.083.046.006.154.083.114 8.583-4.291 16.08-10.831 17.957-20.337.077-.381-.511-.495-.612-.119zm-12.902.58c-3.451 1.713-7.08 3.529-9.337 6.665-.03.04.023.091.065.052 5.542-5.544 13.727-8.447 21.188-10.644.184-.057.071-.29-.089-.285-4.224.165-8.168 2.391-11.827 4.212zm21.123-37.657c-7.681 6.443-9.082 18.032-5.786 26.911.042.114.202.057.202-.045-.006-2.516-1.027-4.907-1.087-7.462-.059-2.738.16-5.493.6-8.197.618-3.819 3.392-8.276 6.172-11.104.053-.057-.042-.16-.101-.103zm2.904 2.801c-1.793 3.802-3.112 7.604-4.253 11.628-1.128 3.973-2.667 7.872-2.31 12.05.012.171.303.159.309-.012.225-4.314 1.514-8.281 2.661-12.419 1.045-3.774 2.815-7.434 3.671-11.224.006-.04-.06-.063-.078-.023zm4.188.797c.452 3.842.357 7.849-.909 11.554-.772 2.266-2.037 4.064-3.481 5.977-1.193 1.588-2.851 2.51-4.152 3.938-.083.091.042.228.149.183 8.132-3.507 9.712-14.219 8.583-21.675-.018-.114-.202-.097-.19.023zm13.092 13.671c-5.328 1.542-8.678 3.597-12.729 7.212-.238.21.107.626.368.432 3.594-2.76 6.546-5.043 11.013-6.46 5.88-1.867 11.981-2.522 18.028-3.649.101-.017.095-.17-.018-.159-5.572.495-11.28 1.064-16.662 2.624zm14.446 1.093c-3.6 5.191-8.227 7.769-14.505 9.112-.286.063-.179.438.095.41 5.94-.626 12.111-4.064 14.57-9.431.042-.091-.101-.177-.16-.091zm-15.331-5.236c-2.827.853-5.56 2.236-7.817 4.069-.303.245.03.752.339.507a23.765 23.765 0 0 1 8.185-4.241c2.732-.785 5.56-.609 8.351-1.047.161-.023.125-.256-.035-.239-3.095.342-6 .034-9.023.951z"/><path fill="#96551E" d="M344.313 182.484c1.307 2.453 3.392 4.325 5.494 6.164 1.913 1.679 4.004 3.335 6.523 4.081.249.074.35-.268.118-.364-4.538-1.93-9.444-5.835-12.064-9.933-.029-.04-.095.006-.071.052zm-6.617 9.015c-.036.006-.036.063 0 .063 5.696-.415 11.797.74 17.351 1.776.172.034.237-.245.065-.29-5.334-1.395-11.91-2.476-17.416-1.549zm7.758 8.999c-2.311 1.622-4.895 3.136-6.451 5.493-.054.085.059.182.131.102 3.855-4.439 10.602-8.463 16.245-10.245.125-.04.072-.239-.059-.211-3.712.814-6.819 2.721-9.866 4.861z"/><path fill="#96551E" d="M353.716 196.673c-.837 2.778-2.055 5.402-3.885 7.718-1.823 2.305-4.235 4.133-6.332 6.204-.047.046.03.109.077.063 4.657-4.166 9.101-7.621 10.597-13.865.078-.285-.368-.41-.457-.12zm-.012-24.008c-.808 3.529-.505 7.354.446 10.831.718 2.613 1.52 5.778 3.231 7.98.113.143.374-.017.279-.17-3.356-5.356-4.484-12.534-3.914-18.641 0-.023-.036-.023-.042 0zm5.026 17.007c.059.182.398.08.332-.103-1.829-5.458-1.004-13.415 1.622-18.538.006-.011-.012-.023-.018-.011-3.071 5.151-3.849 13.006-1.936 18.652z"/><path fill="#96551E" d="M343.101 210.397a.626.626 0 0 0-.154.113c-.25.274-.166.644-.024.945.077.177.315.296.511.205.19-.091.338-.205.457-.336.006-.005.012 0 .018-.005a.332.332 0 0 0 .113-.126c-.042.074-.024.069.053-.022a.475.475 0 0 0 .113-.501 1.413 1.413 0 0 0-.035-.518c-.042-.171-.28-.256-.44-.199-.291.096-.481.233-.612.444zm-4.3-5.214a2.946 2.946 0 0 0-.856 1.258c-.071.222.06.529.339.535.059 0 .119-.017.178-.023.06.006.113.006.172-.012.012-.005.024-.011.036-.011.018-.006.036-.017.053-.023.09-.034.173-.068.25-.114.018-.011.036-.017.053-.028.119-.074.226-.165.309-.273l.042-.012a.638.638 0 0 0 .131-.085.57.57 0 0 0 .154-.233.468.468 0 0 0-.048-.37 1.24 1.24 0 0 0-.011-.359c-.06-.353-.541-.484-.802-.25zm-1.491-14.162c-.22.04-.398.245-.303.467.053.12.113.205.178.268a.478.478 0 0 0 .255.284c.072.034.149.051.226.074a.857.857 0 0 0 .386.194c.256.045.476-.069.654-.239.13-.12.214-.319.124-.484-.154-.285-.374-.564-.736-.598a.781.781 0 0 0-.303.04 1.38 1.38 0 0 0-.481-.006zm6.082-8.89c-.178.108-.202.375-.077.529.446.535 1.105.632 1.77.473.214-.052.303-.353.167-.513a1.697 1.697 0 0 0-.582-.461c-.036-.034-.06-.074-.107-.108-.375-.256-.814-.142-1.171.08zm9.593-9.779c-.142.512.012 1.087.553 1.32.535.228 1.111-.045 1.366-.518.101-.187.101-.398-.047-.563-.274-.296-.654-.598-1.093-.535-.048-.017-.089-.034-.137-.046a.525.525 0 0 0-.642.342zm6.624-.717a.54.54 0 0 0 .023.171c.006.039.006.079.018.125.06.205.25.387.493.341.244-.051.434-.159.594-.296.458-.182.826-.518.939-1.019.059-.261-.089-.592-.416-.586-.772 0-1.663.484-1.651 1.264zm12.48 45.12c2.607 2.151 5.357 4.109 8.161 5.999 2.81 1.884 5.697 3.66 8.649 5.344 5.892 3.381 12.052 6.341 18.396 8.914a159.056 159.056 0 0 0 9.682 3.483c3.285 1.019 6.599 1.97 9.961 2.744 6.725 1.588 13.609 2.59 20.553 3.045 1.134.074 2.12-.751 2.198-1.839.077-1.087-.784-2.031-1.919-2.105-.03 0-.053-.006-.083-.006h-.03c-6.7-.16-13.412-.843-20.024-2.118-3.308-.614-6.581-1.411-9.842-2.271a154.282 154.282 0 0 1-9.647-3.016c-6.35-2.266-12.557-4.929-18.538-8.031a142.445 142.445 0 0 1-8.804-4.941c-2.863-1.753-5.696-3.592-8.357-5.601l-.006-.005a.284.284 0 0 0-.392.045c-.089.102-.071.268.042.359z"/><path fill="#96551E" d="M417.708 239.687a26.023 26.023 0 0 1-5.726-2.835c-1.759-1.178-3.35-2.601-4.509-4.303-1.164-1.696-1.865-3.659-1.954-5.669a13.077 13.077 0 0 1 .255-3.005c.208-1.013.422-2.038.618-3.056.778-4.087 1.366-8.231 1.343-12.431-.03-2.095-.214-4.218-.832-6.284-.315-1.031-.748-2.044-1.372-2.971a7.964 7.964 0 0 0-2.465-2.34l-.143 1.008a15.178 15.178 0 0 1 6.748.051 12.145 12.145 0 0 1 5.78 3.284c1.574 1.588 2.696 3.569 3.48 5.658a24.888 24.888 0 0 1 1.497 6.523c.22 2.225.095 4.479-.249 6.705-.357 2.225-.939 4.422-1.622 6.591-.659 2.18-1.431 4.337-1.948 6.574-.25 1.116-.422 2.271-.327 3.421a4.759 4.759 0 0 0 1.426 3.079zm0 0c-.784-.854-1.236-1.964-1.248-3.091-.047-1.121.167-2.242.458-3.335.6-2.186 1.461-4.309 2.204-6.477.736-2.169 1.389-4.377 1.805-6.648.41-2.266.594-4.582.428-6.893-.137-2.311-.653-4.599-1.461-6.791-.802-2.185-1.972-4.303-3.659-6.039-1.669-1.741-3.885-3.022-6.285-3.631-2.411-.592-4.9-.638-7.359-.057-.303.074-.494.37-.416.66.035.142.13.262.255.336l.024.011a6.804 6.804 0 0 1 2.12 1.987c.553.814.957 1.73 1.26 2.681.594 1.912.796 3.961.837 5.999.054 4.092-.499 8.202-1.146 12.277-.166 1.019-.357 2.038-.535 3.057a13.61 13.61 0 0 0-.19 3.181 11.316 11.316 0 0 0 2.222 5.931c1.283 1.731 2.97 3.12 4.799 4.247a24.266 24.266 0 0 0 5.887 2.595z"/><path fill="#96551E" d="M417.708 239.687c-1.859-1.007-3.564-2.248-5.02-3.705-1.461-1.446-2.673-3.114-3.445-4.952a12.17 12.17 0 0 1-.897-5.783c.072-.979.303-1.941.505-2.966.202-1.007.386-2.02.559-3.039.623-4.064 1.033-8.219.439-12.357-.297-2.055-.897-4.121-2.043-5.92-1.153-1.787-2.97-3.193-5.055-3.705a9.129 9.129 0 0 1 2.679 1.605 8.678 8.678 0 0 1 1.877 2.379c.974 1.765 1.425 3.757 1.633 5.749.196 1.998.19 4.024.036 6.039a66.753 66.753 0 0 1-.725 6.039 85.03 85.03 0 0 1-.528 3.005c-.095.507-.202.985-.285 1.514l-.125.786-.072.791c-.124 2.117.226 4.28 1.165 6.204.903 1.935 2.287 3.615 3.89 5.003 1.622 1.361 3.434 2.533 5.412 3.313z"/><path fill="#96551E" d="M417.12 238.958c-1.64-1.206-2.964-2.771-3.778-4.547-.867-1.753-1.23-3.694-1.176-5.612.041-.479.035-.962.107-1.441l.225-1.428.588-2.926a70.4 70.4 0 0 0 .862-5.931c.338-3.967.297-8.105-1.141-11.958a13.945 13.945 0 0 0-1.378-2.749 11.897 11.897 0 0 0-1.99-2.374c-.754-.711-1.615-1.303-2.524-1.799-.897-.523-1.883-.87-2.863-1.183 1.877.819 3.653 1.884 4.971 3.363a11.553 11.553 0 0 1 1.735 2.363c.481.848.885 1.736 1.176 2.658.6 1.844.909 3.773.998 5.72.113 1.947.03 3.905-.155 5.857-.172 1.952-.457 3.904-.784 5.851l-.504 2.926-.197 1.514c-.053.506-.029 1.019-.041 1.531s.077 1.019.113 1.525c.059.507.19 1.008.291 1.503.297.979.641 1.947 1.17 2.829a11.694 11.694 0 0 0 1.859 2.436c.725.734 1.527 1.389 2.436 1.872z"/><path fill="#96551E" d="M417.12 238.958c-1.206-1.679-1.788-3.676-1.966-5.657-.185-1.992.083-3.99.594-5.92.148-.478.261-.962.439-1.434l.523-1.412c.386-.962.725-1.958.998-2.959.534-2.01.825-4.07.92-6.136a26.414 26.414 0 0 0-.493-6.193c-.451-2.032-1.152-4.036-2.281-5.834-.576-.888-1.199-1.753-1.96-2.505-.766-.739-1.58-1.445-2.506-1.986a14.152 14.152 0 0 0-2.917-1.332c-1.004-.358-2.067-.546-3.112-.694 2.055.506 4.045 1.263 5.696 2.481 1.681 1.179 3.018 2.738 3.998 4.468.493.871.879 1.788 1.223 2.721a21.9 21.9 0 0 1 .766 2.88c.363 1.958.499 3.956.41 5.948a28.943 28.943 0 0 1-.825 5.925 25.988 25.988 0 0 1-.879 2.869l-.499 1.48c-.161.495-.256 1.007-.386 1.508-.452 2.027-.606 4.133-.274 6.187.173 1.025.47 2.027.873 2.977.404.956.939 1.861 1.658 2.618zm-68.269-18.128c.083 1.514.416 3.011.844 4.48a26.32 26.32 0 0 0 1.698 4.274 27.06 27.06 0 0 0 5.56 7.456c1.147 1.076 2.364 2.089 3.683 2.966.648.455 1.331.859 2.008 1.275.695.381 1.384.785 2.109 1.115a41.243 41.243 0 0 0 9.017 3.125.576.576 0 0 0 .694-.415.536.536 0 0 0-.077-.427l-.012-.017c-.635-.945-1.128-2.095-1.467-3.233a12.534 12.534 0 0 1-.523-3.529c0-1.195.179-2.385.494-3.54.35-1.127.843-2.323 1.199-3.529.725-2.414 1.147-4.929 1.028-7.451-.065-1.258-.297-2.516-.737-3.7-.439-1.184-1.14-2.288-2.096-3.125.879.917 1.467 2.044 1.829 3.211.357 1.178.499 2.402.487 3.625a20.818 20.818 0 0 1-.38 3.643c-.226 1.207-.57 2.385-.95 3.552-.386 1.172-.891 2.271-1.319 3.506a14.242 14.242 0 0 0-.612 3.802 12.833 12.833 0 0 0 .499 3.825c.368 1.247.85 2.425 1.61 3.575l.612-.854c-3.03-.712-5.994-1.685-8.774-3.017-2.786-1.32-5.375-3.011-7.639-5.048a28.017 28.017 0 0 1-5.684-7.058c-1.509-2.63-2.614-5.493-3.101-8.487zm49.284-100.211c-.522 2.801-.528 5.681-.219 8.527.344 2.84 1.099 5.669 2.441 8.264a19.899 19.899 0 0 0 5.595 6.785c2.359 1.844 5.15 3.125 8.031 3.984l.012.006a.571.571 0 0 0 .606-.182 17.108 17.108 0 0 0 2.536-4.314c.63-1.532 1.052-3.154 1.188-4.81.125-1.656-.083-3.33-.54-4.924l-.41-1.178c-.131-.392-.356-.751-.529-1.127-.326-.768-.837-1.44-1.294-2.134-1.022-1.321-2.18-2.544-3.535-3.535-.647-.535-1.378-.95-2.073-1.411-.736-.399-1.449-.831-2.221-1.167-1.509-.723-3.089-1.287-4.693-1.753-1.604-.467-3.237-.837-4.895-1.031zm0 0c3.256.695 6.428 1.748 9.308 3.296.737.359 1.414.808 2.115 1.224.653.472 1.348.899 1.948 1.44 1.277.984 2.341 2.185 3.261 3.455.41.671.868 1.309 1.165 2.032.154.358.362.694.475 1.064l.362 1.104c.398 1.492.547 3.034.428 4.571-.279 3.056-1.592 6.067-3.493 8.492l.618-.176c-2.774-.809-5.417-2.032-7.692-3.728a19.81 19.81 0 0 1-5.483-6.358c-1.36-2.465-2.216-5.18-2.691-7.952a31.576 31.576 0 0 1-.321-8.464z"/><path fill="#96551E" d="M405.62 122.754c-.315-1.121-.38-2.288-.309-3.432.065-1.15.291-2.283.635-3.381.381-1.087.832-2.152 1.444-3.137.267-.512.641-.967.95-1.451.345-.467.725-.905 1.081-1.36l-.528-.131c.404 1.872 1.271 3.552 2.37 5.094a16.335 16.335 0 0 0 1.865 2.152c.344.341.677.643.998.967.321.325.624.666.926 1.008a28.443 28.443 0 0 1 3.131 4.468c.897 1.576 1.669 3.221 2.204 4.929 1.11 3.398 1.3 7.103.101 10.45-1.2 3.347-3.719 6.125-6.683 8.27l.244-.102c-3.036.524-6.166.603-9.148-.034-.368-.086-.748-.154-1.117-.251l-1.087-.347c-.368-.102-.713-.256-1.057-.41-.345-.159-.707-.279-1.034-.466-1.354-.678-2.584-1.554-3.694-2.55-1.123-.991-2.061-2.169-2.851-3.421-.208-.308-.381-.638-.553-.962a9.525 9.525 0 0 1-.475-.996c-.303-.666-.582-1.417-.933-2.095a23.318 23.318 0 0 0-2.459-3.921c-.944-1.23-1.972-2.385-3.172-3.421l.024.364c.677-.683 1.598-1.224 2.56-1.554.968-.341 2.02-.478 3.059-.45 1.046.029 2.079.274 3.083.575.499.16.98.376 1.473.564l1.408.706-1.372-.78c-.481-.211-.957-.45-1.455-.638-.505-.159-1.004-.364-1.533-.455-.261-.051-.523-.125-.79-.159l-.802-.091c-1.075-.069-2.174.028-3.213.352-1.04.325-2.008.826-2.828 1.588a.229.229 0 0 0-.006.336l.024.023c2.18 2.083 4.021 4.571 5.275 7.269.332.677.558 1.354.867 2.077.142.364.291.723.475 1.064.172.348.345.701.552 1.031.796 1.343 1.759 2.607 2.923 3.682 1.17 1.07 2.471 2.015 3.903 2.744.35.199.73.33 1.093.501.368.165.736.33 1.122.438l1.147.376c.386.108.784.182 1.176.279 3.154.7 6.433.637 9.581.113a.611.611 0 0 0 .243-.102c1.557-1.116 3.018-2.385 4.236-3.865 1.217-1.474 2.197-3.147 2.833-4.94.624-1.799.885-3.7.832-5.578-.042-1.884-.434-3.734-1.01-5.516-1.176-3.557-3.154-6.824-5.673-9.636-.321-.347-.641-.695-.986-1.025-.338-.335-.707-.654-1.033-.956a15.342 15.342 0 0 1-1.836-2.015c-1.087-1.434-1.966-3.079-2.376-4.787l-.006-.034a.289.289 0 0 0-.344-.21.318.318 0 0 0-.173.108c-.356.478-.724.95-1.057 1.434-.303.512-.659.99-.915 1.526-.582 1.035-1.004 2.14-1.348 3.261a14.274 14.274 0 0 0-.511 3.461c.024 1.178.155 2.35.529 3.449z"/><path fill="#96551E" d="M402.466 142.34c-3.392-3.08-4.818-6.848-6.558-10.855-.018-.045-.095-.028-.077.023 1.413 4.798 3.267 9.136 7.478 12.34 1.687 1.286 4.497 2.692 7.17 3.387-7.241-.399-14.001-5.812-15.735-12.602-.012-.04-.066-.023-.06.017 1.224 7.155 9.766 14.321 17.606 12.938.79.096 1.545.113 2.222.011.16-.023.19-.29.006-.296-3.944-.085-9.308-2.47-12.052-4.963z"/><path fill="#96551E" d="M403.582 132.333c.131 3.876 1.895 7.695 4.479 10.655 1.384 1.583 3.819 4.423 6.231 4.127.184-.023.19-.285.006-.313-5.898-.968-10.003-9.523-10.591-14.469-.012-.08-.131-.08-.125 0z"/><path fill="#96551E" d="M410.52 129.373c3.635 4.087 4.515 11.281 4.081 16.677-4.859-4.149-6.92-11.748-8.726-17.474-.03-.085-.16-.045-.137.04 1.373 6.022 3.535 13.837 8.625 18.003a.318.318 0 0 0 .179.069c-.018.153-.03.318-.048.466-.03.251.392.348.463.097.808-3.017.327-6.204-.326-9.209-.618-2.846-1.479-6.887-4.022-8.754-.065-.046-.142.028-.089.085z"/><path fill="#96551E" d="M410.698 123.067c-.083-.034-.154.08-.071.12 4.277 2.282 7.289 6.551 7.752 11.235.404 4.064-1.455 7.531-2.929 11.185-.065.165.173.273.262.119 2.352-4.052 4.003-8.703 2.744-13.336-1.063-3.921-3.831-7.65-7.758-9.323z"/><path fill="#96551E" d="M416.532 124.82c2.589 3.107 3.136 7.08 3.118 10.951-.012 2.146-.392 4.143-1.218 6.141-.754 1.827-1.995 3.176-2.892 4.878-.078.148.16.296.261.154 2.679-3.723 4.485-6.876 4.342-11.594-.113-3.814-.731-7.719-3.552-10.582-.042-.045-.095.012-.059.052zm-23.737-2.55c.167 1.041 1.087 1.969 1.794 2.732.927 1.002 1.776 2.186 2.899 2.999.142.103.291-.074.172-.193-1.687-1.776-3.225-3.705-4.847-5.544-.006-.011-.018 0-.018.006zm-.326-5.43c.944 2.857 3.029 5.311 5.037 7.559.208.233.558-.068.374-.313-1.865-2.436-3.926-4.525-5.316-7.28-.03-.051-.113-.017-.095.034zm6.385 3.836c-1.212-1.007-1.984-2.413-2.827-3.705-.85-1.309-1.806-2.704-2.471-4.138a.626.626 0 0 0 .576-.415c.267-.188.404-.501.321-.82-.095-.387-.464-.666-.82-.831-.315-.148-.737-.256-1.081-.131a.62.62 0 0 0-.416.637c-.006 0-.018.006-.024.006-.136.051-.19.177-.202.308-.065.13-.071.301 0 .415.214.336.868.751 1.42.82.511 1.531 1.467 2.959 2.299 4.331.825 1.361 1.586 2.823 2.803 3.905.28.245.701-.148.422-.382zm-1.414-6.818c.648 1.315 1.361 2.607 2.038 3.904.618 1.173 1.039 2.459 1.705 3.592.101.171.421.119.374-.103-.565-2.589-2.275-5.435-4.081-7.416-.018-.017-.048 0-.036.023zm4.806 1.491a26.626 26.626 0 0 1 1.194 3.898c.22.962.16 2.431.861 3.177.036.034.113.022.131-.023.404-.939-.166-2.345-.41-3.302-.344-1.36-.855-2.641-1.681-3.796-.03-.034-.113-.006-.095.046z"/><path fill="#96551E" d="M392.73 121.473a.58.58 0 0 0-.79.057c-.214.245-.137.615-.018.882.06.131.143.273.25.393.095.136.219.256.392.347.124.068.32.051.416-.063a.847.847 0 0 0 .178-.404c.006-.022.024-.039.029-.062.06-.251-.047-.649-.255-.922a1.569 1.569 0 0 0-.202-.228zm-.291-5.567c-.677-.062-.761.735-.642 1.19.072.279.232.603.523.723.006 0 .012 0 .018.006.047.039.089.079.136.113.351.211.743.069.868-.307.225-.62-.131-1.651-.903-1.725zm5.435-3.028c.517.444.796 1.583.333 2.135-.351.415-.915.256-1.248-.08-.291-.29-.493-.728-.475-1.138a.895.895 0 0 1 .392-.712.703.703 0 0 1 .143-.227c.243-.245.606-.194.855.022zm4.277 1.731c-.238-.08-.481-.04-.63.25a.839.839 0 0 0-.083.37c-.053.307.059.655.261.945.042.074.084.142.125.199a.728.728 0 0 0 .327.245.956.956 0 0 0 .166.091c.178.068.452.017.559-.154.118-.193.166-.398.166-.609.077-.301.03-.654-.101-.905a.846.846 0 0 0-.79-.432zm12.557 31.714c-.689.16-7.312 1.975-6.427 3.569.885 1.594 3.677-.78 3.677-.78s.499 3.689 2.079 4.32c1.58.627 2.489-5.333 2.489-5.333s5.542 1.218 5.185-.791c-.356-2.009-1.996-3.574-1.996-3.574s2.115-2.642.547-2.585c-1.562.057-5.554 5.174-5.554 5.174z"/><path fill="#96551E" d="M458.468 207.944a8.756 8.756 0 0 0-.06-1.292 13.155 13.155 0 0 0-.178-1.201 20.04 20.04 0 0 0-.588-2.323 28.014 28.014 0 0 0-1.812-4.388c-1.443-2.817-3.261-5.413-5.286-7.838-2.014-2.424-4.295-4.65-6.605-6.762l-6.891-6.369c-4.55-4.269-9.017-8.634-12.694-13.586-1.829-2.476-3.463-5.089-4.752-7.855a39.759 39.759 0 0 1-2.91-8.64.333.333 0 0 0-.392-.251.323.323 0 0 0-.262.37c.6 3.028 1.533 6 2.816 8.834 1.271 2.84 2.893 5.521 4.71 8.065 3.653 5.089 8.103 9.563 12.593 13.917l6.79 6.477c2.275 2.146 4.437 4.332 6.367 6.722 1.925 2.38 3.642 4.918 4.966 7.616a25.97 25.97 0 0 1 1.64 4.155c.207.712.38 1.423.504 2.14.066.359.107.717.143 1.07.03.342.048.74.036 1.002v.046c-.024.489.368.91.879.933.511.023.95-.353.974-.842.012.011.012.005.012 0z"/><path fill="#96551E" d="M433.039 145.663c.261.581.386 1.201.463 1.816.077.62.083 1.241.024 1.861-.113 1.235-.463 2.442-.974 3.574-.125.285-.256.57-.41.837-.155.273-.279.558-.452.82l-1.021 1.605c-.689 1.093-1.283 2.254-1.699 3.483-.422 1.224-.737 2.493-.82 3.797a14.512 14.512 0 0 0 .273 3.887c.28 1.275.743 2.51 1.337 3.677.594 1.173 1.354 2.243 2.162 3.279l.897-.712c.03.034-.018-.028-.024-.062a.875.875 0 0 1 0-.478 2.2 2.2 0 0 1 .398-.763c.38-.512.915-.968 1.479-1.389.57-.438 1.176-.751 1.824-1.224.315-.227.647-.427.944-.677l.856-.78c1.081-1.087 2.001-2.339 2.584-3.739.356-.672.51-1.418.742-2.129.083-.364.131-.74.19-1.104l.083-.552c.024-.183.012-.376.024-.558.131-2.983-.748-5.965-2.435-8.413l-.66-.899c-.219-.302-.433-.603-.701-.865l-.76-.814c-.249-.273-.499-.547-.79-.78-.576-.478-1.093-.99-1.717-1.44-.629-.45-1.253-.837-1.817-1.258zm0 0c.623.467 1.182.962 1.722 1.406.547.455 1.052 1.013 1.58 1.508.274.245.499.53.731.814l.689.843c.244.267.434.574.624.882l.588.905c1.503 2.436 2.204 5.288 2.002 8.054-.012.171-.006.347-.036.518l-.101.512c-.071.342-.113.683-.196 1.019-.232.654-.386 1.337-.725 1.946-.552 1.281-1.437 2.391-2.417 3.381l-.784.706c-.274.222-.577.404-.868.609-.546.404-1.271.786-1.877 1.241-.617.461-1.229.956-1.728 1.622a3.29 3.29 0 0 0-.582 1.167 1.858 1.858 0 0 0 .047 1.116c.054.136.095.233.238.41a.596.596 0 0 0 .814.096.543.543 0 0 0 .107-.774l-.024-.034c-.767-.973-1.497-1.986-2.055-3.074-.553-1.092-1.016-2.225-1.295-3.409a13.575 13.575 0 0 1 .326-7.206c.357-1.178.885-2.305 1.491-3.392l.951-1.662c.291-.575.588-1.15.796-1.759.451-1.201.73-2.47.766-3.745.035-1.281-.19-2.579-.784-3.7z"/><path fill="#96551E" d="M432.385 173.952c-1.628-2.003-2.441-4.479-2.382-6.898 0-.609.107-1.207.19-1.805.054-.296.149-.592.22-.882l.113-.438.16-.427.321-.86c.119-.278.267-.552.404-.831.255-.546.57-1.115.885-1.679 1.182-2.276 2.317-4.639 2.792-7.217.237-1.281.261-2.63-.072-3.91a7.151 7.151 0 0 0-1.972-3.336c.737 1.059 1.248 2.232 1.402 3.444.178 1.212.03 2.436-.261 3.626-.624 2.379-1.758 4.65-2.94 6.881-.297.558-.594 1.11-.874 1.719-.136.302-.291.592-.415.894l-.327.933-.155.467-.107.489c-.065.325-.148.643-.196.968l-.095.985c-.035.33.006.66.006.99.107 2.624 1.301 5.202 3.303 6.887z"/><path fill="#96551E" d="M432.183 173.428c-1.057-2.214-1.176-4.696-.553-6.932.303-1.127.826-2.192 1.45-3.188.618-.973 1.39-2.015 2.031-3.068.63-1.081 1.212-2.197 1.634-3.392.404-1.195.665-2.47.57-3.745-.065-1.275-.463-2.51-1.033-3.62-.583-1.11-1.319-2.118-2.145-3.04 1.236 2.112 2.311 4.354 2.257 6.682-.029 2.317-1.081 4.503-2.304 6.552-.321.512-.624 1.03-.969 1.525a38.39 38.39 0 0 0-1.009 1.571c-.612 1.104-1.159 2.271-1.378 3.523-.511 2.471-.048 5.146 1.449 7.132z"/><path fill="#96551E" d="M432.195 173.178c-.03-1.173.232-2.317.671-3.376.422-1.064 1.058-2.032 1.8-2.908.196-.211.386-.427.582-.638l.624-.603c.433-.421.897-.842 1.295-1.309.814-.928 1.52-1.952 2.049-3.074.505-1.132.826-2.339.921-3.568.101-1.23-.083-2.465-.416-3.632-.707-2.333-2.067-4.4-3.748-6.107 1.295 1.992 2.364 4.104 2.857 6.318a10.21 10.21 0 0 1-.683 6.534c-.463 1.019-1.105 1.969-1.836 2.852-.356.455-.76.859-1.164 1.286l-.635.677c-.196.239-.381.484-.571.729-.73.99-1.301 2.094-1.615 3.267-.315 1.173-.416 2.402-.131 3.552zm7.408 7.792c-1.414-.615-2.893-1.081-4.402-1.446a28.558 28.558 0 0 0-4.615-.728c-3.107-.217-6.38.21-9.201 1.707-.695.382-1.373.797-1.984 1.298l-1.776 1.406c-1.206.893-2.46 1.73-3.772 2.453-1.325.712-2.685 1.349-4.105 1.839-.707.25-1.431.449-2.156.62-.719.165-1.491.285-2.162.313h-.036a.569.569 0 0 0-.558.581c.012.199.124.37.297.461 1.473.796 2.976 1.343 4.538 1.804 1.556.461 3.16.768 4.776.95 3.231.331 6.546.137 9.67-.739 3.13-.843 6.059-2.272 8.643-4.104a35.38 35.38 0 0 0 6.843-6.415zm0 0c-2.169 2.237-4.539 4.303-7.188 5.959a27.913 27.913 0 0 1-8.548 3.706c-3.029.745-6.201.91-9.296.529a27.037 27.037 0 0 1-4.567-.939c-1.48-.444-2.965-1.013-4.271-1.713l-.297 1.047c.873-.04 1.633-.176 2.417-.359a20.709 20.709 0 0 0 2.281-.666 26.054 26.054 0 0 0 4.277-1.958c1.354-.774 2.631-1.662 3.855-2.601l1.77-1.457c.553-.484 1.17-.882 1.806-1.258 2.584-1.457 5.679-1.998 8.72-1.918 3.065.057 6.124.66 9.041 1.628z"/><path fill="#96551E" d="M405.43 188.995c2.833 1.087 5.946 1.435 9.005 1.435 3.077-.006 6.136-.478 9.106-1.224 1.461-.45 2.946-.848 4.348-1.446l1.063-.421c.357-.137.707-.279 1.046-.455a87.84 87.84 0 0 0 2.043-1.002c.689-.319 1.337-.706 1.984-1.099l1.936-1.166a87.514 87.514 0 0 0 3.636-2.647c-1.343.7-2.62 1.468-3.939 2.174l-2.007.996c-.666.33-1.325.689-2.02.956-.689.291-1.372.581-2.055.883-.339.159-.689.29-1.04.409l-1.051.376c-1.384.552-2.827.934-4.259 1.355-2.887.745-5.839 1.252-8.821 1.434-2.982.165-6.011.08-8.975-.558z"/><path fill="#96551E" d="M406.053 188.95c2.834.677 5.875.574 8.738-.154a17.919 17.919 0 0 0 4.134-1.594c.339-.154.648-.353.963-.552l.926-.586c.594-.382 1.171-.791 1.782-1.15 2.388-1.497 4.925-2.795 7.645-3.546a19.88 19.88 0 0 1 4.194-.689c1.431-.102 2.881-.045 4.336-.011-1.426-.285-2.869-.49-4.342-.546a18.021 18.021 0 0 0-4.414.392c-1.455.302-2.851.803-4.205 1.383a34.912 34.912 0 0 0-3.855 2.072c-.624.376-1.206.803-1.812 1.201l-.879.569c-.291.188-.582.382-.891.541-1.194.717-2.507 1.23-3.843 1.679a22.906 22.906 0 0 1-8.477.991zm-55.818 69.475s-4.104 1.798-3.225 5.834c.879 4.035-.321 7.314-.321 7.314s12.795-5.538 6.344-12.778c2.934-4.639 1.77-10.667-4.318-14.458 0 0 .79 3.523-.814 6.091-1.61 2.555.362 6.705 2.334 7.997z"/><path fill="#96551E" d="M348.168 266.746c-1.74 1.588-3.76 2.863-5.958 3.546-1.105.319-2.233.484-3.362.438l-.843-.062c-.279-.04-.553-.103-.832-.154-.267-.045-.564-.114-.867-.182-.303-.063-.6-.142-.903-.199a21.11 21.11 0 0 0-3.689-.302c-1.235.04-2.477.177-3.671.49-1.194.301-2.358.762-3.391 1.423-1.016.666-1.931 1.553-2.353 2.652.66-.973 1.61-1.673 2.65-2.174 1.033-.513 2.162-.831 3.302-1.042 2.287-.415 4.651-.353 6.938.063.285.045.57.119.856.176.279.063.57.12.891.177.314.051.623.119.938.159l.956.046c1.272-.012 2.537-.228 3.701-.678a12.747 12.747 0 0 0 5.637-4.377z"/><path fill="#96551E" d="M321.789 262.124c-1.224 1.156-2.204 2.567-2.786 4.155-.268.797-.464 1.645-.428 2.505.048.854.208 1.73.618 2.504.736 1.571 1.996 2.897 3.54 3.802.766.462 1.616.78 2.483 1.014.879.227 1.74.364 2.703.358l-.476-.837c-.849 1.008-1.954 1.924-3.166 2.545-1.223.609-2.583.899-3.932.78-1.348-.12-2.643-.655-3.813-1.395-1.159-.751-2.198-1.69-2.834-2.846-.641-1.15-.808-2.499-.516-3.796.291-1.298.956-2.539 1.823-3.626 1.74-2.191 4.164-3.888 6.784-5.163zm0 0a19.663 19.663 0 0 0-3.945 1.941c-1.241.786-2.399 1.714-3.374 2.824-.98 1.098-1.776 2.39-2.162 3.847-.392 1.44-.273 3.074.464 4.434.712 1.372 1.859 2.459 3.118 3.29 1.277.82 2.75 1.451 4.342 1.611 1.586.171 3.208-.211 4.586-.917 1.372-.734 2.554-1.684 3.516-2.902a.5.5 0 0 0-.106-.729.57.57 0 0 0-.339-.108h-.036a9.655 9.655 0 0 1-4.639-1.127c-1.414-.757-2.602-1.924-3.344-3.313-.784-1.371-.873-3.028-.457-4.576.433-1.548 1.3-3 2.376-4.275zm25.797-11.064c-.505-.78-1.265-1.384-2.073-1.89a10.975 10.975 0 0 0-2.637-1.156c-.927-.29-1.889-.444-2.846-.54-.986-.091-1.871-.108-2.803-.2a44.667 44.667 0 0 1-2.757-.278 39.91 39.91 0 0 1-2.732-.427c-.903-.182-1.8-.382-2.667-.672-.867-.285-1.711-.649-2.406-1.269.493.791 1.337 1.337 2.174 1.776.856.427 1.759.757 2.673 1.018 1.836.541 3.725.814 5.62.979 1.924.143 3.742.063 5.512.462.885.182 1.764.432 2.596.791.837.353 1.651.797 2.346 1.406z"/><path fill="#96551E" d="M322.068 256.678a15.383 15.383 0 0 1-1.586-2.63c-.434-.916-.761-1.89-.85-2.874-.095-.979.101-1.981.66-2.767a3.857 3.857 0 0 1 1.033-1.024c.208-.142.392-.302.618-.421l.665-.365a16.056 16.056 0 0 1 2.905-1.047 27.268 27.268 0 0 1 3.065-.643 47.236 47.236 0 0 1 6.261-.541h.024a.496.496 0 0 0 .498-.489c0-1.156-.237-2.197-.588-3.239-.362-1.03-.843-2.026-1.502-2.92-1.248-1.827-3.071-3.233-5.032-4.257-.986-.53-2.019-.905-3.094-1.264a7.43 7.43 0 0 0-3.481-.216c-2.329.393-4.319 1.77-5.708 3.46-2.834 3.387-3.761 8.071-2.501 12.175.588 2.066 1.806 3.922 3.308 5.447 1.509 1.526 3.345 2.727 5.305 3.615zm0 0c-1.877-1.042-3.618-2.311-5.002-3.882-.338-.399-.689-.786-.968-1.224-.142-.216-.309-.415-.439-.637l-.381-.672c-.267-.438-.451-.922-.665-1.383-.16-.484-.362-.951-.469-1.452-1.04-3.921-.012-8.275 2.637-11.349 1.307-1.537 3.107-2.698 5.073-3.028a6.222 6.222 0 0 1 2.946.205c.968.324 1.966.706 2.875 1.189 1.83.951 3.505 2.226 4.645 3.882.606.808 1.04 1.713 1.396 2.641.333.922.564 1.941.582 2.869l.517-.49a43.672 43.672 0 0 0-6.403.689c-2.109.393-4.218.945-6.136 1.964l-.701.415c-.232.137-.44.325-.66.49-.439.319-.825.74-1.11 1.206-.588.94-.725 2.067-.571 3.097.155 1.041.553 2.015 1.04 2.925a14.443 14.443 0 0 0 1.794 2.545zm-.279 5.447c2.233-.945 4.55-1.611 6.878-2.175a63.735 63.735 0 0 1 7.092-1.224c1.194-.108 2.388-.256 3.594-.296.6-.034 1.2-.085 1.8-.102.6-.006 1.206-.017 1.806-.034l.903-.023.902.017 1.818.017c1.212.023 2.424.114 3.647.114a63.767 63.767 0 0 0-3.599-.672c-1.212-.119-2.43-.318-3.659-.341-2.454-.165-4.913-.04-7.36.193-2.441.308-4.865.769-7.205 1.503-2.323.74-4.616 1.668-6.617 3.023z"/><path fill="#96551E" d="M322.068 256.677c.154.61.528 1.127.968 1.571.445.439.974.809 1.556 1.065.582.25 1.206.438 1.842.478a4.673 4.673 0 0 0 1.877-.205c-.588-.273-1.141-.444-1.669-.66-.535-.188-1.04-.421-1.545-.632a21.059 21.059 0 0 1-1.491-.74 31.604 31.604 0 0 1-1.538-.877zm-8.679 12.426c-1.259-1.452-2.34-3.011-3.136-4.668-.784-1.656-1.265-3.432-1.14-5.191.035-.882.255-1.741.588-2.567.142-.421.368-.814.57-1.218.249-.381.463-.785.748-1.15 1.082-1.491 2.477-2.806 3.968-4.046-1.764.853-3.397 2.014-4.698 3.511-1.325 1.475-2.21 3.393-2.346 5.402-.113 2.009.493 3.984 1.502 5.658a13.725 13.725 0 0 0 3.944 4.269z"/><path fill="#96551E" d="M302.05 248.731c6.077 4.378 12.534 7.952 20.256 8.698.368.034.439-.513.071-.547-3.475-.324-6.992-1.315-10.205-2.629-3.606-1.475-6.647-3.808-10.051-5.618-.071-.034-.136.051-.071.096zm-.944 5.088c7.145 3.945 16.109 6.028 24.318 5.692.356-.017.285-.54-.071-.523-8.126.296-16.947-1.816-24.194-5.271-.059-.029-.113.068-.053.102zm6.801 13.524c-.071.046.006.143.077.114 4.877-1.952 9.041-4.28 14.292-5.367.225-.046.154-.404-.077-.382-4.972.444-10.223 2.909-14.292 5.635zm-4.627-4.991c3.54-.302 7.033-.848 10.579-1.087 4.021-.268 8.458.085 12.361-.826.142-.034.107-.222-.024-.233-7.556-.643-15.527.768-22.946 1.987-.107.022-.071.17.03.159z"/><path fill="#96551E" d="M306.766 267.912c.006.04.03.057.048.086a.257.257 0 0 0 .226.21c.213.04.451.052.677.029.707.028 1.538-.262 1.342-.962-.35-1.224-2.554-.495-2.293.637zm-4.609-5.577c.214.677 1.598 1.297 2.18.705.018-.017.03-.039.041-.057.066-.028.137-.056.202-.108.286-.216.303-.694-.071-.842-.63-.251-1.366-.638-2.049-.313-.256.114-.392.336-.303.615zm-1.794-8.726c-.238.142-.279.478-.125.683.024.034.054.068.083.102.113.302.398.587.678.757.421.257.897.507 1.407.496.553-.012.933-.439.808-.962a1.371 1.371 0 0 0-.243-.484c-.006-.012-.006-.023-.012-.034-.155-.279-.44-.467-.737-.587a2.367 2.367 0 0 0-.885-.165c-.356-.022-.695.029-.974.194zm.814-5.737c-.048.017-.101.034-.149.062-.291.154-.439.49-.285.786.481.939 1.628 1.605 2.721 1.605.398 0 .659-.245.635-.632-.029-.518-.576-1.002-.95-1.315-.422-.353-1.046-.785-1.64-.66a.829.829 0 0 0-.332.154zm171.553 14.742a205.556 205.556 0 0 1-14.957 2.311c-5.025.547-10.062.974-15.123 1.213-10.11.483-20.262.404-30.383-.103-10.128-.501-20.232-1.423-30.294-2.692-10.057-1.281-20.089-2.846-29.991-4.918h-.006a.33.33 0 0 0-.392.239.317.317 0 0 0 .249.376c9.92 2.186 19.941 3.859 30.009 5.253 10.068 1.378 20.19 2.408 30.347 3.023 10.158.615 20.351.808 30.538.427 5.091-.182 10.181-.558 15.254-1.059a206.086 206.086 0 0 0 15.147-2.174c.546-.097.903-.604.802-1.127-.101-.524-.63-.865-1.176-.769h-.024z"/><path fill="#96551E" d="M454.393 266.291a93.458 93.458 0 0 1-10.924.626 90.106 90.106 0 0 1-10.888-.592c-3.599-.444-7.169-1.104-10.62-2.134a50.018 50.018 0 0 1-5.061-1.822 39.611 39.611 0 0 1-4.74-2.453l-.149 1.013c1.705-.444 3.517-.74 5.299-.979a66.23 66.23 0 0 1 5.423-.415c3.623-.131 7.271.022 10.87.518 3.594.501 7.182 1.195 10.639 2.299 1.764.467 3.445 1.144 5.156 1.77.879.296 1.639.689 2.471 1.042.825.347 1.681.723 2.524 1.127zm0 0a73.452 73.452 0 0 1-2.382-1.23c-.814-.415-1.651-.887-2.489-1.212-1.681-.706-3.344-1.468-5.096-2.021-3.451-1.24-7.051-2.066-10.692-2.646-3.641-.604-7.348-.786-11.043-.712-3.7.103-7.371.484-11.018 1.383a.553.553 0 0 0-.416.678.543.543 0 0 0 .255.33l.012.006a42.6 42.6 0 0 0 4.913 2.51c1.698.7 3.433 1.332 5.209 1.832 3.546.997 7.187 1.645 10.846 1.987 3.659.347 7.342.421 11.001.267 3.653-.182 7.312-.5 10.9-1.172z"/><path fill="#96551E" d="M454.393 266.291c-3.558-.501-7.11-.979-10.662-1.412l-10.663-1.331a599.389 599.389 0 0 1-10.638-1.401c-1.77-.244-3.534-.518-5.305-.797l-2.649-.438c-.873-.182-1.752-.358-2.637-.518 3.386 1.173 6.908 1.958 10.431 2.624 1.758.359 3.54.615 5.31.911 1.776.262 3.552.512 5.334.74 3.564.438 7.134.814 10.716 1.081 3.582.285 7.169.473 10.763.541zm-105.381 13.621c2.168.153 4.348.199 6.528.17 2.18-.022 4.36-.113 6.534-.29 4.342-.37 8.69-1.064 12.878-2.317a72.42 72.42 0 0 0 6.177-2.123 120.968 120.968 0 0 0 6.006-2.51 163.446 163.446 0 0 0 11.63-5.771.549.549 0 0 0 .22-.763.595.595 0 0 0-.511-.285c-4.407.006-8.755.331-13.104.843-4.336.524-8.654 1.252-12.889 2.311a99.551 99.551 0 0 0-6.285 1.81 78.662 78.662 0 0 0-6.1 2.311 64.28 64.28 0 0 0-5.786 2.948c-.915.569-1.847 1.116-2.726 1.742-.885.586-1.747 1.309-2.572 1.924zm0 0c.914-.638 1.752-1.224 2.685-1.776.897-.587 1.847-1.093 2.78-1.622a64.05 64.05 0 0 1 5.862-2.698 81.8 81.8 0 0 1 6.101-2.146 94.092 94.092 0 0 1 6.266-1.645c4.224-.917 8.495-1.668 12.801-2.135 4.301-.472 8.649-.757 12.955-.734l-.291-1.047a164.27 164.27 0 0 1-11.494 5.817c-3.908 1.793-7.912 3.404-11.999 4.736-4.086 1.331-8.357 2.111-12.664 2.589-4.3.507-8.654.7-13.002.661z"/><path fill="#96551E" d="M398.468 266.587a1083.831 1083.831 0 0 0-12.308 3.62l-12.284 3.631a522.035 522.035 0 0 1-12.331 3.45l-3.101.785-3.118.723c-1.04.256-2.091.427-3.136.643-.523.12-1.052.171-1.586.239l-1.592.228c4.306-.057 8.571-.854 12.759-1.765 4.193-.927 8.334-2.037 12.45-3.221 4.105-1.218 8.191-2.493 12.23-3.882a222.375 222.375 0 0 0 12.017-4.451z"/><path fill="#FEC6AD" d="M314.061 209.406s-3.844-1.28-3.612-1.963c.232-.683 2.519-.558 3.938.353 0 0-.986-3.165.28-3.148 1.265.017 1.11 2.846 1.11 2.846s3.499-2.243 4.146-.848c.648 1.394-2.209 2.447-2.209 2.447s3.641 1.372 2.857 2.368c-.784.996-4.206-.871-4.206-.871s2.311 2.078.725 2.573c-1.586.495-2.715-2.476-2.715-2.476s-1.781 1.759-2.601 1.252c-.82-.506 2.287-2.533 2.287-2.533z"/><path fill="#fff" d="M430.36 228.002s-2.227 3.444-1.277 3.87c.95.427 2.156-3.062 2.156-3.062s.85 3.336 1.937 3.062c1.087-.273 0-3.87 0-3.87s2.892.928 3.023 0c.125-.928-3.023-1.776-3.023-1.776s1.752-.956 1.966-2.203c.214-1.246-3.422 1.537-3.422 1.537s-.671-2.487-1.366-2.635c-.695-.148 0 3.295 0 3.295s-2.15-2.1-2.75-1.32c-.606.78 1.473 2.51 1.473 2.51s-2.685.569-2.441 1.389c.243.825 3.724-.797 3.724-.797z"/><path fill="#96551E" d="M385.59 163.684s2.4 2.209 3.582 1.833c1.182-.376-2.311-2.664-2.311-2.664s3.119-.08 3.261-1.15c.137-1.07-3.284-.597-3.284-.597s1.194-2.294.831-2.949c-.362-.654-2.495 2.647-2.495 2.647s-.528-2.311-1.58-2.59c-1.051-.279.185 2.806.185 2.806s-2.299-1.451-2.976-.54c-.672.91 2.209 1.906 2.209 1.906s-2.578 1.19-2.429 1.685c.148.495 3.089-.034 3.089-.034s.362 2.544 1.217 2.584c.85.046.701-2.937.701-2.937zm9.605-2.971c.054.028.101.063.155.102.219.035.433.137.594.302.445.45.386 1.064-.036 1.469-.024.034-.054.068-.083.102a.629.629 0 0 1-.339.177c-.493.216-1.123.187-1.473-.251-.333-.415-.279-1.093-.03-1.542a.89.89 0 0 1 1.212-.359z"/><path fill="#FEC6AD" d="M397.126 157.099c.196.227.243.489.101.757a1.23 1.23 0 0 1-1.064.671c-.029.017-.059.04-.089.051a.422.422 0 0 1-.202.035.391.391 0 0 1-.196-.035c.012.109-.047.126-.178.052a1.028 1.028 0 0 1-.196-.086 1.327 1.327 0 0 1-.22-.176.885.885 0 0 1-.237-.438c-.078-.348.065-.712.326-.957.553-.529 1.462-.449 1.955.126z"/><path fill="#FADBD7" d="M393.223 158.67c.155.307-.083.592-.386.671a2.08 2.08 0 0 1-.653.08c-.464-.017-.618-.723-.167-.882l.054-.017c.024-.034.047-.068.077-.103.03-.022.178-.153.214-.17a.595.595 0 0 1 .315-.052c.279.046.439.257.546.473z"/><path fill="#fff" d="M437.945 219.902a.806.806 0 0 1-.291.114 1.35 1.35 0 0 1-.398.137c-.285.045-.487-.052-.653-.268-.238-.307-.362-.706-.273-1.047 0-.046.006-.097.017-.143.244-.757 1.117-.831 1.622-.341.042.028.095.045.131.08.451.392.338 1.149-.155 1.468zm-2.685-3.478c-.023.251-.326.45-.57.33.012.006.006 0-.006-.005-.018-.012-.035-.017-.053-.029.012.012.029.017.041.023-.006 0-.006 0-.012-.006-.029-.005-.053-.022-.083-.034a.499.499 0 0 1-.231.074c-.155.006-.173-.091-.28-.148-.006.017-.006.029-.011.046a.401.401 0 0 1-.155-.143c-.142-.204-.107-.472.006-.683.178-.335.594-.546.968-.352.339.193.422.58.386.927z"/><path fill="#96551E" d="M438.337 216.032c-.029.119-.178.25-.308.256a2.063 2.063 0 0 1-.458-.006c-.523.103-1.033-.552-.552-.945.13-.108.261-.193.416-.261.338-.148.695-.046.825.307.077.205.137.387.077.649z"/><path fill="#fff" d="M387.651 236.506a.625.625 0 0 1-.231.273 1.109 1.109 0 0 1-.511.597c-.131.074-.339.08-.463-.011a2.08 2.08 0 0 1-.511-.501c-.25-.182-.398-.484-.303-.814a.769.769 0 0 1 .071-.171c.006-.028.006-.051.012-.079.131-.461.588-.786 1.093-.666.558.136 1.069.825.843 1.372z"/><path fill="#96551E" d="M391.108 236.551c.048.086.084.171.107.262.048.148-.018.33-.136.433a1.41 1.41 0 0 1-.238.159 1.088 1.088 0 0 1-.214.148.838.838 0 0 1-1.021-.199.811.811 0 0 1-.173-.342 1.347 1.347 0 0 1-.083-.188c-.053-.148.024-.318.131-.426a.53.53 0 0 1 .065-.057.815.815 0 0 1 .636-.387c.386-.029.814.233.926.597z"/><path fill="#FEC6AD" d="M389.463 233.472c.178.108.327.29.434.455a.414.414 0 0 1-.012.444c-.22.319-.582.615-1.004.484-.345-.108-.547-.427-.576-.763-.03-.33.172-.66.54-.688a.5.5 0 0 1 .184.017.597.597 0 0 1 .434.051z"/><path fill="#fff" d="M435.106 278.158c-.214.382-.79.478-1.2.347-.517-.159-.742-.694-.635-1.184.112-.5.552-.905 1.098-.916.416-.011.957.171 1.218.495.398.501 0 .991-.481 1.258z"/><path fill="#96551E" d="M437.387 281.022c-.232.085-.511.102-.725-.006a.915.915 0 0 1-.273-.091.62.62 0 0 1-.368-.296.617.617 0 0 1-.072-.325c-.053-.335.125-.649.44-.74a.512.512 0 0 1 .077-.045c.434-.216.939.011 1.212.358.315.388.226.951-.291 1.145z"/><path fill="#FEC6AD" d="M438.658 277.48a.577.577 0 0 1-.404.456.732.732 0 0 1-.042.102c-.071.148-.303.217-.457.165-.344-.114-.63-.375-.594-.728a.279.279 0 0 1-.053-.177c.041-.347.297-.472.552-.461a.82.82 0 0 1 .309-.079c.404-.023.736.347.689.722z"/><path fill="#96551E" d="M309.428 221.69c-.042.017-.084.022-.125.034-.386.233-.856.336-1.289.228-.755-.188-1.158-.968-1.016-1.674.267-1.286 1.877-2.231 3.083-1.411 1.164.796.523 2.407-.653 2.823z"/><path fill="#FEC6AD" d="M313.348 224.558a1.265 1.265 0 0 1-.291.496c-.309.54-.927.882-1.616.557-.891-.421-1.212-1.713-.505-2.413.434-.432 1.188-.58 1.741-.296.611.307.849 1.042.671 1.656z"/><path fill="#FADBD7" d="M314.673 220.38a1.59 1.59 0 0 1-.048.296c-.113.393-.297.843-.784.9a.72.72 0 0 1-.523-.143.534.534 0 0 1-.16-.176.51.51 0 0 1-.095-.068.354.354 0 0 1-.095-.154 1.589 1.589 0 0 1-.226-.341c-.315-.712.291-1.241.98-1.367.416-.074.909.018 1.04.462.053.193.012.398-.089.591z"/><path fill="#fff" stroke="#96551E" stroke-linecap="round" stroke-linejoin="round" stroke-miterlimit="10" d="M291.875 248.629s-6.772-6.147.065-13.74c-.006 0 7.437 6.79-.065 13.74zm119.827-3.096s-.445 6.637 7.526 6.756c0-.006 3.101-5.618-7.526-6.756zm18.931-107.934s5.827 4.206 10.769-2.886c.006-.006-5.803-5.572-10.769 2.886zm-54.511 9.397s-6.736-3.006-2.382-11.122c0 0 7.484 3.438 2.382 11.122z"/></g></g></svg>