<svg xmlns="http://www.w3.org/2000/svg" width="16" height="12" fill="none"><path fill="#E29F94" d="M15.7 3.365v6.912c-.009.017-.022.032-.026.05-.165.698-.691 1.118-1.411 1.118H2.138c-.84 0-1.432-.6-1.432-1.442V3.354c.056.035.092.056.127.08 2.012 1.34 4.024 2.683 6.036 4.024.87.58 1.79.585 2.655.009 2.01-1.338 4.018-2.678 6.027-4.017.047-.031.099-.056.149-.085z"/><path fill="#E29F94" d="M15.699 1.813c-.008.011-.022.022-.025.035-.079.397-.313.68-.644.9-1.876 1.247-3.749 2.498-5.623 3.747-.175.116-.344.242-.527.342-.51.277-1.01.24-1.491-.081L3.725 4.313 1.352 2.73C.802 2.363.583 1.798.76 1.2A1.382 1.382 0 0 1 2.109.206H14.29c.687 0 1.226.438 1.38 1.103.005.023.018.043.028.065v.44z"/></svg>