<svg xmlns="http://www.w3.org/2000/svg" width="15" height="21" fill="none"><path fill="#E29F94" d="M8.075.825c.215.034.43.068.64.107 2.39.417 4.182 1.698 5.363 3.788.795 1.412 1.063 2.94.854 4.55a7.355 7.355 0 0 1-1.435 3.488c-1.81 2.43-3.626 4.855-5.436 7.286-.132.179-.274.34-.518.354-.278.014-.449-.15-.6-.354-.98-1.315-1.962-2.625-2.942-3.944-.913-1.227-1.86-2.435-2.728-3.691C.165 10.803-.206 9.009.106 7.083c.298-1.834 1.186-3.347 2.611-4.536A7.252 7.252 0 0 1 6.455.903c.156-.02.312-.054.469-.078h1.151zm3.46 7.46C11.54 6.079 9.73 4.27 7.51 4.266c-2.225-.006-4.055 1.799-4.055 4.01-.005 2.208 1.806 4.017 4.026 4.022 2.225.005 4.055-1.8 4.055-4.011z"/></svg>