<svg xmlns="http://www.w3.org/2000/svg" width="214" height="246" fill="none"><g opacity=".5"><g fill="#FADBD7" opacity=".7"><path d="M199.454 237.654a26.7 26.7 0 0 0-.731-1.176c-.241-.375-.489-.733-.736-1.096a78.467 78.467 0 0 0-1.527-2.13 87.517 87.517 0 0 0-3.241-4.073 103.353 103.353 0 0 0-7.108-7.571 110.586 110.586 0 0 0-7.802-6.839 108.976 108.976 0 0 0-8.404-6.1c-2.894-1.903-5.858-3.698-8.917-5.328-1.509-.847-3.076-1.596-4.62-2.374-.772-.392-1.568-.733-2.352-1.102-.789-.358-1.567-.739-2.369-1.063a130.763 130.763 0 0 0-19.648-6.668c-.03-.006-.065.012-.071.04-.006.028.012.062.041.068a129.672 129.672 0 0 1 19.136 7.657c.778.363 1.521.784 2.281 1.175.754.404 1.52.784 2.257 1.21 1.479.847 2.976 1.67 4.414 2.579a109.379 109.379 0 0 1 8.439 5.686 104.299 104.299 0 0 1 7.85 6.384 106.947 106.947 0 0 1 7.184 7.032 98.749 98.749 0 0 1 6.418 7.639 82.59 82.59 0 0 1 2.858 4.033c.448.688.89 1.375 1.314 2.068.207.346.419.693.613 1.039.201.341.401.71.554 1.006l.018.034c.584 1.119 1.992 1.579 3.159 1.016 1.161-.556 1.638-1.919 1.055-3.044a.59.59 0 0 1-.065-.102z"/><path d="M114.796 185.324s15.977-2.749 28.654 10.639c0 0-15.877 1.102-28.654-10.639zm38.713 14.984s-12.582-4.005-24.416 8.718c0 0 17.922 3.244 24.416-8.718zm-15.057-25.913s16.366 10.508 15.058 25.913c0 0-17.987-11.61-15.058-25.913zm19.501 5.084s11.121 14.314 5.581 26.355c0 0-11.627-14.171-5.581-26.355zm11.734 9.049s13.283 13.058 7.862 27.69c0-.006-10.685-10.213-7.862-27.69zm.318 21.646s-13.301-5.299-28.689 7.111c.006 0 13.431 5.47 28.689-7.111zm11.787 10.026s-16.407-5.595-30.451 7.435c0 .005 16.483 1.8 30.451-7.435zm50.541-122.836c-.483.199-.872.375-1.291.568-.412.187-.813.386-1.214.58-.801.397-1.585.806-2.363 1.22a99.88 99.88 0 0 0-4.567 2.647 105.02 105.02 0 0 0-8.599 5.959 109.9 109.9 0 0 0-7.926 6.708 106.555 106.555 0 0 0-7.231 7.361c-2.287 2.556-4.473 5.197-6.495 7.941-1.037 1.351-1.992 2.766-2.97 4.157-.489.699-.931 1.42-1.397 2.13-.454.716-.937 1.415-1.361 2.153a121.098 121.098 0 0 0-9.082 18.074c-.012.028.006.062.036.074.029.011.064 0 .076-.029a121.6 121.6 0 0 1 10.042-17.466c.46-.704.979-1.369 1.468-2.05.501-.676.978-1.363 1.497-2.028 1.043-1.323 2.057-2.658 3.153-3.936a107.55 107.55 0 0 1 6.812-7.447 106.584 106.584 0 0 1 7.461-6.804 108.133 108.133 0 0 1 8.057-6.089 103.065 103.065 0 0 1 8.598-5.288 88.997 88.997 0 0 1 4.479-2.284 82.158 82.158 0 0 1 2.281-1.028c.383-.159.76-.324 1.143-.471.371-.154.778-.307 1.096-.415l.035-.011c1.22-.432 1.851-1.733 1.403-2.909-.448-1.175-1.797-1.783-3.017-1.351a.304.304 0 0 0-.124.034z"/><path d="M168.873 172.561s-1.037-15.609 14.186-26.247c0 0-.643 15.33-14.186 26.247zm19.796-35.392s-5.539 11.599 6.247 24.362c0 0 5.357-16.796-6.247-24.362z"/><path d="M160.263 148.683s12.671-14.496 28.406-11.514c0 0-13.985 15.927-28.406 11.514zm7.426-18.109s16.006-9.042 27.799-2.385c.006-.006-15.912 9.542-27.799 2.385zm10.649-10.224s14.952-11.258 29.432-4.419c0 0-11.728 9.088-29.432 4.419zm22.359 2.125s-6.954 12.144 4.114 28.275c-.006 0 7.143-12.246-4.114-28.275zm11.658-10.156s-7.608 15.086 4.249 29.996c0 0 3.707-15.58-4.249-29.996zm-38.619-6.503a1.352 1.352 0 0 1-.319.329 2.133 2.133 0 0 1-.206.188 1.12 1.12 0 0 1-.737.233l-.1.034c-.719.255-1.414-.279-1.344-1.006.042-.443-.023-.914.283-1.289.148-.182.336-.29.543-.364.07-.068.147-.142.223-.204.401-.347.967-.205 1.303.125.3.182.483.534.465.892v.011c.095.352.101.71-.111 1.051zm4.838.885-.018.035c-.065.499-.577.891-1.102.812-.365-.051-.713-.25-1.013-.443a1.915 1.915 0 0 1-.336-.267.878.878 0 0 1 .259-1.375c.242-.119.43-.074.672-.057-.006-.005-.012-.005-.018-.011.012.006.035.006.047.011h.024c.018 0 .029.006.035.012.077.017.165.023.23.04.018.005.03.011.047.017.024-.006.047-.012.071-.012.477-.034.984.256 1.084.71a.735.735 0 0 1 .018.528zM93.633 212.855c-.236.227-.483.551-.825.625-.153.034-.318.028-.483.028a1.5 1.5 0 0 1-.501.12.834.834 0 0 1-.807-.563c-.2-.63.46-1.068.99-1.261.394-.147.748-.17 1.167-.142.548.034.848.818.46 1.193zm3.006 3.454a1.15 1.15 0 0 1-.1.625c-.283.551-.86.642-1.432.591-.313-.029-.69-.307-.766-.608-.089-.335-.313-.687-.348-1.034-.041-.358.118-.687.406-.914.154-.125.342-.199.507-.313.33-.227.743-.312 1.102-.079.348.216.43.585.366.948.082.08.153.176.194.284a.767.767 0 0 1 .036.324c.005.034.029.142.035.176zm91.718-31.519c-.177.352-.271.767-.572 1.051-.394.375-.937.363-1.455.42-.501.057-.99-.295-1.079-.772h-.006c-.194-.097-.336-.313-.394-.512-.242-.818.3-1.55 1.072-1.817.601-.205 1.202-.114 1.786.091.589.21.925.982.648 1.539zm4.597 3.176c-.236.619-.925 1.011-1.58.647-.082-.045-.165-.102-.241-.153a2.358 2.358 0 0 1-.814.074c-.495-.051-.99-.449-.819-.994.106-.182.218-.358.324-.54.006-.426.319-.841.796-.806.053-.029.1-.063.159-.086.224-.108.46-.164.69-.244.654-.238 1.29.051 1.597.636.224.443.053 1.034-.112 1.466zm-4.332 2.55c0 .34-.183.636-.431.908-.235.262-.748.318-1.043.125-.542-.352-.896-.937-.784-1.579.095-.534.46-.846.914-.971.094-.204.359-.381.53-.102.077.005.154.017.224.023.036.011.065.034.1.045.089.017.171.034.254.057-.024.011-.041.022-.065.028.542.335.631 1 .301 1.466z"/></g><path fill="#FADBD7" d="M57.319 195.866s3.824 4.823 8.875 12.729c4.933 7.731 1.573 16.393-2.299 17.796 0 .005-15.97-12.496-6.577-30.525zm-13.425 12.321s4.314-5.01.43-11.156c-3.884-6.146-10.078-12.598-9.388-17.841 0 0-5.74 8.52-2.493 15.847 3.247 7.328 11.45 13.15 11.45 13.15zm-15.199-5.017s2.57-8.44-3.79-15.125c-6.359-6.68-6.205-15.092-6.205-15.092s-5.988 6.589-3.943 15.887c2.057 9.298 8.015 13.842 13.938 14.33zm-2.446 8.214s-1.562-9.14-10.685-10.469c-9.123-1.323-13.219-3.635-14.98-6.827 0 0 6.86 24.663 25.665 17.296z"/><path fill="#FEC6AD" d="M38 235.138s5.163.614 10.62-1.55c5.457-2.17 12.936-2.517 15.046 2.658 2.115 5.18-10.726 14.535-25.666-1.108z"/><path fill="#FADBD7" d="M38 235.138s5.163.614 10.62-1.55c5.457-2.17 12.936-2.517 15.046 2.658 2.115 5.18-10.726 14.535-25.666-1.108zm6.677-8.997s-3.365-6.998-11.875-5.72c-8.51 1.284-13.914 1.551-17.762-1.528 0 0 13.85 22.584 29.637 7.248z"/><path fill="#E39F96" d="M79.07 245.748c-3.877-5.669-8.362-10.957-13.2-15.915-4.845-4.959-10.137-9.543-15.93-13.519-2.947-1.948-5.929-3.709-8.881-5.543-2.965-1.812-5.888-3.664-8.716-5.629l-1.055-.744-1.02-.779c-.69-.511-1.332-1.067-1.986-1.613a13.202 13.202 0 0 1-.943-.852c-.306-.295-.625-.579-.92-.88-.565-.625-1.16-1.227-1.661-1.909-2.151-2.612-3.442-5.804-4.509-9.031.36 1.659.737 3.329 1.373 4.931l.224.607c.083.199.177.392.266.591.182.392.36.79.554 1.176.43.755.837 1.528 1.355 2.232 1.974 2.908 4.685 5.248 7.45 7.373 2.775 2.135 5.71 4.032 8.633 5.935 2.935 1.88 5.94 3.675 8.775 5.584 2.835 1.942 5.599 3.993 8.233 6.202 2.682 2.159 5.21 4.487 7.732 6.828a204.047 204.047 0 0 1 14.227 14.955z"/><path fill="#E39F96" d="M61.126 211.112c.023 1.766.153 3.527.33 5.288.188 1.761.424 3.516.778 5.254.36 1.738.76 3.476 1.367 5.169.601 1.692 1.338 3.356 2.387 4.896.177.255.53.329.795.159a.54.54 0 0 0 .165-.767c-.005-.006-.011-.017-.017-.023l-.012-.011c-1.043-1.369-1.839-2.925-2.517-4.538-.683-1.614-1.166-3.306-1.62-5.005-.442-1.704-.772-3.436-1.055-5.174a67.855 67.855 0 0 1-.601-5.248zm-6.784 9.695c-.088.193-.27.46-.436.688a10.28 10.28 0 0 1-.577.67c-.224.204-.425.42-.66.613l-.72.557c-.253.17-.524.324-.783.488-.13.08-.26.165-.395.239l-.418.199-.843.403c-.289.119-.59.216-.884.324-2.375.835-4.927 1.227-7.49 1.34-.643.057-1.285.006-1.928.017-.642-.017-1.29.023-1.927-.039l-1.927-.148c-.642-.046-1.29-.085-1.927-.193l-1.915-.267c-.637-.097-1.285-.159-1.916-.301l-3.801-.756 3.772.892c.625.165 1.267.256 1.903.375l1.916.335c.636.131 1.278.193 1.927.261l1.939.216c.642.08 1.296.068 1.95.108.649.012 1.303.085 1.957.051 2.605-.022 5.24-.323 7.761-1.107 2.487-.83 4.986-2.056 6.489-4.527a.544.544 0 0 0-.206-.761.587.587 0 0 0-.79.198c-.012.017-.018.034-.03.052l-.04.073zm-17.526-11.803c-.277.318-.737.642-1.155.921l-.684.38c-.236.114-.483.21-.725.313-.236.113-.5.176-.754.255-.26.068-.507.176-.772.21-.53.085-1.055.233-1.597.245-.543.034-1.085.102-1.633.056-.548-.034-1.096 0-1.638-.108-.542-.079-1.09-.142-1.633-.238l-1.609-.386c-.542-.108-1.06-.313-1.585-.483-.524-.182-1.055-.335-1.573-.54l-1.527-.653c-.507-.222-1.031-.42-1.514-.687-.979-.523-1.986-.989-2.941-1.557l-2.853-1.715 2.776 1.835c.931.602 1.921 1.119 2.882 1.681.478.29.99.511 1.491.755l1.515.722c.512.227 1.043.409 1.567.613.53.193 1.044.426 1.598.557l1.632.46c.554.125 1.12.21 1.68.318.56.131 1.137.125 1.703.182.571.068 1.149.028 1.726.011.578.011 1.15-.119 1.727-.187.289-.029.566-.131.855-.193.283-.08.571-.131.843-.25.27-.108.553-.199.825-.318l.79-.398c.512-.318.995-.602 1.467-1.091a.54.54 0 0 0-.024-.783.592.592 0 0 0-.83.039l-.03.034zm8.474 5.084c.018-1.102-.117-2.101-.3-3.124-.171-1.017-.43-2.011-.713-2.993-.578-1.966-1.356-3.863-2.24-5.703l-.69-1.369c-.24-.449-.5-.892-.748-1.335-.483-.897-1.06-1.749-1.597-2.612-.554-.858-1.167-1.682-1.744-2.522l-1.874-2.426 1.756 2.505c.536.864 1.108 1.71 1.615 2.585.495.886 1.025 1.749 1.461 2.663.224.455.46.898.678 1.358l.613 1.38c.784 1.852 1.461 3.749 1.933 5.686.23.971.43 1.942.548 2.925.13.971.2 1.988.147 2.903v.039a.561.561 0 0 0 .543.585.567.567 0 0 0 .607-.522c.005-.006.005-.017.005-.023zm7.379 4.617c-.495-.84-.908-1.84-1.238-2.822a24.332 24.332 0 0 1-.783-3.045c-.177-1.034-.325-2.085-.378-3.141a30.129 30.129 0 0 1-.017-3.181c-.136 1.057-.248 2.113-.272 3.181a26.544 26.544 0 0 0 .095 3.209c.106 1.068.27 2.136.524 3.192.26 1.063.56 2.085 1.061 3.141a.586.586 0 0 0 .766.273.548.548 0 0 0 .26-.778l-.018-.029z"/><path fill="#E39F96" d="M35.578 207.596c-.536-.517-1.049-1.221-1.48-1.909a16.121 16.121 0 0 1-1.125-2.221c-.3-.778-.571-1.573-.766-2.385-.206-.812-.336-1.647-.442-2.482.012.84.047 1.692.16 2.533.1.846.282 1.681.5 2.51.236.824.53 1.642.902 2.431.383.796.79 1.545 1.408 2.295a.6.6 0 0 0 .814.091.55.55 0 0 0 .053-.829l-.024-.034zm12.4 8.366c-.148.153-.43.34-.672.494a7.066 7.066 0 0 1-.825.409c-.283.13-.59.216-.884.318-.313.074-.613.17-.931.221a13.703 13.703 0 0 1-3.896.148c-.66-.028-1.308-.17-1.962-.261a46.002 46.002 0 0 1-1.94-.438c-.636-.193-1.278-.369-1.909-.573l-1.88-.682 1.827.812c.62.25 1.25.472 1.874.71a53.35 53.35 0 0 0 1.933.58c.66.136 1.315.329 1.986.403 1.338.227 2.723.284 4.102.119.348-.034.69-.113 1.032-.17.335-.091.683-.165 1.02-.29.335-.113.665-.255.99-.409.33-.182.618-.329.96-.625a.541.541 0 0 0 .041-.783.591.591 0 0 0-.849-.006l-.017.023zm13.536 11.127a.5.5 0 0 1-.053.148c-.04.068-.07.142-.13.216a1.145 1.145 0 0 1-.176.21c-.065.068-.13.136-.206.199-.289.267-.672.466-1.055.653-.79.358-1.686.551-2.575.71-.902.131-1.822.21-2.747.227-.925.034-1.85-.005-2.782-.039.92.124 1.845.255 2.776.312a22.04 22.04 0 0 0 2.817.045c.943-.068 1.898-.176 2.84-.488.467-.171.932-.352 1.362-.665.112-.068.212-.153.313-.244.106-.085.2-.176.294-.284.095-.096.177-.221.26-.341.076-.142.147-.233.206-.471a.552.552 0 0 0-.466-.642.59.59 0 0 0-.678.454zm-17.096 10.173c2.145.671 4.379 1.063 6.618 1.335 2.246.261 4.509.386 6.772.358.566 0 1.131-.034 1.697-.051.566-.017 1.131-.04 1.697-.097l1.698-.136 1.685-.21c1.132-.119 2.24-.358 3.36-.545 1.113-.211 2.215-.495 3.323-.733a.554.554 0 0 0 .436-.665.575.575 0 0 0-.69-.42c-.005 0-.011.006-.023.006l-.041.011c-1.073.284-2.14.602-3.23.852-1.09.227-2.174.506-3.276.67l-1.65.279-1.662.204c-.554.08-1.114.125-1.668.165-.56.04-1.114.102-1.674.119a52.21 52.21 0 0 1-6.724-.079c-2.24-.182-4.473-.483-6.648-1.063z"/><path fill="#fff" d="M49.887 229.202a2.25 2.25 0 0 1 .755-.494c.442-.284.978-.432 1.367-.267a.774.774 0 0 1 .477.755c.148.114.165.392-.012.489a.204.204 0 0 1-.047.023c-.106.244-.324.454-.554.59a1.575 1.575 0 0 1-.907.216c-.383.108-.825.148-1.126-.142-.365-.341-.271-.835.047-1.17zm.071-24.396c.035-.023.083-.034.124-.045.212-.102.442-.102.618.085.39.409.413 1.193.148 1.766-.065.194-.16.381-.271.563-.118.187-.366.244-.572.182a.777.777 0 0 1-.17-.069 1.01 1.01 0 0 1-.248-.051c-1.061-.358-.295-2.05.371-2.431zm-17.81 9.697c.112-.006.218.005.324.034.372.022.749.153 1.008.38.477.21.472.96.118 1.284-.283.256-.701.318-1.073.267-.377-.051-.778-.21-1.007-.511a.962.962 0 0 1-.16-.341c-.224-.523.177-1.074.79-1.113zm-.36-15.058a.356.356 0 0 1-.105.017.47.47 0 0 1-.207.028c-.289-.011-.5-.221-.636-.471a.962.962 0 0 1-.2-.739.875.875 0 0 1 .04-.187c.024-.17.077-.341.166-.506.141-.255.512-.391.795-.284.153-.022.348.052.43.165.437.597.625 1.687-.282 1.977z"/><path fill="#FADBD7" d="M171.172 55.7s4.762 4.09 12.665 9.611c7.726 5.396 17.061 2.784 18.829-.88 0 .006-11.881-16.5-31.494-8.73zm13.938-12.131s-5.581 3.817-11.728-.432c-6.147-4.249-12.435-10.775-17.981-10.508 0 0 9.371-4.936 16.802-1.216 7.426 3.726 12.907 12.156 12.907 12.156zm-4.096-15.177s-9.046 1.857-15.565-4.845c-6.518-6.703-15.346-7.191-15.346-7.191s7.367-5.328 16.955-2.624c9.589 2.703 13.897 8.855 13.956 14.66zm8.793-1.755s-9.465-2.221-10.155-11.207c-.689-8.986-2.799-13.15-6.011-15.109 0 0 25.33 8.566 16.166 26.316z"/><path fill="#FEC6AD" d="M213.81 39.893s.248 5.073-2.44 10.224c-2.687 5.152-3.63 12.4 1.639 14.854 5.268 2.453 16.053-9.338.801-25.078z"/><path fill="#FADBD7" d="M213.81 39.893s.248 5.073-2.44 10.224c-2.687 5.152-3.63 12.4 1.639 14.854 5.268 2.453 16.053-9.338.801-25.078zm-9.942 5.811s-7.078-3.811-5.086-11.996 2.693-13.433-.241-17.415c0 0 22.612 15.211 5.327 29.411z"/><path fill="#E39F96" d="M221.796 80.693a205.31 205.31 0 0 1-14.581-14.995c-2.263-2.63-4.508-5.27-6.565-8.048-2.115-2.733-4.054-5.584-5.87-8.492-1.785-2.908-3.441-5.97-5.186-8.974-1.774-2.988-3.536-5.993-5.563-8.861-2.021-2.857-4.261-5.669-7.16-7.816-.702-.556-1.486-1.01-2.24-1.488-.389-.222-.795-.42-1.19-.63-.201-.103-.395-.21-.596-.307l-.618-.262c-1.627-.744-3.354-1.238-5.063-1.715 3.301 1.284 6.542 2.783 9.117 5.078.672.534 1.261 1.164 1.874 1.76.295.307.566.643.855.96.283.319.566.643.819.99.525.675 1.061 1.345 1.538 2.055l.737 1.051.701 1.085c1.845 2.902 3.566 5.89 5.233 8.912 1.692 3.016 3.318 6.049 5.134 9.07 3.724 5.942 8.126 11.446 12.953 16.54 4.821 5.107 10.019 9.879 15.671 14.087z"/><path fill="#E39F96" d="M186.86 60.575c1.833.255 3.654.602 5.457 1 1.803.403 3.589.857 5.339 1.42 1.745.567 3.483 1.17 5.122 1.959 1.638.778 3.212 1.675 4.561 2.795l.012.01a.597.597 0 0 0 .825-.062.547.547 0 0 0-.065-.795c-.006-.005-.017-.011-.023-.017-1.533-1.136-3.224-1.982-4.951-2.698-1.726-.721-3.518-1.244-5.316-1.727-1.797-.477-3.624-.84-5.451-1.158a66.798 66.798 0 0 0-5.51-.727zm11.068-4.8c2.705-1.273 4.184-3.607 5.239-5.97 1.019-2.397 1.532-4.936 1.756-7.475.082-.63.059-1.272.094-1.908.006-.636.071-1.273.036-1.903l-.077-1.903c-.024-.636-.041-1.267-.13-1.897l-.206-1.892c-.077-.63-.118-1.26-.247-1.88l-.643-3.743.501 3.76c.1.625.124 1.256.171 1.886l.136 1.886c.064.63.053 1.261.053 1.892l.006 1.885c.011.63-.077 1.256-.107 1.88-.059.625-.059 1.256-.165 1.875-.312 2.487-.919 4.941-1.974 7.19-.135.279-.259.563-.406.836l-.49.79-.241.391c-.089.125-.189.244-.283.37-.195.238-.371.488-.572.72l-.642.66c-.218.215-.466.397-.696.596-.241.187-.495.352-.742.511l-.389.216c-.118.051-.277.13-.365.159l-.048.017a.565.565 0 0 0-.383.71c.095.295.425.46.737.37l.077-.03zM187.19 37.656c.548-.426.884-.87 1.255-1.346l.477-.739c.142-.255.265-.517.395-.778.142-.255.224-.534.324-.8.089-.273.218-.535.271-.813.118-.557.301-1.102.33-1.67.059-.562.148-1.119.118-1.681-.017-.562.036-1.125-.059-1.676-.07-.55-.118-1.107-.2-1.658l-.36-1.625c-.094-.545-.3-1.068-.459-1.596-.177-.522-.324-1.056-.525-1.573l-.642-1.528c-.218-.506-.407-1.028-.678-1.511-.518-.977-.978-1.982-1.544-2.937l-1.709-2.84 1.579 2.909c.519.97.932 1.993 1.403 2.982.248.494.413 1.016.607 1.527l.566 1.54c.177.517.295 1.05.448 1.573.135.528.312 1.045.383 1.58l.277 1.595c.059.534.082 1.074.124 1.608.064.534-.006 1.068-.012 1.601.006.534-.106 1.057-.183 1.585-.053.528-.247 1.028-.377 1.54-.059.255-.189.488-.283.738-.106.238-.189.494-.324.716-.13.227-.248.46-.383.681l-.448.636c-.324.387-.701.807-1.049 1.051l-.03.023a.55.55 0 0 0-.129.784c.188.25.554.306.813.125.006-.012.018-.017.024-.023zm4.002 6.6c-.961-.017-2.022-.165-3.029-.363-1.02-.194-2.028-.466-3.024-.761-1.998-.608-3.931-1.41-5.816-2.318l-1.403-.704c-.46-.245-.914-.511-1.367-.761-.926-.495-1.792-1.08-2.682-1.625-.884-.562-1.721-1.181-2.587-1.772l-2.493-1.903 2.399 2.01c.837.626 1.65 1.29 2.51 1.892.867.591 1.709 1.216 2.617 1.755.448.279.89.563 1.344.83l1.385.772c1.862 1 3.789 1.903 5.804 2.619 1.008.346 2.034.676 3.083.92 1.06.255 2.092.46 3.247.528a.576.576 0 0 0 .619-.528.57.57 0 0 0-.548-.596h-.024l-.035.005zm4.915 7.719c-1.067-.568-2.116-.937-3.212-1.272a27.85 27.85 0 0 0-3.306-.755c-1.114-.165-2.234-.296-3.36-.336-1.119-.056-2.239-.028-3.359.023 1.12.04 2.228.108 3.33.262 1.102.13 2.192.352 3.265.607 1.066.273 2.115.597 3.135 1 1.002.398 2.021.869 2.864 1.42l.03.023c.265.176.63.108.813-.154a.55.55 0 0 0-.159-.783c-.012-.018-.03-.023-.041-.035z"/><path fill="#E39F96" d="M185.994 34.68c-.737-.66-1.491-1.114-2.293-1.551a17.518 17.518 0 0 0-2.481-1.068 20.683 20.683 0 0 0-2.593-.682c-.436-.097-.878-.142-1.32-.216-.442-.057-.884-.09-1.326-.136.436.09.866.17 1.296.273.425.119.855.204 1.273.352.843.25 1.656.573 2.446.926.784.369 1.538.79 2.246 1.26.695.472 1.39 1.023 1.891 1.585l.024.029a.602.602 0 0 0 .825.062.552.552 0 0 0 .065-.795c-.024-.011-.041-.029-.053-.04zm7.702 14.319c.336-.307.513-.58.725-.886a8.03 8.03 0 0 0 .507-.932c.153-.312.259-.648.383-.965.088-.33.2-.66.259-.995.277-1.334.324-2.686.189-4.004-.03-.664-.177-1.312-.271-1.965a42.345 42.345 0 0 0-.46-1.926c-.2-.63-.383-1.26-.601-1.88l-.707-1.84.571 1.88c.171.63.301 1.272.454 1.903.118.642.224 1.283.307 1.925.041.648.141 1.29.123 1.931a12.472 12.472 0 0 1-.453 3.778c-.077.306-.207.59-.301.891-.13.284-.247.574-.401.841a6.92 6.92 0 0 1-.495.773c-.177.221-.4.488-.571.619l-.018.011a.547.547 0 0 0-.094.79c.2.244.565.283.819.09a.248.248 0 0 1 .035-.04zm9.996 14.296c.253-.045.353-.102.507-.164.129-.069.265-.142.377-.227.118-.08.224-.17.324-.262.1-.09.2-.182.277-.29.353-.391.583-.834.801-1.272.401-.892.584-1.812.731-2.726.118-.92.171-1.835.165-2.75.006-.914-.059-1.823-.118-2.726-.041.91-.07 1.812-.171 2.715-.088.898-.241 1.79-.448 2.659-.229.857-.506 1.715-.937 2.453-.224.358-.465.716-.766.977-.07.074-.147.13-.224.188a1.182 1.182 0 0 1-.235.153c-.077.051-.16.08-.236.114a.634.634 0 0 1-.159.04c-.318.034-.554.306-.519.613.024.312.312.534.631.505zm11.857-16.988c.442 2.158.583 4.362.601 6.549a47.864 47.864 0 0 1-.43 6.554c-.065.546-.171 1.08-.254 1.625-.082.54-.177 1.079-.3 1.613l-.342 1.602-.419 1.584c-.253 1.063-.63 2.096-.948 3.141-.348 1.04-.767 2.05-1.144 3.079l-.012.034a.557.557 0 0 0 .354.716.591.591 0 0 0 .743-.341c0-.006.005-.017.005-.023.342-1.062.72-2.113 1.026-3.18.283-1.08.613-2.142.825-3.233l.354-1.624.277-1.642c.1-.545.171-1.096.229-1.647.059-.55.142-1.096.183-1.647.201-2.204.248-4.419.142-6.623-.112-2.198-.354-4.402-.89-6.537z"/><path fill="#fff" d="M206.685 51.015a2.316 2.316 0 0 0-.577.693c-.33.409-.525.92-.389 1.306.118.33.43.511.754.523.106.153.395.187.513.023.012-.017.018-.029.029-.046a1.42 1.42 0 0 0 .666-.494c.195-.261.301-.562.295-.863.141-.364.218-.79-.065-1.108-.33-.375-.854-.324-1.226-.034zm-25.583-1.8a.522.522 0 0 0-.059.119c-.124.199-.142.42.041.608.395.409 1.22.494 1.839.278a3 3 0 0 0 .607-.222c.206-.102.283-.34.235-.545-.011-.062-.035-.12-.058-.176a.89.89 0 0 0-.036-.244c-.283-1.051-2.116-.432-2.569.182zm12.747-17.285c.124.04.248.097.348.182.301.25.436.648.46 1.022.023.37-.077.773-.366 1.029-.359.323-1.149.267-1.332-.216-.218-.267-.324-.648-.324-1.011a.994.994 0 0 1-.012-.318c.095-.591.702-.943 1.226-.688zm-16.978-.812a.303.303 0 0 0 .029-.102.49.49 0 0 0 .048-.2c.011-.278-.195-.505-.442-.652a1.065 1.065 0 0 0-.755-.256c-.071 0-.135.011-.2.023a1.53 1.53 0 0 0-.542.119c-.283.12-.448.466-.36.75a.453.453 0 0 0 .142.431c.577.477 1.709.744 2.08-.113zm-10.667 139.331a14.69 14.69 0 0 1-2.364-2.499 11.397 11.397 0 0 1-2.204-5.919c-.064-1.062.006-2.13.189-3.175.183-1.022.371-2.033.53-3.05.643-4.067 1.197-8.168 1.138-12.252-.047-2.033-.242-4.073-.831-5.987-.295-.954-.701-1.863-1.25-2.675a6.811 6.811 0 0 0-2.103-1.982l-.024-.012a.548.548 0 0 1-.253-.335c-.077-.289.112-.585.412-.659 2.434-.579 4.909-.528 7.302.057a13.184 13.184 0 0 1 6.235 3.624c1.68 1.727 2.835 3.845 3.63 6.026.802 2.182 1.309 4.465 1.45 6.777.165 2.306-.018 4.618-.424 6.878-.413 2.261-1.061 4.465-1.792 6.634-.736 2.165-1.591 4.283-2.186 6.464-.289 1.091-.501 2.21-.454 3.329.006.335.053.67.13.994-2.888-.591-7.131-2.238-7.131-2.238zm-35.779-17.557a8.244 8.244 0 0 1 1.026 1.925c.442 1.182.666 2.437.731 3.692.117 2.517-.301 5.027-1.02 7.436-.348 1.204-.843 2.397-1.19 3.521-.313 1.159-.496 2.346-.49 3.533 0 1.193.183 2.38.519 3.522.336 1.13.825 2.277 1.456 3.22l.011.017c.083.12.112.273.077.426a.575.575 0 0 1-.689.415 40.536 40.536 0 0 1-8.947-3.118c-.719-.33-1.402-.727-2.092-1.114-.672-.414-1.349-.818-1.992-1.272-1.308-.875-2.516-1.891-3.653-2.959a27.143 27.143 0 0 1-5.517-7.441 26.922 26.922 0 0 1-1.685-4.266c-.383-1.306-.672-2.647-.796-3.993a23.987 23.987 0 0 1-5.05 2.931 30.004 30.004 0 0 1-5.64 1.812c-1.94.42-3.907.653-5.882.773a45.99 45.99 0 0 1-5.928-.052c-1.975-.147-3.925-.38-5.894-.806a.548.548 0 0 1-.436-.54v-.017c.13-4.3.99-8.599 2.664-12.615.896-1.982 1.945-3.908 3.27-5.657 1.332-1.744 2.853-3.352 4.574-4.743 1.844-1.494 3.872-2.744 6.011-3.783-2.44-.738-4.732-1.908-6.86-3.294-2.251-1.506-4.326-3.3-6.029-5.402-1.703-2.085-3.194-4.374-4.196-6.862-.607-1.204-.92-2.51-1.343-3.777l-.154-.477-.1-.488-.2-.977-.4-1.96a.519.519 0 0 1 .2-.511l.005-.006c1.238-.897 2.529-1.516 3.884-2.084l1.02-.398c.341-.125.695-.227 1.037-.341.69-.238 1.397-.409 2.104-.579 2.84-.653 5.77-.881 8.663-.778l2.169.153c.725.046 1.432.193 2.15.295 1.439.177 2.83.568 4.232.887.707.147 1.373.409 2.063.624l2.039.671c1.208.471 2.399.982 3.583 1.488v-.074c.047-1.988.354-3.987 1.002-5.896 1.273-3.823 3.719-7.213 6.695-9.963 2.999-2.749 6.447-4.998 10.295-6.56a.552.552 0 0 1 .619.136l.006.006c2.251 2.46 4.19 5.209 5.593 8.213 1.414 3 2.192 6.294 2.18 9.588 0 1.647-.176 3.289-.512 4.891.507-.392 1.013-.796 1.544-1.159.689-.443 1.361-.92 2.092-1.307 1.42-.84 2.952-1.499 4.52-2.056a26.918 26.918 0 0 1 4.886-1.124 27.616 27.616 0 0 1 5.038-.131c3.36.233 6.66 1.091 9.742 2.374 3.088 1.295 5.982 2.937 8.593 5.044a.54.54 0 0 1-.201.937l-.035.012c-2.328.664-4.603 1.823-6.583 3.254-1.957 1.477-3.683 3.272-4.862 5.391l-.896 1.624c-.159.273-.294.562-.477.824l-.548.784c-.766 1.016-1.639 1.976-2.699 2.72-1.892 1.38-4.208 2.238-6.554 2.306.973.852 1.88 1.772 2.694 2.766a26.733 26.733 0 0 1 3.565 5.709c.949 2.028 1.662 4.152 2.181 6.31.512 2.17.836 4.351.884 6.623a.534.534 0 0 1-.413.528l-.012.006a44.383 44.383 0 0 1-3.595.733c-1.202.204-2.404.38-3.612.522-2.417.29-4.851.461-7.29.495-3.53.039-7.108-.188-10.579-.921l-.566.364zm53.27 48.597a57.538 57.538 0 0 1-5.345-1.238c-1.756-.5-3.477-1.13-5.168-1.829a41.11 41.11 0 0 1-4.874-2.505l-.012-.005a.582.582 0 0 1-.253-.33.558.558 0 0 1 .412-.676c3.619-.897 7.261-1.278 10.932-1.38 3.666-.068 7.343.108 10.956.71 3.607.585 7.184 1.403 10.608 2.641 1.738.551 3.389 1.312 5.056 2.017.837.323 1.662.795 2.47 1.21.23.125.459.244.683.363-5.492 1.227-25.465 1.022-25.465 1.022zm-72.918-7.037c5.192 6.924-6.789 12.144-6.789 12.144s.548-1.505.63-3.726c-.053.034-.1.074-.153.108a12.513 12.513 0 0 1-4.608 3.169c-1.155.449-2.41.665-3.672.676l-.949-.045c-.312-.04-.618-.108-.93-.159a17.884 17.884 0 0 1-.885-.177c-.283-.056-.566-.125-.849-.176-2.268-.414-4.614-.471-6.883-.062-1.131.21-2.251.528-3.277 1.039-.86.421-1.656.989-2.28 1.733a9 9 0 0 0 .565.341 9.595 9.595 0 0 0 4.603 1.124h.035a.56.56 0 0 1 .336.108.51.51 0 0 1 .106.727c-.954 1.216-2.127 2.164-3.488 2.897-1.368.699-2.977 1.085-4.55.914-1.58-.153-3.035-.789-4.308-1.607-1.25-.835-2.387-1.92-3.094-3.283-.725-1.358-.849-2.988-.46-4.425.171-.653.43-1.278.749-1.863a13.659 13.659 0 0 1-2.534-2.471c-.507.222-1.026.443-1.544.659a.942.942 0 0 1 .1.222c.194.693-.63.988-1.332.96a2.435 2.435 0 0 1-.672-.029.256.256 0 0 1-.224-.21c-.018-.028-.041-.051-.047-.085-.212-.932 1.237-1.59 1.945-1.096.465-.296.943-.585 1.426-.875-.26-.352-.501-.716-.725-1.091a10.898 10.898 0 0 1-1.238-3.004c-1.143.136-2.286.261-3.435.38a.516.516 0 0 1-.142.659.635.635 0 0 1-.2.108c-.012.017-.024.04-.041.057-.578.591-1.945-.029-2.163-.704-.089-.273.047-.495.3-.62.654-.312 1.362.034 1.969.29 1.19-.199 2.398-.398 3.612-.591a9.063 9.063 0 0 1-.159-2.226 8.35 8.35 0 0 1 .442-2.181 44.972 44.972 0 0 1-5.103-2.085c-.018.415-.354.727-.82.739-.506.011-.978-.233-1.396-.495-.277-.17-.56-.454-.672-.755-.03-.034-.06-.068-.083-.102-.147-.21-.112-.546.124-.682.271-.165.613-.216.96-.199a2.34 2.34 0 0 1 .879.165c.294.119.577.307.73.585.006.011.006.023.012.034.1.131.177.273.224.432a54.385 54.385 0 0 0 5.298 1.954 9.318 9.318 0 0 1 1.703-2.772c-2.145-1.085-4.207-2.346-6.217-3.721a.612.612 0 0 1-.519.245c-1.084 0-2.216-.665-2.699-1.602-.153-.295-.006-.631.283-.784.047-.028.1-.045.148-.062a.806.806 0 0 1 .324-.154c.589-.125 1.208.307 1.626.659.372.313.914.795.943 1.312 0 .023-.006.04-.006.063 2.122 1.272 4.179 2.641 6.4 3.743 1.179-1.284 2.593-2.306 4.126-3.084a11.678 11.678 0 0 1-1.238-2.806c-1.25-4.09-.33-8.765 2.481-12.15 1.38-1.692 3.354-3.061 5.664-3.453a7.472 7.472 0 0 1 3.453.216c1.067.357 2.086.732 3.07 1.261 1.945 1.028 3.755 2.425 4.992 4.248.654.886 1.132 1.886 1.491 2.914.348 1.039.578 2.079.584 3.232a.498.498 0 0 1-.495.488h-.024c-2.063.04-4.16.222-6.211.54-.413.068-.825.142-1.238.222.536.335 1.12.573 1.72.778.861.289 1.751.488 2.647.67.896.165 1.797.324 2.71.426.908.125 1.822.21 2.735.278.926.091 1.81.108 2.782.199.955.097 1.91.25 2.823.54.919.272 1.809.653 2.617 1.153.795.505 1.555 1.107 2.056 1.885-.082-.073-.165-.13-.253-.198.082.085.159.17.236.261.088-.239.188-.477.324-.699 1.597-2.561.807-6.077.807-6.077 5.982 3.748 7.166 9.684 4.361 14.296l.454.733zm45.072 6.861c.012.012.024.023.03.034a.545.545 0 0 1-.218.762 162.13 162.13 0 0 1-11.54 5.759 120.184 120.184 0 0 1-5.958 2.505 73.868 73.868 0 0 1-6.129 2.119c-4.16 1.249-8.468 1.942-12.777 2.311a94.743 94.743 0 0 1-6.482.29 77.238 77.238 0 0 1-6.477-.17l1.02-.784c.501-.392 1.019-.79 1.544-1.13.866-.625 1.797-1.165 2.705-1.739a62.146 62.146 0 0 1 5.74-2.942 75.963 75.963 0 0 1 6.052-2.306 98.913 98.913 0 0 1 6.235-1.806c4.202-1.057 8.487-1.784 12.789-2.306 3.742-.443 7.49-.733 11.274-.807l2.192.21zM154.388 63.33c-1.114-.812-1.957-1.988-2.876-2.993-.531-.58-1.185-1.25-1.544-2-.018.028-.036.068-.059.091-.095.114-.289.125-.413.063a1.028 1.028 0 0 1-.389-.347 1.388 1.388 0 0 1-.247-.392c-.118-.267-.195-.636.017-.88.195-.233.548-.245.784-.057a.935.935 0 0 1 .195.227c.212.267.312.67.253.92a.259.259 0 0 1-.018.04c1.48 1.71 2.906 3.487 4.462 5.129.123.12-.024.301-.165.199z"/><path fill="#fff" d="M185.999 105.372a14.852 14.852 0 0 1-.907-2.789 14.745 14.745 0 0 1-.271-3.88c.076-1.294.394-2.567.813-3.788.412-1.227 1.002-2.385 1.685-3.476l1.014-1.602c.171-.261.295-.545.448-.818.153-.272.283-.55.407-.835.506-1.13.854-2.334.966-3.567a8.487 8.487 0 0 0-.024-1.857c-.076-.614-.2-1.238-.459-1.812 0 0 .165.108.448.318.436.307.89.608 1.367.937.613.45 1.131.96 1.703 1.437.289.233.536.506.784.778l.754.813c.266.261.478.562.696.863l.654.898a13.874 13.874 0 0 1 2.416 8.395c-.006.187 0 .374-.023.556l-.083.551c-.065.37-.106.739-.194 1.102-.23.71-.383 1.454-.737 2.124-.572 1.398-1.491 2.647-2.564 3.732l-.848.778c-.295.245-.625.449-.937.676-.643.472-1.244.784-1.81 1.221-.559.421-1.09.875-1.467 1.386-.2.25-.324.517-.395.762a.869.869 0 0 0 0 .477c.006.028.035.073.03.068.005.005.005.011.011.017l.024.034a.497.497 0 0 1 .1.21l-3.601-3.709zm-12.906-20.965c-.336 1.67-1.132 4.76-2.287 4.3-1.567-.625-2.062-4.311-2.062-4.311s-2.77 2.368-3.648.778c-.242-.437.082-.892.689-1.324a22.034 22.034 0 0 1-4.267-.5c-.389-.09-.783-.17-1.167-.278l-1.137-.374c-.383-.114-.748-.279-1.114-.438-.359-.17-.736-.307-1.084-.5-1.42-.727-2.717-1.67-3.872-2.738-1.161-1.073-2.11-2.334-2.9-3.674-.212-.33-.377-.676-.548-1.028a9.64 9.64 0 0 1-.471-1.063c-.307-.721-.531-1.397-.861-2.073-1.249-2.692-3.07-5.174-5.233-7.253l-.023-.023a.229.229 0 0 1 .005-.335c.814-.767 1.774-1.261 2.806-1.585 1.031-.324 2.121-.42 3.188-.352l.796.09c.265.035.518.109.783.16.525.09 1.02.295 1.521.454.495.188.961.426 1.444.636l1.108.631a32.588 32.588 0 0 1-.106-3.8.225.225 0 0 1-.224-.074c-1.709-1.925-3.477-4.01-4.532-6.367a.613.613 0 0 1-.448-.08c-.047-.028-.094-.073-.136-.113-.006 0-.012 0-.017-.006-.295-.12-.448-.443-.519-.721-.118-.455-.041-1.255.636-1.187.767.074 1.12 1.102.908 1.72a.59.59 0 0 1-.183.268c1.297 2.175 2.982 3.981 4.544 6.01.047-.858.142-1.716.271-2.568.012-.08.024-.148.03-.222.023-.125.035-.255.053-.38-1.026-1.04-1.721-2.352-2.464-3.584-.825-1.37-1.774-2.795-2.28-4.323-.549-.068-1.197-.483-1.409-.818a.43.43 0 0 1 0-.414c.012-.125.065-.256.2-.307.006-.006.018-.006.024-.006a.62.62 0 0 1 .413-.636c.341-.125.754-.011 1.072.13.354.165.719.438.813.83.083.324-.053.63-.318.818-.106.273-.318.392-.571.414.66 1.438 1.608 2.823 2.451 4.13.802 1.244 1.55 2.584 2.676 3.578a27.51 27.51 0 0 1 2.056.523c.089.023.183.034.272.057-.59-1.08-1.008-2.272-1.58-3.374-.46-.875-.919-1.755-1.379-2.63-.348.267-.825.114-1.12-.188-.288-.29-.489-.727-.471-1.136a.891.891 0 0 1 .389-.71.716.716 0 0 1 .141-.227c.242-.255.601-.204.855.012.465.403.731 1.368.436 1.953 1.462 1.87 2.74 4.22 3.212 6.402v.005c.489.12.978.25 1.461.392.319.091.637.194.955.296-.371-.79-.371-1.903-.548-2.687a27.02 27.02 0 0 0-.707-2.562.525.525 0 0 1-.413.029 1.186 1.186 0 0 1-.165-.091.656.656 0 0 1-.324-.244 2.242 2.242 0 0 1-.124-.199c-.194-.29-.312-.642-.259-.943a.925.925 0 0 1 .083-.37c.147-.289.394-.329.624-.249a.827.827 0 0 1 .778.437c.13.25.183.602.1.903 0 .131-.023.256-.064.381.465.875.801 1.8 1.043 2.772.218.858.689 2.084.489 3.005.342.113.678.232 1.013.357-.306-1.022-.418-2.09-.412-3.158.018-1.164.2-2.323.507-3.453.342-1.12.76-2.221 1.338-3.255.253-.534.607-1.01.907-1.522.336-.488.701-.954 1.049-1.431a.313.313 0 0 1 .171-.108.284.284 0 0 1 .342.21l.006.034c.406 1.698 1.284 3.34 2.357 4.777a15.307 15.307 0 0 0 1.821 2.01c.318.307.69.625 1.026.955.341.33.66.676.978 1.022 2.499 2.806 4.461 6.067 5.628 9.617.572 1.772.961 3.623 1.002 5.503.053 1.875-.206 3.772-.825 5.567a15.072 15.072 0 0 1-.867 1.965c.655.46-.96 2.488-.96 2.488s1.626 1.562 1.98 3.567c.306 1.732-3.76 1.056-4.868.84l-.483.966zm22.636 32.291a35.365 35.365 0 0 1-6.353 5.896c-2.563 1.829-5.475 3.254-8.575 4.095-3.094.875-6.382 1.068-9.594.738a27.346 27.346 0 0 1-4.738-.948c-1.55-.466-3.041-1.011-4.503-1.801a.562.562 0 0 1-.294-.46.566.566 0 0 1 .554-.579h.035c.666-.028 1.432-.153 2.145-.312.719-.171 1.438-.37 2.139-.62 1.409-.488 2.764-1.124 4.073-1.834 1.308-.722 2.546-1.557 3.742-2.448l1.762-1.403c.607-.5 1.285-.915 1.968-1.295 2.8-1.494 6.041-1.914 9.129-1.704 1.55.108 3.082.363 4.579.727a28.2 28.2 0 0 1 2.729.806l1.161 1.114m-40.959-53.046-.306-.153c.124.074.224.142.312.199 0-.017 0-.029-.006-.046zm7.432-7.287c.041.5.112 1 .23 1.488.035.011.064.028.1.04a13.919 13.919 0 0 1-.33-1.528z"/><path fill="#96551E" d="M112.675 129.7c-2.205-.068-4.42.102-6.607.403a45.242 45.242 0 0 0-6.483 1.398c-4.225 1.283-8.297 3.237-11.733 6.021-1.715 1.385-3.242 2.999-4.573 4.742-1.326 1.755-2.375 3.681-3.271 5.658-1.674 4.015-2.534 8.315-2.664 12.615v.017a.543.543 0 0 0 .436.54c1.969.426 3.913.658 5.894.806a45.82 45.82 0 0 0 5.928.051c1.974-.113 3.949-.352 5.882-.772a30.004 30.004 0 0 0 5.64-1.812c3.63-1.551 6.854-3.993 9.24-7.032 1.161-1.539 2.193-3.175 2.941-4.925.43-.852.719-1.76 1.049-2.646.307-.898.513-1.824.778-2.727-1.108 3.607-2.74 7.094-5.192 9.98a23.119 23.119 0 0 1-9.158 6.594c-3.548 1.432-7.385 2.159-11.233 2.341a44.9 44.9 0 0 1-5.787-.097c-1.915-.159-3.86-.409-5.699-.824l.436.557c.183-4.192.92-8.372 2.523-12.257.848-1.92 1.838-3.783 3.1-5.482a29.943 29.943 0 0 1 4.343-4.635c3.253-2.777 7.178-4.793 11.309-6.162a45.878 45.878 0 0 1 12.901-2.352z"/><path fill="#96551E" d="m111.714 129.711.1 1.744c.041.579.041 1.17.153 1.744l.277 1.732c.036.29.106.574.183.858l.224.852c.248 1.153.725 2.238 1.132 3.345.536 1.057 1.025 2.142 1.732 3.113a20.217 20.217 0 0 0 5.039 5.135c1.998 1.391 4.22 2.454 6.536 3.243 4.638 1.596 9.594 2.034 14.456 1.982a69.284 69.284 0 0 0 7.29-.494 70.593 70.593 0 0 0 3.613-.522 47.82 47.82 0 0 0 3.595-.733l.011-.006a.532.532 0 0 0 .413-.528c-.047-2.266-.371-4.447-.884-6.623a33.016 33.016 0 0 0-2.181-6.31 27.177 27.177 0 0 0-3.565-5.709c-1.426-1.755-3.135-3.294-5.015-4.583-3.76-2.602-8.245-4.084-12.765-4.647-4.538-.568-9.129-.358-13.608.352 4.508-.471 9.076-.562 13.525.177 2.228.306 4.403.92 6.495 1.675 2.092.767 4.048 1.852 5.84 3.124 3.577 2.562 6.359 6.083 8.139 10.025.901 1.966 1.573 4.027 2.062 6.129.478 2.096.778 4.271.808 6.373l.43-.534a70.66 70.66 0 0 1-14.221 1.795c-2.392.045-4.791-.04-7.166-.312-2.369-.284-4.715-.762-6.978-1.472-2.257-.715-4.431-1.692-6.394-2.993a19.639 19.639 0 0 1-4.992-4.856c-.724-.92-1.237-1.96-1.809-2.977-.436-1.073-.955-2.124-1.237-3.249-.719-2.209-.996-4.532-1.238-6.85zm-17.368 4.175a28.28 28.28 0 0 1-7.019-3.874c-2.133-1.585-4.066-3.419-5.651-5.498-.436-.494-.778-1.045-1.144-1.591-.353-.545-.76-1.062-1.043-1.647l-.93-1.71c-.29-.579-.514-1.187-.773-1.783-.554-1.176-.855-2.437-1.255-3.664l-.142-.46-.094-.477-.189-.948-.377-1.898-.206.517c1.06-.749 2.334-1.408 3.6-1.942l.967-.386c.325-.125.66-.222.99-.336.66-.238 1.338-.403 2.016-.573 2.717-.688 5.546-.937 8.368-.932l2.122.085c.707.023 1.409.154 2.11.216 1.42.108 2.8.432 4.196.688.707.102 1.385.323 2.074.494l2.069.545 4.055 1.358c-1.309-.557-2.617-1.125-3.949-1.648l-2.039-.67c-.684-.216-1.356-.477-2.063-.625-1.402-.323-2.793-.71-4.231-.886-.713-.096-1.426-.244-2.151-.295l-2.169-.154c-2.9-.102-5.823.131-8.663.779-.707.17-1.42.34-2.104.579-.348.114-.696.216-1.037.341l-1.02.397c-1.35.568-2.646 1.188-3.883 2.085l-.006.006a.497.497 0 0 0-.2.511l.4 1.959.2.977.1.489.154.477c.424 1.267.736 2.573 1.343 3.777 1.002 2.488 2.493 4.777 4.197 6.862 1.703 2.096 3.777 3.896 6.028 5.401 2.275 1.494 4.733 2.732 7.35 3.454z"/><path fill="#96551E" d="M126.707 123.145a25.483 25.483 0 0 0 3.058-3.862 29.425 29.425 0 0 0 2.34-4.328 24.12 24.12 0 0 0 2.009-9.577c.012-3.294-.766-6.589-2.18-9.588-1.409-3.004-3.347-5.753-5.593-8.213l-.006-.006a.554.554 0 0 0-.619-.136c-3.848 1.568-7.295 3.811-10.295 6.56-2.976 2.75-5.422 6.141-6.695 9.963-.648 1.903-.955 3.908-1.002 5.896-.065.994.053 1.988.106 2.982.165.977.254 1.971.525 2.931.937 3.857 2.646 7.486 4.809 10.803-1.922-3.447-3.471-7.105-4.208-10.922-.236-.943-.289-1.914-.424-2.869-.024-.965-.107-1.931-.018-2.891.1-1.92.454-3.828 1.126-5.634 1.284-3.63 3.63-6.862 6.535-9.492 2.906-2.624 6.341-4.77 9.954-6.316l-.625-.142c2.21 2.374 4.114 5.016 5.493 7.901.678 1.443 1.249 2.942 1.609 4.487.389 1.54.642 3.119.678 4.703.106 3.181-.513 6.373-1.662 9.384a29.605 29.605 0 0 1-4.915 8.366z"/><path fill="#96551E" d="M146.502 129.78c2.564.096 5.145-.807 7.214-2.312 1.061-.744 1.933-1.704 2.699-2.721l.548-.784c.183-.261.318-.551.477-.823l.896-1.625c1.179-2.124 2.906-3.913 4.862-5.39 1.98-1.432 4.255-2.59 6.583-3.255l.035-.011a.537.537 0 0 0 .201-.937c-2.611-2.113-5.51-3.749-8.593-5.044-3.082-1.284-6.376-2.142-9.741-2.374a27.627 27.627 0 0 0-5.039.13 26.415 26.415 0 0 0-4.886 1.125c-1.567.556-3.1 1.215-4.52 2.056-.731.381-1.403.858-2.092 1.306-.678.461-1.303.989-1.957 1.477 2.694-1.846 5.628-3.362 8.764-4.26 1.561-.454 3.17-.733 4.785-.903a26.147 26.147 0 0 1 4.862.023c3.236.278 6.388 1.193 9.371 2.431a37.683 37.683 0 0 1 4.325 2.175c1.385.813 2.752 1.71 3.966 2.693l.236-.943c-2.575.738-4.868 1.971-6.942 3.527-2.039 1.585-3.795 3.539-4.962 5.805l-.843 1.664c-.142.267-.259.551-.419.807l-.489.767c-.683.999-1.479 1.942-2.445 2.715-1.892 1.556-4.344 2.556-6.896 2.681zm-35.43.096s-2.588 1.823-2.163 2.897c.43 1.073 3.005-.42 3.005-.42s-.224 3.771.631 3.391c.855-.381 1.815-2.562 1.815-2.562s1.839 1.863 2.416.903c.578-.96.142-3.601.142-3.601s2.905.142 3.2-.67c.295-.813-1.638-2.295-1.638-2.295s2.887-1.5 2.451-2.357c-.43-.852-2.87-.404-2.87-.404s1.185-1.704.625-2.391-2.976 1.676-2.976 1.676-.737-1.886-1.533-1.846c-.789.039-.548 3.408-.548 3.408s-1.267-2.369-2.151-2.068c-.884.301.572 3.936.572 3.936s-3.56-.488-3.872.614c-.301 1.107 2.894 1.789 2.894 1.789zm.218 20.846c-.572 2.84.66 6.072 1.638 8.719 1.273 3.448 3.347 6.435 5.534 9.395.017.028.071.005.053-.023-1.391-2.908-3.412-5.43-4.674-8.441-1.131-2.698-2.652-6.6-2.05-9.525.064-.318-.437-.443-.501-.125zm4.732-6.373c-.236 5.589 1.373 11.553 3.159 16.818 1.42 4.192 3.3 8.753 6.618 11.894.018.017.047-.005.029-.022-3.194-4.045-5.233-8.725-6.694-13.587-1.444-4.811-2.77-10.071-2.576-15.109.018-.335-.524-.323-.536.006zm5.063 4.385c-.419 4.822 2.233 10.054 4.319 14.285.024.046.101.023.077-.023-1.697-4.294-4.32-9.559-3.86-14.268.035-.335-.507-.329-.536.006z"/><path fill="#96551E" d="M113.011 131.148c2.87 4.765 6.541 9.054 11.321 12.144 4.331 2.794 9.959 5.367 15.269 5.021.03 0 .024-.04 0-.04-5.669-.125-12.116-3.357-16.566-6.663-3.978-2.953-6.754-6.776-9.594-10.701-.177-.244-.595-.034-.43.239zm4.655-4.521c10.885-.176 20.698 3.272 28.371 10.866.029.034.088-.017.059-.051-6.389-8.094-18.087-12.366-28.465-11.054-.159.017-.118.239.035.239zm-3.064 3.016c11.097 5.402 21.982 11.672 33.827 15.506.059.018.107-.062.048-.09-5.905-2.539-11.634-5.43-17.48-8.1a205.71 205.71 0 0 1-8.616-4.164c-2.452-1.255-4.939-2.879-7.579-3.714-.342-.108-.507.414-.2.562zm-33.516-14.194c4.815 3.26 10.92 4.856 16.278 7.139 4.85 2.068 10.089 4.391 15.358 5.175.306.045.448-.386.129-.466-10.908-2.658-21.375-7.702-31.718-11.917-.04-.017-.082.04-.047.069zm10.608 11.825c5.823 2.92 14.227 3.295 20.55 1.914.148-.034.165-.278-.005-.278-3.307-.023-6.571.455-9.895.296-3.678-.171-7.12-.989-10.638-1.971-.017-.006-.03.028-.012.039zm-.943-15.437c4.544 1.408 8.522 3.214 12.199 6.202 3.053 2.482 6.324 4.947 8.493 8.202.106.159.395.102.353-.114-.342-1.573-1.467-2.618-2.658-3.703-1.997-1.817-4.072-3.624-6.211-5.282-3.495-2.704-7.632-4.913-12.135-5.442-.076-.005-.123.108-.04.137zm19.413 20.584c-3.677 3.096-6.824 7.066-10.213 10.474-3.901 3.919-8.48 6.981-12.7 10.542-.018.017.006.04.023.029 8.858-5.561 16.608-12.809 23.279-20.681.218-.261-.124-.585-.389-.364zm1.697 2.8c-2.434 9.338-8.875 15.58-17.29 20.3-.083.046.005.154.082.114 8.516-4.283 15.953-10.809 17.815-20.295.077-.38-.506-.494-.607-.119zm-12.8.579c-3.424 1.71-7.025 3.522-9.264 6.652-.03.039.023.09.065.051 5.498-5.533 13.619-8.429 21.021-10.622.183-.057.071-.29-.088-.284-4.191.165-8.104 2.386-11.734 4.203zm20.957-37.578c-7.62 6.429-9.011 17.994-5.74 26.855.041.113.2.056.2-.046-.006-2.51-1.02-4.896-1.078-7.446-.059-2.732.159-5.482.595-8.18.613-3.811 3.365-8.258 6.123-11.081.053-.057-.041-.16-.1-.102zm2.881 2.794c-1.779 3.794-3.088 7.589-4.219 11.604-1.12 3.965-2.646 7.856-2.293 12.025.012.17.301.159.307-.012.224-4.305 1.503-8.264 2.64-12.393 1.037-3.766 2.793-7.418 3.642-11.201.006-.04-.059-.063-.077-.023zm4.155.795c.448 3.834.354 7.833-.901 11.531-.766 2.261-2.022 4.055-3.454 5.964-1.184 1.585-2.829 2.505-4.119 3.93-.083.091.041.228.147.182 8.068-3.499 9.636-14.188 8.516-21.629-.018-.114-.2-.097-.189.022zm12.989 13.644c-5.286 1.539-8.61 3.589-12.629 7.196-.236.21.106.625.365.432 3.566-2.755 6.495-5.033 10.927-6.447 5.834-1.863 11.886-2.516 17.886-3.641.1-.017.094-.17-.018-.159-5.528.494-11.191 1.062-16.531 2.619zm14.333 1.09c-3.572 5.18-8.163 7.753-14.392 9.094-.283.062-.177.437.094.409 5.894-.625 12.017-4.056 14.457-9.412.041-.091-.1-.176-.159-.091zm-15.211-5.226c-2.805.852-5.516 2.233-7.755 4.062-.301.244.029.749.335.505 2.381-1.903 5.151-3.374 8.121-4.231 2.711-.784 5.517-.608 8.286-1.046.16-.022.124-.255-.035-.238-3.07.341-5.952.034-8.952.948z"/><path fill="#96551E" d="M101.63 117.698c1.297 2.448 3.365 4.317 5.452 6.152 1.897 1.675 3.972 3.328 6.471 4.072.247.074.347-.267.117-.363-4.502-1.926-9.37-5.822-11.969-9.912-.029-.04-.094.006-.071.051zm-6.565 8.998c-.035.005-.035.062 0 .062 5.652-.414 11.705.739 17.215 1.772.171.034.236-.244.065-.289-5.293-1.392-11.817-2.471-17.28-1.545zm7.697 8.98c-2.292 1.618-4.856 3.129-6.4 5.481-.053.085.059.181.13.102 3.825-4.43 10.519-8.446 16.118-10.224.124-.04.071-.239-.059-.21-3.683.812-6.765 2.715-9.789 4.851z"/><path fill="#96551E" d="M110.96 131.859c-.831 2.771-2.039 5.39-3.855 7.702-1.809 2.3-4.202 4.123-6.282 6.191-.047.045.03.108.077.062 4.62-4.157 9.028-7.605 10.513-13.836.077-.284-.365-.409-.453-.119zm-.012-23.959c-.802 3.522-.501 7.338.442 10.809.713 2.607 1.509 5.765 3.206 7.963.112.142.371-.017.277-.17-3.33-5.345-4.45-12.507-3.884-18.602 0-.023-.035-.023-.041 0zm4.986 16.972c.059.182.395.079.33-.102-1.815-5.448-.996-13.388 1.609-18.5.005-.012-.012-.023-.018-.012-3.047 5.141-3.819 12.979-1.921 18.614z"/><path fill="#96551E" d="M100.428 145.553a.599.599 0 0 0-.153.114c-.248.272-.165.641-.024.942.077.177.313.296.508.205.188-.091.336-.205.454-.335.006-.006.012 0 .017-.006a.319.319 0 0 0 .112-.125c-.041.074-.023.068.054-.023a.59.59 0 0 0 .106-.159.483.483 0 0 0 .006-.34 1.43 1.43 0 0 0-.036-.517c-.041-.171-.277-.256-.436-.199-.289.097-.478.233-.608.443zm-4.266-5.203a2.937 2.937 0 0 0-.85 1.255c-.07.222.06.528.337.534.059 0 .118-.017.177-.023a.43.43 0 0 0 .17-.011.08.08 0 0 1 .036-.011c.017-.006.035-.017.053-.023.088-.034.17-.068.247-.114.018-.011.036-.017.053-.028.118-.074.224-.165.307-.273.018-.005.023-.005.041-.011a.647.647 0 0 0 .13-.085.566.566 0 0 0 .153-.233.473.473 0 0 0-.047-.369 1.2 1.2 0 0 0-.012-.358c-.059-.352-.536-.483-.795-.25zm-1.48-14.132c-.218.04-.395.244-.3.466a.837.837 0 0 0 .176.267.473.473 0 0 0 .254.284c.07.034.147.051.224.074.112.09.23.164.383.193.253.045.471-.069.648-.239.13-.119.212-.318.124-.483-.153-.284-.371-.562-.73-.596a.751.751 0 0 0-.301.04 1.335 1.335 0 0 0-.478-.006zm6.035-8.872c-.177.108-.2.375-.077.528.442.534 1.097.631 1.757.472.212-.052.3-.353.165-.512a1.683 1.683 0 0 0-.578-.46c-.035-.034-.059-.074-.106-.108-.371-.255-.807-.142-1.161.08zm9.518-9.758c-.142.511.012 1.085.548 1.317.53.228 1.102-.045 1.355-.516.101-.188.101-.398-.047-.563-.271-.295-.648-.596-1.084-.534-.047-.017-.089-.034-.136-.045a.518.518 0 0 0-.636.341zm6.571-.716c0 .057.006.119.023.17.006.04.006.08.018.125.059.205.248.387.489.341.242-.051.43-.159.59-.295.453-.182.819-.517.931-1.017.059-.261-.089-.591-.413-.585-.766 0-1.65.483-1.638 1.261zm12.382 45.026c2.587 2.147 5.315 4.101 8.097 5.986a139.823 139.823 0 0 0 8.581 5.334c5.846 3.374 11.957 6.327 18.251 8.895a158.139 158.139 0 0 0 9.607 3.476c3.259 1.017 6.547 1.965 9.883 2.738 6.671 1.584 13.501 2.584 20.391 3.039 1.125.073 2.104-.75 2.18-1.835.077-1.085-.778-2.028-1.903-2.102-.03 0-.053-.005-.083-.005h-.029c-6.648-.159-13.308-.841-19.867-2.113-3.282-.614-6.53-1.409-9.765-2.267a152.023 152.023 0 0 1-9.571-3.01c-6.3-2.261-12.458-4.919-18.393-8.015a140.343 140.343 0 0 1-8.734-4.93c-2.84-1.749-5.652-3.584-8.292-5.589l-.006-.006a.283.283 0 0 0-.389.046c-.088.102-.07.267.042.358z"/><path fill="#96551E" d="M174.449 174.782a25.832 25.832 0 0 1-5.682-2.829c-1.744-1.176-3.323-2.596-4.473-4.294-1.155-1.693-1.85-3.652-1.939-5.657a13.132 13.132 0 0 1 .254-2.999c.206-1.011.418-2.034.613-3.05.772-4.079 1.355-8.214 1.332-12.406-.03-2.09-.213-4.208-.825-6.27-.313-1.028-.743-2.039-1.362-2.965a7.917 7.917 0 0 0-2.446-2.335l-.141 1.006a14.958 14.958 0 0 1 6.695.051 12.02 12.02 0 0 1 5.734 3.277c1.562 1.585 2.676 3.561 3.454 5.646a25.017 25.017 0 0 1 1.485 6.509c.218 2.221.094 4.47-.248 6.691-.353 2.221-.931 4.414-1.609 6.578-.654 2.175-1.42 4.328-1.933 6.56-.247 1.113-.418 2.266-.324 3.414a4.763 4.763 0 0 0 1.415 3.073zm0 0a4.685 4.685 0 0 1-1.238-3.084c-.047-1.119.165-2.238.454-3.329.595-2.181 1.45-4.3 2.186-6.464.731-2.164 1.379-4.368 1.792-6.634.406-2.261.589-4.572.424-6.879-.135-2.306-.648-4.589-1.45-6.776-.795-2.181-1.956-4.294-3.63-6.026-1.656-1.738-3.854-3.016-6.235-3.624-2.393-.591-4.862-.636-7.302-.057a.546.546 0 0 0-.413.659.55.55 0 0 0 .254.335l.023.011a6.749 6.749 0 0 1 2.104 1.983c.548.812.949 1.727 1.25 2.675.589 1.909.789 3.953.831 5.987.053 4.084-.495 8.185-1.138 12.252-.165 1.016-.353 2.033-.53 3.05a13.667 13.667 0 0 0-.189 3.175 11.339 11.339 0 0 0 2.204 5.918c1.273 1.727 2.947 3.113 4.762 4.238a23.99 23.99 0 0 0 5.841 2.59z"/><path fill="#96551E" d="M174.449 174.782c-1.845-1.006-3.536-2.244-4.98-3.698-1.45-1.443-2.652-3.107-3.418-4.942a12.184 12.184 0 0 1-.89-5.77c.07-.977.3-1.937.501-2.96.2-1.005.383-2.016.554-3.033.618-4.055 1.025-8.202.436-12.331-.295-2.051-.89-4.112-2.028-5.907-1.143-1.784-2.946-3.187-5.015-3.698a9.04 9.04 0 0 1 2.658 1.602 8.655 8.655 0 0 1 1.862 2.374c.967 1.761 1.415 3.749 1.621 5.737.194 1.993.189 4.016.035 6.026a66.876 66.876 0 0 1-.719 6.027c-.159.999-.33 2.005-.524 2.999-.094.505-.201.982-.283 1.511l-.124.784-.071.789c-.123 2.113.224 4.271 1.156 6.191.895 1.931 2.269 3.607 3.86 4.993 1.609 1.358 3.406 2.528 5.369 3.306z"/><path fill="#96551E" d="M173.865 174.055c-1.627-1.204-2.941-2.766-3.748-4.538-.861-1.75-1.22-3.686-1.167-5.601.041-.477.035-.96.106-1.437l.224-1.425.583-2.92c.366-1.954.655-3.93.855-5.918.336-3.959.295-8.089-1.132-11.934a13.94 13.94 0 0 0-1.367-2.744 11.85 11.85 0 0 0-1.974-2.368 12.01 12.01 0 0 0-2.505-1.795c-.89-.523-1.868-.869-2.84-1.181 1.862.817 3.624 1.88 4.932 3.356a11.53 11.53 0 0 1 1.721 2.358c.478.846.878 1.732 1.167 2.652.595 1.841.902 3.766.99 5.709.112 1.942.03 3.896-.153 5.844-.171 1.949-.454 3.897-.778 5.839l-.501 2.92-.194 1.511c-.053.505-.03 1.016-.042 1.528-.011.511.077 1.016.112 1.522.059.505.189 1.005.289 1.499.295.977.637 1.943 1.161 2.823a11.608 11.608 0 0 0 1.845 2.431c.719.733 1.514 1.386 2.416 1.869z"/><path fill="#96551E" d="M173.865 174.055c-1.196-1.675-1.774-3.669-1.951-5.646-.182-1.988.083-3.981.59-5.907.147-.477.259-.96.436-1.431l.518-1.409c.384-.96.719-1.954.991-2.954a29.14 29.14 0 0 0 .913-6.123 26.566 26.566 0 0 0-.489-6.179c-.448-2.028-1.143-4.028-2.263-5.822-.572-.887-1.191-1.75-1.945-2.5-.76-.738-1.568-1.442-2.487-1.982a13.958 13.958 0 0 0-2.894-1.329c-.996-.358-2.05-.545-3.088-.693 2.039.505 4.014 1.261 5.652 2.476 1.668 1.176 2.994 2.733 3.966 4.459.489.869.872 1.784 1.214 2.715.324.937.566 1.903.76 2.874.36 1.954.496 3.948.407 5.936a29.107 29.107 0 0 1-.819 5.913c-.236.971-.525 1.92-.872 2.863l-.495 1.476c-.159.495-.254 1.006-.383 1.506-.448 2.022-.602 4.123-.271 6.174.17 1.022.465 2.022.866 2.97.401.955.931 1.858 1.644 2.613zm-67.732-18.09c.082 1.51.412 3.004.837 4.47a26.35 26.35 0 0 0 1.685 4.265 27.024 27.024 0 0 0 5.516 7.441c1.138 1.074 2.346 2.085 3.654 2.959.643.455 1.32.858 1.992 1.273.69.38 1.373.784 2.092 1.113a40.804 40.804 0 0 0 8.946 3.118.571.571 0 0 0 .69-.414.538.538 0 0 0-.077-.426l-.011-.017c-.631-.943-1.12-2.091-1.456-3.227a12.546 12.546 0 0 1-.519-3.521c0-1.193.177-2.38.489-3.533.348-1.125.837-2.318 1.191-3.522.719-2.408 1.137-4.919 1.019-7.435-.064-1.255-.294-2.51-.73-3.692-.436-1.181-1.132-2.283-2.081-3.118.873.914 1.456 2.039 1.816 3.203.353 1.176.495 2.397.483 3.619a21.025 21.025 0 0 1-.377 3.635c-.224 1.204-.566 2.38-.943 3.544-.383 1.17-.884 2.266-1.309 3.499a14.299 14.299 0 0 0-.607 3.794 12.907 12.907 0 0 0 .495 3.817c.366 1.244.843 2.42 1.597 3.567l.607-.852c-3.005-.71-5.946-1.681-8.704-3.01-2.764-1.318-5.333-3.005-7.579-5.038a27.894 27.894 0 0 1-5.64-7.044c-1.497-2.624-2.593-5.481-3.076-8.468zM155.03 55.962c-.519 2.795-.524 5.67-.218 8.51.342 2.834 1.09 5.657 2.422 8.247a19.833 19.833 0 0 0 5.552 6.77c2.339 1.84 5.109 3.118 7.967 3.976l.012.006a.565.565 0 0 0 .601-.182c1.079-1.34 1.886-2.766 2.517-4.305.624-1.528 1.043-3.147 1.178-4.8.124-1.653-.082-3.323-.536-4.913l-.406-1.176c-.13-.392-.354-.75-.525-1.125-.324-.766-.831-1.437-1.285-2.13-1.013-1.317-2.163-2.539-3.506-3.527-.643-.534-1.368-.949-2.057-1.409-.731-.397-1.438-.829-2.204-1.164-1.497-.721-3.065-1.284-4.656-1.75-1.591-.465-3.212-.834-4.856-1.028zm0 0c3.23.694 6.377 1.744 9.235 3.29.731.357 1.403.806 2.098 1.22.648.472 1.338.898 1.933 1.438 1.267.982 2.322 2.18 3.235 3.447.407.67.861 1.307 1.155 2.028.154.358.36.693.472 1.062l.359 1.102c.395 1.488.543 3.027.425 4.561-.277 3.05-1.58 6.055-3.466 8.475l.613-.176c-2.752-.807-5.374-2.028-7.632-3.72a19.735 19.735 0 0 1-5.439-6.345c-1.35-2.46-2.198-5.17-2.67-7.935a31.693 31.693 0 0 1-.318-8.447z"/><path fill="#96551E" d="M162.456 58.092c-.313-1.119-.377-2.283-.307-3.425.065-1.147.289-2.277.631-3.374.377-1.084.825-2.147 1.432-3.13.265-.51.636-.965.943-1.448.342-.466.719-.903 1.072-1.357l-.524-.13c.401 1.868 1.261 3.543 2.351 5.083a16.314 16.314 0 0 0 1.851 2.147c.342.34.672.642.99.965.318.324.619.665.919 1.006a28.384 28.384 0 0 1 3.106 4.459c.89 1.573 1.656 3.214 2.187 4.918 1.102 3.391 1.29 7.089.1 10.429-1.191 3.34-3.689 6.112-6.63 8.253l.241-.102c-3.011.522-6.117.602-9.075-.034-.366-.086-.743-.154-1.108-.25l-1.079-.347c-.365-.102-.707-.255-1.049-.409-.342-.159-.701-.278-1.025-.466-1.344-.675-2.564-1.55-3.666-2.544-1.114-.989-2.045-2.164-2.829-3.414-.206-.307-.377-.636-.548-.96a9.625 9.625 0 0 1-.471-.994c-.301-.664-.578-1.414-.925-2.09a23.382 23.382 0 0 0-2.44-3.913c-.937-1.227-1.957-2.38-3.147-3.414l.023.363c.672-.681 1.586-1.22 2.54-1.55.961-.341 2.004-.477 3.035-.45 1.038.03 2.063.274 3.059.575.495.159.972.375 1.462.562l1.396.704-1.361-.778c-.477-.21-.949-.449-1.444-.636-.501-.16-.996-.364-1.52-.455-.26-.05-.519-.124-.784-.159l-.796-.09c-1.067-.069-2.157.028-3.188.352-1.032.324-1.992.823-2.805 1.585a.228.228 0 0 0-.006.335l.023.022c2.163 2.08 3.99 4.561 5.234 7.254.33.676.554 1.352.86 2.073.141.363.289.721.471 1.062.171.347.342.699.549 1.028.789 1.34 1.744 2.602 2.899 3.675 1.161 1.068 2.452 2.01 3.872 2.738.348.199.725.33 1.084.5.366.164.731.33 1.114.437l1.138.375c.383.108.778.182 1.166.278 3.13.699 6.383.636 9.506.114a.608.608 0 0 0 .242-.102c1.544-1.114 2.994-2.38 4.202-3.857 1.208-1.471 2.181-3.141 2.811-4.93.619-1.795.878-3.692.825-5.567-.041-1.88-.43-3.726-1.002-5.504-1.167-3.55-3.129-6.81-5.628-9.616a22.886 22.886 0 0 0-.978-1.022c-.336-.335-.701-.653-1.026-.954a15.384 15.384 0 0 1-1.821-2.011c-1.078-1.432-1.95-3.073-2.357-4.777l-.006-.034a.288.288 0 0 0-.342-.21.32.32 0 0 0-.171.108c-.353.477-.719.948-1.049 1.43-.3.512-.654.99-.907 1.523-.578 1.034-.996 2.136-1.338 3.255a14.354 14.354 0 0 0-.507 3.453c.024 1.176.154 2.346.525 3.442z"/><path fill="#96551E" d="M159.326 77.637c-3.365-3.073-4.779-6.833-6.506-10.832-.018-.045-.094-.028-.077.023 1.403 4.788 3.242 9.117 7.42 12.314 1.674 1.284 4.461 2.687 7.113 3.38-7.184-.398-13.89-5.8-15.611-12.576-.012-.04-.065-.022-.059.017 1.214 7.14 9.689 14.291 17.468 12.911.784.097 1.532.114 2.204.011.159-.022.189-.29.006-.295-3.913-.085-9.235-2.465-11.958-4.953z"/><path fill="#96551E" d="M160.434 67.651c.13 3.869 1.88 7.68 4.444 10.633 1.373 1.58 3.789 4.414 6.182 4.118.182-.022.188-.284.006-.312-5.852-.966-9.925-9.503-10.508-14.439-.012-.079-.13-.079-.124 0z"/><path fill="#96551E" d="M167.317 64.698c3.607 4.078 4.479 11.258 4.049 16.642-4.821-4.14-6.866-11.723-8.657-17.438-.03-.085-.159-.045-.136.04 1.362 6.01 3.507 13.808 8.557 17.966a.313.313 0 0 0 .177.068c-.017.154-.029.318-.047.466-.029.25.389.347.46.097.801-3.01.324-6.192-.324-9.19-.613-2.84-1.468-6.874-3.99-8.737-.065-.045-.142.029-.089.086z"/><path fill="#96551E" d="M167.495 58.405c-.083-.034-.154.08-.071.12 4.243 2.277 7.231 6.537 7.691 11.212.401 4.055-1.444 7.514-2.906 11.16-.064.165.171.273.26.12 2.333-4.044 3.972-8.685 2.722-13.308-1.055-3.914-3.801-7.634-7.696-9.304z"/><path fill="#96551E" d="M173.282 60.154c2.569 3.101 3.111 7.066 3.094 10.928-.012 2.142-.389 4.135-1.208 6.129-.749 1.823-1.981 3.17-2.87 4.868-.077.147.159.295.259.153 2.658-3.715 4.449-6.861 4.308-11.57-.112-3.806-.725-7.702-3.524-10.56-.042-.045-.095.012-.059.052zm-23.55-2.544c.165 1.039 1.078 1.965 1.78 2.726.919 1 1.762 2.18 2.876 2.993a.129.129 0 0 0 .17-.193c-1.673-1.772-3.2-3.698-4.808-5.532-.006-.012-.018 0-.018.005zm-.324-5.42c.937 2.852 3.005 5.3 4.997 7.544.207.233.554-.069.372-.313-1.851-2.43-3.896-4.515-5.275-7.264-.029-.052-.112-.018-.094.034zm6.335 3.83c-1.202-1.006-1.968-2.41-2.805-3.699-.843-1.306-1.792-2.697-2.452-4.129a.62.62 0 0 0 .572-.414c.265-.188.401-.5.318-.818-.094-.387-.459-.665-.813-.83-.312-.147-.731-.255-1.073-.13a.62.62 0 0 0-.412.636c-.006 0-.018.005-.024.005-.135.052-.188.177-.2.307-.065.13-.071.301 0 .415.212.335.86.75 1.408.818.507 1.528 1.456 2.953 2.281 4.322.819 1.358 1.574 2.818 2.782 3.897.277.244.695-.148.418-.38zm-1.403-6.805c.643 1.312 1.35 2.601 2.022 3.896.613 1.17 1.031 2.454 1.691 3.584.1.17.419.12.372-.102-.56-2.584-2.258-5.424-4.049-7.4-.018-.018-.047 0-.036.022zm4.768 1.488a26.78 26.78 0 0 1 1.185 3.89c.218.96.159 2.426.854 3.17.036.034.112.023.13-.023.401-.937-.165-2.34-.407-3.294-.341-1.358-.848-2.636-1.667-3.789-.03-.034-.112-.005-.095.046z"/><path fill="#96551E" d="M149.668 56.814a.574.574 0 0 0-.785.057c-.212.244-.135.613-.017.88.059.13.141.273.247.392.095.136.219.256.39.347.123.068.318.05.412-.063a.836.836 0 0 0 .177-.403c.006-.023.024-.04.03-.063.059-.25-.047-.647-.254-.92a1.568 1.568 0 0 0-.2-.227zm-.29-5.555c-.671-.063-.754.733-.636 1.187.071.279.23.602.519.721.005 0 .011 0 .017.006.047.04.089.08.136.114.347.21.736.068.86-.307.224-.62-.129-1.647-.896-1.721zm5.393-3.022c.513.443.79 1.58.33 2.13-.348.415-.908.256-1.238-.08-.288-.289-.489-.726-.471-1.135a.891.891 0 0 1 .389-.71.697.697 0 0 1 .141-.227c.242-.245.601-.193.849.022zm4.243 1.727c-.236-.08-.477-.04-.625.25a.834.834 0 0 0-.082.37c-.053.306.059.652.259.942.041.074.083.142.124.199a.72.72 0 0 0 .324.244c.053.034.106.068.165.091.177.068.448.017.554-.153a1.14 1.14 0 0 0 .165-.608 1.347 1.347 0 0 0-.1-.903.838.838 0 0 0-.784-.432zm12.458 31.649c-.683.159-7.254 1.97-6.376 3.561.878 1.59 3.648-.778 3.648-.778s.495 3.68 2.063 4.31c1.567.626 2.469-5.321 2.469-5.321s5.498 1.215 5.145-.79c-.354-2.005-1.98-3.567-1.98-3.567s2.098-2.635.542-2.579c-1.55.057-5.511 5.164-5.511 5.164z"/><path fill="#96551E" d="M214.889 143.105c.017-.5-.018-.869-.059-1.29a13.14 13.14 0 0 0-.177-1.198 20.355 20.355 0 0 0-.583-2.318 28.145 28.145 0 0 0-1.798-4.379c-1.432-2.811-3.235-5.402-5.245-7.821-1.998-2.42-4.261-4.641-6.553-6.748l-6.837-6.356c-4.514-4.26-8.946-8.617-12.594-13.558-1.815-2.471-3.435-5.078-4.714-7.839a39.768 39.768 0 0 1-2.888-8.622.33.33 0 0 0-.389-.25.32.32 0 0 0-.259.37 40.582 40.582 0 0 0 2.793 8.815c1.261 2.834 2.87 5.51 4.674 8.048 3.624 5.078 8.038 9.543 12.493 13.888l6.736 6.464c2.258 2.141 4.403 4.322 6.318 6.708 1.91 2.374 3.613 4.907 4.927 7.6a26 26 0 0 1 1.627 4.146c.206.71.377 1.42.5 2.136.065.358.106.716.142 1.068.029.34.047.738.035.999v.046a.902.902 0 0 0 .872.931c.507.023.943-.352.967-.84.012.011.012.005.012 0z"/><path fill="#96551E" d="M189.659 80.954c.26.579.383 1.198.46 1.812.077.619.082 1.238.024 1.857-.112 1.232-.46 2.437-.967 3.567a8.364 8.364 0 0 1-.407.835c-.153.272-.277.556-.448.818l-1.013 1.602c-.684 1.09-1.273 2.249-1.686 3.476-.418 1.22-.73 2.488-.813 3.788a14.581 14.581 0 0 0 .271 3.88 15.43 15.43 0 0 0 1.326 3.669c.589 1.17 1.344 2.238 2.145 3.272l.89-.71c.03.034-.017-.029-.023-.063-.018-.04-.024-.091-.03-.136a.858.858 0 0 1 .03-.341c.07-.244.194-.511.395-.761.377-.511.907-.966 1.467-1.386.566-.437 1.167-.75 1.809-1.221.313-.227.643-.426.937-.676l.849-.778c1.073-1.085 1.986-2.335 2.564-3.732.353-.67.506-1.414.736-2.124.083-.364.13-.739.189-1.102l.082-.551c.024-.182.012-.375.024-.557a13.888 13.888 0 0 0-2.416-8.395l-.655-.897c-.218-.301-.43-.602-.695-.864l-.754-.812c-.248-.273-.495-.545-.784-.778-.572-.477-1.085-.988-1.703-1.437-.625-.449-1.244-.835-1.804-1.255zm0 0c.619.465 1.173.96 1.709 1.403.543.454 1.043 1.01 1.568 1.505.271.244.495.528.725.812l.684.84c.241.268.43.574.618.881l.584.903c1.491 2.431 2.186 5.277 1.986 8.037-.012.17-.006.347-.036.517l-.1.511c-.07.341-.112.682-.194 1.017-.23.653-.383 1.335-.719 1.943-.548 1.278-1.426 2.385-2.399 3.374l-.778.704c-.271.221-.571.403-.86.608-.542.403-1.261.784-1.862 1.238-.613.46-1.22.954-1.715 1.619-.248.324-.46.715-.578 1.164a1.867 1.867 0 0 0 .047 1.113c.053.137.094.233.236.409.194.245.56.284.807.097a.544.544 0 0 0 .106-.773l-.023-.034c-.76-.971-1.485-1.982-2.039-3.067-.548-1.09-1.008-2.221-1.285-3.402a13.631 13.631 0 0 1 .324-7.191c.354-1.176.878-2.3 1.479-3.385l.943-1.659c.289-.574.584-1.147.79-1.755.448-1.198.725-2.465.76-3.737.036-1.278-.188-2.573-.778-3.692z"/><path fill="#96551E" d="M189.011 109.184a10.598 10.598 0 0 1-2.363-6.884c0-.608.106-1.204.188-1.801.053-.295.147-.59.218-.88l.112-.437.159-.426.319-.858c.117-.278.265-.551.4-.83a27.49 27.49 0 0 1 .878-1.675c1.173-2.272 2.299-4.63 2.77-7.202.236-1.278.26-2.624-.07-3.902a7.159 7.159 0 0 0-1.957-3.329c.731 1.057 1.238 2.227 1.391 3.437.177 1.21.029 2.43-.26 3.618-.618 2.374-1.744 4.64-2.917 6.867-.294.556-.589 1.107-.866 1.715-.136.301-.289.59-.413.892l-.324.931-.153.466-.106.489c-.065.323-.147.642-.195.965l-.094.983c-.035.329.006.659.006.988.106 2.619 1.291 5.192 3.277 6.873z"/><path fill="#96551E" d="M188.81 108.661c-1.049-2.209-1.167-4.686-.548-6.918.301-1.125.819-2.187 1.438-3.18.613-.972 1.379-2.012 2.015-3.062.625-1.08 1.203-2.193 1.621-3.386.401-1.192.66-2.465.566-3.737-.065-1.272-.46-2.505-1.026-3.613-.577-1.107-1.308-2.113-2.127-3.033 1.226 2.108 2.293 4.346 2.239 6.669-.029 2.311-1.072 4.493-2.286 6.537-.318.511-.619 1.028-.961 1.522-.33.489-.672 1.023-1.002 1.568-.607 1.102-1.149 2.266-1.367 3.516-.507 2.465-.047 5.135 1.438 7.117z"/><path fill="#96551E" d="M188.822 108.411c-.029-1.17.23-2.312.666-3.368.418-1.062 1.049-2.028 1.786-2.903.194-.21.383-.426.577-.636l.619-.602c.43-.42.89-.84 1.285-1.306.807-.926 1.508-1.949 2.033-3.067.501-1.13.819-2.335.913-3.562.101-1.227-.082-2.46-.412-3.624-.701-2.328-2.051-4.39-3.719-6.094 1.285 1.988 2.346 4.095 2.835 6.305a10.242 10.242 0 0 1-.678 6.52c-.459 1.017-1.096 1.965-1.821 2.846-.353.454-.754.858-1.155 1.284l-.631.675c-.194.239-.377.483-.565.727-.725.989-1.291 2.091-1.603 3.261-.313 1.17-.413 2.397-.13 3.544zm7.349 7.776c-1.402-.613-2.87-1.079-4.367-1.443a28.232 28.232 0 0 0-4.579-.727c-3.082-.216-6.329.21-9.129 1.704-.689.381-1.361.796-1.968 1.295l-1.762 1.403c-1.196.892-2.44 1.727-3.742 2.448-1.315.71-2.664 1.347-4.073 1.835-.701.25-1.42.449-2.139.619-.713.165-1.479.284-2.145.313h-.035a.565.565 0 0 0-.554.579.551.551 0 0 0 .294.46c1.462.795 2.953 1.34 4.503 1.801a27.44 27.44 0 0 0 4.738.948c3.206.33 6.494.136 9.594-.738 3.106-.841 6.011-2.267 8.575-4.096a35.095 35.095 0 0 0 6.789-6.401zm0 0c-2.151 2.232-4.502 4.294-7.131 5.947a27.648 27.648 0 0 1-8.48 3.698 25.457 25.457 0 0 1-9.223.528 26.714 26.714 0 0 1-4.532-.937c-1.468-.443-2.941-1.011-4.238-1.71l-.294 1.045c.866-.04 1.62-.176 2.398-.358a20.398 20.398 0 0 0 2.263-.664 25.99 25.99 0 0 0 4.244-1.954c1.343-.773 2.61-1.659 3.824-2.596l1.757-1.454c.548-.483 1.161-.88 1.791-1.255 2.564-1.454 5.634-1.994 8.652-1.914 3.041.056 6.076.658 8.969 1.624z"/><path fill="#96551E" d="M162.267 124.196c2.811 1.085 5.899 1.431 8.934 1.431 3.053-.005 6.088-.477 9.035-1.221 1.45-.448 2.923-.846 4.314-1.442l1.055-.421a9.837 9.837 0 0 0 1.037-.454 82.851 82.851 0 0 0 2.027-1c.684-.318 1.326-.704 1.969-1.096l1.921-1.165a86.194 86.194 0 0 0 3.607-2.641c-1.332.699-2.599 1.466-3.908 2.17l-1.992.994c-.66.329-1.314.687-2.003.954-.684.29-1.362.58-2.04.881a9.999 9.999 0 0 1-1.031.409l-1.043.375c-1.373.55-2.805.931-4.226 1.351-2.864.744-5.793 1.25-8.751 1.432-2.959.164-5.964.079-8.905-.557z"/><path fill="#96551E" d="M162.886 124.15c2.811.676 5.828.574 8.669-.153a17.767 17.767 0 0 0 4.102-1.591c.336-.153.642-.352.954-.55l.92-.586c.589-.38 1.161-.789 1.768-1.147 2.369-1.494 4.885-2.789 7.585-3.539a19.702 19.702 0 0 1 4.16-.687c1.421-.102 2.858-.045 4.302-.011-1.414-.284-2.846-.489-4.308-.545a17.731 17.731 0 0 0-4.378.391c-1.444.302-2.829.801-4.173 1.381-1.32.613-2.605 1.3-3.825 2.067-.618.375-1.196.801-1.797 1.199l-.872.568c-.289.187-.578.38-.884.539-1.185.716-2.487 1.227-3.813 1.676a22.596 22.596 0 0 1-8.41.988zm-55.38 69.33s-4.072 1.795-3.2 5.822c.872 4.027-.318 7.299-.318 7.299s12.694-5.527 6.294-12.752c2.911-4.629 1.756-10.644-4.285-14.427 0 0 .784 3.516-.807 6.078-1.597 2.55.36 6.691 2.316 7.98z"/><path fill="#96551E" d="M105.455 201.785c-1.726 1.584-3.73 2.857-5.91 3.538-1.097.318-2.217.483-3.336.438l-.837-.063c-.277-.04-.548-.102-.825-.153-.266-.046-.56-.114-.86-.182-.301-.063-.596-.142-.897-.199a20.877 20.877 0 0 0-3.66-.301c-1.225.04-2.457.176-3.641.489-1.185.301-2.34.761-3.365 1.42-1.008.664-1.916 1.55-2.334 2.646.654-.971 1.597-1.669 2.628-2.169 1.026-.512 2.145-.83 3.277-1.04 2.269-.414 4.614-.352 6.883.063.283.045.566.119.849.176.277.062.566.119.884.176.312.051.619.119.931.159l.949.045c1.261-.011 2.516-.227 3.671-.676a12.655 12.655 0 0 0 5.593-4.367z"/><path fill="#96551E" d="M79.283 197.173c-1.214 1.153-2.186 2.561-2.764 4.146-.265.795-.46 1.642-.424 2.499.047.852.206 1.727.613 2.499.73 1.568 1.98 2.892 3.512 3.795.76.46 1.603.778 2.463 1.011.873.227 1.727.363 2.682.358l-.471-.835c-.843 1.005-1.94 1.919-3.142 2.539-1.214.607-2.563.897-3.901.778-1.338-.12-2.623-.653-3.784-1.392-1.149-.75-2.18-1.687-2.81-2.84-.637-1.147-.802-2.493-.513-3.788.288-1.295.948-2.534 1.809-3.619 1.727-2.186 4.131-3.879 6.73-5.151zm0 0a19.383 19.383 0 0 0-3.913 1.937c-1.232.783-2.381 1.709-3.348 2.817-.972 1.096-1.762 2.385-2.145 3.839-.389 1.438-.27 3.068.46 4.425.707 1.369 1.845 2.454 3.094 3.283 1.267.818 2.729 1.449 4.308 1.608 1.573.17 3.182-.21 4.55-.915 1.361-.733 2.534-1.681 3.489-2.897a.5.5 0 0 0-.107-.727.568.568 0 0 0-.336-.108H85.3a9.527 9.527 0 0 1-4.603-1.124c-1.402-.756-2.58-1.92-3.318-3.306-.777-1.369-.866-3.022-.453-4.567.43-1.545 1.29-2.993 2.357-4.265zm25.595-11.042c-.501-.778-1.256-1.38-2.057-1.886a10.81 10.81 0 0 0-2.617-1.153c-.92-.29-1.874-.443-2.823-.54-.978-.09-1.856-.107-2.781-.198a44.735 44.735 0 0 1-2.735-.279 38.64 38.64 0 0 1-2.71-.426c-.897-.181-1.786-.38-2.647-.67-.86-.284-1.697-.647-2.387-1.267.49.79 1.326 1.335 2.157 1.773a15.41 15.41 0 0 0 2.652 1.016c1.821.54 3.695.813 5.575.977 1.91.142 3.713.063 5.47.46.878.182 1.75.432 2.575.79.831.352 1.638.795 2.328 1.403z"/><path fill="#96551E" d="M79.56 191.737a15.334 15.334 0 0 1-1.573-2.624c-.43-.914-.755-1.886-.843-2.868-.094-.977.1-1.977.654-2.761a3.83 3.83 0 0 1 1.025-1.022c.207-.142.39-.301.613-.42l.66-.364c.92-.432 1.88-.795 2.882-1.045.99-.278 2.01-.477 3.041-.642a46.67 46.67 0 0 1 6.212-.54h.023a.494.494 0 0 0 .495-.488c0-1.153-.235-2.192-.583-3.232-.36-1.028-.837-2.022-1.491-2.914-1.238-1.823-3.047-3.226-4.992-4.248-.978-.529-2.004-.904-3.07-1.261a7.314 7.314 0 0 0-3.454-.216c-2.31.392-4.284 1.766-5.663 3.453-2.811 3.38-3.73 8.054-2.481 12.15.583 2.062 1.791 3.913 3.282 5.436 1.497 1.522 3.318 2.72 5.263 3.606zm0 0c-1.862-1.039-3.589-2.306-4.962-3.873-.336-.398-.684-.784-.96-1.222-.142-.215-.307-.414-.437-.636l-.377-.67c-.265-.437-.448-.92-.66-1.38-.16-.483-.36-.949-.466-1.449-1.03-3.913-.011-8.258 2.617-11.326 1.297-1.533 3.082-2.692 5.033-3.021a6.141 6.141 0 0 1 2.923.204c.96.324 1.95.704 2.852 1.187 1.816.949 3.477 2.221 4.609 3.874.601.807 1.031 1.71 1.385 2.636.33.92.56 1.936.578 2.862l.512-.488a43.145 43.145 0 0 0-6.353.687c-2.092.392-4.184.943-6.088 1.96l-.695.414c-.23.137-.436.324-.654.489a4.21 4.21 0 0 0-1.102 1.204c-.584.937-.72 2.062-.566 3.09.153 1.039.548 2.011 1.031 2.919a14.392 14.392 0 0 0 1.78 2.539zm-.277 5.436c2.216-.943 4.514-1.608 6.824-2.17a62.757 62.757 0 0 1 7.037-1.221c1.185-.108 2.37-.256 3.566-.295.595-.035 1.19-.086 1.785-.103a89.26 89.26 0 0 0 1.792-.034l.896-.023.895.018 1.804.017c1.202.022 2.404.113 3.618.113a61.764 61.764 0 0 0-3.571-.67c-1.202-.119-2.411-.318-3.63-.341-2.434-.165-4.874-.04-7.302.193-2.422.307-4.827.767-7.149 1.5-2.304.738-4.579 1.664-6.565 3.016z"/><path fill="#96551E" d="M79.56 191.737c.153.608.524 1.125.96 1.568a5.23 5.23 0 0 0 1.544 1.062c.578.25 1.197.437 1.827.477a4.6 4.6 0 0 0 1.863-.204c-.584-.273-1.132-.443-1.656-.659-.53-.188-1.032-.42-1.533-.631-.5-.221-.984-.471-1.479-.738-.5-.267-.99-.551-1.526-.875zm-8.61 12.399c-1.25-1.448-2.322-3.004-3.112-4.657-.778-1.653-1.255-3.425-1.131-5.181.035-.88.253-1.738.583-2.561.141-.421.365-.812.566-1.216.247-.38.46-.784.742-1.147 1.073-1.488 2.458-2.8 3.937-4.039-1.75.852-3.37 2.011-4.661 3.505-1.315 1.471-2.193 3.385-2.328 5.39-.112 2.005.489 3.976 1.49 5.646a13.632 13.632 0 0 0 3.914 4.26z"/><path fill="#96551E" d="M59.7 183.808c6.028 4.368 12.434 7.935 20.096 8.679.365.034.436-.511.07-.546-3.447-.323-6.936-1.312-10.124-2.624-3.578-1.471-6.595-3.8-9.972-5.606-.07-.034-.135.051-.07.097zm-.937 5.078c7.09 3.936 15.982 6.015 24.127 5.68.353-.018.283-.54-.07-.523-8.063.295-16.815-1.812-24.004-5.26-.06-.028-.112.068-.053.103zm6.747 13.495c-.07.046.006.142.077.114 4.838-1.948 8.97-4.271 14.18-5.356.223-.046.153-.404-.077-.381-4.933.443-10.143 2.903-14.18 5.623zm-4.59-4.981c3.512-.301 6.977-.847 10.495-1.085 3.99-.267 8.392.085 12.264-.824.142-.034.106-.221-.023-.233-7.496-.641-15.405.767-22.766 1.983-.106.022-.07.17.03.159z"/><path fill="#96551E" d="M64.379 202.949c.006.04.03.057.047.086a.258.258 0 0 0 .224.21c.212.039.448.051.672.028.701.028 1.526-.261 1.332-.96-.348-1.221-2.535-.494-2.275.636zm-4.573-5.566c.212.676 1.585 1.295 2.162.704.018-.017.03-.04.042-.057.064-.028.135-.056.2-.107.283-.216.3-.693-.07-.841-.625-.25-1.356-.636-2.034-.313-.253.114-.389.336-.3.614zm-1.78-8.708c-.236.142-.277.477-.124.682.023.034.053.068.082.102.112.301.395.585.672.755.419.256.89.506 1.397.495.548-.012.925-.438.802-.96a1.39 1.39 0 0 0-.242-.483c-.006-.011-.006-.023-.012-.034-.153-.279-.436-.466-.73-.585a2.315 2.315 0 0 0-.879-.165c-.353-.023-.69.028-.966.193zm.807-5.725c-.047.017-.1.034-.147.062-.289.154-.436.489-.283.784.477.937 1.615 1.602 2.7 1.602.394 0 .653-.244.63-.631-.03-.516-.572-.999-.943-1.312-.419-.352-1.038-.783-1.627-.658a.831.831 0 0 0-.33.153zm170.206 14.712c-4.91.948-9.86 1.721-14.84 2.306-4.986.545-9.983.971-15.004 1.21-10.031.482-20.102.403-30.145-.103-10.048-.5-20.072-1.42-30.056-2.686-9.977-1.278-19.931-2.84-29.755-4.908h-.006a.329.329 0 0 0-.389.239.318.318 0 0 0 .248.375c9.841 2.181 19.783 3.851 29.773 5.242 9.989 1.375 20.031 2.403 30.109 3.016 10.077.614 20.19.807 30.297.426 5.051-.181 10.102-.556 15.134-1.056a202.912 202.912 0 0 0 15.028-2.17.966.966 0 0 0 .796-1.125c-.1-.522-.625-.863-1.167-.766h-.023z"/><path fill="#96551E" d="M210.846 201.331c-3.601.42-7.22.63-10.838.624a89.111 89.111 0 0 1-10.803-.59c-3.571-.443-7.113-1.102-10.537-2.13a49.62 49.62 0 0 1-5.021-1.818 39.381 39.381 0 0 1-4.703-2.448l-.147 1.011c1.691-.443 3.489-.738 5.257-.977a65.628 65.628 0 0 1 5.38-.415c3.595-.13 7.214.023 10.785.517 3.566.5 7.125 1.193 10.555 2.295 1.75.466 3.418 1.142 5.115 1.767.873.295 1.627.687 2.452 1.039.819.346 1.668.721 2.505 1.125zm0 0a76.87 76.87 0 0 1-2.364-1.227c-.807-.415-1.638-.886-2.469-1.21-1.668-.704-3.318-1.466-5.056-2.017-3.424-1.238-6.996-2.061-10.608-2.641-3.613-.602-7.29-.784-10.956-.71-3.672.103-7.314.483-10.932 1.381a.55.55 0 0 0-.413.675c.042.142.13.262.254.33l.012.006a42.089 42.089 0 0 0 4.873 2.504c1.686.699 3.407 1.33 5.169 1.829a60.368 60.368 0 0 0 10.761 1.983c3.63.346 7.284.42 10.914.267 3.625-.182 7.255-.5 10.815-1.17z"/><path fill="#96551E" d="M210.846 201.331c-3.53-.5-7.054-.977-10.579-1.409l-10.578-1.329a599.432 599.432 0 0 1-10.555-1.397 280.938 280.938 0 0 1-5.263-.796l-2.628-.437a96.053 96.053 0 0 0-2.617-.517c3.359 1.17 6.854 1.954 10.349 2.619 1.744.357 3.512.613 5.268.908 1.763.262 3.525.512 5.293.739 3.536.437 7.078.812 10.631 1.079 3.554.284 7.113.471 10.679.54zm-104.554 13.592c2.151.153 4.314.199 6.477.17a91.116 91.116 0 0 0 6.483-.29c4.308-.369 8.622-1.062 12.776-2.311a71.728 71.728 0 0 0 6.129-2.119 120.622 120.622 0 0 0 5.959-2.505 161.686 161.686 0 0 0 11.539-5.759.549.549 0 0 0 .218-.761.588.588 0 0 0-.507-.284c-4.373.005-8.687.329-13.001.84-4.302.523-8.586 1.25-12.788 2.306a98.72 98.72 0 0 0-6.235 1.806 78.378 78.378 0 0 0-6.053 2.307 63.673 63.673 0 0 0-5.74 2.942c-.907.568-1.833 1.113-2.705 1.738-.878.585-1.733 1.306-2.552 1.92zm0 0c.908-.636 1.739-1.221 2.664-1.772.89-.585 1.833-1.091 2.758-1.619a63.854 63.854 0 0 1 5.817-2.693 81.493 81.493 0 0 1 6.052-2.141 93.323 93.323 0 0 1 6.218-1.641c4.19-.915 8.427-1.665 12.7-2.13 4.267-.472 8.581-.756 12.853-.733l-.289-1.045a162.693 162.693 0 0 1-11.403 5.805c-3.878 1.789-7.85 3.396-11.905 4.725-4.054 1.33-8.292 2.108-12.564 2.585-4.267.505-8.587.698-12.901.659z"/><path fill="#96551E" d="M155.36 201.626a1088.1 1088.1 0 0 0-12.211 3.612l-12.187 3.624a511.005 511.005 0 0 1-12.235 3.442l-3.076.784-3.094.721c-1.032.256-2.075.426-3.112.642-.519.12-1.043.171-1.573.239l-1.58.227c4.273-.057 8.504-.852 12.659-1.761 4.161-.926 8.268-2.033 12.352-3.215 4.073-1.215 8.127-2.488 12.135-3.873a219.792 219.792 0 0 0 11.922-4.442z"/><path fill="#FEC6AD" d="M71.616 144.565s-3.813-1.278-3.583-1.96c.23-.681 2.498-.556 3.907.352 0 0-.978-3.158.277-3.141 1.255.017 1.102 2.84 1.102 2.84s3.471-2.238 4.114-.846c.642 1.392-2.193 2.442-2.193 2.442s3.613 1.369 2.835 2.363-4.172-.869-4.172-.869 2.292 2.073.718 2.568c-1.573.494-2.693-2.471-2.693-2.471s-1.768 1.755-2.581 1.249c-.813-.505 2.269-2.527 2.269-2.527z"/><path fill="#fff" d="M187.002 163.121s-2.21 3.437-1.267 3.863c.942.426 2.139-3.056 2.139-3.056s.843 3.329 1.921 3.056c1.079-.273 0-3.863 0-3.863s2.87.926 3 0c.124-.925-3-1.772-3-1.772s1.739-.954 1.951-2.198c.212-1.244-3.395 1.534-3.395 1.534s-.666-2.482-1.355-2.63c-.69-.148 0 3.289 0 3.289s-2.134-2.096-2.729-1.318c-.601.778 1.462 2.505 1.462 2.505s-2.664.568-2.422 1.386c.241.823 3.695-.796 3.695-.796z"/><path fill="#96551E" d="M142.583 98.937s2.381 2.204 3.554 1.829c1.173-.375-2.292-2.658-2.292-2.658s3.094-.08 3.235-1.147c.136-1.068-3.259-.597-3.259-.597s1.185-2.289.825-2.942c-.359-.653-2.475 2.641-2.475 2.641s-.525-2.306-1.568-2.584c-1.043-.278.183 2.8.183 2.8s-2.281-1.448-2.953-.54c-.666.91 2.193 1.903 2.193 1.903s-2.558 1.187-2.411 1.681c.148.495 3.065-.034 3.065-.034s.359 2.539 1.208 2.579c.843.046.695-2.93.695-2.93zm9.53-2.964c.053.028.1.062.153.102.218.034.43.136.589.3.442.45.383 1.063-.035 1.466a.63.63 0 0 1-.418.278c-.49.216-1.114.188-1.462-.25-.33-.414-.277-1.09-.029-1.538a.879.879 0 0 1 1.202-.358z"/><path fill="#FEC6AD" d="M154.028 92.366c.195.227.242.489.1.755a1.217 1.217 0 0 1-1.055.67c-.029.018-.059.04-.088.052a.416.416 0 0 1-.2.034.384.384 0 0 1-.195-.034c.012.108-.047.125-.177.051a1.016 1.016 0 0 1-.194-.085 1.3 1.3 0 0 1-.218-.176.888.888 0 0 1-.236-.438c-.077-.346.065-.71.324-.954.548-.528 1.45-.449 1.939.125z"/><path fill="#FADBD7" d="M150.156 93.934c.154.306-.082.59-.383.67a2.07 2.07 0 0 1-.648.08c-.46-.018-.613-.722-.165-.881l.053-.017c.024-.034.047-.068.077-.102.029-.023.176-.154.212-.17a.585.585 0 0 1 .312-.052c.277.046.436.256.542.472z"/><path fill="#fff" d="M194.527 155.038a.798.798 0 0 1-.289.114 1.34 1.34 0 0 1-.395.136c-.283.046-.483-.051-.648-.267-.236-.306-.36-.704-.271-1.045 0-.045.006-.096.018-.142.241-.755 1.107-.829 1.608-.341.042.029.095.046.13.08.448.392.336 1.147-.153 1.465zm-2.663-3.47c-.023.25-.324.449-.566.33.012.005.006 0-.006-.006-.018-.011-.035-.017-.053-.029.012.012.03.018.041.023-.006 0-.006 0-.011-.005-.03-.006-.054-.023-.083-.035a.495.495 0 0 1-.23.074c-.153.006-.171-.091-.277-.147-.006.017-.006.028-.012.045a.393.393 0 0 1-.153-.142c-.142-.204-.106-.471.006-.682.176-.335.589-.545.961-.352.336.193.419.58.383.926z"/><path fill="#96551E" d="M194.916 151.176c-.03.119-.177.25-.307.255a1.961 1.961 0 0 1-.453-.005c-.519.102-1.026-.551-.548-.943.129-.108.259-.193.412-.261.336-.148.69-.046.819.306.077.205.136.387.077.648z"/><path fill="#fff" d="M144.628 171.607a.616.616 0 0 1-.229.273c-.089.244-.26.46-.507.596-.13.074-.336.08-.46-.011a2.112 2.112 0 0 1-.507-.5c-.247-.182-.395-.483-.3-.812a.73.73 0 0 1 .07-.171c.006-.028.006-.051.012-.079.13-.46.584-.784 1.085-.665.554.137 1.06.824.836 1.369z"/><path fill="#96551E" d="M148.058 171.652c.047.085.083.171.106.261a.43.43 0 0 1-.135.432 1.252 1.252 0 0 1-.236.159 1.105 1.105 0 0 1-.212.148.828.828 0 0 1-1.185-.54 1.266 1.266 0 0 1-.082-.187c-.053-.148.023-.318.129-.426.018-.017.042-.04.065-.057a.807.807 0 0 1 .631-.386c.383-.029.807.233.919.596z"/><path fill="#FEC6AD" d="M146.426 168.579c.177.108.324.29.43.455a.415.415 0 0 1-.012.443c-.218.318-.577.613-.996.483-.342-.108-.542-.426-.571-.762-.03-.329.17-.658.536-.687a.496.496 0 0 1 .183.017.593.593 0 0 1 .43.051z"/><path fill="#fff" d="M191.71 213.173c-.212.381-.783.477-1.19.347-.513-.159-.737-.693-.631-1.182.112-.5.548-.903 1.091-.914.412-.012.948.17 1.208.494.395.5 0 .988-.478 1.255z"/><path fill="#96551E" d="M193.973 216.031c-.23.085-.507.102-.719-.006a.876.876 0 0 1-.271-.091.62.62 0 0 1-.366-.295.62.62 0 0 1-.07-.324c-.053-.335.123-.647.436-.738a.616.616 0 0 1 .076-.046c.431-.215.932.012 1.203.358.312.387.224.949-.289 1.142z"/><path fill="#FEC6AD" d="M195.234 212.497a.575.575 0 0 1-.401.455.621.621 0 0 1-.041.102c-.071.147-.3.216-.454.165-.341-.114-.624-.375-.589-.728a.282.282 0 0 1-.053-.176c.041-.346.295-.471.548-.46a.806.806 0 0 1 .306-.079.662.662 0 0 1 .684.721z"/><path fill="#96551E" d="M67.019 156.822c-.041.017-.083.023-.124.034-.383.233-.848.335-1.279.227-.748-.187-1.149-.965-1.007-1.669.265-1.284 1.862-2.227 3.058-1.409 1.155.795.519 2.403-.648 2.817z"/><path fill="#FEC6AD" d="M70.909 159.685a1.24 1.24 0 0 1-.29.495c-.306.539-.919.88-1.602.556-.884-.42-1.203-1.709-.501-2.408.43-.432 1.178-.579 1.727-.295.607.306.842 1.039.666 1.652z"/><path fill="#FADBD7" d="M72.223 155.516a1.629 1.629 0 0 1-.047.296c-.112.392-.295.84-.778.897a.708.708 0 0 1-.678-.318.505.505 0 0 1-.094-.068.356.356 0 0 1-.094-.154 1.534 1.534 0 0 1-.224-.34c-.313-.71.288-1.239.972-1.364.413-.073.902.018 1.031.461.053.193.012.397-.088.59z"/><path fill="#fff" stroke="#96551E" stroke-linecap="round" stroke-linejoin="round" stroke-miterlimit="10" d="M49.604 183.706s-6.718-6.135.065-13.712c-.006 0 7.378 6.776-.065 13.712zm118.886-3.09s-.442 6.623 7.467 6.742c0-.006 3.076-5.606-7.467-6.742zm18.782-107.71s5.782 4.198 10.685-2.88c.006-.005-5.758-5.56-10.685 2.88zm-54.083 9.378s-6.683-3-2.363-11.099c0 0 7.426 3.43 2.363 11.099z"/></g></svg>